<svg xmlns="http://www.w3.org/2000/svg" width="147.676" height="110.275" viewBox="0 0 147.676 110.275">
  <g id="Group_10" data-name="Group 10" transform="translate(-595.917 -265.273)">
    <path id="Path_45" data-name="Path 45" d="M720.174,375.548a2.755,2.755,0,0,1-.611-.091,3.4,3.4,0,0,1-.633-.256,2.551,2.551,0,0,1-.994-1.159,1.847,1.847,0,0,1-.187-.779c0-.025-.028-.394-.028-.422v-.817l-.055-2.916c-.022-2.239.011-4.015.039-5.064-.532,0-1.069.008-1.622.03l-10.188.254s-16.243.768-17.389.815c-.988.027-2.023.085-3.034.14-.708.039-1.4.052-2.095.063l-13.6.276-13.627-.276c-.7-.011-1.388-.024-2.092-.06-1.14-.064-2.1-.119-3.06-.143-2.04-.083-4.045-.168-6.024-.284-2.511-.107-4.976-.226-7.366-.341l-3.99-.19-10.166-.254c-.559-.022-1.1-.027-1.635-.03.022,1.049.038,2.822.014,5.053,0,.9,0,1.891-.028,2.94l-.028.8v.422a3.257,3.257,0,0,1-.146.658,2.577,2.577,0,0,1-1.007,1.247,3.558,3.558,0,0,1-.722.3,1.47,1.47,0,0,1-.465.053c-.826.013-1.4.013-1.98.013s-1.187,0-1.784-.013c-1.181-.031-2.39-.058-3.6-.058-1.234-.055-2.415-.083-3.569-.11-.68-.031-1.261-.058-1.845-.058l-.927-.061-.369,0a3.022,3.022,0,0,1-.716-.105,2.288,2.288,0,0,1-1.272-.837,1.954,1.954,0,0,1-.391-.644,4.033,4.033,0,0,1-.149-.562,6.755,6.755,0,0,1-.2-.818,8.018,8.018,0,0,1-.148-.837c-.168-1.029-.284-2.065-.342-2.984-.115-1.914-.11-3.489-.085-4.475.027-.782.055-1.335.08-1.583a3.533,3.533,0,0,1-.05-.98c.011-.182.036-.38.061-.592.03-.251.066-.524.082-.813a16.448,16.448,0,0,0-.14-1.814c-.085-.711-.171-1.537-.256-2.412-.05-.521-.76-9.569-.76-9.569L600.92,344c-.135-1.845-.278-3.792-.38-5.835-.129-2.641-.149-5.6-.058-9.037.031-.782.039-1.57.044-2.371.009-.779.014-1.569.042-2.373s.088-1.63.17-2.487l.075-.49c.041-.25.08-.493.1-.71l.094-.523c.049-.284.1-.57.173-.871a6.533,6.533,0,0,1,.49-1.426l.68-.044-.5-.253.14-.281c.091-.179.207-.388.33-.6.46-.754.917-1.47,1.405-2.156l.407-.584a24.563,24.563,0,0,0,2.137-3.422c.176-.35.333-.664.463-1l1.266-3.464,1.614-4.1,2.511-6.068c.352-.835.7-1.63,1.057-2.429l.386-.881.707-1.547c1.044-2.286,2.057-4.505,3.142-6.609,1.333-2.607,2.792-5.069,3.965-7.046l.413-.691a48.274,48.274,0,0,1,3.321-5.1,19.046,19.046,0,0,1,1.941-2.228,6.834,6.834,0,0,1,2.178-1.495,7.573,7.573,0,0,1,3.046-.652c.137,0,.269,0,.393.011.121-.042.3-.1.311-.1a14.388,14.388,0,0,1,3.285-.653c1.124-.121,2.25-.226,3.39-.333.972-.091,1.955-.182,2.957-.286,4.519-.322,9.015-.515,13.388-.568l1.726-.027h1.721l10.29.055,6.922-.028c1.149,0,2.266,0,3.412-.027H681.8c.581.027,1.137.027,1.69.027,4.4.053,8.9.246,13.407.568,1.038.107,2.054.2,3.062.3,1.11.1,2.208.2,3.3.322a16.215,16.215,0,0,1,3.274.647,1.543,1.543,0,0,1,.35.11l.366-.013a7.386,7.386,0,0,1,3.032.658,7.951,7.951,0,0,1,1.107.6,7.1,7.1,0,0,1,.572.441c.168.162.32.289.474.418a18.691,18.691,0,0,1,1.985,2.269,52.435,52.435,0,0,1,3.23,4.99l.471.787c1.17,1.974,2.627,4.431,3.993,7.046.652,1.283,1.3,2.641,1.927,3.971.647,1.388,1.272,2.773,1.892,4.188l.6,1.324.677,1.581,3.076,7.393c.429,1.113,2.095,5.493,2.095,5.493l.427,1.19a9.009,9.009,0,0,0,.421.95A27.325,27.325,0,0,0,735.2,313.7l.584.859c.482.677.969,1.4,1.4,2.148.16.259.317.537.477.826l.17.3a8.271,8.271,0,0,1,.51,1.467,11.566,11.566,0,0,1,.237,1.352l.17,1.226c.113.848.144,1.674.171,2.469.041,1.129.052,2.2.066,3.252l.022,1.526c.116,3.238.108,6.283-.027,9.034-.108,1.779-.234,3.478-.356,5.1l-.212,2.944c-.168,2.453-.338,4.741-.509,6.746,0,0-.182,2.183-.223,2.808-.063.658-.14,1.27-.209,1.829l-.077.6-.055.633c-.042.438-.08.843-.08,1.214l.052.4a8.449,8.449,0,0,1,.088,1.008,2.264,2.264,0,0,1-.027.639,1.484,1.484,0,0,1-.061.487l.077.256.039,1.14c.027.978.035,2.545-.086,4.478a24.044,24.044,0,0,1-.347,3.028,7.223,7.223,0,0,1-.143.807,4.545,4.545,0,0,1-.124.631l-.655.292.556.1c-.005.022-.063.273-.071.295a2.926,2.926,0,0,1-.408.685,2.443,2.443,0,0,1-1.338.849,2.5,2.5,0,0,1-.653.1h-.451l-.821.055c-.608,0-1.192.03-1.8.061-1.248.027-2.429.055-3.613.11-1.231,0-2.437.027-3.618.058-.611.013-1.214.013-1.809.013h-.014c-.578,0-1.148,0-1.7.014h-.157Zm-104.418-2.426c.735,0,1.473.033,2.2.066l1.272.047.856.143-.534-.184a.977.977,0,0,1,.082-.314l-.027-.124.088-.843c.083-1.01.171-2,.253-2.9.2-2.18.427-3.907.568-4.959-.452.011-.9.028-1.355.044-1.619.064-2.968.119-4.238.177-1.189.049-2.3.066-3.334.066s-1.966-.014-2.836-.03l-3.976-.064a3.967,3.967,0,0,1-1.011-.176c-.1-.03-.193-.063-.286-.1.113,1.046.283,2.511.556,4.273.14.892.308,1.837.531,2.809l.2.763a7.172,7.172,0,0,0,.206.71l-.421.515.509-.242a1.507,1.507,0,0,0,.716.129h.917c.6,0,1.2,0,1.8.028h.038c1.068,0,2.208.027,3.332.052,1.47.033,2.687.063,3.877.118Zm103.256-9.075c.13,1.049.336,2.778.54,4.961,0,0,.231,2.28.284,2.914l.055.773c0,.02.033.268.033.287.036.022.215.294.245.325l1.377-.119c.74-.033,1.5-.066,2.269-.066,1.162-.055,2.379-.085,3.593-.113l.308-.005c1.113-.028,2.228-.052,3.316-.052.6-.028,1.2-.028,1.776-.028H733.9a3.011,3.011,0,0,0,.4-.014l.688.072-.485-.309s.24-.771.292-.919l.149-.7c.223-.97.416-1.909.529-2.8.278-1.787.473-3.26.583-4.293-.068.028-.14.055-.212.08a4.317,4.317,0,0,1-.985.19l-1.113.036-6.2.058c-.925,0-1.9-.014-2.935-.058-.7-.022-1.429-.058-2.186-.1C721.328,364.121,720.185,364.063,719.012,364.047Zm-115.619-1.473a1.246,1.246,0,0,0,.526.28l.286.066a3.079,3.079,0,0,0,.531.053l.97-.055,4.045-.146c1.5-.053,3.183-.11,5.036-.276l1.58-.148c2.024-.2,4.318-.422,6.757-.422l2.561-.022c1.9-.019,3.874-.041,5.928-.041l2.063.008c2.09.066,11.4.312,11.4.312l.7.022c1.749.049,3.519.1,5.312.173,2.032.058,4.056.116,6.132.143,4.15.083,8.321.141,12.52.2,4.307-.057,8.473-.115,12.556-.2l3.068-.058,9.081-.28s9.276-.246,11.361-.312l2.076-.008c2.07,0,4.061.022,5.969.041l2.517.022c2.442,0,4.739.224,6.763.422l1.575.148c1.836.182,3.5.232,4.962.276l4.091.143c.375.03.7.058.964.058a1.893,1.893,0,0,1,.311-.028c.028,0,.256-.03.284-.03a1.712,1.712,0,0,1,.336-.058,1.249,1.249,0,0,0,.41-.27.635.635,0,0,1,.138-.176.748.748,0,0,1,.049-.173c0-.028-.005-.157-.005-.2a4.155,4.155,0,0,0-.039-.438l-.1-.567c-.052-.272-.113-.578-.162-.914a14.987,14.987,0,0,1-.006-2.029s.1-1.925.11-2.412c0-.862.028-1.8.058-2.82q.087-3.041.168-6.765.129-3.73.253-8.01c.061-2.894-.063-5.967-.2-8.869l-.08-2.889a.478.478,0,0,1-.033-.179v-.509a3.024,3.024,0,0,0-.019-.446,6.161,6.161,0,0,0-.03-.634,22.71,22.71,0,0,0-.2-2.337l-.044-.3c-.1-.656-.2-1.349-.341-1.922a5.388,5.388,0,0,0-.3-.895c-.146-.289-.328-.6-.509-.909-.416-.716-.857-1.349-1.325-2.012l-.457-.645a27.888,27.888,0,0,1-2.351-3.717c-.177-.375-.369-.818-.537-1.209l-1.295-3.555c-.561-1.547-1.123-3.064-1.712-4.557l-.548-1.363c-1.022-2.547-2.03-5.061-3.057-7.475l-1.8-4.166c-.639-1.5-1.176-2.751-1.768-3.954-1.173-2.457-2.4-4.753-3.651-7.088l-.754-1.4a46.561,46.561,0,0,0-2.545-4.386,23.806,23.806,0,0,0-1.682-2.154l-.419-.415a4.744,4.744,0,0,0-.374-.353c-.22-.16-.449-.308-.683-.446a15.277,15.277,0,0,1,1.418,1.958l.2.3c.295.476,1.473,2.467,1.473,2.467.463.809.893,1.6,1.289,2.373a.565.565,0,0,1-.5.824.554.554,0,0,1-.364-.135l-2.563-2.17-.71-1.085-.623-1a16.9,16.9,0,0,0-1.616-2.132c-1.151-1.2-2.988-1.509-4.8-1.66l-6.342-.507c-3.7-.22-7.9-.355-13.189-.421h-3.4c-1.116.03-2.277.03-3.412.03l-6.9.086-7.019-.086c-1.121,0-2.222,0-3.351-.03l-3.7.006c-4.488.088-8.726.17-12.892.415l-6.3.507a14.377,14.377,0,0,0-2.748.485,4.6,4.6,0,0,0-1.167.49,3.848,3.848,0,0,0-.892.7,12.506,12.506,0,0,0-1.465,1.911l-.653,1.011c-.237.377-.468.746-.721,1.115l-2.294,1.589a.563.563,0,0,1-.818-.719c.256-.52.545-1.035.859-1.583.455-.823.942-1.652,1.487-2.481a17.038,17.038,0,0,1,1.589-2.255,5.317,5.317,0,0,0-1.457,1.214,19.521,19.521,0,0,0-1.676,2.151A45.931,45.931,0,0,0,624.039,277l-.785,1.454c-1.071,1.991-2.407,4.471-3.651,7.079-.59,1.2-1.127,2.459-1.685,3.761l-1.889,4.37c-1.209,2.839-2.418,5.821-3.6,8.833-.592,1.493-1.181,3.01-1.746,4.555l-1.267,3.494a8.174,8.174,0,0,1-.572,1.288,30.14,30.14,0,0,1-2.432,3.869l-.333.474c-.473.669-.914,1.3-1.3,1.963-.124.187-.449.754-.449.754a4.645,4.645,0,0,0-.419,1.091c-.082.328-.134.68-.19,1.054l-.077.485c-.035.22-.071.435-.088.655-.113.81-.168,1.551-.223,2.322l-.049,1a.478.478,0,0,1,.019.174l-.03.537-.119,3.285c-.11,3.023-.215,5.881-.187,8.6.069,1.759.118,3.466.165,5.1l.168,5.92c.039,1.324.075,2.577.091,3.75l.083,2.812c0,.55.033,1.051.063,1.528l.05.862a15.428,15.428,0,0,1,0,2.026c-.044.292-.1.537-.143.766a5.8,5.8,0,0,0-.111.633,2.852,2.852,0,0,0-.057.7c0,.036-.006.121-.006.127l.022.168A.71.71,0,0,1,603.393,362.574Z" fill="#323a52"/>
    <path id="Path_46" data-name="Path 46" d="M605.948,362.582c.947-.669,2.324-1.55,4-2.624.928-.59,1.858-1.151,2.841-1.743.989-.62,2-1.242,3.1-1.889.539-.3,1.079-.622,1.627-.945.567-.333,3.45-1.988,3.45-1.988a16.288,16.288,0,0,0,1.616-1.046,6.113,6.113,0,0,0,2.278-2.663,3.071,3.071,0,0,0,.06-1.575,6.682,6.682,0,0,0-.57-1.663c-.14-.327-.311-.672-.484-1.01l-.309-.628c-.253-.562-.506-1.1-.763-1.608-.509-1.016-1.016-1.977-1.495-2.853-1.057-1.842-1.913-3.23-2.547-4.13-.093-.132-.184-.256-.272-.374q.16.148.338.33a32.7,32.7,0,0,1,3.087,3.789c.589.842,1.209,1.74,1.8,2.753.284.507.595,1.041.9,1.553.135.259.744,1.33.9,1.628a9.16,9.16,0,0,1,.746,1.911,4.209,4.209,0,0,1-.052,2.321,2.812,2.812,0,0,1-.124.333l-.221.476a10.134,10.134,0,0,1-.787,1.148,13.049,13.049,0,0,1-1.614,1.474c-.52.369-1.046.677-1.591,1,0,0-1.567.859-1.944,1.077-.633.347-1.289.688-1.936,1.024l-1.47.774c-1.1.6-2.2,1.153-3.238,1.663-.777.41-1.531.785-2.244,1.137l-.664.33c-1.278.639-2.415,1.165-3.348,1.6,0,0-1.352.625-1.487.685C605.7,362.744,605.846,362.648,605.948,362.582Zm126.471-.457c-.922-.427-2.037-.942-3.3-1.562-.9-.451-1.862-.93-2.9-1.467-1.016-.51-2.112-1.068-3.213-1.663,0,0-2.6-1.352-3.439-1.8-.529-.322-1.09-.614-1.652-.911a18.369,18.369,0,0,1-1.853-1.165,10.092,10.092,0,0,1-1.614-1.473,5.578,5.578,0,0,1-.663-.912,4.936,4.936,0,0,1-.246-.46c-.074-.154-.123-.275-.17-.393a4.765,4.765,0,0,1-.132-2.511,9.228,9.228,0,0,1,.776-1.911c.157-.3.763-1.369.9-1.636.281-.507.592-1.038.9-1.542.592-1.016,1.181-1.914,1.773-2.759a31.2,31.2,0,0,1,3.112-3.786c.115-.113.223-.22.325-.317-.091.113-.185.232-.281.355-.468.694-1.41,2.14-2.523,4.136-.509.873-.988,1.834-1.5,2.853-.254.512-.507,1.046-.763,1.611-.127.27-.691,1.368-.815,1.633a8.146,8.146,0,0,0-.576,1.665,3.11,3.11,0,0,0,.086,1.567,5.927,5.927,0,0,0,2.282,2.668,15.261,15.261,0,0,0,1.592,1.049l1.748.989c.595.333,1.176.674,1.749,1.013.539.32,1.071.633,1.6.934l.463.278c.908.545,1.789,1.076,2.635,1.605.986.6,1.916,1.156,2.762,1.693l1.093.708c1.206.782,2.227,1.443,2.99,1.966l.314.218C733.87,362.788,732.419,362.125,732.419,362.125Zm4.45.454M604.04,360.423c.027-.947.063-2.082.138-3.365.044-.746.1-1.542.17-2.39l.055-.735c.094-1.231.174-2.324.281-3.467l.157-1.418c.08-.754.163-1.52.267-2.3q.212-1.9.507-3.8l.592-3.806c.223-1.264.449-2.505.7-3.687.14-.845.325-1.668.5-2.459l.488-2.178.424-1.814a21.356,21.356,0,0,1,1.564-4.422l.308-.471a5.7,5.7,0,0,0,.331-1.647,39.022,39.022,0,0,0-7.886,3.6l.179-.3a.146.146,0,0,0,.066-.113,66.978,66.978,0,0,1,7.577-3.541,18.474,18.474,0,0,0-.162-3.778,17.093,17.093,0,0,1-.171-4.342,8.214,8.214,0,0,1,.22-1.107c.006-.011.251-.823.251-.823a15.819,15.819,0,0,1,3.5-5.694l.487-.579.333.612.485.815c.534.9,1.057,1.787,1.6,2.657.451.735.757,1.231,1.1,1.7.366.564.76,1.1,1.156,1.635a17.433,17.433,0,0,0,2.817,2.847,11.457,11.457,0,0,0,1.68,1.113,13.482,13.482,0,0,0,1.858.8c.614.254,1.237.479,1.889.7l.411.141-.405-.124c-.653-.168-1.3-.367-1.941-.59a16.107,16.107,0,0,1-1.909-.729,10.941,10.941,0,0,1-1.806-1.03,16.728,16.728,0,0,1-3.021-2.767c-.451-.51-.9-1.041-1.291-1.57-.424-.564-.815-1.1-1.209-1.66-.457-.645-.884-1.272-1.31-1.906l-.469-.688a10.412,10.412,0,0,0-1.9,2.665,7.971,7.971,0,0,0-.942,2.462l-.071.3s-.08,1.112-.091,1.4c-.028,0-.055-.008-.074-.008s-.047.011-.047.05c0,.542.027,1.137.085,1.707.006.6.061,1.33.119,2.137.159,2.238.36,5.025-.251,6.74a3.438,3.438,0,0,1-.187.427,7.969,7.969,0,0,0-.243.859,36.318,36.318,0,0,0-.93,3.869c0,.077.033.388.11.388a4.634,4.634,0,0,0,.834.548c.427.245.859.476,1.3.716l.776.407.647.422.876.539a10.69,10.69,0,0,0,1.806.832c.281.074.372.1.474.118.046,0,.143-.008.168-.046s.088-.072.071-.116c-.085-.229-.2-.512-.341-.826l-.394-.953c-.4-.933-.79-1.861-1.154-2.792a4.582,4.582,0,0,1-.223-.578,5.361,5.361,0,0,1-.559-2.4l.155-.352a4.576,4.576,0,0,1,1.029-.964c.234-.127.485-.239.736-.35a6.213,6.213,0,0,1,1.018-.33,4.561,4.561,0,0,1,.774-.154,22.769,22.769,0,0,1,2.379-.124c.942.019,1.834.038,2.729.038l1.005-.008-3.739.138a16.81,16.81,0,0,0-2.077.171,9.9,9.9,0,0,0-1,.231,6.128,6.128,0,0,0-.909.355c-.013.006-.267.146-.278.157-.066.022-.206.127-.2.2s-.017.123.008.148l-.237-.082a1.947,1.947,0,0,0-.82.826l-.094.369a1.6,1.6,0,0,0,.088.465,8.124,8.124,0,0,0,.344.944c.342.749.714,1.507,1.083,2.264l1.346,2.775c.1.2.2.411.306.656a1.5,1.5,0,0,1,.049.79l-.1.267c-.03.028-.1.107-.1.149a.151.151,0,0,1-.008.06c-.091.017-.642.143-.642.143h-.121a2.039,2.039,0,0,1-.4-.033,5.617,5.617,0,0,1-.655-.151,11.99,11.99,0,0,1-2.063-.818c-.333-.165-.641-.333-.95-.5l-.779-.473c-.694-.344-1.341-.658-1.985-.992-.325-.179-.622-.341-.95-.559a4.233,4.233,0,0,1-.545-.407c-.075-.113-.124-.176-.2-.306a1.333,1.333,0,0,1-.066-.437l.083-.339c.063-.32.308-1.751.308-1.751-.33.11-.358.256-.388.432l-1.181,6.482-.658,4.069c-.176,1.138-.35,2.272-.5,3.409-.2,1.267-.369,2.536-.537,3.808l-.108.8c-.132.989-.261,1.958-.371,2.891-.1.744-.188,1.471-.268,2.176l-.523,4.394C604.268,358.358,604.144,359.484,604.04,360.423Zm131.05-3.332c-.113-.961-.226-2-.336-3.1q-.215-1.653-.424-3.47c-.1-.718-.2-1.456-.289-2.208l-.19-1.487c-.193-1.434-.352-2.621-.537-3.811l-.179-1.178c-.129-.878-.259-1.754-.416-2.632l-.592-3.66s-.5-2.841-.589-3.414l-.567-3.076c-.11-.556-.231-1.085-.353-1.583a12.918,12.918,0,0,0,.276,2.9l.058.378c0,.011-.033.294-.033.3l-.188.339a2.109,2.109,0,0,1-.586.471,7.084,7.084,0,0,1-.953.559c-.625.338-1.269.65-1.858.93l-.89.543-.95.5a11.989,11.989,0,0,1-2.026.809c-.212.058-.394.108-.554.138a3.292,3.292,0,0,1-.52.061c-.014-.006-.372-.036-.386-.036s-.349-.176-.363-.182c-.025.022-.05.041-.072.064l-.058-.207-.129-.267a1.226,1.226,0,0,1,.047-.68,6.1,6.1,0,0,1,.344-.837l.611-1.212.567-1.17c.422-.865.846-1.732,1.215-2.588a7.768,7.768,0,0,0,.369-.948l.088-.426c-.006-.009-.1-.411-.105-.419a2.75,2.75,0,0,0-.559-.65c-.124-.077-.226-.157-.316-.225a.3.3,0,0,0-.152-.042.112.112,0,0,0-.055.011.365.365,0,0,0-.124.075c.069-.21-.022-.251-.121-.3a5.572,5.572,0,0,0-1.126-.457,8.623,8.623,0,0,0-.967-.226,16.647,16.647,0,0,0-1.988-.17l-3.857-.141,1.035.008c.9,0,1.787-.019,2.69-.038H719c.735,0,1.427.027,2.118.085a6.512,6.512,0,0,1,1.043.19,6.332,6.332,0,0,1,1.027.333l.686.328a3.355,3.355,0,0,1,.947.837,2.332,2.332,0,0,1,.3.507,6.457,6.457,0,0,1-.454,2.1c-.27.713-.562,1.4-.848,2.09-.22.523-.438,1.043-.647,1.569l-.763,1.776c-.019.055.053.1.094.141a.164.164,0,0,0,.11.03.25.25,0,0,0,.1-.019,1.318,1.318,0,0,0,.236-.055,11.5,11.5,0,0,0,1.994-.879l1.308-.823.333-.2c.785-.418,1.38-.729,1.972-1.071a8.351,8.351,0,0,0,.834-.542c0-.017.08-.4.074-.416a35.113,35.113,0,0,0-.9-3.858l-.113-.391a4.287,4.287,0,0,0-.176-.52l-.441-1.162a24.668,24.668,0,0,1,.085-7.454,3.785,3.785,0,0,0,.058-.553l.036-.281a3,3,0,0,0,.019-.311,8.069,8.069,0,0,0,.028-1.195c0-.025-.011-.033-.025-.033a.068.068,0,0,0-.019,0c-.017-.286-.047-.6-.1-.938l-.016-.353-.072-.3c-.008-.05-.06-.163-.11-.179-.027-.008-.061-.03-.091-.041.108-.025.077-.13.025-.259l-.074-.284a12.6,12.6,0,0,0-.747-1.812,15.23,15.23,0,0,0-1.679-2.673,11.392,11.392,0,0,0-1.427,1.8l-.547.8c-.394.559-.788,1.1-1.209,1.657-.463.587-.862,1.088-1.289,1.57a17.926,17.926,0,0,1-3.048,2.77,9.729,9.729,0,0,1-1.784,1.03,15.824,15.824,0,0,1-1.9.727c-.65.225-1.294.424-1.939.589l-.727.223.692-.237c.655-.226,1.307-.451,1.927-.707a15.374,15.374,0,0,0,1.845-.793,12.7,12.7,0,0,0,1.685-1.116,16.232,16.232,0,0,0,2.787-2.841c.426-.537.823-1.077,1.192-1.647.366-.534.735-1.1,1.074-1.7.732-1.123,1.409-2.282,2.087-3.469l.374-.6.471.565a17.208,17.208,0,0,1,2.492,3.469,14.735,14.735,0,0,1,.922,1.985s.257.8.259.8a8.262,8.262,0,0,1,.292,1.349,15.2,15.2,0,0,1-.146,3.96l-.049.391c-.116,1.156-.226,2.263-.226,3.285v.369l.03.487a1.577,1.577,0,0,0,.03.364,5.321,5.321,0,0,0,.257,1.25,3.242,3.242,0,0,1,.319.5,19.657,19.657,0,0,1,1.567,4.428c.22.793.415,1.649.627,2.566l.259,1.187c.185.861.378,1.767.554,2.693l.14.737c.187.956.377,1.944.532,2.952.228,1.242.424,2.509.619,3.806l.51,3.8.055.488c.121,1.1.239,2.175.338,3.229.127,1.08.207,2.112.284,3.1l.027.366c.072.95.122,1.839.168,2.671l.028.454c.072,1.234.11,2.327.143,3.252C735.355,359.391,735.231,358.306,735.09,357.091ZM668.932,343.3c-.416-.017-.6-.025-.774-.047l-.4-.042-.383-.071a6.665,6.665,0,0,1-3.04-1.374,4.682,4.682,0,0,1-1.17-1.41,4.018,4.018,0,0,1-.487-1.867l.03-.446c.017-.132.058-.344.1-.512a1.682,1.682,0,0,1,.108-.353,3.071,3.071,0,0,1,.25-.553,4.773,4.773,0,0,1,1.165-1.413,6.687,6.687,0,0,1,3.04-1.374,8.443,8.443,0,0,1,1.638-.156,8.927,8.927,0,0,1,1.358.1,8.812,8.812,0,0,1,2.536.766c.228.113.446.231.649.355a5.768,5.768,0,0,0-.691-.264,7.407,7.407,0,0,0-2.263-.358,9.041,9.041,0,0,0-2.974.5,6.674,6.674,0,0,0-2.39,1.438,3.778,3.778,0,0,0-.779,1.073,1.567,1.567,0,0,0-.13.3l-.091.292-.063.462a3.311,3.311,0,0,0,1.06,2.421,6.593,6.593,0,0,0,2.393,1.445,8.842,8.842,0,0,0,1.341.361c.135.027.286.044.438.06.41.047.564.055.718.064l.413.014a7.585,7.585,0,0,0,2.33-.364,6.465,6.465,0,0,0,.683-.262c-.207.124-.421.243-.644.35a8.967,8.967,0,0,1-2.525.763c-.309.041-.5.066-.725.08l-.605.027Zm17.413-19.242c-1.622-.03-3.392-.135-5.262-.311-1.837-.141-3.673-.281-5.59-.394-1.569-.093-3.155-.149-4.747-.149h-1.98c-1.608,0-3.2.056-4.766.149-1.861.113-3.753.253-5.556.394-1.9.176-3.674.281-5.265.311-.438.014-.859.019-1.269.019s-.81-.005-1.2-.019c-.539-.022-1.065-.066-1.577-.11l-.7-.058c-1.462-.143-2.784-.314-3.968-.482l-.316-.052c-1.049-.174-1.961-.322-2.729-.427l-.631-.107c.207.005.427.013.661.022l1.275.069c1.556.088,3.511.2,5.749.239a3.729,3.729,0,0,1,.628.028l.5,0c1.272-.033,2.363-.063,3.505-.14,1.451-.124,2.938-.289,4.489-.46l1.263-.149c1.63-.2,3.329-.418,5.075-.52,1.914-.113,3.855-.171,5.832-.2,1.938.027,3.91.085,5.824.2,1.913.143,3.8.366,5.6.592l.416.044c1.657.185,3.266.361,4.777.493,1.248.083,2.434.14,3.563.14l.347-.264a.558.558,0,0,0,.43.248.58.58,0,0,0,.126-.017c2.426-.038,4.4-.148,5.964-.236l1.262-.069.561-.014c-.179.03-.369.063-.567.1-.837.11-1.856.281-3.015.479-1.179.165-2.5.336-3.965.479l-.7.058c-.515.044-1.041.088-1.577.11-.408.014-.816.019-1.226.019S686.766,324.077,686.345,324.063Zm43.089-22.1a.2.2,0,0,0,.058.019c-.013.006-.027.014-.041.019Zm-119.471-.03a3.719,3.719,0,0,1,1-2.977,13.061,13.061,0,0,0-2.668-.182c-.3,0-1.68.022-2.073.022s-.8,0-1.22-.019c-.821,0-1.721,0-2.622-.03-1.005-.03-1.91-.058-2.816-.113-.485,0-.961-.028-1.438-.055h-.4a.141.141,0,0,0-.138.107.145.145,0,0,0,.074.16,7.432,7.432,0,0,0,1.093.4l1.8.449c.3.074.584.146.892.2.873.2,1.746.369,2.566.509l.87.143c.5.083.989.163,1.441.251a15.647,15.647,0,0,1,1.955.5,7.984,7.984,0,0,1,1.374.534c-.474-.129-.923-.226-1.413-.325-.606-.088-1.256-.171-1.963-.228l-.9-.061c-.471-.028-.961-.058-1.471-.107l-.349-.036c-.719-.077-1.49-.157-2.261-.3-.341-.041-.7-.113-1.046-.182l-.364-.071c-.487-.091-.941-.174-1.4-.306a8.81,8.81,0,0,1-1.468-.556l-.358-.223-.314-.276a1.237,1.237,0,0,1-.325-.713.92.92,0,0,1,.1-.4,1.118,1.118,0,0,1,.295-.35c.041-.013.181-.093.2-.134a.313.313,0,0,1,.044-.072,1.481,1.481,0,0,0,.325.039l.262-.02,2.379.135,2.792.2c.9.085,1.8.168,2.618.225.846.086,5.155.565,5.155.565l.019-.028c.008.031.022.053.042.055a6.207,6.207,0,0,1,.828.111,2.674,2.674,0,0,0,.306.019.11.11,0,0,0-.03.022,2.781,2.781,0,0,0-1.091,2.629.088.088,0,0,0,.028.053l-.223.482C610.034,301.955,610,301.939,609.963,301.928Zm119.931-.108a7.956,7.956,0,0,1,1.344-.52,15.865,15.865,0,0,1,1.936-.5c.449-.085,2.337-.394,2.337-.394.821-.14,1.666-.311,2.542-.509.33-.061.65-.138.986-.221l1.7-.429a5.362,5.362,0,0,0,1.1-.4l-.46-.264c-.484.027-.961.055-1.437.055-.964.058-1.892.085-2.814.113s-1.779.03-2.624.03c0,0-.824.019-1.217.019s-.774,0-1.124-.019c-1.423,0-2.607-.03-3.45-.055.174-.025.358-.044.556-.061,0,0,0-.024.009-.055a.142.142,0,0,0,.046.028l5.133-.565c.837-.057,1.707-.14,2.605-.223l2.83-.2s2.228-.115,2.3-.115c.13,0,.378.011.424.011a.532.532,0,0,0,.262-.05l.2.215a.632.632,0,0,1,.281.322.935.935,0,0,1,.107.435.951.951,0,0,1-.25.642l-.3.264a3.086,3.086,0,0,1-.349.237,7.515,7.515,0,0,1-1.567.611c-.457.132-.911.215-1.341.3l-.465.09c-.323.067-.65.133-.964.171-.807.152-1.6.234-2.36.311l-.286.031c-.488.049-.972.079-1.435.107l-.9.061c-.735.057-1.39.14-1.958.225C730.767,301.611,730.3,301.713,729.894,301.82Zm-.82-.727a2.225,2.225,0,0,0-.906-2.282.123.123,0,0,0-.055-.033l-.019-.044c.035-.009.06-.022.06-.047,0,.044.077.055.11.08a.091.091,0,0,0,.061.013c.038,0,.184-.03.22-.035a.155.155,0,0,0-.041.052.145.145,0,0,0,.027.154,2.867,2.867,0,0,1,.813,2.787Zm-66.106.468-6.793-.112-13.537-.309c-3.494-.085-6.991-.171-10.488-.226l-1.431-.085H618.9l-3.354.027c-.008.006-.038.042-.074.08l.088-.151,1.514-.014,5.216-.226,3.381-.082,3.411-.058c3.31-.041,6.636-.069,9.954-.069l3.6.011,13.564.116,6.792.082,6.771.028c4.48,0,8.963-.055,13.473-.107l6.856-.089,10.392-.041q4.969,0,9.962.069l3.382.058,3.414.082,5.185.226a.95.95,0,0,0,.124-.182l1.454.237a2.906,2.906,0,0,0,.148.265l.022.082-.052-.118-3.5-.226H717.7l-1.465.022a.089.089,0,0,0-.063-.022l-6.537.058c-4.262.055-8.492.137-12.748.253l-13.561.309c-4.513.085-9.051.143-13.559.17ZM611.535,298.8a.126.126,0,0,0-.083-.028.093.093,0,0,0-.024,0c.234-.355.432-.7.608-1.03l-.493,1.06Zm22.424-.65c-1.39-.088-2.737-.171-4.083-.281l-1.181-.08c-1.022-.074-2.046-.146-3.087-.146-.727-.027-1.454-.055-2.183-.143a5.422,5.422,0,0,1-2.143-.683l-.292-.146-.2-.176a1.433,1.433,0,0,1-.275-.262,3.606,3.606,0,0,1-.391-.515,1.963,1.963,0,0,1-.221-.437,4.665,4.665,0,0,1-.308-1.372,5.492,5.492,0,0,1,.03-1.184,15.95,15.95,0,0,1,1.3-4.163l.13-.311c.335-.815.677-1.608,1.04-2.42a6.106,6.106,0,0,0-1.269,1.938,63.332,63.332,0,0,0-2.77,6.7s-.432,1.3-.443,1.335c.113-.421.236-.867.374-1.33a60.248,60.248,0,0,1,2.473-6.84c.567-1.294,1.184-2.673,1.889-4.08.564-1.151,1.184-2.3,1.825-3.5l.482-.9c.537-1.043,1.1-2.112,1.721-3.21l2.1-1.394a.071.071,0,0,0,.036.009.975.975,0,0,0,.322-.116,7.94,7.94,0,0,1,1.347-.493,13.234,13.234,0,0,1,2.571-.474c1.691-.2,3.409-.369,5.152-.451,3.384-.2,6.818-.278,10.282-.361,5.13-.143,10.122-.184,15.128-.226l6.451-.063,6.438.063c5.006.042,9.992.083,14.926.221,3.646.088,7.08.17,10.483.366,1.718.113,3.436.253,5.152.451a13.276,13.276,0,0,1,2.541.474,6.8,6.8,0,0,1,1.25.443,3.139,3.139,0,0,1,.372.2.447.447,0,0,0,.187.046.109.109,0,0,0,.089-.03c.044-.055.126-.083.077-.132l2.318,2.294c.284.534,2.079,3.923,2.079,3.923.518.967,1.022,1.909,1.468,2.853.7,1.41,1.349,2.789,1.886,4.083a62.5,62.5,0,0,1,2.475,6.837c.121.411.237.8.342,1.179-.064-.193-.383-1.179-.383-1.179a63.146,63.146,0,0,0-2.77-6.7l-.353-.716c-.225-.465-.462-.95-.721-1.432a10.476,10.476,0,0,0,.815,2.627l.146.353a15.8,15.8,0,0,1,1.283,4.122,5.569,5.569,0,0,1,.058,1.189,2.212,2.212,0,0,1-.047.361l-.066.363c0,.006-.083.3-.083.3a3.2,3.2,0,0,1-1.484,1.881,5.533,5.533,0,0,1-2.15.688c-.735.085-1.454.113-2.142.14-1.094,0-2.151.078-3.186.152l-1.115.077c-1.385.113-2.762.2-4.117.281-.429.025-.859.049-1.286.071l1.3-.1c1.325-.085,2.707-.2,4.089-.311l1.33-.127c.953-.093,1.922-.192,2.919-.212a18.379,18.379,0,0,0,2.192-.17,5.539,5.539,0,0,0,2.051-.669,2.943,2.943,0,0,0,1.3-1.686l.138-.5a3.255,3.255,0,0,0,.066-.586,7.046,7.046,0,0,0-.058-1.091,16.666,16.666,0,0,0-1.357-4.039l-.146-.339c-.622-1.44-1.272-2.908-2.007-4.348-.705-1.44-1.44-2.907-2.228-4.35l-1.467-2.7-.317-.548-.168-.254c0-.005-.185-.22-.187-.223-.163-.157-.284-.275-.408-.374a5.918,5.918,0,0,0-2.17-.986,13.7,13.7,0,0,0-2.442-.427c-1.7-.168-3.39-.281-5.113-.336-3.439-.143-6.939-.225-10.466-.256-7.005-.113-14.178-.14-21.293-.168-7.214.028-14.376.055-21.425.168l-.355.006c-3.382.055-6.785.113-10.084.25-1.721.055-3.442.168-5.11.336a14.041,14.041,0,0,0-2.478.43,5.8,5.8,0,0,0-2.137.983,2.708,2.708,0,0,0-.768.859s-.471.8-.62,1.074c-.394.732-.79,1.462-1.184,2.167-.763,1.445-1.525,2.91-2.23,4.35s-1.385,2.908-2.005,4.348l-.148.342a15.514,15.514,0,0,0-1.33,4.039,4.591,4.591,0,0,0,.151,2.181,2.551,2.551,0,0,0,.5.972,2.143,2.143,0,0,0,.358.385l.438.322a5.62,5.62,0,0,0,2.054.667,17.83,17.83,0,0,0,2.134.17c1.013.02,1.972.116,2.921.21l1.724.157c1.267.1,2.509.206,3.753.283.463.036.925.072,1.388.1Q634.659,298.189,633.959,298.15Zm94.93-.567a5.617,5.617,0,0,1-.512-1.217,3.727,3.727,0,0,1-.11-.84,5.335,5.335,0,0,1-.006-.592l.006-.336a12.1,12.1,0,0,1,.361-2.052,4.275,4.275,0,0,1,.14-.528s.176-.529.176-.551l.171-.33a1.166,1.166,0,0,1,.251-.289,1.769,1.769,0,0,1,.616-.4,3.7,3.7,0,0,1,1.311-.3c.391-.028.84-.058,1.234-.058.845-.028,1.688-.028,2.53-.028l.606-.011a14.912,14.912,0,0,1,1.947.124,8.187,8.187,0,0,1,2.467.746,7.893,7.893,0,0,1,1.969,1.33,4.954,4.954,0,0,1,1.233,1.727,2.933,2.933,0,0,1,.27.919l.038.312a1.726,1.726,0,0,1-.035.548,3.165,3.165,0,0,1-.4,1.082c-.022.038-.044.071-.064.1a4.11,4.11,0,0,0,.237-1.214,1.593,1.593,0,0,0-.03-.369l-.055-.284a5.179,5.179,0,0,0-.383-.881,5.307,5.307,0,0,0-1.275-1.423,8.841,8.841,0,0,0-1.867-1.033,8.452,8.452,0,0,0-2.2-.578,23.625,23.625,0,0,0-2.447-.083h-3.72a3.187,3.187,0,0,0-1.016.182,1.073,1.073,0,0,0-.634.512c-.055,0-.005.014-.03.061l-.372.95a12.746,12.746,0,0,0-.542,1.908,8.246,8.246,0,0,0-.141.856,3.508,3.508,0,0,0,0,.793A6.322,6.322,0,0,0,728.889,297.583Zm-118.224-.119a7.533,7.533,0,0,0,.25-1.129,3.417,3.417,0,0,0,0-.8l-.143-.856a12.717,12.717,0,0,0-.57-1.914l-.093-.283-.193-.49a1.12,1.12,0,0,0-.135-.256.963.963,0,0,0-.587-.488,3.56,3.56,0,0,0-1.029-.179h-3.7a23.364,23.364,0,0,0-2.439.083,7.94,7.94,0,0,0-2.217.578,8.112,8.112,0,0,0-1.859,1.033,5.832,5.832,0,0,0-1.3,1.415,4,4,0,0,0-.328.807l-.088.275-.058.468a5.325,5.325,0,0,0,.226,1.165,3.707,3.707,0,0,1-.454-1.143,2.274,2.274,0,0,1-.025-.424l.025-.427a6.152,6.152,0,0,1,.275-.936,5.012,5.012,0,0,1,1.256-1.715,8.274,8.274,0,0,1,4.414-2.082,15.257,15.257,0,0,1,1.96-.124l.609.011c.848,0,1.693,0,2.508.028.413,0,.821.03,1.206.055a3.944,3.944,0,0,1,1.363.3,1.723,1.723,0,0,1,.609.394,1.267,1.267,0,0,1,.228.275l.176.311c0,.006.353,1.137.353,1.137a9.825,9.825,0,0,1,.328,2.046c.027.342.027.617.027.923a3.863,3.863,0,0,1-.132.831,5.252,5.252,0,0,1-.446,1.085Z" fill="#323a52"/>
  </g>
</svg>
