<svg xmlns="http://www.w3.org/2000/svg" width="245.937" height="111.991" viewBox="0 0 245.937 111.991">
  <g id="Group_9" data-name="Group 9" transform="translate(-932.948 -461.669)">
    <path id="Path_43" data-name="Path 43" d="M1048.081,572.956c-7.762-1.2-13.412-5.858-17.279-14.224-.58-1.255-.918-1.579-1.64-1.579a2.807,2.807,0,0,0-.4.032,3.269,3.269,0,0,1-.536.044,7.573,7.573,0,0,1-1.478-.2c-.208-.042-.415-.083-.61-.115a101.116,101.116,0,0,1-11.716-2.667c-1.506-.405-3.012-.812-4.525-1.192-12.225-3.016-24.514-4.936-37.31-6.829a25.122,25.122,0,0,1-7.47-1.9.749.749,0,0,1,.326-1.423c.034,0,.522.049.522.049a6.364,6.364,0,0,1,.7.08c13.627,1.764,29.756,4.072,46.08,7.826l8.269,1.9,2.629.651c1.176.309,2.341.691,3.5,1.076.624.205,1.245.41,1.876.605a4.083,4.083,0,0,1,.424.17.815.815,0,0,1,.224.124.733.733,0,0,1,.619-.328.714.714,0,0,1,.146.014l1.623.324a.745.745,0,0,1,.565.5,21.789,21.789,0,0,0,8.328,11.078,16.578,16.578,0,0,0,9.719,3.279,16.349,16.349,0,0,0,5.323-.911.753.753,0,0,1,.244-.039.731.731,0,0,1,.192.024l2.619.7a.586.586,0,0,1,.444.358c.036-.01.3-.073.331-.078a40.774,40.774,0,0,1,5.755-.417c.743,0,1.486.022,2.439.071a2.387,2.387,0,0,0,1.44-.451.772.772,0,0,1,.148-.078c.673-.463,1.357-.911,2.042-1.357a29.634,29.634,0,0,0,5.842-4.541c.146-.161.9-.921.972-1a.759.759,0,0,1-.136-.553.75.75,0,0,1,.741-.639l2.689.076a.748.748,0,0,1,.008,1.5c-.371.015-.639.129-.9.68a12.818,12.818,0,0,1-9.239,7.036,1.3,1.3,0,0,1,.144.209.752.752,0,0,1-.544,1.1l-1.98.3c-1.572.233-3.116.465-4.664.745a44.376,44.376,0,0,1-7.872.685A55.9,55.9,0,0,1,1048.081,572.956Zm66.908-85.335a.759.759,0,0,0,.631-.329.745.745,0,0,0,0-.84,19.653,19.653,0,0,0-3.706-3.828c-6.956-5.852-15.123-10.917-25.7-15.936-5.352-2.537-11.224-3.109-16.9-3.665l-1.333-.131a141.267,141.267,0,0,0-14.2-.792,86.062,86.062,0,0,0-11.936.78,2.14,2.14,0,0,1-.281.019,1.441,1.441,0,0,1-.421-.058,24.308,24.308,0,0,0-7.85-1.172,46.049,46.049,0,0,0-4.751.27c-2.809.288-5.618.556-8.427.824-9.451.9-19.221,1.834-28.762,3.452l-1.394.236c-6.778,1.143-13.785,2.325-20.324,5.105a42.765,42.765,0,0,0-12.262,7.56,2.792,2.792,0,0,0-.422.5.728.728,0,0,0-.263,1,.776.776,0,0,0,.687.393.788.788,0,0,0,.361-.088c.718-.373,1.442-.738,2.168-1.1,1.552-.782,3.16-1.591,4.693-2.49,7.759-4.553,16.426-6.544,24.631-8.02a308.678,308.678,0,0,1,38.081-4.145c1.187-.065,2.373-.16,3.56-.256,2.044-.163,4.156-.331,6.215-.331l.877.01c.909.024,1.82.127,2.734.229a30.287,30.287,0,0,0,3.323.246l.351-.005q2.829-.066,5.652-.066c5.947,0,11.843.232,17.52.69,10.806.87,19.815,3.757,27.549,8.824.962.631,1.936,1.243,2.911,1.855a64.573,64.573,0,0,1,7.282,5.04,63.5,63.5,0,0,0,9.2,6.045,2.2,2.2,0,0,0,.338.156A.794.794,0,0,0,1114.989,487.621Zm2.527,74.775c2.921,0,5.869-.217,8.717-.426,1.625-.119,3.25-.239,4.878-.319,1.608-.081,3.216-.151,4.824-.224,3.825-.169,7.777-.344,11.663-.639,2.989-.226,6.008-.6,8.927-.955,1.393-.17,2.789-.341,4.183-.5.161-.017.319-.044.477-.071a3.982,3.982,0,0,1,.648-.075.941.941,0,0,1,.412.08.731.731,0,0,0,.317.071.746.746,0,0,0,.473-.169,13.61,13.61,0,0,1,2.724-.677,14.7,14.7,0,0,0,3.043-.772l.635-.241a12.128,12.128,0,0,0,1.526-.651.749.749,0,0,0-.322-1.408c-.519-.022-1.035-.032-1.552-.032a47.839,47.839,0,0,0-7.475.636c-9.592,1.506-18.95,2.032-30.184,2.561-1.966.092-3.93.234-5.891.375-3.241.234-6.591.475-9.878.475-.811,0-1.62-.015-2.431-.046l-1.864-.076c-4.561-.185-9.275-.377-13.924-.377q-2.028,0-4.052.053c-1.749.046-3.5.115-5.243.185l-2.239.078a.788.788,0,0,0-.655.315.776.776,0,0,0-.039.794.755.755,0,0,0,.607.4,21.143,21.143,0,0,0,7.172,1l2.7-.022c3.66,0,7.383.168,10.981.331,3.487.156,7.092.32,10.65.329ZM942.507,534.134a.748.748,0,0,0,.573-1.23c-.19-.224-.368-.456-.548-.69a9.366,9.366,0,0,0-1.406-1.569c-3.5-2.906-4.982-6.929-4.8-13.042a69.265,69.265,0,0,0-.168-7.007,35.607,35.607,0,0,1,2.782-16.635c.575-1.343,1.591-2.152,3.506-2.8,6.084-2.042,10.457-4.826,13.746-8.754a.754.754,0,0,0,.28-.356.739.739,0,0,0-.029-.6.775.775,0,0,0-.594-.424.57.57,0,0,0-.093,0,.756.756,0,0,0-.468.154,27.942,27.942,0,0,0-4.051,2.258c-.658.414-1.314.829-1.986,1.214l-.646.37a26.247,26.247,0,0,1-7.36,3.289,7.587,7.587,0,0,0-5.687,5.36,45.39,45.39,0,0,0-2.492,18.141,24.885,24.885,0,0,1,.061,4.1,28.228,28.228,0,0,0,1.167,10.587,9.467,9.467,0,0,0,4.527,5.586c.355.21.706.429,1.057.651a21.888,21.888,0,0,0,2.31,1.325A.714.714,0,0,0,942.507,534.134Zm226.5-20.193a.748.748,0,0,0,.714-.972,10.863,10.863,0,0,0-3.794-5.06c-4.325-3.611-9.346-5.65-14.129-7.317-10.291-3.588-19.323-6.673-27.614-9.431a25.355,25.355,0,0,1-6.919-3.425.75.75,0,0,0-.563-.254.76.76,0,0,0-.3.061.747.747,0,0,0-.412.923.865.865,0,0,0,.083.178,11.808,11.808,0,0,0,6.956,5.553l3.871,1.318c6.7,2.285,13.639,4.649,20.5,6.866a67.016,67.016,0,0,1,17.832,8.637,25.144,25.144,0,0,1,3.25,2.709A.75.75,0,0,0,1169.009,513.941Zm4.907,41.85a.778.778,0,0,0,.258-.044c3.53-1.293,5.128-3.81,4.619-7.284a26.688,26.688,0,0,1-.151-4.5,31.406,31.406,0,0,0-.1-4.237c-.105-.95-.19-1.9-.273-2.858a35.028,35.028,0,0,0-1.918-10.123,1.847,1.847,0,0,0-.991-1.316.735.735,0,0,0-.317-.07.745.745,0,0,0-.746.823l.152,1.464c.377,3.721.738,7.232.855,10.833.044,1.32.056,2.643.068,3.966l.024,2.066c.005.375-.019.753-.044,1.131a7.036,7.036,0,0,0,.251,3.021,4.2,4.2,0,0,1-1.206,4.743c-.2.2-.4.422-.628.678l-.407.45a.748.748,0,0,0,.551,1.255Zm-216.43-2.461c.361,0,.721-.009,1.082-.026a22.284,22.284,0,0,0,5.789-1.284c2.514-.831,3.944-2.766,4.251-5.75a.749.749,0,0,0-.385-.731.732.732,0,0,0-.36-.093.748.748,0,0,0-.465.161,7.723,7.723,0,0,0-1.772,2.254,12.964,12.964,0,0,1-.709,1.1c-.8,1.05-1.525,1.705-2.638,1.705a3.466,3.466,0,0,1-.687-.07,9.849,9.849,0,0,0-1.82-.159,24,24,0,0,0-3.779.4l-.712.117a2.988,2.988,0,0,1-.567.073,1.32,1.32,0,0,1-.531-.11.743.743,0,0,0-.29-.058c-.02,0-1.306.1-1.306.1a.748.748,0,0,0-.229,1.437A13.123,13.123,0,0,0,957.486,553.33Zm190.392,14.117a21.825,21.825,0,0,0,4.941-.6,14.339,14.339,0,0,0,9.731-6.948.76.76,0,0,0,.207-.385.747.747,0,0,0-.266-.734.8.8,0,0,0-.489-.173.649.649,0,0,0-.139.015.846.846,0,0,0-.232.083,4.55,4.55,0,0,0-1.413.921c-.129.109-.256.219-.39.321a19.83,19.83,0,0,1-12.135,4.449h0a22.561,22.561,0,0,1-10.228-2.707.752.752,0,0,0-.47-.165.732.732,0,0,0-.495.187.748.748,0,0,0-.1,1.009.964.964,0,0,0,.151.158A15.939,15.939,0,0,0,1147.878,567.447ZM949.914,552.7a.731.731,0,0,0,.521-.2l.025-.024a.749.749,0,0,0-.339-1.253c-5-3.157-6.471-8.33-8.025-13.8l-.181-.626a14.838,14.838,0,0,0-.757-2.244.748.748,0,0,0-.68-.436.678.678,0,0,0-.161.017.748.748,0,0,0-.587.731c0,6.483,1.413,11.034,4.593,14.757a8.815,8.815,0,0,0,5.335,3.043A.931.931,0,0,0,949.914,552.7Zm224.252-29.521a.726.726,0,0,0,.307-.066.746.746,0,0,0,.429-.814,15.971,15.971,0,0,0-2.4-6.123.748.748,0,0,0-1.374.415,10.073,10.073,0,0,0,2.451,6.3A.743.743,0,0,0,1174.166,523.183Z"/>
    <path id="Path_44" data-name="Path 44" d="M1057.856,569.961a22.785,22.785,0,0,0,3.718-2.024,29.986,29.986,0,0,0,3.891-3.185,17.255,17.255,0,0,1-6.661,5.463Zm24.4-8.274-.512-.027-2.541-.036a1.432,1.432,0,0,0-.592-.088l-2.361-.049c-2.312-.043-4.627-.109-6.958-.173l-.936-.026a1.609,1.609,0,0,0-.524.08,1.94,1.94,0,0,0-.482-.921,1.931,1.931,0,0,1-.351-1,2.5,2.5,0,0,0-.845-1.742l0-.01a2.435,2.435,0,0,0,.1-1.167c-.237-1.264-.458-2.533-.683-3.8-1.011-5.762-2.056-11.719-4.414-17.281a49.573,49.573,0,0,0-6.1-10.557,2.987,2.987,0,0,0-2.119-1.267.5.5,0,0,0,.173-.787,9.617,9.617,0,0,0-7.234-3.111,9.1,9.1,0,0,0-6.89,2.907,1.205,1.205,0,0,0-.212-.018,1.362,1.362,0,0,0-.183.013,21.37,21.37,0,0,1,1.952-1.518,11.093,11.093,0,0,1,6.174-2.059,10.108,10.108,0,0,1,7.928,4.159,48.9,48.9,0,0,1,9.731,20.646c.328,1.513.621,3.031.913,4.546.59,3.043,1.2,6.189,2.108,9.3.694,2.329.9,2.768,3.152,2.768l.475,0a152.364,152.364,0,0,1,19.557,1.54,19.673,19.673,0,0,1-2.495.151A50.421,50.421,0,0,1,1082.254,561.687Zm-51.42-6.288a2.935,2.935,0,0,0-.178-.709c-.032-.1-.066-.2-.088-.283a26.257,26.257,0,0,1,4.922-23.521c3.8-4.833,8.617-7.3,14.3-7.321a5.122,5.122,0,0,1,.811.081c-13.666,1.113-20.12,12.084-20.446,22.782a29.834,29.834,0,0,0,1.026,9.042Zm-8.759-5.08c.01-.068.071-.521.071-.521.129-1.063.28-2.122.433-3.185a47.6,47.6,0,0,0,.717-9.982l-.147-2.295a163.308,163.308,0,0,1-.426-21.491l.093-1.5a25.118,25.118,0,0,1,1.189-7.551c-.149,1.416-.244,2.807-.329,4.145a148.024,148.024,0,0,0,.151,26.332,34.072,34.072,0,0,1-1.694,15.885C1022.112,550.212,1022.092,550.263,1022.075,550.319Zm-62.1-10.16c-.489,4.2-1.968,7.312-4.59,9.67C957.793,547,958.912,543.543,959.971,540.159Zm166.8,1.684c-4.729,0-7.47-1.481-9.238-5.165.075.085.718.8.718.8a11.571,11.571,0,0,0,8.859,3.674l.731,0a120.449,120.449,0,0,0,25.882-2.882c3.381-.736,6.99-1.986,9.129-5.48a7.335,7.335,0,0,1-5.168,5.243,51.414,51.414,0,0,1-5.521,1.343,134.884,134.884,0,0,1-25.294,2.463Zm-138.045-2.88c-.083-2.77-.166-5.538-.327-8.3-.183-3.177-.4-6.352-.611-9.529-.317-4.668-.634-9.339-.851-14.014a19.1,19.1,0,0,1,2.51-11.173,36.73,36.73,0,0,0-1.689,8.3,104.359,104.359,0,0,0,.478,15.566c.168,2.076.336,4.149.456,6.227.048.9.109,1.8.17,2.7a54.816,54.816,0,0,1-.078,12.067Zm-26.5-9.012-.322-2a36,36,0,0,0-2.149-7.823c-1.111-2.726-2.312-5.323-4.8-7.165a7.828,7.828,0,0,0-4.678-1.8,7.379,7.379,0,0,0-4.636,1.867,5.779,5.779,0,0,1,4.987-2.315,11.024,11.024,0,0,1,1.362.088c.02,0,.042.005.061.005a.5.5,0,0,0,.4-.8,3.515,3.515,0,0,0-1.07-.955,6.544,6.544,0,0,1,2.916,1.65,23.681,23.681,0,0,1,5.748,8.715c2.051,4.9,2.677,9.984,3.228,15.651.054.556.1,1.126.1,1.7C962.951,534.49,962.583,532.2,962.228,529.951Zm105.432-2.061a14.537,14.537,0,0,1-4.269-1.7c4.011,1.111,8.116,1.856,12.109,2.582,0,0,2.249.41,2.278.41a.5.5,0,0,0,.29-.9c-2.544-1.825-3.45-2.926-3.411-4.111a6.842,6.842,0,0,0,5.957,4.437,3.836,3.836,0,0,0,3.448-2.1,4.011,4.011,0,0,0-.247-4.071,1.366,1.366,0,0,0-.955-.726l-1.388-.134a34.128,34.128,0,0,0-3.479-.236,12.428,12.428,0,0,0-3.139.365,2.5,2.5,0,0,0-1.34-.353,6.6,6.6,0,0,0-1.03.1l-.258.039c-2,.28-3.991.616-5.984.952l-.853.144a22.941,22.941,0,0,1,8.286-1.825c1.019-.024,2.035-.044,3.048-.044a32.263,32.263,0,0,1,12.372,1.964,41.786,41.786,0,0,0,7.816,2.134,21.885,21.885,0,0,1,3.141.834,5.886,5.886,0,0,1,3.35,2.587,12.811,12.811,0,0,0-6.964-2.773,2.706,2.706,0,0,0-.587-.087.8.8,0,0,0-.658.285.751.751,0,0,0-.163.455,1.551,1.551,0,0,0-1.079-1.249L1084.7,522a.507.507,0,0,0-.148-.022.5.5,0,0,0-.48.631c1.135,4.118,1.084,4.3-1.852,6.51a.5.5,0,0,0,.18.885,23.928,23.928,0,0,0,5.161.538c.667.02,1.347.039,2.041.083a.171.171,0,0,0,.032,0,.5.5,0,0,0,.451-.714l-.224-.46a12.123,12.123,0,0,1-.585-1.311,4.395,4.395,0,0,0,.39.614,2.854,2.854,0,0,0,2.246,1.311,2.555,2.555,0,0,0,1-.214.5.5,0,0,0,.334.8c.826.1,1.627.185,2.409.265.921.095,1.82.188,2.7.31-.913.034-1.829.058-2.746.08q-1.008.026-2.017.024A108.339,108.339,0,0,1,1067.66,527.89Zm-30.372-4v0c-1.2,2.047-2.371,4.093-3.545,6.147A15.421,15.421,0,0,1,1037.288,523.887Zm76.368,4.785a6.963,6.963,0,0,1-.46-2.992,1.924,1.924,0,0,1,1.576-1.939l.446-.108a42.364,42.364,0,0,1,7.192-1.3c3.2-.2,6.406-.432,9.609-.663q3.567-.259,7.137-.507c4.507-.3,9.195-.45,13.931-.45q3.058,0,6.115.08a4.238,4.238,0,0,1,3.116,1.057,4.525,4.525,0,0,1,.89,3.367h0c-.473-2.8-1.445-3.45-4.7-3.644-2.271-.137-4.678-.205-7.153-.205q-2.943,0-5.887.114c-4.1.159-8.2.4-12.306.644q-2.908.171-5.815.336a47.89,47.89,0,0,0-11.01,1.63c-2.24.662-2.612,1.14-2.666,3.4C1113.656,527.885,1113.654,528.28,1113.656,528.672Zm-18.536-1.927a2.087,2.087,0,0,1-.2,1.3A2.853,2.853,0,0,0,1095.12,526.745Zm-154.018-6.5a23.644,23.644,0,0,1,2.353-8.8,3.994,3.994,0,0,1,1.338-1.594,4.9,4.9,0,0,0-1.167,2.137,39.844,39.844,0,0,0-1.957,9.553c-.1,1.635-.068,3.257-.017,4.958A16.414,16.414,0,0,1,941.1,520.244Zm225.575,4.235a4.637,4.637,0,0,1,.709-3.272c.765-1.321,1.576-2.615,2.39-3.906a29.674,29.674,0,0,1-1.871,4.449l-.29.6a4.829,4.829,0,0,0-.551,2.766,2.06,2.06,0,0,0,.2.643A2.39,2.39,0,0,1,1166.677,524.479Zm-80.381-6.352a108.877,108.877,0,0,0-23.231-8.756c-3.545-.909-7.192-1.574-10.72-2.217-3.192-.583-6.493-1.184-9.695-1.962a30.641,30.641,0,0,1-5.594-1.739q1.645.336,3.292.677c4.59.948,9.336,1.927,14.031,2.765a131.317,131.317,0,0,1,25.653,7.629,31.971,31.971,0,0,1,6.057,3.184,13.881,13.881,0,0,1,1.517,1.172C1087.18,518.614,1086.744,518.359,1086.3,518.127ZM958,501.223c-.076-1.983-.152-3.968-.3-5.952a8.723,8.723,0,0,1,.453-3.664.615.615,0,0,0,.02-.061,10.531,10.531,0,0,0-.086,3.331,76.681,76.681,0,0,1,.156,11.492C958.125,504.642,958.059,502.919,958,501.223Zm49.383-3.118c-3.989,0-4.71-1.009-5.843-4.985-.482-1.686-.163-2.268,1.547-2.841a29.93,29.93,0,0,1,9.592-1.686l.773.012c2.609.081,5.167.59,6.217,3.745a3.611,3.611,0,0,0,1.1,1.576,5.109,5.109,0,0,1-1.74-1.744,5.248,5.248,0,0,0-3.237-2.439,19.127,19.127,0,0,0-4.133-.453,22.909,22.909,0,0,0-8.154,1.6,1.711,1.711,0,0,0-1.238,1.5,4.976,4.976,0,0,0,3.932,4.8,22.4,22.4,0,0,0,2.451.129,44.593,44.593,0,0,0,4.895-.332,18.516,18.516,0,0,1,2.025-.114,15.9,15.9,0,0,1,5.048.806c-.765-.061-1.532-.114-2.3-.146-.353-.014-.707-.019-1.06-.019-1.678,0-3.369.148-5,.294-1.53.137-3.113.278-4.668.29Zm32.077-2.317c-1.854-.044-3.908-.329-5.1-2.1l-.475-.707c-2.958-4.4-6.016-8.946-7.882-14a31.262,31.262,0,0,0-2.4-5.17,10.041,10.041,0,0,1,2.553,3.927,66.289,66.289,0,0,0,5.911,11.29l1.262,2.086a8.729,8.729,0,0,0,7.092,4.524c.312.03.621.066.931.108-.427.036-.875.053-1.35.053Zm29.315-2.208c3.221-.165,6.442-.253,9.665-.343,5.706-.156,11.6-.319,17.4-.914a51.247,51.247,0,0,1,5.255-.295c.918,0,1.8.032,2.658.1-9.87,1.045-34.251,2.073-49.161,2.161Zm-44.44-.747c-.555-1.309-1.109-2.617-1.637-3.938-4.6-11.543-13.607-17.625-26.759-18.075q-.727-.025-1.455-.025c-6.622,0-13.09,1.557-19.1,3.238A61.834,61.834,0,0,0,959.85,481.2a23.3,23.3,0,0,1,5.043-3.331,69.293,69.293,0,0,1,30.764-7.272l.658,0c11.775.115,20,4.768,25.141,14.231a29,29,0,0,1,3.068,8.459Zm-35.311-.51q-11.325-1.82-22.648-3.686c8.98,1.265,18.226,2.568,27.346,4.1-.234-.017-.468-.041-.7-.068a4.925,4.925,0,0,0-.585-.037,2.536,2.536,0,0,0-1.513.424C990.724,492.594,990.231,492.516,989.02,492.323Zm7.322-15.7-3.021,10.4A24.873,24.873,0,0,1,996.342,476.618Zm-24.768,4.647a9.043,9.043,0,0,1,3.486-4.783,25.33,25.33,0,0,0-4.044,7.565A17.571,17.571,0,0,1,971.574,481.265Zm54.365-11.242c.327-.032.653-.054.984-.061l1.45-.036c4.734-.117,9.629-.237,14.438-.476,4.761-.236,9.519-.509,14.277-.779s9.514-.541,14.273-.777q.68-.038,1.354-.037a18.863,18.863,0,0,1,3.336.275c-4,.276-7.419.446-10.591.527-9.022.234-19.652.584-30.1,1.4-1.364.107-2.8.161-4.271.161C1029.465,470.218,1027.779,470.155,1025.939,470.023Z"/>
  </g>
</svg>
