<svg xmlns="http://www.w3.org/2000/svg" width="245.938" height="111.991" viewBox="0 0 245.938 111.991">
  <g id="Group_3" data-name="Group 3" transform="translate(-140.114 -461.669)">
    <path id="Path_3" data-name="Path 3" d="M262.3,573.66a44.376,44.376,0,0,1-7.872-.685c-1.548-.28-3.092-.512-4.664-.745l-1.98-.3a.752.752,0,0,1-.544-1.1,1.3,1.3,0,0,1,.144-.209,12.818,12.818,0,0,1-9.239-7.036c-.265-.551-.533-.665-.9-.68a.748.748,0,0,1,.008-1.5l2.689-.076a.75.75,0,0,1,.741.639.759.759,0,0,1-.136.553c.075.078.826.838.972,1a29.634,29.634,0,0,0,5.842,4.541c.685.446,1.369.894,2.042,1.357a.776.776,0,0,1,.148.078,2.386,2.386,0,0,0,1.44.451c.953-.049,1.7-.071,2.439-.071a40.775,40.775,0,0,1,5.755.417c.034.005.295.068.331.078a.586.586,0,0,1,.444-.358l2.619-.7a.731.731,0,0,1,.192-.024.754.754,0,0,1,.244.039,16.348,16.348,0,0,0,5.323.911,16.578,16.578,0,0,0,9.719-3.279,21.789,21.789,0,0,0,8.328-11.078.745.745,0,0,1,.565-.5l1.623-.324a.714.714,0,0,1,.146-.014.733.733,0,0,1,.619.328.817.817,0,0,1,.224-.124,4.078,4.078,0,0,1,.424-.17c.631-.2,1.252-.4,1.876-.605,1.162-.385,2.327-.767,3.5-1.076l2.629-.651,8.269-1.9c16.324-3.754,32.453-6.062,46.08-7.826a6.365,6.365,0,0,1,.7-.08s.488-.049.522-.049a.749.749,0,0,1,.326,1.423,25.122,25.122,0,0,1-7.47,1.9c-12.8,1.893-25.085,3.813-37.31,6.829-1.513.38-3.019.787-4.525,1.192a101.114,101.114,0,0,1-11.716,2.667c-.2.032-.4.073-.61.115a7.573,7.573,0,0,1-1.478.2,3.268,3.268,0,0,1-.536-.044,2.808,2.808,0,0,0-.4-.032c-.722,0-1.06.324-1.64,1.579-3.867,8.366-9.517,13.02-17.279,14.224A55.9,55.9,0,0,1,262.3,573.66ZM204.177,487.6a2.195,2.195,0,0,0,.338-.156,63.5,63.5,0,0,0,9.2-6.045,64.58,64.58,0,0,1,7.282-5.04c.975-.612,1.949-1.224,2.911-1.855,7.734-5.067,16.743-7.954,27.549-8.824,5.677-.458,11.573-.69,17.52-.69q2.824,0,5.652.066l.351.005a30.287,30.287,0,0,0,3.323-.246c.914-.1,1.825-.2,2.734-.229l.877-.01c2.059,0,4.171.168,6.215.331,1.187.1,2.373.191,3.56.256a308.678,308.678,0,0,1,38.081,4.145c8.2,1.476,16.872,3.467,24.631,8.02,1.533.9,3.141,1.708,4.693,2.49.726.366,1.45.731,2.168,1.1a.788.788,0,0,0,.361.088.776.776,0,0,0,.687-.393.728.728,0,0,0-.263-1,2.793,2.793,0,0,0-.422-.5,42.765,42.765,0,0,0-12.262-7.56c-6.539-2.78-13.546-3.962-20.324-5.105l-1.394-.236c-9.541-1.618-19.311-2.551-28.762-3.452-2.809-.268-5.618-.536-8.427-.824a46.05,46.05,0,0,0-4.751-.27,24.308,24.308,0,0,0-7.85,1.172,1.44,1.44,0,0,1-.421.058,2.139,2.139,0,0,1-.281-.019,86.061,86.061,0,0,0-11.936-.78,141.269,141.269,0,0,0-14.2.792l-1.333.131c-5.677.556-11.549,1.128-16.9,3.665-10.579,5.019-18.746,10.084-25.7,15.936a19.653,19.653,0,0,0-3.706,3.828.745.745,0,0,0,0,.84.759.759,0,0,0,.631.329A.793.793,0,0,0,204.177,487.6Zm-2.5,74.792c3.558-.009,7.163-.173,10.65-.329,3.6-.163,7.321-.331,10.981-.331l2.7.022a21.144,21.144,0,0,0,7.172-1,.756.756,0,0,0,.607-.4.776.776,0,0,0-.039-.794.788.788,0,0,0-.655-.315l-2.239-.078c-1.747-.07-3.494-.139-5.243-.185q-2.025-.054-4.052-.053c-4.649,0-9.363.192-13.924.377l-1.864.076q-1.217.047-2.431.046c-3.287,0-6.637-.241-9.878-.475-1.961-.141-3.925-.283-5.891-.375-11.234-.529-20.592-1.055-30.184-2.561a47.839,47.839,0,0,0-7.475-.636c-.517,0-1.033.01-1.552.032a.749.749,0,0,0-.322,1.408,12.12,12.12,0,0,0,1.526.651l.635.241a14.7,14.7,0,0,0,3.043.772,13.611,13.611,0,0,1,2.724.677.746.746,0,0,0,.473.169.731.731,0,0,0,.317-.071.941.941,0,0,1,.412-.08,3.985,3.985,0,0,1,.648.075c.158.027.316.054.477.071,1.394.158,2.79.329,4.183.5,2.919.358,5.938.729,8.927.955,3.886.295,7.838.47,11.663.639,1.608.073,3.216.143,4.824.224,1.628.08,3.253.2,4.878.319,2.848.209,5.8.426,8.717.426Zm175.14-28.335a21.882,21.882,0,0,0,2.31-1.325c.351-.222.7-.441,1.057-.651a9.467,9.467,0,0,0,4.527-5.586,28.228,28.228,0,0,0,1.167-10.587,24.889,24.889,0,0,1,.061-4.1,45.391,45.391,0,0,0-2.492-18.141,7.587,7.587,0,0,0-5.687-5.36,26.247,26.247,0,0,1-7.36-3.289l-.646-.37c-.672-.385-1.328-.8-1.986-1.214a27.943,27.943,0,0,0-4.051-2.258.756.756,0,0,0-.468-.154.57.57,0,0,0-.093,0,.775.775,0,0,0-.594.424.74.74,0,0,0-.029.6.754.754,0,0,0,.28.356c3.289,3.928,7.662,6.712,13.746,8.754,1.915.643,2.931,1.452,3.506,2.8a35.606,35.606,0,0,1,2.782,16.635,69.266,69.266,0,0,0-.168,7.007c.18,6.113-1.3,10.136-4.8,13.042a9.37,9.37,0,0,0-1.406,1.569c-.18.234-.358.466-.548.69a.748.748,0,0,0,.573,1.23A.714.714,0,0,0,376.814,534.061Zm-226.3-20.334a25.148,25.148,0,0,1,3.25-2.709,67.015,67.015,0,0,1,17.832-8.637c6.859-2.217,13.793-4.581,20.5-6.866l3.871-1.318a11.808,11.808,0,0,0,6.956-5.553.865.865,0,0,0,.083-.178.747.747,0,0,0-.412-.923.76.76,0,0,0-.3-.061.75.75,0,0,0-.563.254,25.355,25.355,0,0,1-6.919,3.425c-8.291,2.758-17.323,5.843-27.614,9.431-4.783,1.667-9.8,3.706-14.129,7.317a10.863,10.863,0,0,0-3.794,5.06.748.748,0,0,0,1.238.758Zm-4.809,41.733a.75.75,0,0,0-.071-.924l-.407-.45c-.231-.256-.426-.473-.628-.678a4.2,4.2,0,0,1-1.206-4.743,7.035,7.035,0,0,0,.251-3.021c-.025-.378-.049-.756-.044-1.131l.024-2.066c.012-1.323.024-2.646.068-3.966.117-3.6.478-7.112.855-10.833l.152-1.464a.745.745,0,0,0-.746-.823.735.735,0,0,0-.317.07,1.847,1.847,0,0,0-.991,1.316,35.03,35.03,0,0,0-1.918,10.123c-.083.955-.168,1.908-.273,2.858a31.389,31.389,0,0,0-.1,4.237,26.674,26.674,0,0,1-.151,4.5c-.509,3.474,1.089,5.991,4.619,7.284a.778.778,0,0,0,.258.044A.748.748,0,0,0,145.706,555.46ZM366.642,552.4a.748.748,0,0,0-.229-1.437s-1.286-.1-1.306-.1a.743.743,0,0,0-.29.058,1.32,1.32,0,0,1-.531.11,2.988,2.988,0,0,1-.567-.073l-.712-.117a24,24,0,0,0-3.779-.4,9.85,9.85,0,0,0-1.82.159,3.466,3.466,0,0,1-.687.07c-1.113,0-1.837-.655-2.638-1.705a12.957,12.957,0,0,1-.709-1.1,7.722,7.722,0,0,0-1.772-2.254.748.748,0,0,0-.465-.161.732.732,0,0,0-.36.093.749.749,0,0,0-.385.731c.307,2.984,1.737,4.919,4.251,5.75a22.284,22.284,0,0,0,5.789,1.284c.361.017.721.026,1.082.026A13.122,13.122,0,0,0,366.642,552.4ZM182.454,562.876a.966.966,0,0,0,.151-.158.748.748,0,0,0-.1-1.009.732.732,0,0,0-.495-.187.752.752,0,0,0-.47.165,22.561,22.561,0,0,1-10.228,2.707h0a19.831,19.831,0,0,1-12.135-4.449c-.134-.1-.261-.212-.39-.321a4.55,4.55,0,0,0-1.413-.921.846.846,0,0,0-.232-.083A.649.649,0,0,0,157,558.6a.8.8,0,0,0-.489.173.747.747,0,0,0-.266.734.76.76,0,0,0,.207.385,14.338,14.338,0,0,0,9.731,6.948,21.826,21.826,0,0,0,4.941.6A15.939,15.939,0,0,0,182.454,562.876Zm186.888-10.208a8.815,8.815,0,0,0,5.335-3.043c3.18-3.723,4.6-8.274,4.593-14.757a.748.748,0,0,0-.587-.731.678.678,0,0,0-.161-.017.748.748,0,0,0-.68.436,14.834,14.834,0,0,0-.757,2.244l-.181.626c-1.554,5.474-3.023,10.647-8.025,13.8a.749.749,0,0,0-.339,1.253l.025.024a.731.731,0,0,0,.521.2A.932.932,0,0,0,369.342,552.668ZM145.423,522.9a10.074,10.074,0,0,0,2.451-6.3.748.748,0,0,0-1.374-.415,15.972,15.972,0,0,0-2.4,6.123.746.746,0,0,0,.429.814.726.726,0,0,0,.307.066A.743.743,0,0,0,145.423,522.9Z"/>
    <path id="Path_4" data-name="Path 4" d="M260.2,570.215a17.255,17.255,0,0,1-6.661-5.463,29.983,29.983,0,0,0,3.891,3.185,22.786,22.786,0,0,0,3.718,2.024Zm-29.282-8.06a19.671,19.671,0,0,1-2.495-.151,152.363,152.363,0,0,1,19.557-1.54l.475,0c2.256,0,2.458-.439,3.152-2.768.912-3.111,1.518-6.257,2.108-9.3.292-1.515.585-3.033.913-4.546a48.9,48.9,0,0,1,9.731-20.646,10.108,10.108,0,0,1,7.928-4.159,11.093,11.093,0,0,1,6.174,2.059,21.352,21.352,0,0,1,1.952,1.518,1.36,1.36,0,0,0-.183-.013,1.206,1.206,0,0,0-.212.018,9.1,9.1,0,0,0-6.89-2.907,9.617,9.617,0,0,0-7.234,3.111.5.5,0,0,0,.173.787,2.987,2.987,0,0,0-2.119,1.267,49.568,49.568,0,0,0-6.1,10.557c-2.358,5.562-3.4,11.519-4.414,17.281-.225,1.27-.446,2.539-.683,3.8a2.435,2.435,0,0,0,.1,1.167v.008a2.511,2.511,0,0,0-.843,1.744,1.931,1.931,0,0,1-.351,1,1.941,1.941,0,0,0-.482.921,1.609,1.609,0,0,0-.524-.08l-.936.026c-2.331.064-4.646.13-6.958.173l-2.361.049a1.432,1.432,0,0,0-.592.088l-2.541.036-.512.027A50.421,50.421,0,0,1,230.914,562.155Zm56.9-6.685a29.837,29.837,0,0,0,1.026-9.042c-.326-10.7-6.78-21.669-20.446-22.782a5.123,5.123,0,0,1,.811-.081c5.687.024,10.5,2.488,14.3,7.321a26.257,26.257,0,0,1,4.922,23.521c-.022.088-.056.186-.088.283a2.935,2.935,0,0,0-.178.709Zm9.052-5.312a34.072,34.072,0,0,1-1.694-15.885,148.03,148.03,0,0,0,.151-26.332c-.085-1.338-.18-2.729-.329-4.145a25.118,25.118,0,0,1,1.189,7.551l.093,1.5a163.313,163.313,0,0,1-.426,21.491l-.147,2.295a47.6,47.6,0,0,0,.717,9.982c.153,1.063.3,2.122.433,3.185,0,0,.061.453.071.521C296.908,550.263,296.888,550.212,296.867,550.158Zm66.752-.329c-2.622-2.358-4.1-5.467-4.59-9.67C360.088,543.543,361.207,547,363.619,549.829Zm-171.488-7.986a134.886,134.886,0,0,1-25.294-2.463,51.424,51.424,0,0,1-5.521-1.343,7.335,7.335,0,0,1-5.168-5.243c2.139,3.494,5.748,4.744,9.129,5.48a120.449,120.449,0,0,0,25.882,2.882l.731,0a11.571,11.571,0,0,0,8.859-3.674s.643-.716.718-.8c-1.768,3.684-4.509,5.165-9.238,5.165ZM330.216,540.8a54.818,54.818,0,0,1-.078-12.067c.061-.9.122-1.8.17-2.7.12-2.078.288-4.151.456-6.227a104.367,104.367,0,0,0,.478-15.566,36.73,36.73,0,0,0-1.689-8.3,19.1,19.1,0,0,1,2.51,11.173c-.217,4.675-.534,9.346-.851,14.014-.214,3.177-.428,6.352-.611,9.529-.161,2.765-.244,5.533-.327,8.3Zm25.407-4.03c0-.577.043-1.147.1-1.7.551-5.667,1.177-10.754,3.228-15.651a23.679,23.679,0,0,1,5.748-8.715,6.544,6.544,0,0,1,2.916-1.65,3.514,3.514,0,0,0-1.07.955.5.5,0,0,0,.4.8c.019,0,.041,0,.061-.005a11.024,11.024,0,0,1,1.362-.088,5.779,5.779,0,0,1,4.987,2.315,7.379,7.379,0,0,0-4.636-1.867,7.828,7.828,0,0,0-4.678,1.8c-2.483,1.842-3.684,4.439-4.795,7.165a36,36,0,0,0-2.149,7.823l-.322,2C356.417,532.2,356.049,534.49,355.623,536.775ZM225.4,531.327q-1.01,0-2.017-.024c-.917-.022-1.833-.046-2.746-.08.877-.122,1.776-.215,2.7-.31.782-.08,1.583-.161,2.409-.265a.5.5,0,0,0,.334-.8,2.555,2.555,0,0,0,1,.214,2.854,2.854,0,0,0,2.246-1.311,4.386,4.386,0,0,0,.39-.614,12.116,12.116,0,0,1-.585,1.311l-.224.46a.5.5,0,0,0,.451.714.171.171,0,0,0,.032,0c.694-.044,1.374-.063,2.041-.083A23.927,23.927,0,0,0,236.6,530a.5.5,0,0,0,.18-.885c-2.936-2.21-2.987-2.392-1.852-6.51a.5.5,0,0,0-.48-.631.507.507,0,0,0-.148.022l-9.249,2.873a1.551,1.551,0,0,0-1.079,1.249.752.752,0,0,0-.163-.455.8.8,0,0,0-.658-.285,2.706,2.706,0,0,0-.587.087,12.812,12.812,0,0,0-6.964,2.773,5.886,5.886,0,0,1,3.35-2.587,21.884,21.884,0,0,1,3.141-.834,41.786,41.786,0,0,0,7.816-2.134,32.263,32.263,0,0,1,12.372-1.964c1.013,0,2.029.02,3.048.044a22.941,22.941,0,0,1,8.286,1.825l-.853-.144c-1.993-.336-3.983-.672-5.984-.952l-.258-.039a6.6,6.6,0,0,0-1.03-.1,2.5,2.5,0,0,0-1.34.353,12.428,12.428,0,0,0-3.139-.365,34.128,34.128,0,0,0-3.479.236l-1.388.134a1.366,1.366,0,0,0-.955.726,4.011,4.011,0,0,0-.247,4.071,3.836,3.836,0,0,0,3.448,2.1,6.842,6.842,0,0,0,5.957-4.437c.039,1.185-.867,2.286-3.411,4.111a.5.5,0,0,0,.29.9c.029,0,2.278-.41,2.278-.41,3.993-.726,8.1-1.471,12.109-2.582a14.536,14.536,0,0,1-4.269,1.7A108.34,108.34,0,0,1,225.4,531.327Zm59.852-1.291c-1.174-2.054-2.348-4.1-3.545-6.147v0A15.421,15.421,0,0,1,285.257,530.036Zm-79.923-2.543c-.054-2.259-.426-2.737-2.666-3.4a47.891,47.891,0,0,0-11.01-1.63q-2.909-.16-5.815-.336c-4.1-.244-8.2-.485-12.306-.644q-2.943-.109-5.887-.114c-2.475,0-4.882.068-7.153.205-3.26.194-4.232.847-4.7,3.644h0a4.525,4.525,0,0,1,.89-3.367,4.238,4.238,0,0,1,3.116-1.057q3.059-.081,6.115-.08c4.736,0,9.424.151,13.931.45q3.572.242,7.137.507c3.2.231,6.4.465,9.609.663a42.364,42.364,0,0,1,7.192,1.3l.446.108a1.925,1.925,0,0,1,1.576,1.939,6.963,6.963,0,0,1-.46,2.992C205.346,528.28,205.344,527.885,205.334,527.493Zm18.75.55a2.086,2.086,0,0,1-.2-1.3A2.854,2.854,0,0,0,224.084,528.043ZM377.348,526.5c.051-1.7.087-3.323-.017-4.958a39.845,39.845,0,0,0-1.957-9.553,4.9,4.9,0,0,0-1.167-2.137,4,4,0,0,1,1.338,1.594,23.645,23.645,0,0,1,2.353,8.8A16.413,16.413,0,0,1,377.348,526.5Zm-225.607-.738a2.062,2.062,0,0,0,.2-.643,4.829,4.829,0,0,0-.551-2.766l-.29-.6a29.67,29.67,0,0,1-1.871-4.449c.814,1.291,1.625,2.585,2.39,3.906a4.637,4.637,0,0,1,.709,3.272A2.391,2.391,0,0,1,151.741,525.763Zm79.653-6.883a13.884,13.884,0,0,1,1.517-1.172,31.972,31.972,0,0,1,6.057-3.184,131.319,131.319,0,0,1,25.653-7.629c4.7-.838,9.441-1.817,14.031-2.765q1.645-.34,3.292-.677a30.644,30.644,0,0,1-5.594,1.739c-3.2.778-6.5,1.379-9.7,1.962-3.528.643-7.175,1.308-10.72,2.217a108.876,108.876,0,0,0-23.231,8.756C232.256,518.359,231.82,518.614,231.394,518.88Zm129.367-12.511a76.677,76.677,0,0,1,.156-11.492,10.531,10.531,0,0,0-.086-3.331.615.615,0,0,0,.02.061,8.722,8.722,0,0,1,.453,3.664c-.148,1.984-.224,3.969-.3,5.952C360.941,502.919,360.875,504.642,360.761,506.369ZM311.412,498.1c-1.555-.012-3.138-.153-4.668-.29-1.633-.146-3.324-.294-5-.294-.353,0-.707.005-1.06.019-.768.032-1.535.085-2.3.146a15.9,15.9,0,0,1,5.048-.806,18.516,18.516,0,0,1,2.025.114,44.594,44.594,0,0,0,4.9.332,22.4,22.4,0,0,0,2.451-.129,4.976,4.976,0,0,0,3.932-4.8,1.711,1.711,0,0,0-1.238-1.5,22.909,22.909,0,0,0-8.154-1.6,19.127,19.127,0,0,0-4.133.453,5.248,5.248,0,0,0-3.237,2.439,5.109,5.109,0,0,1-1.74,1.744,3.611,3.611,0,0,0,1.1-1.576c1.05-3.155,3.608-3.664,6.217-3.745l.773-.012a29.93,29.93,0,0,1,9.592,1.686c1.71.573,2.029,1.155,1.547,2.841-1.133,3.976-1.854,4.985-5.843,4.985ZM279,495.8c-.475,0-.923-.017-1.35-.053.31-.042.619-.078.931-.108a8.729,8.729,0,0,0,7.092-4.524l1.262-2.086a66.289,66.289,0,0,0,5.911-11.29,10.04,10.04,0,0,1,2.553-3.927,31.254,31.254,0,0,0-2.4,5.17c-1.866,5.058-4.924,9.606-7.882,14l-.475.707c-1.191,1.771-3.245,2.056-5.1,2.1Zm-14.592-1.51c-14.91-.088-39.291-1.116-49.161-2.161.858-.064,1.74-.1,2.658-.1a51.248,51.248,0,0,1,5.255.295c5.8.6,11.7.758,17.4.914,3.223.09,6.444.178,9.665.343Zm30.065-1a29,29,0,0,1,3.068-8.459c5.143-9.463,13.366-14.116,25.141-14.231l.658,0a69.293,69.293,0,0,1,30.764,7.272,23.3,23.3,0,0,1,5.043,3.331,61.832,61.832,0,0,0-15.534-7.166c-6.006-1.681-12.474-3.238-19.1-3.238q-.727,0-1.455.025c-13.152.45-22.154,6.532-26.759,18.075-.528,1.321-1.082,2.629-1.637,3.938Zm33.6-.234a2.536,2.536,0,0,0-1.513-.424,4.926,4.926,0,0,0-.585.037c-.231.027-.465.051-.7.068,9.12-1.53,18.366-2.833,27.346-4.1q-11.317,1.883-22.648,3.686C328.769,492.516,328.276,492.594,328.079,493.054Zm-2.4-6.032-3.021-10.4A24.871,24.871,0,0,1,325.679,487.022Zm22.305-2.975a25.33,25.33,0,0,0-4.044-7.565,9.043,9.043,0,0,1,3.486,4.783A17.564,17.564,0,0,1,347.984,484.047Zm-60.076-13.829c-1.469,0-2.907-.054-4.271-.161-10.445-.814-21.075-1.164-30.1-1.4-3.172-.081-6.588-.251-10.591-.527a18.861,18.861,0,0,1,3.336-.275q.675,0,1.354.037c4.759.236,9.517.506,14.273.777s9.516.543,14.277.779c4.809.239,9.7.359,14.438.476l1.45.036c.331.007.657.029.984.061C291.221,470.155,289.535,470.218,287.908,470.218Z"/>
  </g>
</svg>
