<svg xmlns="http://www.w3.org/2000/svg" width="181.597" height="100.545" viewBox="0 0 181.597 100.545">
  <g id="Group_11" data-name="Group 11" transform="translate(-190.211 -657.718)">
    <path id="Path_47" data-name="Path 47" d="M262.494,758.263a30.275,30.275,0,1,1,30.276-30.275A30.31,30.31,0,0,1,262.494,758.263Zm0-57.73a27.455,27.455,0,1,0,27.456,27.455A27.486,27.486,0,0,0,262.494,700.533Z"/>
    <path id="Path_48" data-name="Path 48" d="M216.8,739.42c-1.013,0-15.509-.267-21.682-14.339-.833-1.979-4.937-11.915-4.725-15.093a17.711,17.711,0,0,0-.075-2.179c-.217-3.021-.544-7.587,3.822-9.928h0A71.053,71.053,0,0,0,203.281,691l8.634-7.631c.339-.279,7.535-6.092,21.393-9.337,9.684-2.267,29.748-6.562,55.333-9.848l.923-.118c1.244-.451,4.534-1.873,13.033-6.346l1.313,2.495c-11.684,6.151-14.428,7.136-15.477,6.839-25.189,3.261-44.923,7.486-54.482,9.724-13.168,3.082-20.14,8.683-20.209,8.738l-8.58,7.583a72.429,72.429,0,0,1-9.617,7.228c-2.629,1.412-2.655,3.907-2.413,7.283a19.112,19.112,0,0,1,.075,2.567c-.129,1.948,2.694,9.494,4.5,13.792,5.6,12.754,18.565,12.629,19.116,12.633h11.508a35.219,35.219,0,1,1,68.318,0h75.155v2.821H292.88l.567-1.828a32.4,32.4,0,1,0-61.906,0l.567,1.828H216.8Z"/>
    <path id="Path_49" data-name="Path 49" d="M223.792,727.221H213.628c-.115-.005-10.5-.477-17.287-2.466l.141-.481c6.73,1.973,17.053,2.443,17.157,2.447h9.694a43.249,43.249,0,0,1,11.337-25.63,37.608,37.608,0,0,1,55.648,0,43.281,43.281,0,0,1,11.2,24.375l68.009-1.335.009.5-68.463,1.344-.026-.226a42.782,42.782,0,0,0-11.1-24.317,37.109,37.109,0,0,0-54.917,0,42.766,42.766,0,0,0-11.223,25.561Z"/>
    <rect id="Rectangle_1" data-name="Rectangle 1" width="73.356" height="0.5" transform="translate(296.179 730.639)"/>
    <path id="Path_50" data-name="Path 50" d="M308.63,730.975c-7.551-20.7-2.668-57.839-2.618-58.211l.5.067c-.051.372-4.916,37.384,2.593,57.972Z"/>
    <path id="Path_51" data-name="Path 51" d="M228.344,687.071l-.121-.484a398.886,398.886,0,0,1,77.514-9.441l.011.5A398.467,398.467,0,0,0,228.344,687.071Z"/>
    <path id="Path_52" data-name="Path 52" d="M217.32,699.708c-6.614,0-17.342-2.217-17.952-2.344l.1-.49c5.572,1.162,20.446,3.69,22.344,1.453a93.851,93.851,0,0,0,6.255-9.418l.073-.08c.006,0,.566-.4.438-.769-.216-.623-2.321-1.961-17.117-.982l-.033-.5c11.13-.74,17.063-.3,17.623,1.316.222.638-.4,1.17-.579,1.31a92.524,92.524,0,0,1-6.279,9.443C221.54,699.422,219.7,699.708,217.32,699.708Z"/>
  </g>
</svg>
