<svg xmlns="http://www.w3.org/2000/svg" width="181.597" height="100.545" viewBox="0 0 181.597 100.545">
  <g id="Group_12" data-name="Group 12" transform="translate(-977.159 -657.718)">
    <path id="Path_53" data-name="Path 53" d="M1086.472,758.263h0a30.275,30.275,0,1,1,30.275-30.275A30.309,30.309,0,0,1,1086.471,758.263Zm0-57.73a27.455,27.455,0,1,0,27.454,27.455A27.486,27.486,0,0,0,1086.472,700.533Z"/>
    <path id="Path_54" data-name="Path 54" d="M1132.135,739.42h-15.277l.566-1.828a32.4,32.4,0,1,0-61.9,0l.566,1.828H977.159V736.6h75.154a35.22,35.22,0,1,1,68.317,0h11.478c.584.033,13.555.116,19.155-12.651,1.8-4.28,4.624-11.826,4.5-13.773a19.25,19.25,0,0,1,.075-2.567c.243-3.376.216-5.871-2.341-7.243a72.007,72.007,0,0,1-9.7-7.281l-8.6-7.6c-.028-.021-7-5.622-20.168-8.7-9.56-2.238-29.293-6.463-54.481-9.724-1.049.292-3.791-.687-15.477-6.839l1.312-2.495c8.5,4.473,11.79,5.895,13.034,6.346l.923.118c25.584,3.287,45.648,7.581,55.332,9.848,13.858,3.245,21.053,9.058,21.353,9.3l8.659,7.65a71.16,71.16,0,0,0,9.225,6.938c4.295,2.3,3.968,6.866,3.751,9.887a17.509,17.509,0,0,0-.075,2.179c.212,3.178-3.893,13.114-4.717,15.073C1147.676,739.142,1133.2,739.42,1132.135,739.42Z"/>
    <path id="Path_55" data-name="Path 55" d="M1125.4,727.221h-.23l-.019-.228a42.764,42.764,0,0,0-11.224-25.561,37.109,37.109,0,0,0-54.917,0,42.8,42.8,0,0,0-11.1,24.317l-.025.226-.228-.005-68.236-1.339.01-.5,68.009,1.335a43.283,43.283,0,0,1,11.2-24.375,37.607,37.607,0,0,1,55.647,0,43.239,43.239,0,0,1,11.337,25.63h9.705c.093,0,10.417-.474,17.147-2.447l.14.481c-6.788,1.989-17.172,2.461-17.276,2.466Z"/>
    <rect id="Rectangle_2" data-name="Rectangle 2" width="73.356" height="0.5" transform="translate(979.43 730.639)"/>
    <path id="Path_56" data-name="Path 56" d="M1040.335,730.975l-.47-.172c7.508-20.588,2.644-57.6,2.593-57.972l.5-.067C1043,673.136,1047.886,710.27,1040.335,730.975Z"/>
    <path id="Path_57" data-name="Path 57" d="M1120.621,687.071a398.5,398.5,0,0,0-77.4-9.425l.012-.5a398.9,398.9,0,0,1,77.514,9.441Z"/>
    <path id="Path_58" data-name="Path 58" d="M1131.647,699.708c-2.377,0-4.221-.286-4.874-1.059a92.571,92.571,0,0,1-6.28-9.443c-.183-.14-.8-.672-.58-1.31.561-1.611,6.491-2.056,17.623-1.316l-.033.5c-14.8-.978-16.9.36-17.117.982-.128.364.433.765.439.769l.073.08a93.755,93.755,0,0,0,6.256,9.418c1.891,2.23,16.768-.29,22.342-1.453l.1.49C1148.988,697.491,1138.259,699.708,1131.647,699.708Z"/>
  </g>
</svg>
