<svg xmlns="http://www.w3.org/2000/svg" width="269.777" height="86.839" viewBox="0 0 269.777 86.839">
  <g id="Group_4" data-name="Group 4" transform="translate(-920.183 -842.16)">
    <path id="Path_5" data-name="Path 5" d="M1170.066,880.507h0l0,0h0Z" fill="#323a52"/>
    <path id="Path_6" data-name="Path 6" d="M929.961,862.624h0C929.976,862.628,929.988,862.634,929.961,862.624Z" fill="#323a52"/>
    <path id="Path_7" data-name="Path 7" d="M920.229,899.371v.141l.113.2,7.443,12.971.339.619.507.875.113.169L929,914.2l.508.028,18.806,1.184a.9.9,0,0,0,.846-.226,1.282,1.282,0,0,0,.282-.506v-2.2c-.028-.845,0-1.69,0-2.508a28.839,28.839,0,0,1,.479-4.963,14.016,14.016,0,0,1,1.664-4.512c.2-.31.451-.732.649-1.043.225-.338.451-.676.705-1.015.479-.676,1.014-1.3,1.551-1.916a22.183,22.183,0,0,1,3.664-3.244,16.879,16.879,0,0,1,4.286-2.255,11.335,11.335,0,0,1,1.157-.4c.394-.113.761-.226,1.184-.31a17.346,17.346,0,0,1,2.4-.452,21.714,21.714,0,0,1,4.878-.14,22.737,22.737,0,0,1,9.276,2.678,18.536,18.536,0,0,1,3.919,2.764,17.812,17.812,0,0,1,3.017,3.638,24.777,24.777,0,0,1,3.214,9.078c.254,1.607.424,3.328.592,4.991.113.845.17,1.663.254,2.509.028.394.028.818.057,1.212v.7c0-.028,0-.028.028-.057a.216.216,0,0,1,.056-.14c.029-.056.056-.113.085-.169a2.156,2.156,0,0,1,.169-.2,1.143,1.143,0,0,1,.338-.255,1.415,1.415,0,0,1,.592-.14l.029,2.847,51.993.395,26.024.226,6.486.056,3.242.057,3.214.084c4.315.141,8.657.338,13,.451,4.37.141,8.769.169,13.167,0,1.128-.056,2.228-.113,3.327-.2l.818-.056c.028,0,.028,0,.028-.029h.141a1.588,1.588,0,0,0,.451-.113,2.607,2.607,0,0,0,.959-.507,2.7,2.7,0,0,0,.958-2.313v-.169l-.028-.2c-.028-.535-.084-1.071-.113-1.579a44.837,44.837,0,0,1,.029-6.146,27.867,27.867,0,0,1,1.071-5.808,17.007,17.007,0,0,1,2.481-5.076,21.825,21.825,0,0,1,9.051-7.106,21.563,21.563,0,0,1,11.448-1.579,19.548,19.548,0,0,1,5.582,1.636c.424.2.846.424,1.3.648.395.255.846.481,1.241.761l.592.425.677.479.536.422.564.452a18.308,18.308,0,0,1,6.062,9.783,30.185,30.185,0,0,1,.564,6.091c.028,1.043.028,2.115.028,3.215v2.368l-.028.451a3.167,3.167,0,0,0,.141.986,1.625,1.625,0,0,0,1.551,1.129l5.385-.113h.028l.367-.029c2.763,0,13.139-2.424,15.705-3.016a2.239,2.239,0,0,1,.226-.057c.028,0,.084-.029.112-.029a1.276,1.276,0,0,1,.141-.027.093.093,0,0,0,.056-.029h.057c.535-.141,1.072-.254,1.635-.394l2.228-.508c.733-.169,1.466-.31,2.227-.452a2.291,2.291,0,0,0,1.326-.676,1.245,1.245,0,0,0,.2-1.014,1.615,1.615,0,0,0-.31-.705,5.617,5.617,0,0,0-.818-.96c-.282-.282-.592-.563-.79-.789l-.2-.2h-.254c-.676,0-1.353,0-2.03-.027.141-.141.254-.283.395-.452.4-.507.789-1.071,1.156-1.636a18.479,18.479,0,0,0,.93-1.832c.113-.31.226-.648.339-.987a18.17,18.17,0,0,0,.226-1.1c0-.677.027-1.326,0-1.974a15.686,15.686,0,0,0-.141-2l-.113-.987-.17-.987a16.207,16.207,0,0,0-.45-1.945,15.36,15.36,0,0,0-.677-1.889c-.141-.339-.282-.649-.452-.988l.113.029.2.084.141.057a.558.558,0,0,0,.507-.084.59.59,0,0,0,.226-.452,1.793,1.793,0,0,0-.056-.253l-.142-.253a3.687,3.687,0,0,0-.282-.452,7.238,7.238,0,0,0-.592-.818c-.394-.508-.846-.987-1.3-1.466s-.93-.931-1.409-1.382c-.48-.423-.988-.846-1.523-1.241a9.8,9.8,0,0,0-.874-.592,1.088,1.088,0,0,0-.085-.93c-.056-.057-.056-.084-.14-.168l-.085-.086-.028-.027-.141-.113-.17-.142-.648-.479-.169-.14-.085-.057-.028-.029-.028-.027-.056-.029-.339-.226-1.41-.9c-.282-.169-.564-.339-.846-.479,0,0-.169-.084-.451-.253a71.432,71.432,0,0,0-15.762-5.668c-.592-.141-1.212-.254-1.8-.367l-2.509-.451h-.029l-.592-.113h-.027l-.113-.028-3.271-.564c-1.1-.169-2.2-.253-3.3-.479,1.071.31,2.171.535,3.242.79l3.215.816,3.214.818c1.072.255,2.115.536,3.158.875a49.007,49.007,0,0,1,4.963,1.72,1.7,1.7,0,0,1,.394.2c1.72.649,3.074,1.241,3.637,1.494a1.363,1.363,0,0,1,.254.085l.057.057c.986.423,1.945.845,2.9,1.324a30.986,30.986,0,0,1,2.82,1.608l1.353.9.339.226.056.056.085.057.169.14.056.057-1.325.479-3.016,1.043-.2.084c-.085.057-.2.113-.226.142a.955.955,0,0,0-.281.31c.112.085.253.2.394.31l.846.761,3.694-1.268.93-.367.4-.141.2-.056.085-.028s.084-.056.141-.085l.169-.084a1.348,1.348,0,0,0,.366-.452c.254.2.508.423.762.649.48.451.93.9,1.353,1.382a27.294,27.294,0,0,1,2.453,2.989c.17.253.339.506.48.76a.106.106,0,0,0-.085-.028L1186,891.5a.846.846,0,0,0-.283-.057h-.027c-.113-.027,0,0-.085-.027a.764.764,0,0,0-.31.113.54.54,0,0,0-.17.479.423.423,0,0,0,.085.2v.029l.056.084a10.349,10.349,0,0,1,.79,1.692,18.321,18.321,0,0,1,.536,1.776c.169.621.282,1.24.4,1.861l.14.958.085.931c.028.62.056,1.269.056,1.889.028.648,0,1.269,0,1.918a3.714,3.714,0,0,0-.084.366,2.382,2.382,0,0,1-.113.423,4.9,4.9,0,0,1-.282.846,14.808,14.808,0,0,1-.846,1.635c-.338.536-.705,1.043-1.071,1.551-.2.253-.4.479-.592.733l-.621.7-.958,1.1h1.41c1.071-.027,2.143-.027,3.214-.056.225.226.451.423.648.621a5.842,5.842,0,0,1,.7.732,1.093,1.093,0,0,1,.141.339c.028.057.028.057.028.084a1.361,1.361,0,0,1-.676.311c-.733.17-1.495.366-2.228.563-.761.2-1.494.423-2.227.649-1.467.451-2.9.9-4.37,1.41l-.846.282-7.416-.226-5.414-.14-3.75-.086v-.2l.028-.479.057-1.664.056-.873c.029-.537.057-1.1.057-1.665a30.17,30.17,0,0,0-.395-6.879,22.285,22.285,0,0,0-6.965-12.209l-.676-.592-.705-.592-.649-.507-.733-.508a16.735,16.735,0,0,0-1.494-.958,16.905,16.905,0,0,0-1.579-.874,25.176,25.176,0,0,0-6.8-2.172,26.485,26.485,0,0,0-25.264,10.292,21.819,21.819,0,0,0-3.242,6.541,29.709,29.709,0,0,0-1.269,6.936,47.653,47.653,0,0,0,.028,6.655c-.592.056-1.212.084-1.833.14-4.229.226-8.515.31-12.829.283s-8.628-.141-13-.2h-6.541l-6.486.058-26.024.225-50.5.395a7.709,7.709,0,0,0-.085-1.184c-.056-.875-.169-1.72-.254-2.594-.225-1.692-.422-3.384-.733-5.133a27.087,27.087,0,0,0-3.694-9.981,19.642,19.642,0,0,0-3.552-4.088,21.48,21.48,0,0,0-4.455-3.045,25.991,25.991,0,0,0-10.235-2.736,25.7,25.7,0,0,0-5.3.283,20.974,20.974,0,0,0-2.594.535c-.423.085-.846.255-1.268.368-.452.14-.846.309-1.241.45a19.393,19.393,0,0,0-4.681,2.566c-.535.4-1.043.818-1.551,1.27l-.225.2a24.682,24.682,0,0,0-2.087,2.143,19.678,19.678,0,0,0-1.635,2.087,10.463,10.463,0,0,0-.733,1.1c-.254.366-.451.705-.677,1.1a16.545,16.545,0,0,0-1.748,5.048,32.741,32.741,0,0,0-.394,5.216c0,.874.028,1.72.028,2.566l.056,1.268v.312l-17.707-.705.225-.142-8.543-14.351c-.028-.367-.057-.789-.084-1.184a12.35,12.35,0,0,1,.056-1.439,12.763,12.763,0,0,1,.225-1.437,1.431,1.431,0,0,1,.057-.339l.056-.169.028-.057v-.027l.029-.057.225-.761c.649-1.946,1.269-3.92,1.833-5.893.141-.48.31-.987.423-1.495.141-.508.254-1.015.366-1.523.226-.987.451-2,.649-3.016s.366-2,.536-3.045c0-.057.028-.142.028-.2.169-.987.338-1.891.395-2.623a.7.7,0,0,0,.028-.226h-.113l-.113-.027a.252.252,0,0,1-.028.14,20.852,20.852,0,0,1-.367,2.594c-.027.113-.027.2-.056.31-.254.987-.508,1.974-.789,2.961s-.565,1.973-.874,2.96c-.283.987-.621,1.918-.988,2.876-.7,1.918-1.493,3.836-2.284,5.725l-.281.705-.057.084-.028.112-.056.2a3.39,3.39,0,0,0-.141.395,11.1,11.1,0,0,0-.367,1.607,15.435,15.435,0,0,0-.2,1.636A11.5,11.5,0,0,0,920.229,899.371Z" fill="#323a52"/>
    <path id="Path_8" data-name="Path 8" d="M1148.954,874.588a.564.564,0,0,0,.179-1.1c-.163-.055-2.228-.652-2.228-.652-1.244-.361-2.921-.849-4.9-1.308l-2.41-.57c-1.217-.287-2.511-.59-3.846-.923l-1.121-.294a.619.619,0,0,0-.253-.064l-.567-.2-.339-.069c-.967-.269-1.947-.578-2.979-.914-1.377-.449-2.809-.925-4.213-1.432-2.823-.958-5.609-1.971-8.225-2.957s-5.069-1.944-7.126-2.756c-1.033-.421-1.961-.815-2.8-1.181l-.958-.413c-.422-.179-.8-.342-1.129-.5l-1.716-.82a.55.55,0,0,0-.148-.1,1.867,1.867,0,0,0-.716-.149,1.66,1.66,0,0,0-.493.074c-2.264-1.189-4.731-2.412-7.735-3.835-3.274-1.534-6.476-3.018-9.7-4.351-3.517-1.456-6.8-2.662-10.023-3.684a89.33,89.33,0,0,0-10.417-2.61,88.309,88.309,0,0,0-10.67-1.248c-3.519-.225-7.09-.286-10.543-.341l-5.364-.03c-1.787,0-3.546.027-5.33.115a177.53,177.53,0,0,0-21.147,1.98c-5.7.826-11.394,2.043-16.9,3.219l-3.852.818c-1.718.366-3.459.729-5.174,1.043l-5.182.9-10.381,1.861-10.2,3.833-10.037,3.839a.564.564,0,0,0,.2,1.09.548.548,0,0,0,.185-.033l10.152-3.524,10.1-3.58,15.516-2.374c1.159-.187,2.3-.4,3.448-.608l1.784-.322c2.437-.46,4.885-.947,7.324-1.432l3.035-.6c3.967-.749,7.255-1.286,10.336-1.685a179.052,179.052,0,0,1,20.891-1.688l3.056-.028c.719,0,1.438,0,2.154.028l5.259.085c3.117.072,6.807.184,10.482.449a78.235,78.235,0,0,1,20.31,3.863,160.034,160.034,0,0,1,19.275,7.952l20.637,8.47.331.124,2.332.768c2.682.9,5.532,1.834,8.412,2.709l1.212.367c1.021.308,2.054.622,3.089.906l.633.179c1.215.344,2.429.685,3.646.9,1.872.383,3.681.689,5.339.97l2.219.382c2.222.367,4.018.76,5.306,1.041.961.2,1.606.336,1.856.394A.7.7,0,0,0,1148.954,874.588Z" fill="#323a52"/>
    <path id="Path_9" data-name="Path 9" d="M1118.564,907.169q.06-.4.13-.874c.051-.315.085-.657.162-1.014l.284-1.129a19.4,19.4,0,0,1,2.383-5.4,20.11,20.11,0,0,1,5.31-5.542,19.822,19.822,0,0,1,8.528-3.32c.411-.073.809-.071,1.218-.11l.612-.044.308-.023c.149,0,.223,0,.338.006a20.152,20.152,0,0,1,7.7,1.516l1.245.567c.414.2.8.45,1.2.674l.6.349c.192.129.379.267.569.4.375.276.769.531,1.132.829a21.2,21.2,0,0,1,3.847,4.186,20.353,20.353,0,0,1,2.513,5.222l.371,1.417.091.356.059.37.116.741.113.742c.045.252.035.473.055.71l.076,1.4-.079,1.512a10.235,10.235,0,0,1-.17,1.457l-.114.725-.057.362-.092.355-.371,1.417a20.279,20.279,0,0,1-2.515,5.22,20.988,20.988,0,0,1-3.847,4.184c-.363.3-.757.553-1.131.829-.191.135-.377.273-.569.4l-.6.349c-.4.224-.789.478-1.2.674l-1.244.567a19.181,19.181,0,0,1-5.147,1.358,18.91,18.91,0,0,1-2.532.158c-.114,0-.184.008-.332.007l-.315-.023-.626-.045c-.415-.039-.831-.038-1.236-.111a19.829,19.829,0,0,1-8.509-3.317,20.064,20.064,0,0,1-5.311-5.54,19.329,19.329,0,0,1-2.383-5.4q-.151-.6-.285-1.128c-.077-.357-.111-.7-.162-1.014l-.13-.874c-.038-.267-.03-.514-.046-.733l-.062-1.346s.026.468.074,1.345c.017.219.012.466.053.733l.137.871c.054.314.091.655.171,1.01s.19.728.294,1.124a17.822,17.822,0,0,0,2.458,5.335,18.716,18.716,0,0,0,5.408,5.3,19.249,19.249,0,0,0,8.381,2.86c.39.053.791.034,1.189.054l.6.018.3.008c.057,0,.193-.013.286-.019a19.091,19.091,0,0,0,7.227-1.747l1.14-.581c.379-.2.727-.454,1.094-.678l.545-.347.512-.4c.337-.273.692-.523,1.016-.814a20.265,20.265,0,0,0,3.441-3.96l.673-1.144a4.11,4.11,0,0,0,.306-.589l.28-.6.287-.6c.089-.2.154-.416.232-.624.145-.421.316-.833.441-1.26l.327-1.3.081-.324.048-.331.1-.663a9.022,9.022,0,0,0,.144-1.332l.063-1.295-.066-1.4c-.018-.228-.007-.48-.047-.69l-.1-.646-.1-.647-.047-.323-.081-.324-.327-1.3c-.124-.427-.3-.839-.44-1.26-.079-.207-.143-.421-.233-.624l-.287-.6-.282-.6a4.226,4.226,0,0,0-.306-.589l-.673-1.143a20.1,20.1,0,0,0-3.441-3.958c-.324-.29-.679-.541-1.015-.813l-.512-.4-.545-.348c-.366-.224-.715-.479-1.094-.678l-1.139-.581a19.134,19.134,0,0,0-7.209-1.747l-.28-.02-.309.009-.613.017c-.4.021-.823,0-1.208.056a19.271,19.271,0,0,0-8.362,2.857,18.684,18.684,0,0,0-5.408,5.294,17.8,17.8,0,0,0-2.459,5.335q-.156.594-.294,1.124c-.08.355-.117.7-.171,1.01l-.137.872c-.041.266-.036.513-.053.732l-.074,1.344s.021-.468.062-1.345C1118.533,907.683,1118.526,907.436,1118.564,907.169Z" fill="#323a52"/>
    <path id="Path_10" data-name="Path 10" d="M951.944,907.389q.059-.4.129-.874c.052-.315.085-.657.162-1.014s.184-.731.285-1.129a19.383,19.383,0,0,1,2.383-5.4,20.093,20.093,0,0,1,5.31-5.542,19.821,19.821,0,0,1,8.528-3.32c.41-.073.808-.071,1.217-.11l.613-.044.307-.022c.149,0,.223,0,.338.005a20.163,20.163,0,0,1,7.7,1.516l1.244.567c.414.2.8.45,1.2.674l.6.349c.193.129.379.268.569.4.375.276.769.532,1.132.829a21.144,21.144,0,0,1,3.847,4.186,20.323,20.323,0,0,1,2.513,5.222l.371,1.418.092.355.058.37.117.741.113.742a7.115,7.115,0,0,1,.054.71l.076,1.4-.078,1.512a10.362,10.362,0,0,1-.17,1.457l-.115.725-.057.362-.091.355-.372,1.417a20.248,20.248,0,0,1-2.514,5.22,21.027,21.027,0,0,1-3.848,4.185c-.362.3-.756.553-1.131.828-.19.135-.377.273-.569.4l-.6.348c-.4.224-.788.478-1.2.674s-.831.379-1.244.567a19.185,19.185,0,0,1-5.148,1.358,18.9,18.9,0,0,1-2.532.158c-.113,0-.183.008-.332.007l-.315-.023-.626-.044c-.415-.04-.831-.039-1.236-.112a19.822,19.822,0,0,1-8.509-3.317,20.061,20.061,0,0,1-5.31-5.54,19.364,19.364,0,0,1-2.384-5.4q-.15-.6-.285-1.128c-.077-.357-.11-.7-.162-1.014s-.09-.607-.129-.874-.031-.514-.047-.733c-.04-.878-.062-1.346-.062-1.346l.074,1.345c.018.219.013.466.053.733l.137.871c.055.314.091.655.171,1.01s.19.728.294,1.124a17.8,17.8,0,0,0,2.459,5.335,18.711,18.711,0,0,0,5.407,5.3,19.254,19.254,0,0,0,8.381,2.86c.391.054.791.034,1.189.054l.6.018.3.008c.057,0,.193-.013.286-.019a19.088,19.088,0,0,0,7.227-1.747l1.14-.581c.379-.2.728-.453,1.095-.678l.545-.347.512-.4c.336-.273.691-.523,1.015-.814a20.233,20.233,0,0,0,3.441-3.96l.673-1.143a4.186,4.186,0,0,0,.307-.59l.28-.6.286-.6c.09-.2.154-.417.233-.625.144-.421.316-.833.44-1.26l.327-1.3.081-.325.049-.331.1-.663a8.892,8.892,0,0,0,.144-1.332l.063-1.295-.066-1.4a6.6,6.6,0,0,0-.047-.69l-.1-.646-.1-.647-.047-.323-.082-.324-.326-1.3c-.125-.428-.3-.84-.441-1.261-.078-.207-.143-.421-.232-.624l-.287-.6-.282-.6a4.323,4.323,0,0,0-.306-.589l-.673-1.143a20.106,20.106,0,0,0-3.442-3.958c-.323-.29-.678-.541-1.015-.813l-.512-.4-.544-.348c-.367-.224-.716-.479-1.094-.678l-1.14-.581a19.135,19.135,0,0,0-7.209-1.747l-.28-.02-.308.009-.614.017c-.4.021-.822,0-1.207.056a19.267,19.267,0,0,0-8.362,2.857,18.685,18.685,0,0,0-5.408,5.294,17.81,17.81,0,0,0-2.46,5.335l-.294,1.124c-.08.355-.116.7-.171,1.01l-.137.872c-.04.266-.035.513-.053.732l-.074,1.344.062-1.345C951.913,907.9,951.906,907.656,951.944,907.389Z" fill="#323a52"/>
    <path id="Path_11" data-name="Path 11" d="M978.881,862.94l4.8-10.389-5.247,10.791a.554.554,0,0,1-.2.2.6.6,0,0,1,.193.218.745.745,0,0,1,.427-.2l.118.011a.628.628,0,0,1-.072-.1A.561.561,0,0,1,978.881,862.94Z" fill="#323a52"/>
    <path id="Path_12" data-name="Path 12" d="M950.663,864.788a.965.965,0,0,0-.422-.317l-.267-.118a.891.891,0,0,1-.308-.088l-2.079-.256c-1.355-.2-2.7-.366-4.081-.537l-4.089-.507-2.029-.226c-.752-.06-1.371-.11-2.013-.134l-2.588-.345-2.517-.366-.427-.025a.751.751,0,0,0-.311.083,1.505,1.505,0,0,0-.542.512,1.691,1.691,0,0,1-.141.339c-.024.071-.071.193-.1.286l-.077.366-1,8.693.008.2,1.015-8.583.06-.311.1-.338a2.256,2.256,0,0,1,.218-.479,1.174,1.174,0,0,1,.5-.515,1.036,1.036,0,0,1,.327-.083.574.574,0,0,1,.278.074l2.561.471,2.558.449a.3.3,0,0,1,.174.047l.057.027c.056,0,.113,0,.177,0a14.935,14.935,0,0,1,1.652.154l2,.253,4.483.625c1.214.177,2.423.35,3.635.5l1.049.141.975.113a.564.564,0,0,1,.223,1.046,3.154,3.154,0,0,1-.438.231c-.254.11-1.7.689-1.716.694l-.842.284c-.994.256-7.165,1.79-7.165,1.79-1.162.289-8.927,2.5-10.089,2.811l-.022.005.49-.093c.581-.11,1.168-.223,1.741-.355l9.769-2.545c1.1-.206,2.186-.44,3.274-.674l2.145-.455c.314-.1.578-.176.876-.286a8.4,8.4,0,0,0,.889-.3c.314-.115.608-.22.9-.358a2.545,2.545,0,0,0,.388-.19l.295-.157c.014-.025.251-.176.267-.2a2.445,2.445,0,0,0,.165-.234.566.566,0,0,1,.474-.259c.016,0,21.653,1.922,21.653,1.922l-21.747-2.574A.563.563,0,0,1,950.663,864.788Z" fill="#323a52"/>
    <path id="Path_13" data-name="Path 13" d="M1174.346,888.055l-.363-.278a29.67,29.67,0,0,0-3.1-2.1l-.462-.286-.43-.245a8.148,8.148,0,0,0-.705-.413c-.845-.443-1.454-.749-2.09-1.024-1.286-.628-2.547-1.22-3.81-1.779-.312-.138-.626-.273-.937-.41.306.154.609.308.912.465,1.242.617,2.486,1.242,3.728,1.889l1.826,1.027c.143.069.316.176.5.286l.366.215.906.584a29.118,29.118,0,0,1,3.3,2.387l.507-.184Z" fill="#323a52"/>
    <path id="Path_14" data-name="Path 14" d="M1105.01,913.247a3.047,3.047,0,0,0,.218-.372c0-.113.055-.165.118-.259a4.89,4.89,0,0,0,.309-.594c.1-.281.212-.581.294-.876.149-.526.254-1.049.353-1.553.11-.708.193-1.291.248-1.848l.085-.878s.055-.82.058-.834c.239-1.743.429-3.464.619-5.2l.168-1.531c.254-2.247.479-4.5.678-6.782l.253-3.4c.083-1.121.11-2.239.138-3.415-.031-2.53-.13-4.684-.309-6.76-.071-1.01-.19-1.99-.33-2.984l-.08-.006c.113,1.066.157,2.04.185,3.01.057,1.1.085,2.233.085,3.373s-.028,2.266-.058,3.4c-.061,1.1-.143,2.231-.256,3.365-.055.719-.138,1.46-.218,2.2l-.121,1.154c-.256,2.238-.537,4.5-.82,6.727l-.956,7.186-.113,1.234c-.057.57-.143,1.118-.231,1.663-.154.705-.256,1.17-.38,1.594a6.28,6.28,0,0,1-.239.744,4.715,4.715,0,0,1-.229.451c-.005.019-.218.446-.218.446-.013.042-.047.073-.063.113Z" fill="#323a52"/>
    <path id="Path_15" data-name="Path 15" d="M1118.591,869.926l-.226-.355-.234-.281a4.989,4.989,0,0,0-.551-.507c-1.388-1.073-2.841-2.139-4.3-3.117-.207-.159-.4-.28-.578-.4a.773.773,0,0,1-.234-.253l-6.364-2.611c2.33,1.333,4.5,2.688,6.567,4.1,1.454,1.027,2.842,2.018,4.233,3.125.019.014.228.193.245.207a4.44,4.44,0,0,1,.347.352,1.5,1.5,0,0,1,.11.209l-.006-.016a1.607,1.607,0,0,1,.309,1.013,2.676,2.676,0,0,1-.983,1.919,3.491,3.491,0,0,1-.945.606,1.977,1.977,0,0,1-.4.1h.022c.1,0,.011.041-.157.074l-.311.058a5.4,5.4,0,0,1-.716.055,15.834,15.834,0,0,1-1.611-.113l-.482-.047-1.335-.083-1.317-.055-1.866-.112a.571.571,0,0,1-.51-.4c-.014-.044-.025-.085-.038-.126a.566.566,0,0,1-.551.443.536.536,0,0,1-.2-.036l-10-.787-10.512-.76-21.059-1.5-21.037-1.467-5.017-.336a.56.56,0,0,1-.52-.485l-.367-2.679.245,2.434a.568.568,0,0,1-.561.62c-.014,0-4.3-.342-4.3-.342l-10.521-.93s-33.194-2.847-35.507-3.043l35.468,3.527,10.521,1.071,4.648.449a.565.565,0,0,1,.5.457l.256,1.355c.137.708.256,1.421.366,2.131.2,1.427.4,2.839.57,4.249s.311,2.836.424,4.254c.058.71.088,1.424.115,2.134.036.463.047.933.061,1.407l.022.683q-.379,6.927-.675,13.778l-.311,6.909-.113,3.434-.015,1.294a26.368,26.368,0,0,1,.585,2.69h.452l-.033-.633a.863.863,0,0,1,.014-.221.881.881,0,0,1-.014-.093,9.611,9.611,0,0,1,0-1.316l0-.557.113-4.581.2-6.881.452-13.765-.14-2.192c-.061-.788-.116-1.465-.193-2.117q-.214-2.164-.51-4.307c-.192-1.4-.446-2.825-.727-4.224-.074-.482-.173-.942-.272-1.4l-.149-.714c-.052-.305-.121-.572-.193-.856a.66.66,0,0,1,.1-.553.61.61,0,0,1,.435-.251l4.541.369,42.062,3.186,15.792,1.211,3.954.339,5.669.386c.328.013.645.027.934.068l.652.056c.49.044,1.011.093,1.578.093l.476-.014.314-.027.378-.075a2.14,2.14,0,0,1,.432-.115l.286-.127a4.517,4.517,0,0,0,1.256-.8,3.689,3.689,0,0,0,1.341-2.671A2.868,2.868,0,0,0,1118.591,869.926Z" fill="#323a52"/>
  </g>
</svg>
