<svg xmlns="http://www.w3.org/2000/svg" width="245.937" height="98.541" viewBox="0 0 245.937 98.541">
  <g id="Group_8" data-name="Group 8" transform="translate(-932.948 -1197.499)">
    <path id="Path_41" data-name="Path 41" d="M1056.469,1296.04a17.933,17.933,0,0,1-6-.886.751.751,0,0,1,.191-1.459l.387-.029c2.092-.162,4.256-.326,6.4-.326a26.765,26.765,0,0,1,7.632.967.752.752,0,0,1-.21,1.474h-.034c-.382-.018-.767-.025-1.148-.025-1.185,0-2.372.071-3.559.14-1.219.073-2.436.144-3.652.144Zm12.988-.573a9.537,9.537,0,0,1-1.574-.137.751.751,0,0,1,.037-1.488,10.24,10.24,0,0,0,6.733-3.755,18.783,18.783,0,0,0,2.947-4.366,36.878,36.878,0,0,0,2.09-5.478.756.756,0,0,1,.722-.541h1.053a.75.75,0,0,1,.727.942,44.59,44.59,0,0,1-1.735,5.223,17.219,17.219,0,0,1-5.992,7.848,8.226,8.226,0,0,1-5.008,1.752Zm-20.612-.2a.843.843,0,0,1-.14-.091,16.2,16.2,0,0,1-6.716-9.861,2.491,2.491,0,0,0-.889-1.665s-.063-.039-.088-.061a.75.75,0,0,1-.262-.813v-2.337a.751.751,0,0,1,.59-.734.685.685,0,0,1,.162-.018.754.754,0,0,1,.683.436l1.458,3.153a68.339,68.339,0,0,0,6.081,10.784.744.744,0,0,1,.122.918.754.754,0,0,1-.656.37A.771.771,0,0,1,1048.845,1295.269Zm-77.53-2.338c-3.549-.558-6.23-2.557-8.425-6.293a.847.847,0,0,1-.172-.293.792.792,0,0,1,.059-.617.743.743,0,0,1,.651-.394h.01a.743.743,0,0,1,.521.21,5.734,5.734,0,0,1,1.547,1.349,7.69,7.69,0,0,0,.73.747,9.828,9.828,0,0,0,6.268,2.619,8.756,8.756,0,0,0,5.155-1.836,10.036,10.036,0,0,0,2.438-3.072l.235-.387a10.653,10.653,0,0,0,.805-1.574l.876-2.168c-4.028.191-8.145.36-12.216.36-1.96,0-3.921-.037-5.884-.13-2.624-.123-5.241-.333-7.857-.544l-3.544-.279a.75.75,0,0,1-.142-1.473,28.928,28.928,0,0,1,7.732-.945c1.055,0,2.11.042,3.162.1,3.559.223,7.348.438,11.105.438,2.211,0,4.22-.073,6.144-.222,1.838-.145,3.74-.216,5.813-.216,4.11,0,8.256.284,12.268.558,3.98.272,8.1.554,12.148.554.932,0,1.865-.015,2.854-.047a2.951,2.951,0,0,1,.433.042c6.269.514,13.707,1.038,21.366,1.038q2.074,0,4.154-.054a.776.776,0,0,1,.173-.02.828.828,0,0,1,.527.189.754.754,0,0,1-.262,1.3,7.178,7.178,0,0,1-3.094.854,70.959,70.959,0,0,1-9.321.6c-2.313,0-4.719-.106-7.15-.316-2.2-.188-4.4-.284-6.618-.379a75.7,75.7,0,0,1-13.5-1.393,23.786,23.786,0,0,0-5.451-.536c-.732,0-1.469.019-2.22.044-2.754.09-5.507.225-8.259.36-.335.017-.67.034-1.008.049a.758.758,0,0,1,.091.389c-.255,6.562-6.058,11.465-11.079,11.465A6.9,6.9,0,0,1,971.315,1292.931Zm-13.115-.68c-6.136,0-10.983-5.5-12.062-13.685a.77.77,0,0,1,.044-.367,56.53,56.53,0,0,1-9.269-8.342.751.751,0,0,1,.56-1.251.758.758,0,0,1,.409.12c4.073,2.644,8.711,5.943,12.26,10.359a.751.751,0,0,1-.587,1.221.763.763,0,0,1-.4-.112c-.389-.245-.779-.495-1.163-.747a.314.314,0,0,1,.017.052,23.843,23.843,0,0,0,.913,2.545c.03.066.059.132.088.2a.753.753,0,0,1,.534-.649.729.729,0,0,1,.215-.032.754.754,0,0,1,.681.431,18.3,18.3,0,0,0,8.16,8.839.752.752,0,0,1-.345,1.417Zm203.027-3.936c-1.49-.066-2.983-.22-4.476-.374-.931-.1-1.861-.194-2.793-.27-1.2-.1-2.389-.308-3.542-.516l-1.133-.191a1.179,1.179,0,0,1-1.124-.612.981.981,0,0,1,.047-.59,7.278,7.278,0,0,1-4.24-4.112.791.791,0,0,1-.176-.433.783.783,0,0,1,.286-.666.754.754,0,0,1,.475-.169.784.784,0,0,1,.167.017.775.775,0,0,1,.374.211,16.463,16.463,0,0,1,2.585,1.963,15.748,15.748,0,0,0,2.249,1.74,4.372,4.372,0,0,0,2.37.595c.252,0,.506-.012.763-.029a2.287,2.287,0,0,1-.687-1.459.748.748,0,0,1,.445-.605.717.717,0,0,1,.3-.063.738.738,0,0,1,.446.146,12.507,12.507,0,0,0,17.9-2.442c4.594-5.559,6.383-14.209,4.56-22.037-1.64-7.047-5.85-12.417-11.857-15.119a.751.751,0,0,1,.308-1.437c.032,0,.067,0,.1.005,4.406.58,7.718,2.9,10.42,7.306a27.817,27.817,0,0,1,3.889,14.611c.1,7.79-2.176,14.377-6.772,19.581a13.394,13.394,0,0,1-10.276,4.961C1161.634,1288.327,1161.431,1288.325,1161.227,1288.315Zm-75.978-7.162a.752.752,0,0,1-.093-1.5c4.283-.533,7.767-.852,10.966-1.006,2.873-.122,5.747-.205,8.62-.291,3.567-.1,7.13-.206,10.7-.387,1.88-.093,3.762-.152,5.644-.21,3.662-.115,7.448-.233,11.159-.615l1.733-.188a55.721,55.721,0,0,1,6.21-.463,22.738,22.738,0,0,1,3.138.2,7.191,7.191,0,0,0,.952.071,2.927,2.927,0,0,0,.957-.134.7.7,0,0,1,.247-.042.746.746,0,0,1,.406.118l.977.626a.757.757,0,0,1,.135,1.158,4.34,4.34,0,0,1-3.253,1.18l-1.048,0c-6.007,0-12.116.272-18.022.534-3.3.147-6.6.294-9.9.4-3.4.111-6.8.128-10.194.147-4.93.025-10.028.052-15.017.377-.587.042-1.17.054-1.752.054Zm-148.5-13.974a.752.752,0,0,1-.374-.308.611.611,0,0,1-.071-.061,3.941,3.941,0,0,1-.5-.568,15.085,15.085,0,0,1-2.837-9.563c.051-.9.085-1.806.117-2.71a36.263,36.263,0,0,1,1.405-10.366,3.1,3.1,0,0,1,2.387-2.511.686.686,0,0,1,.12-.01.74.74,0,0,1,.707.556.762.762,0,0,1-.254.786,2.406,2.406,0,0,0-.7,1.769c-.066,1.136-.151,2.267-.237,3.4-.1,1.285-.2,2.57-.262,3.858l-.046.871c-.245,4.651-.478,9.042,1.4,13.274a1.819,1.819,0,0,1,.132.614.75.75,0,0,1-.174.8l-.024.024a.7.7,0,0,1-.5.2A.884.884,0,0,1,936.751,1267.179Zm.223-26.474a.752.752,0,0,1-.573-.621c-.46-3.1.365-5.853,2.675-8.91a.751.751,0,0,1,.6-.3.7.7,0,0,1,.2.026.747.747,0,0,1,.549.642,5.214,5.214,0,0,1-.36,2.3,6.594,6.594,0,0,0-.247.876c0,.02-.064.226-.069.245l-.852,2.137a2.521,2.521,0,0,0-.183.5c-.084.257-.145.531-.206.808a5.441,5.441,0,0,1-.744,2,.755.755,0,0,1-.617.321A.665.665,0,0,1,936.974,1240.7Zm234.592-.815a27.487,27.487,0,0,0-13.32-8.64,107.209,107.209,0,0,0-16.2-2.719,78.389,78.389,0,0,1-10.819-1.9.745.745,0,0,1-.489-.517,1.35,1.35,0,0,1-.182-.022c-3.375-.822-16.186-8.444-18.191-9.717l-.511-.321c-4.125-2.592-8.388-5.272-12.745-7.57a27.035,27.035,0,0,0-3.011-1.344.734.734,0,0,1-.262-.047,16.178,16.178,0,0,0-2.638-.7l-6.717-1.782a.752.752,0,0,1,.164-1.478c.649-.025,1.3-.042,1.941-.042a21.235,21.235,0,0,1,9.6,1.9c8.542,4.149,26.073,14.16,33.027,19.79a.741.741,0,0,1,.249.377,18.836,18.836,0,0,1,2.837-.145c5.316,0,13.262,1.166,24.288,3.567a25.143,25.143,0,0,1,10.9,5.585,9.67,9.67,0,0,1,3.392,5.069.752.752,0,0,1-.391.857.73.73,0,0,1-.338.081A.749.749,0,0,1,1171.566,1239.89Zm-228.382-10.963a.753.753,0,0,1-.074-.859,5.871,5.871,0,0,1,2.186-1.963l.45-.281a21.517,21.517,0,0,1,7.324-2.832,43.889,43.889,0,0,0,11.854-4.617c7.629-3.9,15.54-7.566,23.189-11.112l.548-.255a89.308,89.308,0,0,1,15.318-5.385c12.018-3.054,24.063-3.7,35.286-3.933,4.474-.1,8.948-.191,13.425-.191,5.762,0,10.552.157,15.07.494,1.545.115,3.092.206,4.639.3a104.25,104.25,0,0,1,12.547,1.248,11.962,11.962,0,0,1,4.914,1.667.751.751,0,0,1-.425,1.37l-.6-.012a64.265,64.265,0,0,1-6.782-.367l-.629-.076c-6.467-.788-13.156-1.6-19.741-1.774-5.678-.14-11.55-.282-17.317-.282a211.783,211.783,0,0,0-22.523,1.031c-12.092,1.258-21.768,3.683-30.445,7.631-5.992,2.713-12.042,5.584-17.9,8.359q-4.431,2.1-8.865,4.193l-1.285.605-7.869,3.6c-3.39.891-6.927,2.022-11.463,3.666a.767.767,0,0,1-.257.044A.754.754,0,0,1,943.184,1228.927Z"/>
    <path id="Path_42" data-name="Path 42" d="M1054.736,1277.237a24.674,24.674,0,0,1-.284-2.937c.022.127.382,2.146.382,2.146a36.753,36.753,0,0,0,3.564,11.147A26.036,26.036,0,0,1,1054.736,1277.237Zm-4.658-4.727a21.925,21.925,0,0,1,1.44-4.829,166.519,166.519,0,0,1,7.786-15.244c2.594-4.5,5.505-7.367,9.156-9.037a6.25,6.25,0,0,1,2.49-.621,5.909,5.909,0,0,0-1.564.646c-2.9,1.711-5.892,3.639-7.85,6.721-4.638,7.3-8.981,14.551-11.117,23.013-.634,2.516-1.638,3.789-3.479,4.22A6.7,6.7,0,0,0,1050.078,1272.51Zm99.41-3.147a24.011,24.011,0,0,1-1.392,4.32A27.944,27.944,0,0,1,1149.488,1269.363Zm-110.192,3.625a33.784,33.784,0,0,1-3.909-.235c-2.065-.245-4.119-.578-6.173-.911-2.5-.4-5.088-.822-7.666-1.072l-1.045-.1a141.724,141.724,0,0,1,19.033,2.318Zm64.761-4.626-.71-.005c-4.878-.027-7.345-2.441-7.541-7.378l-.037-.927c-.085-2.2-.171-4.462-.394-6.687a171.477,171.477,0,0,0-3.321-19.317,19.875,19.875,0,0,1,1.4,4.5,161.356,161.356,0,0,1,2.7,21.167c.281,5.532,2.8,8,8.32,8l.394,0c1.608,0,3.213.078,4.817.154,1.554.076,3.106.149,4.66.156l15.376.01c-6.227.311-12.233.362-17.469.362C1109.52,1268.393,1106.791,1268.376,1104.057,1268.362Zm-154.182-.708a89.3,89.3,0,0,1,15.722-1.321c2.034,0,4.105.058,6.239.176q-1.156-.026-2.311-.027a105.659,105.659,0,0,0-13.322.849,37.536,37.536,0,0,1-4.763.392C950.9,1267.723,950.375,1267.7,949.875,1267.654Zm129.627-11.7a18,18,0,0,0-6.641-8.841,10.069,10.069,0,0,1,1.408.9,15.485,15.485,0,0,1,4.878,6.714,40.886,40.886,0,0,1,2.989,11.6A41.581,41.581,0,0,0,1079.5,1255.954Zm72.309,5.268a49.215,49.215,0,0,1,2.179-6.119c.5-1.224,1-2.451,1.434-3.694a31.154,31.154,0,0,1,4.484-8.251,9.746,9.746,0,0,1,5.1-3.63,5.852,5.852,0,0,1,1.689-.255,6.971,6.971,0,0,1,5.463,3.067,8.363,8.363,0,0,1,1.537,3.359,14.174,14.174,0,0,0-1.5-2.536c-1.657-2.188-3.6-3.344-5.635-3.344a7.554,7.554,0,0,0-5.287,2.595,15.417,15.417,0,0,0-1.515,1.8,29.983,29.983,0,0,0-3.627,6.452l-.238.587c-1.113,2.761-2.227,5.522-3.4,8.256-.232.536-.44,1.087-.648,1.635Zm-12.625-26.856c-.188-.495-.389-1.058-.575-1.665a25.286,25.286,0,0,1,2.729,15.639A33.213,33.213,0,0,0,1139.186,1234.366Zm-137.261,2.932a8.721,8.721,0,0,1-4.406-1.136,1.047,1.047,0,0,1-.6-1.052c.037-.394.274-.512.91-.732.042-.015.084-.027.123-.041a1.183,1.183,0,0,0-.3.724c-.123,1.349,1.965,1.542,2.856,1.623,2.037.188,4.075.352,6.114.514-1.04.1-2.058.144-3.067.144Q1002.741,1237.342,1001.925,1237.3Zm-59.757-.037a26.07,26.07,0,0,0,4.175-1.551.5.5,0,0,0-.093-.933,10.412,10.412,0,0,0-2.765-.384,9.761,9.761,0,0,0-1.08.059,8.619,8.619,0,0,1,2.614-.458,6.186,6.186,0,0,1,2.228.409c.78.288,1.04.465,1.025.959,0,.3-.1.727-.954,1a20.339,20.339,0,0,1-5.158.9Zm72.769-1c-1.077-.22-2.151-.465-3.226-.71-2.1-.48-4.237-.967-6.415-1.28a67.944,67.944,0,0,1,8.858,1.246,23.294,23.294,0,0,1,4.242,1.392C1017.147,1236.721,1016,1236.483,1014.937,1236.263Zm-9.928-6.21q-.667,0-1.343.017c-2.884.076-6.318.534-8.893,3.043a7.319,7.319,0,0,1,5.7-3.439,36.075,36.075,0,0,1,4.494-.277,52.615,52.615,0,0,1,14.375,2.252,29.062,29.062,0,0,1,8.92,4.1A50.765,50.765,0,0,0,1005.009,1230.053Zm-58.382-.382a12.358,12.358,0,0,0-1.6.128c-.624.08-1.219.181-1.8.3a6.008,6.008,0,0,1,3-.7,9.978,9.978,0,0,1,1.074.059,2.538,2.538,0,0,1,1.54.67A5.009,5.009,0,0,0,946.627,1229.671Zm152.549-3.49c-3.373-.238-6.741-.524-10.111-.813-5.62-.48-11.433-.976-17.175-1.214-3.924-.161-7.157-.56-10.188-1.98a7.782,7.782,0,0,1-1.968-1.251,10.306,10.306,0,0,0,2.179.9,48.9,48.9,0,0,0,6.587,1.444c3.005.426,6.067.626,9.032.822,2.2.145,4.391.289,6.576.524l3.192.343c5,.543,10.119,1.1,15.259,1.434Q1100.9,1226.3,1099.176,1226.181Zm-103.154-.945a134.144,134.144,0,0,0-18.852-2.658l-.622-.027c-2.374-.108-4.746-.215-7.111-.215a47.269,47.269,0,0,0-8.9.727q-.312.059-.619.122l2.45-1.126a.5.5,0,0,0,.443.269.332.332,0,0,0,.044,0c2.191-.2,4.5-.3,6.873-.3a115.926,115.926,0,0,1,13.878.923,93.115,93.115,0,0,1,15.316,2.832C997.953,1225.6,996.988,1225.417,996.022,1225.236Zm13.53-5.329c6.763-.954,13.335-2.087,19.364-5.414a17.06,17.06,0,0,1,4.616-1.642c-8.846,5.035-19,7.615-31.536,8.011C1004.52,1220.568,1007.038,1220.262,1009.552,1219.907Zm52.787-8.875c7.889-3.378,14.519-6,22-6.525l2.206-.142.947.249c-.269,0-.538.01-.808.018-10.047.293-19,4.214-28.006,8.645A15.9,15.9,0,0,1,1062.339,1211.032Zm-16.035-4.8c-.159-.837-1.033-.942-1.554-1.006a3.706,3.706,0,0,1-.4-.063,36.764,36.764,0,0,0-5.465-.7c-.612-.049-1.224-.1-1.834-.157-3.353-.323-6.694-.485-9.93-.485a91.77,91.77,0,0,0-18.2,1.792,37.141,37.141,0,0,1-7.38.989c-.284,0-.563-.005-.84-.02a141.6,141.6,0,0,1,19.868-2.8c1.552-.113,3.15-.167,4.886-.167,3.916,0,7.9.289,11.744.571,1.363.1,2.726.2,4.092.284a28.3,28.3,0,0,1,3.936.636l1.234.252c.935.181.937.539.937.732,0,.157,0,.632-.854.982-.245.1-.485.193-.725.276A1.036,1.036,0,0,0,1046.3,1206.232Z"/>
  </g>
</svg>
