<svg xmlns="http://www.w3.org/2000/svg" width="245.937" height="98.541" viewBox="0 0 245.937 98.541">
  <g id="Group_2" data-name="Group 2" transform="translate(-140.115 -1197.499)">
    <path id="Path_1" data-name="Path 1" d="M262.528,1296.04c-1.216,0-2.433-.071-3.652-.144-1.187-.069-2.374-.14-3.559-.14-.381,0-.766.007-1.148.025h-.034a.752.752,0,0,1-.21-1.474,26.766,26.766,0,0,1,7.632-.967c2.139,0,4.3.164,6.395.326l.387.029a.751.751,0,0,1,.191,1.459,17.933,17.933,0,0,1-6,.886Zm-12.985-.573a8.226,8.226,0,0,1-5.008-1.752,17.219,17.219,0,0,1-5.992-7.848,44.567,44.567,0,0,1-1.735-5.223.75.75,0,0,1,.727-.942h1.053a.756.756,0,0,1,.722.541,36.894,36.894,0,0,0,2.09,5.478,18.787,18.787,0,0,0,2.947,4.366,10.24,10.24,0,0,0,6.733,3.755.751.751,0,0,1,.037,1.488,9.539,9.539,0,0,1-1.574.137Zm20.267-.117a.754.754,0,0,1-.656-.37.744.744,0,0,1,.122-.918,68.327,68.327,0,0,0,6.081-10.784l1.458-3.153a.754.754,0,0,1,.683-.436.685.685,0,0,1,.162.018.751.751,0,0,1,.59.734v2.337a.75.75,0,0,1-.262.813,1.057,1.057,0,0,1-.088.061,2.491,2.491,0,0,0-.889,1.665,16.2,16.2,0,0,1-6.716,9.861.838.838,0,0,1-.14.091A.771.771,0,0,1,269.81,1295.35Zm76.811-2.34c-5.021,0-10.824-4.9-11.079-11.465a.758.758,0,0,1,.091-.389c-.338-.015-.673-.032-1.008-.049-2.752-.135-5.505-.27-8.259-.36-.751-.025-1.488-.044-2.22-.044a23.785,23.785,0,0,0-5.451.536,75.7,75.7,0,0,1-13.5,1.393c-2.213.1-4.423.191-6.618.379-2.431.21-4.837.316-7.15.316a70.962,70.962,0,0,1-9.321-.6,7.178,7.178,0,0,1-3.094-.854.754.754,0,0,1-.262-1.3.828.828,0,0,1,.527-.189.775.775,0,0,1,.173.02q2.079.054,4.154.054c7.659,0,15.1-.524,21.366-1.038a2.951,2.951,0,0,1,.433-.042c.989.032,1.922.047,2.854.047,4.051,0,8.168-.282,12.148-.554,4.012-.274,8.158-.558,12.268-.558,2.073,0,3.975.071,5.813.216,1.924.149,3.933.222,6.144.222,3.757,0,7.546-.215,11.1-.438,1.052-.063,2.107-.1,3.162-.1a28.928,28.928,0,0,1,7.732.945.75.75,0,0,1-.142,1.473l-3.544.279c-2.616.211-5.233.421-7.857.544-1.963.093-3.924.13-5.884.13-4.071,0-8.188-.169-12.216-.36l.876,2.168a10.653,10.653,0,0,0,.8,1.574l.235.387a10.036,10.036,0,0,0,2.438,3.072,8.756,8.756,0,0,0,5.155,1.836,9.828,9.828,0,0,0,6.268-2.619,7.689,7.689,0,0,0,.73-.747,5.734,5.734,0,0,1,1.547-1.349.743.743,0,0,1,.521-.21h.007a.744.744,0,0,1,.654.394.792.792,0,0,1,.059.617.847.847,0,0,1-.172.293c-2.195,3.736-4.876,5.735-8.425,6.293A6.9,6.9,0,0,1,346.621,1293.01Zm14.123-.759a.752.752,0,0,1-.345-1.417,18.3,18.3,0,0,0,8.16-8.839.754.754,0,0,1,.681-.431.728.728,0,0,1,.215.032.753.753,0,0,1,.534.649c.029-.069.058-.135.088-.2a23.83,23.83,0,0,0,.913-2.545.314.314,0,0,1,.017-.052c-.384.252-.774.5-1.163.747a.763.763,0,0,1-.4.112.751.751,0,0,1-.587-1.221c3.549-4.416,8.187-7.715,12.26-10.359a.753.753,0,0,1,.979.142.748.748,0,0,1-.01.989,56.531,56.531,0,0,1-9.269,8.342.77.77,0,0,1,.044.367c-1.079,8.185-5.926,13.685-12.062,13.685Zm-203.578-3.924a13.394,13.394,0,0,1-10.276-4.961c-4.6-5.2-6.875-11.791-6.772-19.581a27.817,27.817,0,0,1,3.889-14.611c2.7-4.4,6.014-6.726,10.42-7.306.031,0,.066-.005.1-.005a.751.751,0,0,1,.308,1.437c-6.007,2.7-10.217,8.072-11.857,15.119-1.823,7.828-.034,16.478,4.56,22.037a12.507,12.507,0,0,0,17.9,2.442.738.738,0,0,1,.446-.146.717.717,0,0,1,.3.063.748.748,0,0,1,.445.605,2.287,2.287,0,0,1-.687,1.459c.257.017.511.029.763.029a4.372,4.372,0,0,0,2.37-.595,15.754,15.754,0,0,0,2.249-1.74,16.457,16.457,0,0,1,2.585-1.963.774.774,0,0,1,.374-.211.784.784,0,0,1,.167-.017.754.754,0,0,1,.475.169.776.776,0,0,1,.11,1.1,7.278,7.278,0,0,1-4.24,4.112.982.982,0,0,1,.047.59,1.179,1.179,0,0,1-1.124.612l-1.133.191c-1.153.208-2.345.418-3.542.516-.932.076-1.862.172-2.793.27-1.493.154-2.986.308-4.476.374C157.569,1288.325,157.366,1288.327,157.166,1288.327Zm74.022-7.147c-.582,0-1.165-.012-1.752-.054-4.989-.325-10.087-.352-15.017-.377-3.4-.019-6.8-.036-10.194-.147-3.3-.1-6.6-.249-9.9-.4-5.906-.262-12.015-.534-18.022-.534l-1.048,0a4.34,4.34,0,0,1-3.253-1.18.757.757,0,0,1,.135-1.158l.977-.626a.746.746,0,0,1,.406-.118.7.7,0,0,1,.247.042,2.927,2.927,0,0,0,.957.134,7.191,7.191,0,0,0,.952-.071,22.74,22.74,0,0,1,3.138-.2,55.72,55.72,0,0,1,6.21.463l1.733.188c3.711.382,7.5.5,11.159.615,1.882.058,3.764.117,5.644.21,3.567.181,7.13.284,10.7.387,2.873.086,5.747.169,8.62.291,3.2.154,6.683.473,10.966,1.006a.752.752,0,0,1-.093,1.5Zm150.775-13.952a.7.7,0,0,1-.5-.2l-.024-.024a.75.75,0,0,1-.174-.8,1.819,1.819,0,0,1,.132-.614c1.873-4.232,1.64-8.623,1.395-13.274l-.046-.871c-.064-1.288-.164-2.573-.262-3.858-.086-1.133-.171-2.264-.237-3.4a2.406,2.406,0,0,0-.7-1.769.762.762,0,0,1-.254-.786.74.74,0,0,1,.707-.556.686.686,0,0,1,.12.01,3.1,3.1,0,0,1,2.387,2.511,36.265,36.265,0,0,1,1.4,10.366c.032.9.066,1.809.117,2.71a15.085,15.085,0,0,1-2.837,9.563,3.945,3.945,0,0,1-.5.568.616.616,0,0,1-.071.061.752.752,0,0,1-.374.308A.883.883,0,0,1,381.963,1267.228Zm-.108-26.5a.755.755,0,0,1-.617-.321,5.441,5.441,0,0,1-.744-2c-.061-.277-.122-.551-.206-.808a2.519,2.519,0,0,0-.183-.5l-.852-2.137c-.005-.019-.066-.225-.069-.245a6.59,6.59,0,0,0-.247-.876,5.214,5.214,0,0,1-.36-2.3.747.747,0,0,1,.549-.642.7.7,0,0,1,.2-.026.751.751,0,0,1,.6.3c2.31,3.057,3.135,5.806,2.675,8.91a.752.752,0,0,1-.573.621A.665.665,0,0,1,381.855,1240.725Zm-235-.558a.729.729,0,0,1-.338-.081.752.752,0,0,1-.391-.857,9.67,9.67,0,0,1,3.392-5.069,25.143,25.143,0,0,1,10.9-5.585c11.026-2.4,18.972-3.567,24.288-3.567a18.838,18.838,0,0,1,2.837.145.741.741,0,0,1,.249-.377c6.954-5.63,24.485-15.641,33.027-19.79a21.234,21.234,0,0,1,9.6-1.9c.644,0,1.292.017,1.941.042a.752.752,0,0,1,.164,1.478l-6.717,1.782a16.183,16.183,0,0,0-2.638.7.733.733,0,0,1-.262.047,27.021,27.021,0,0,0-3.011,1.344c-4.357,2.3-8.62,4.978-12.745,7.57l-.511.321c-2,1.273-14.816,8.895-18.191,9.717a1.326,1.326,0,0,1-.179.022.754.754,0,0,1-.492.517,78.388,78.388,0,0,1-10.819,1.9,107.209,107.209,0,0,0-16.2,2.719,27.487,27.487,0,0,0-13.32,8.64A.749.749,0,0,1,146.851,1240.167ZM375.239,1229.2a.767.767,0,0,1-.257-.044c-4.536-1.644-8.073-2.775-11.463-3.666l-7.869-3.6-1.285-.605q-4.436-2.082-8.865-4.193c-5.853-2.775-11.9-5.646-17.895-8.359-8.677-3.948-18.353-6.373-30.445-7.631a211.785,211.785,0,0,0-22.523-1.031c-5.767,0-11.639.142-17.317.282-6.585.169-13.274.986-19.741,1.774l-.629.076a64.267,64.267,0,0,1-6.782.367l-.6.012a.751.751,0,0,1-.425-1.37,11.962,11.962,0,0,1,4.914-1.667,104.249,104.249,0,0,1,12.547-1.248c1.547-.091,3.094-.182,4.639-.3,4.518-.337,9.308-.494,15.07-.494,4.477,0,8.951.095,13.425.191,11.223.237,23.268.879,35.286,3.933a89.308,89.308,0,0,1,15.318,5.385l.548.255c7.649,3.546,15.56,7.213,23.189,11.112a43.889,43.889,0,0,0,11.854,4.617,21.516,21.516,0,0,1,7.324,2.832l.45.281a5.87,5.87,0,0,1,2.186,1.963.751.751,0,0,1-.651,1.128Z"/>
    <path id="Path_2" data-name="Path 2" d="M260.6,1287.593a36.752,36.752,0,0,0,3.564-11.147s.36-2.019.382-2.146a24.648,24.648,0,0,1-.284,2.937A26.035,26.035,0,0,1,260.6,1287.593Zm11.458-10.214c-1.841-.431-2.845-1.7-3.479-4.22-2.136-8.462-6.479-15.714-11.117-23.013-1.958-3.082-4.952-5.01-7.85-6.721a5.908,5.908,0,0,0-1.564-.646,6.25,6.25,0,0,1,2.49.621c3.651,1.67,6.562,4.541,9.156,9.037a166.488,166.488,0,0,1,7.786,15.244,21.925,21.925,0,0,1,1.44,4.829A6.7,6.7,0,0,0,272.06,1277.379Zm-101.156-3.7a24.019,24.019,0,0,1-1.392-4.32A27.942,27.942,0,0,1,170.9,1273.683Zm108.56-.695a141.724,141.724,0,0,1,19.033-2.318l-1.045.1c-2.578.25-5.165.668-7.666,1.072-2.054.333-4.108.666-6.173.911a33.783,33.783,0,0,1-3.909.235Zm-72.718-4.6c-5.236,0-11.242-.051-17.469-.362l15.376-.01c1.554-.007,3.106-.08,4.66-.156,1.6-.076,3.209-.154,4.817-.154l.394,0c5.518,0,8.039-2.467,8.32-8a161.355,161.355,0,0,1,2.705-21.167,19.871,19.871,0,0,1,1.4-4.5,171.481,171.481,0,0,0-3.321,19.317c-.223,2.225-.309,4.491-.394,6.687l-.037.927c-.2,4.937-2.663,7.351-7.541,7.378l-.71.005C212.209,1268.376,209.48,1268.393,206.746,1268.393Zm160.814-.67a37.536,37.536,0,0,1-4.763-.392,105.659,105.659,0,0,0-13.322-.849q-1.154,0-2.311.027c2.134-.118,4.2-.176,6.239-.176a89.3,89.3,0,0,1,15.722,1.321C368.625,1267.7,368.1,1267.723,367.56,1267.723Zm-130.7-1.4a40.89,40.89,0,0,1,2.989-11.6,15.485,15.485,0,0,1,4.878-6.714,10.068,10.068,0,0,1,1.408-.9,18,18,0,0,0-6.641,8.841A41.582,41.582,0,0,0,236.864,1266.328Zm-69.705-5.185c-.208-.548-.416-1.1-.648-1.635-1.175-2.734-2.289-5.5-3.4-8.256l-.238-.587a29.984,29.984,0,0,0-3.627-6.452,15.414,15.414,0,0,0-1.515-1.8,7.554,7.554,0,0,0-5.287-2.595c-2.03,0-3.978,1.156-5.635,3.344a14.174,14.174,0,0,0-1.5,2.536,8.363,8.363,0,0,1,1.537-3.359,6.971,6.971,0,0,1,5.463-3.067,5.853,5.853,0,0,1,1.689.255,9.746,9.746,0,0,1,5.1,3.63,31.151,31.151,0,0,1,4.484,8.251c.438,1.243.935,2.47,1.434,3.694a49.223,49.223,0,0,1,2.179,6.119Zm10.5-12.8a25.287,25.287,0,0,1,2.729-15.639c-.186.607-.387,1.17-.575,1.665A33.214,33.214,0,0,0,177.66,1248.34Zm137.785-11c-1.009,0-2.027-.046-3.067-.144,2.039-.162,4.077-.326,6.114-.514.891-.081,2.979-.274,2.856-1.623a1.182,1.182,0,0,0-.3-.724c.039.014.081.026.123.041.636.22.873.338.91.732a1.046,1.046,0,0,1-.6,1.052,8.721,8.721,0,0,1-4.406,1.136Q316.259,1237.343,315.445,1237.342Zm61.395-.078a20.339,20.339,0,0,1-5.158-.9c-.856-.274-.954-.7-.954-1-.015-.494.245-.671,1.025-.959a6.186,6.186,0,0,1,2.228-.409,8.619,8.619,0,0,1,2.614.458,9.762,9.762,0,0,0-1.08-.059,10.412,10.412,0,0,0-2.765.384.5.5,0,0,0-.093.933,26.068,26.068,0,0,0,4.175,1.551Zm-76.236-.353a23.294,23.294,0,0,1,4.242-1.392,67.943,67.943,0,0,1,8.858-1.246c-2.178.313-4.317.8-6.415,1.28-1.075.245-2.149.49-3.226.71S301.853,1236.721,300.6,1236.911Zm-9.869-1.162a29.063,29.063,0,0,1,8.92-4.1,52.615,52.615,0,0,1,14.375-2.252,36.075,36.075,0,0,1,4.494.277,7.319,7.319,0,0,1,5.7,3.439c-2.575-2.509-6.009-2.967-8.893-3.043q-.675-.018-1.343-.017A50.765,50.765,0,0,0,290.735,1235.749Zm79.427-5.618a2.538,2.538,0,0,1,1.54-.67,9.979,9.979,0,0,1,1.074-.059,6.009,6.009,0,0,1,3,.7c-.577-.122-1.172-.223-1.8-.3a12.358,12.358,0,0,0-1.6-.128A5.009,5.009,0,0,0,370.162,1230.131Zm-153.721-3.742c5.14-.335,10.258-.891,15.259-1.434l3.192-.343c2.185-.235,4.381-.379,6.576-.524,2.965-.2,6.027-.4,9.032-.822a48.9,48.9,0,0,0,6.587-1.444,10.306,10.306,0,0,0,2.179-.9,7.781,7.781,0,0,1-1.968,1.251c-3.031,1.42-6.264,1.819-10.188,1.98-5.742.238-11.555.734-17.175,1.214-3.37.289-6.738.575-10.111.813Q218.1,1226.3,216.441,1226.389Zm103.639-.607a93.116,93.116,0,0,1,15.316-2.832,115.926,115.926,0,0,1,13.878-.923c2.369,0,4.682.1,6.873.3a.332.332,0,0,0,.044,0,.5.5,0,0,0,.443-.269l2.45,1.126q-.308-.063-.619-.122a47.269,47.269,0,0,0-8.9-.727c-2.365,0-4.737.107-7.111.215l-.622.027a134.146,134.146,0,0,0-18.852,2.658C322.012,1225.417,321.047,1225.6,320.08,1225.782Zm-3.076-4.92c-12.532-.4-22.69-2.976-31.536-8.011a17.06,17.06,0,0,1,4.616,1.642c6.029,3.327,12.6,4.46,19.364,5.414C311.962,1220.262,314.48,1220.568,317,1220.862Zm-56.686-7.585c-9-4.431-17.959-8.352-28.006-8.645-.27-.008-.539-.015-.808-.018l.947-.249,2.206.142c7.485.523,14.115,3.147,22,6.525A15.9,15.9,0,0,1,260.318,1213.277Zm12.863-5.936c-.24-.083-.48-.174-.725-.276-.857-.35-.854-.825-.854-.982,0-.193,0-.551.937-.732l1.234-.252a28.3,28.3,0,0,1,3.936-.636c1.366-.086,2.729-.186,4.092-.284,3.848-.282,7.828-.571,11.744-.571,1.736,0,3.334.054,4.886.167a141.6,141.6,0,0,1,19.868,2.8c-.277.015-.556.02-.84.02a37.141,37.141,0,0,1-7.38-.989,91.771,91.771,0,0,0-18.2-1.792c-3.236,0-6.577.162-9.93.485-.61.059-1.222.108-1.834.157a36.762,36.762,0,0,0-5.465.7,3.709,3.709,0,0,1-.4.063c-.521.064-1.395.169-1.554,1.006A1.036,1.036,0,0,0,273.181,1207.341Z"/>
  </g>
</svg>
