<svg xmlns="http://www.w3.org/2000/svg" width="117.031" height="86.829" viewBox="0 0 117.031 86.829">
  <g id="Group_6" data-name="Group 6" transform="translate(-224.494 -1014.595)">
    <path id="Path_27" data-name="Path 27" d="M331.749,1035.049h0Z" fill="#323a52"/>
    <path id="Path_28" data-name="Path 28" d="M341.505,1070.1a14.933,14.933,0,0,0-.19-1.64,11.846,11.846,0,0,0-.37-1.6,2.891,2.891,0,0,0-.141-.4l-.06-.2-.02-.11-.06-.08-.28-.71c-.79-1.89-1.58-3.8-2.29-5.72-.359-.96-.7-1.89-.98-2.88-.31-.98-.6-1.97-.879-2.96s-.531-1.97-.79-2.96a3.027,3.027,0,0,1-.051-.31,21.407,21.407,0,0,1-.369-2.59.247.247,0,0,1-.031-.14l-.11.02h-.109a1.025,1.025,0,0,0,.019.23c.061.73.231,1.64.4,2.62,0,.06.029.14.029.2.17,1.04.341,2.03.531,3.05s.429,2.02.649,3.01c.11.51.23,1.02.371,1.52.109.51.279,1.02.42,1.5.56,1.97,1.179,3.95,1.83,5.89l.23.76.029.06v.03l.031.05.049.17a1.436,1.436,0,0,1,.061.34,12.136,12.136,0,0,1,.219,1.44,11.564,11.564,0,0,1,.06,1.44c-.029.39-.06.82-.08,1.18l-8.55,14.35.23.15-17.71.7v-.31l.06-1.27c0-.85.03-1.69.03-2.57a33.011,33.011,0,0,0-.4-5.21,16.4,16.4,0,0,0-1.75-5.05c-.219-.39-.42-.73-.67-1.1a11.1,11.1,0,0,0-.74-1.1,19.666,19.666,0,0,0-1.63-2.08,24.977,24.977,0,0,0-2.09-2.15l-.22-.19a18.285,18.285,0,0,0-1.56-1.27,18.837,18.837,0,0,0-4.679-2.57c-.391-.14-.791-.31-1.241-.45-.42-.11-.84-.28-1.27-.37a21.559,21.559,0,0,0-2.59-.53,25.489,25.489,0,0,0-5.3-.29,26.012,26.012,0,0,0-10.24,2.74,21.427,21.427,0,0,0-4.449,3.05,19.506,19.506,0,0,0-3.551,4.08,27.078,27.078,0,0,0-3.7,9.98c-.311,1.75-.5,3.45-.731,5.14-.08.87-.2,1.72-.25,2.59a7.5,7.5,0,0,0-.09,1.19l-42.04-.33v3.5l43.54-.33.02-2.84a1.349,1.349,0,0,1,.6.14.928.928,0,0,1,.331.25.808.808,0,0,1,.169.2c.03.05.061.11.09.17a.193.193,0,0,1,.05.14c.03.03.03.03.03.05v-.7c.031-.4.031-.82.06-1.21.081-.85.141-1.67.25-2.51.17-1.67.34-3.39.6-4.99a24.621,24.621,0,0,1,3.21-9.08,17.615,17.615,0,0,1,3.02-3.64,18.271,18.271,0,0,1,3.919-2.76,22.611,22.611,0,0,1,9.27-2.68,21.492,21.492,0,0,1,4.88.14,16.1,16.1,0,0,1,2.4.45c.421.08.79.2,1.18.31a10.718,10.718,0,0,1,1.161.4,16.538,16.538,0,0,1,4.279,2.25,22.133,22.133,0,0,1,3.67,3.24c.531.62,1.07,1.24,1.551,1.92.25.34.48.68.7,1.02.2.31.46.73.65,1.04a13.871,13.871,0,0,1,1.67,4.51,29.991,29.991,0,0,1,.481,4.96c0,.82.019,1.67,0,2.51v2.2a1.213,1.213,0,0,0,.279.51.9.9,0,0,0,.84.22l18.81-1.18.511-.03.25.14.109-.17.51-.87.341-.62,7.439-12.97.121-.2v-.14A12.326,12.326,0,0,0,341.505,1070.1Z" fill="#323a52"/>
    <path id="Path_29" data-name="Path 29" d="M311.724,1032.905a.558.558,0,0,1-.529.38.393.393,0,0,1-.181-.04l-10.15-3.52-10.1-3.58-15.52-2.37c-1.15-.19-2.3-.4-3.44-.61l-1.79-.32c-2.43-.46-4.88-.95-7.319-1.44l-3.041-.6c-3.959-.75-7.25-1.28-10.33-1.68a179.4,179.4,0,0,0-20.89-1.69l-3.06-.03c-.29,0-.59,0-.88.01v-2.82c1.34.01,2.681.04,4.031.11a176.536,176.536,0,0,1,21.15,1.98c5.7.82,11.39,2.04,16.9,3.21l3.86.82c1.71.37,3.45.73,5.171,1.05l5.179.89,10.38,1.86,10.2,3.84,10.04,3.84A.555.555,0,0,1,311.724,1032.905Z" fill="#323a52"/>
    <path id="Path_30" data-name="Path 30" d="M309.766,1079.814c-.039-.267-.082-.559-.129-.874s-.085-.656-.162-1.013-.185-.731-.285-1.129a19.377,19.377,0,0,0-2.383-5.4,20.093,20.093,0,0,0-5.31-5.541,19.81,19.81,0,0,0-8.528-3.321c-.41-.072-.808-.07-1.217-.109l-.613-.045-.307-.022c-.149,0-.223,0-.338.005a20.22,20.22,0,0,0-7.7,1.516l-1.244.568c-.414.195-.8.449-1.2.673l-.6.349c-.192.129-.378.268-.569.4-.374.276-.768.532-1.131.829a21.151,21.151,0,0,0-3.847,4.187,20.289,20.289,0,0,0-2.513,5.222l-.371,1.417-.092.355-.059.37-.116.741-.113.742a7.1,7.1,0,0,0-.055.711l-.075,1.4.078,1.512a10.2,10.2,0,0,0,.17,1.457l.115.725.057.362.091.355.371,1.418a20.3,20.3,0,0,0,2.515,5.22,21,21,0,0,0,3.848,4.184c.362.3.756.553,1.131.829.19.134.377.273.569.4l.6.349c.4.224.788.478,1.2.673l1.244.567a19.14,19.14,0,0,0,5.148,1.358,18.89,18.89,0,0,0,2.532.158c.113,0,.183.009.332.007l.315-.022.626-.045c.415-.04.831-.039,1.236-.111a19.846,19.846,0,0,0,8.509-3.317,20.075,20.075,0,0,0,5.31-5.54,19.389,19.389,0,0,0,2.384-5.4q.15-.6.285-1.129c.077-.357.11-.7.162-1.014s.09-.607.129-.874.031-.514.047-.733c.04-.877.062-1.345.062-1.345l-.074,1.345c-.018.218-.013.465-.053.732l-.137.872c-.055.313-.091.654-.171,1.01s-.191.727-.294,1.124a17.8,17.8,0,0,1-2.459,5.334,18.7,18.7,0,0,1-5.407,5.3,19.255,19.255,0,0,1-8.381,2.861c-.391.053-.791.033-1.189.054l-.6.017-.3.009c-.058,0-.193-.013-.286-.019a19.089,19.089,0,0,1-7.227-1.747l-1.14-.581c-.379-.2-.728-.454-1.1-.678l-.545-.348-.512-.4c-.336-.272-.691-.523-1.015-.813a20.294,20.294,0,0,1-3.441-3.96l-.673-1.144a4.225,4.225,0,0,1-.307-.589l-.28-.6-.286-.6c-.09-.2-.154-.417-.233-.625-.144-.42-.316-.832-.44-1.26l-.327-1.3-.081-.325-.049-.331-.1-.663a8.879,8.879,0,0,1-.144-1.331l-.063-1.3.066-1.4a6.578,6.578,0,0,1,.047-.69l.1-.646.1-.647.047-.324.082-.324.326-1.3c.125-.427.3-.84.441-1.26.078-.208.143-.422.232-.625l.287-.6.282-.6a4.113,4.113,0,0,1,.306-.589l.673-1.144a20.1,20.1,0,0,1,3.442-3.957c.323-.291.678-.541,1.015-.814l.512-.4.544-.347c.367-.224.716-.48,1.094-.678l1.14-.581a19.133,19.133,0,0,1,7.209-1.747l.28-.02.308.008.614.018c.4.021.822,0,1.207.055a19.28,19.28,0,0,1,8.362,2.857,18.688,18.688,0,0,1,5.408,5.295,17.805,17.805,0,0,1,2.46,5.334l.294,1.124c.08.356.116.7.171,1.01l.137.872c.04.267.035.513.053.732l.074,1.345-.062-1.346C309.8,1080.328,309.8,1080.081,309.766,1079.814Z" fill="#323a52"/>
    <path id="Path_31" data-name="Path 31" d="M282.829,1035.366l-4.8-10.389,5.247,10.791a.568.568,0,0,0,.2.2.585.585,0,0,0-.193.217.752.752,0,0,0-.427-.2l-.118.011a.7.7,0,0,0,.072-.1A.559.559,0,0,0,282.829,1035.366Z" fill="#323a52"/>
    <path id="Path_32" data-name="Path 32" d="M311.047,1037.213a.96.96,0,0,1,.422-.316l.267-.119a.868.868,0,0,0,.308-.088l2.079-.256c1.355-.2,2.7-.366,4.081-.537l4.089-.506,2.029-.226c.752-.061,1.371-.11,2.013-.135l2.588-.344,2.517-.367.426-.024a.748.748,0,0,1,.312.082,1.515,1.515,0,0,1,.542.512,1.716,1.716,0,0,0,.14.339c.025.072.072.193.1.286l.077.367,1,8.693-.008.2-1.015-8.583-.06-.311-.1-.339a2.257,2.257,0,0,0-.218-.479,1.185,1.185,0,0,0-.5-.515,1.036,1.036,0,0,0-.327-.083.564.564,0,0,0-.278.075l-2.561.471-2.558.448a.3.3,0,0,0-.174.047l-.058.028c-.055,0-.112-.006-.176-.006a14.938,14.938,0,0,0-1.652.154l-2,.254-4.483.625c-1.214.176-2.423.35-3.635.5l-1.049.14-.975.113a.564.564,0,0,0-.223,1.046,3.07,3.07,0,0,0,.438.232c.254.11,1.7.688,1.716.694l.842.283c.994.256,7.165,1.79,7.165,1.79,1.162.289,8.927,2.5,10.089,2.811l.022.006-.49-.094c-.581-.11-1.168-.223-1.741-.355l-9.769-2.544c-1.1-.207-2.186-.441-3.274-.675l-2.145-.454c-.314-.1-.578-.176-.876-.287a8.414,8.414,0,0,1-.889-.3c-.314-.116-.608-.221-.9-.358a2.647,2.647,0,0,1-.388-.19l-.3-.157c-.014-.025-.251-.177-.267-.2a2.335,2.335,0,0,1-.165-.234.566.566,0,0,0-.474-.259c-.016,0-21.653,1.922-21.653,1.922l21.747-2.574A.564.564,0,0,0,311.047,1037.213Z" fill="#323a52"/>
    <path id="Path_33" data-name="Path 33" d="M274.034,1036.865l-35.16,3.5-10.519,1.07-3.861.37v-.7c1.12-.09,3.821-.3,3.821-.3l10.519-.93S269.994,1037.2,274.034,1036.865Z" fill="#323a52"/>
  </g>
</svg>
