<svg xmlns="http://www.w3.org/2000/svg" width="269.777" height="86.839" viewBox="0 0 269.777 86.839">
  <g id="Group_5" data-name="Group 5" transform="translate(-129.04 -842.16)">
    <path id="Path_16" data-name="Path 16" d="M148.934,880.507h0l0,0h0Z" fill="#323a52"/>
    <path id="Path_17" data-name="Path 17" d="M389.039,862.624h0C389.024,862.628,389.012,862.634,389.039,862.624Z" fill="#323a52"/>
    <path id="Path_18" data-name="Path 18" d="M398.8,897.679a15.427,15.427,0,0,0-.2-1.636,11.1,11.1,0,0,0-.367-1.607,3.385,3.385,0,0,0-.141-.395l-.056-.2-.028-.112-.057-.084-.281-.705c-.791-1.889-1.58-3.807-2.284-5.725-.367-.958-.7-1.889-.988-2.876-.309-.987-.592-1.973-.874-2.96s-.535-1.974-.789-2.961c-.029-.113-.029-.2-.056-.31a20.869,20.869,0,0,1-.367-2.594.253.253,0,0,1-.028-.14l-.113.027h-.113a.7.7,0,0,0,.028.226c.057.732.226,1.636.395,2.623,0,.055.028.14.028.2.17,1.043.338,2.03.536,3.045s.423,2.029.649,3.016c.112.508.225,1.015.366,1.523.113.508.282,1.015.423,1.495.564,1.973,1.184,3.947,1.833,5.893l.225.761.029.057v.027l.028.057.056.169a1.433,1.433,0,0,1,.057.339,12.757,12.757,0,0,1,.225,1.437,12.356,12.356,0,0,1,.056,1.439c-.027.4-.056.817-.084,1.184l-8.543,14.351.225.142-17.707.705v-.312l.056-1.268c0-.846.028-1.692.028-2.566a32.737,32.737,0,0,0-.394-5.216,16.544,16.544,0,0,0-1.748-5.048c-.226-.393-.423-.732-.677-1.1a10.463,10.463,0,0,0-.733-1.1,19.686,19.686,0,0,0-1.635-2.087,24.692,24.692,0,0,0-2.087-2.143l-.225-.2c-.508-.452-1.016-.875-1.551-1.27a19.394,19.394,0,0,0-4.681-2.566c-.4-.141-.789-.31-1.241-.45-.422-.113-.845-.283-1.268-.368a20.972,20.972,0,0,0-2.594-.535,25.7,25.7,0,0,0-5.3-.283A25.992,25.992,0,0,0,336.6,890.32a21.48,21.48,0,0,0-4.455,3.045,19.641,19.641,0,0,0-3.552,4.088,27.086,27.086,0,0,0-3.694,9.981c-.311,1.749-.508,3.441-.733,5.133-.085.874-.2,1.719-.254,2.594a7.709,7.709,0,0,0-.085,1.184l-50.5-.395-26.024-.225-6.486-.058h-6.541c-4.37.058-8.685.17-13,.2s-8.6-.057-12.829-.283c-.621-.056-1.241-.084-1.833-.14a47.642,47.642,0,0,0,.028-6.655,29.706,29.706,0,0,0-1.269-6.936,21.819,21.819,0,0,0-3.242-6.541,26.484,26.484,0,0,0-25.264-10.292,25.175,25.175,0,0,0-6.795,2.172,16.9,16.9,0,0,0-1.579.874,16.724,16.724,0,0,0-1.494.958l-.733.508-.649.507-.705.592-.676.592a22.286,22.286,0,0,0-6.965,12.209,30.173,30.173,0,0,0-.395,6.879c0,.565.028,1.128.057,1.665l.056.873.057,1.664.028.479v.2l-3.75.086-5.414.14-7.416.226-.846-.282c-1.466-.507-2.9-.959-4.37-1.41-.733-.226-1.466-.45-2.227-.649-.733-.2-1.495-.393-2.228-.563a1.361,1.361,0,0,1-.676-.311c0-.027,0-.027.028-.084a1.094,1.094,0,0,1,.141-.339,5.837,5.837,0,0,1,.705-.732c.2-.2.423-.4.648-.621,1.071.029,2.143.029,3.214.056h1.41l-.958-1.1-.621-.7c-.2-.254-.394-.48-.592-.733-.366-.508-.733-1.015-1.071-1.551a14.811,14.811,0,0,1-.846-1.635,4.909,4.909,0,0,1-.282-.846,2.389,2.389,0,0,1-.113-.423,3.713,3.713,0,0,0-.084-.366c0-.649-.028-1.27,0-1.918,0-.62.028-1.269.056-1.889l.085-.931.14-.958c.113-.621.226-1.24.4-1.861a18.321,18.321,0,0,1,.536-1.776,10.346,10.346,0,0,1,.79-1.692l.056-.084v-.029a.423.423,0,0,0,.085-.2.54.54,0,0,0-.17-.479.763.763,0,0,0-.31-.113c-.085.027.028,0-.085.027h-.027a.845.845,0,0,0-.283.057l-.507.169a.106.106,0,0,0-.085.028c.141-.254.31-.507.48-.76a27.3,27.3,0,0,1,2.453-2.989c.423-.481.873-.931,1.353-1.382.254-.226.508-.451.762-.649a1.348,1.348,0,0,0,.366.452l.169.084c.057.029.141.085.141.085l.085.028.2.056.395.141.93.367,3.694,1.268.846-.761c.141-.112.282-.225.394-.31a.956.956,0,0,0-.281-.31c-.029-.029-.141-.085-.226-.142l-.2-.084-3.016-1.043-1.325-.479.056-.057.169-.14.085-.057.056-.056.339-.226,1.353-.9a30.993,30.993,0,0,1,2.82-1.608c.958-.479,1.917-.9,2.9-1.324l.057-.057a1.364,1.364,0,0,1,.254-.085c.563-.253,1.917-.845,3.637-1.494a1.706,1.706,0,0,1,.394-.2,49.008,49.008,0,0,1,4.963-1.72c1.043-.339,2.086-.62,3.158-.875l3.214-.818,3.215-.816c1.071-.255,2.171-.48,3.242-.79-1.1.226-2.2.31-3.3.479l-3.271.564-.113.028h-.027l-.592.113h-.029l-2.509.451c-.592.113-1.212.226-1.8.367a71.429,71.429,0,0,0-15.762,5.668c-.282.169-.451.253-.451.253-.282.14-.564.31-.846.479l-1.41.9-.339.226-.056.029-.028.027-.028.029-.085.057-.169.14-.648.479-.17.142-.141.113-.028.027-.085.086c-.084.084-.084.111-.14.168a1.088,1.088,0,0,0-.085.93,9.772,9.772,0,0,0-.874.592c-.535.395-1.043.818-1.523,1.241-.479.451-.958.9-1.409,1.382s-.9.958-1.3,1.466a7.236,7.236,0,0,0-.592.818,3.694,3.694,0,0,0-.282.452l-.142.253a1.791,1.791,0,0,0-.056.253.59.59,0,0,0,.226.452.559.559,0,0,0,.507.084l.141-.057.2-.084.113-.029c-.17.339-.311.649-.452.988a15.339,15.339,0,0,0-.677,1.889,16.2,16.2,0,0,0-.45,1.945l-.17.987-.113.987a15.683,15.683,0,0,0-.141,2c-.027.648,0,1.3,0,1.974a18.292,18.292,0,0,0,.226,1.1c.113.339.226.677.339.987a18.482,18.482,0,0,0,.93,1.832c.367.565.761,1.129,1.156,1.636.141.169.254.311.4.452-.677.027-1.354.027-2.03.027h-.254l-.2.2c-.2.226-.508.507-.79.789a5.616,5.616,0,0,0-.818.96,1.614,1.614,0,0,0-.31.705,1.245,1.245,0,0,0,.2,1.014,2.292,2.292,0,0,0,1.326.676c.761.142,1.494.283,2.227.452l2.228.508c.563.14,1.1.253,1.635.394h.057a.093.093,0,0,0,.056.029,1.28,1.28,0,0,1,.141.027c.028,0,.084.029.112.029a2.235,2.235,0,0,1,.226.057c2.566.592,12.942,3.016,15.705,3.016l.367.029h.028l5.385.113a1.625,1.625,0,0,0,1.551-1.129,3.17,3.17,0,0,0,.141-.986l-.028-.451V913.5c0-1.1,0-2.172.028-3.215a30.179,30.179,0,0,1,.564-6.091,18.307,18.307,0,0,1,6.062-9.783l.564-.452.536-.422.677-.479.592-.425c.4-.28.846-.506,1.241-.761.451-.224.873-.45,1.3-.648a19.547,19.547,0,0,1,5.582-1.636,21.563,21.563,0,0,1,11.448,1.579,21.825,21.825,0,0,1,9.051,7.106,17.007,17.007,0,0,1,2.481,5.076,27.87,27.87,0,0,1,1.071,5.808,44.817,44.817,0,0,1,.029,6.146c-.029.508-.085,1.044-.113,1.579l-.028.2v.169a2.7,2.7,0,0,0,.958,2.313,2.606,2.606,0,0,0,.959.507,1.589,1.589,0,0,0,.451.113h.141c0,.029,0,.029.028.029l.818.056c1.1.084,2.2.141,3.327.2,4.4.169,8.8.141,13.167,0,4.342-.113,8.684-.31,13-.451l3.214-.084,3.242-.057,6.486-.056,26.024-.226,51.993-.395.029-2.847a1.416,1.416,0,0,1,.592.14,1.143,1.143,0,0,1,.338.255,2.156,2.156,0,0,1,.169.2c.029.056.056.113.085.169a.216.216,0,0,1,.056.14c.028.029.028.029.028.057v-.7c.029-.394.029-.818.057-1.212.084-.846.141-1.664.254-2.509.168-1.663.338-3.384.592-4.991a24.777,24.777,0,0,1,3.214-9.078,17.811,17.811,0,0,1,3.017-3.638,18.536,18.536,0,0,1,3.919-2.764,22.736,22.736,0,0,1,9.276-2.678,21.714,21.714,0,0,1,4.878.14,17.347,17.347,0,0,1,2.4.452c.423.084.79.2,1.184.31a11.33,11.33,0,0,1,1.157.4,16.877,16.877,0,0,1,4.286,2.255,22.181,22.181,0,0,1,3.664,3.244c.537.619,1.072,1.24,1.551,1.916.254.339.48.677.705,1.015.2.311.452.733.649,1.043a14.016,14.016,0,0,1,1.664,4.512,28.839,28.839,0,0,1,.479,4.963c0,.818.028,1.663,0,2.508v2.2a1.282,1.282,0,0,0,.282.506.9.9,0,0,0,.846.226l18.806-1.184L390,914.2l.254.141.113-.169.507-.875.339-.619,7.443-12.971.113-.2v-.141A11.5,11.5,0,0,0,398.8,897.679Z" fill="#323a52"/>
    <path id="Path_19" data-name="Path 19" d="M170.046,874.588a.564.564,0,0,1-.179-1.1c.163-.055,2.228-.652,2.228-.652,1.244-.361,2.921-.849,4.9-1.308l2.41-.57c1.217-.287,2.511-.59,3.846-.923l1.121-.294a.619.619,0,0,1,.253-.064l.567-.2.339-.069c.967-.269,1.947-.578,2.979-.914,1.377-.449,2.809-.925,4.213-1.432,2.823-.958,5.609-1.971,8.225-2.957s5.069-1.944,7.126-2.756c1.033-.421,1.961-.815,2.8-1.181l.958-.413c.422-.179.8-.342,1.129-.5l1.716-.82a.55.55,0,0,1,.148-.1,1.868,1.868,0,0,1,.716-.149,1.66,1.66,0,0,1,.493.074c2.264-1.189,4.731-2.412,7.735-3.835,3.274-1.534,6.476-3.018,9.7-4.351,3.517-1.456,6.8-2.662,10.023-3.684a89.33,89.33,0,0,1,10.417-2.61,88.308,88.308,0,0,1,10.67-1.248c3.519-.225,7.09-.286,10.543-.341l5.364-.03c1.787,0,3.546.027,5.33.115a177.529,177.529,0,0,1,21.147,1.98c5.7.826,11.394,2.043,16.9,3.219l3.852.818c1.718.366,3.459.729,5.174,1.043l5.182.9,10.381,1.861,10.2,3.833,10.037,3.839a.564.564,0,0,1-.2,1.09.548.548,0,0,1-.185-.033L358.152,857.3l-10.1-3.58-15.516-2.374c-1.159-.187-2.3-.4-3.448-.608l-1.784-.322c-2.437-.46-4.885-.947-7.324-1.432l-3.035-.6c-3.967-.749-7.255-1.286-10.336-1.685a179.053,179.053,0,0,0-20.891-1.688l-3.056-.028c-.719,0-1.438,0-2.154.028l-5.259.085c-3.117.072-6.807.184-10.482.449a78.234,78.234,0,0,0-20.31,3.863,160.04,160.04,0,0,0-19.275,7.952l-20.637,8.47-.331.124-2.332.768c-2.682.9-5.532,1.834-8.412,2.709l-1.212.367c-1.021.308-2.054.622-3.089.906l-.633.179c-1.215.344-2.429.685-3.646.9-1.872.383-3.681.689-5.339.97l-2.219.382c-2.222.367-4.018.76-5.306,1.041-.961.2-1.606.336-1.856.394A.706.706,0,0,1,170.046,874.588Z" fill="#323a52"/>
    <path id="Path_20" data-name="Path 20" d="M200.436,907.169l-.13-.874c-.051-.315-.085-.657-.162-1.014l-.284-1.129a19.4,19.4,0,0,0-2.383-5.4,20.111,20.111,0,0,0-5.31-5.542,19.822,19.822,0,0,0-8.528-3.32c-.411-.073-.809-.071-1.218-.11l-.612-.044-.308-.023c-.149,0-.223,0-.338.006a20.152,20.152,0,0,0-7.7,1.516l-1.245.567c-.414.2-.8.45-1.2.674l-.6.349c-.192.129-.379.267-.569.4-.375.276-.769.531-1.132.829a21.2,21.2,0,0,0-3.847,4.186,20.351,20.351,0,0,0-2.513,5.222l-.371,1.417-.091.356-.059.37-.116.741-.113.742a7.117,7.117,0,0,0-.055.71l-.076,1.4.079,1.512a10.226,10.226,0,0,0,.17,1.457l.114.725.057.362.092.355.371,1.417a20.281,20.281,0,0,0,2.515,5.22,20.989,20.989,0,0,0,3.847,4.184c.363.3.757.553,1.131.829.191.135.377.273.569.4l.6.349c.4.224.789.478,1.2.674l1.244.567a19.181,19.181,0,0,0,5.147,1.358,18.91,18.91,0,0,0,2.532.158c.114,0,.184.008.332.007l.315-.023.626-.045c.415-.039.831-.038,1.236-.111a19.828,19.828,0,0,0,8.509-3.317,20.066,20.066,0,0,0,5.311-5.54,19.329,19.329,0,0,0,2.383-5.4q.152-.6.285-1.128c.077-.357.111-.7.162-1.014l.13-.874c.038-.267.03-.514.046-.733l.062-1.346s-.026.468-.074,1.345c-.017.219-.012.466-.053.733l-.137.871c-.054.314-.091.655-.171,1.01s-.19.728-.294,1.124a17.823,17.823,0,0,1-2.458,5.335,18.715,18.715,0,0,1-5.408,5.3,19.249,19.249,0,0,1-8.381,2.86c-.39.053-.791.034-1.189.054l-.6.018-.3.008c-.057,0-.193-.013-.286-.019a19.092,19.092,0,0,1-7.227-1.747l-1.14-.581c-.379-.2-.727-.454-1.094-.678l-.545-.347-.512-.4c-.337-.273-.692-.523-1.016-.814a20.268,20.268,0,0,1-3.441-3.96l-.673-1.144a4.109,4.109,0,0,1-.306-.589l-.28-.6-.287-.6c-.089-.2-.154-.416-.232-.624-.145-.421-.316-.833-.441-1.26l-.327-1.3-.081-.324-.048-.331-.1-.663a9.026,9.026,0,0,1-.144-1.332l-.063-1.295.066-1.4a6.882,6.882,0,0,1,.047-.69l.1-.646.1-.647.047-.323.081-.324.327-1.3c.124-.427.3-.839.44-1.26.079-.207.143-.421.233-.624l.287-.6.282-.6a4.211,4.211,0,0,1,.306-.589l.673-1.143a20.1,20.1,0,0,1,3.441-3.958c.324-.29.679-.541,1.015-.813l.512-.4.545-.348c.366-.224.715-.479,1.094-.678l1.139-.581a19.135,19.135,0,0,1,7.209-1.747l.28-.02.309.009.613.017c.4.021.823,0,1.208.056a19.271,19.271,0,0,1,8.362,2.857,18.684,18.684,0,0,1,5.408,5.294,17.8,17.8,0,0,1,2.459,5.335q.156.594.294,1.124c.08.355.117.7.171,1.01l.137.872c.041.266.036.513.053.732l.074,1.344s-.021-.468-.062-1.345C200.467,907.683,200.474,907.436,200.436,907.169Z" fill="#323a52"/>
    <path id="Path_21" data-name="Path 21" d="M367.056,907.389q-.059-.4-.129-.874c-.052-.315-.085-.657-.162-1.014s-.184-.731-.285-1.129a19.384,19.384,0,0,0-2.383-5.4,20.093,20.093,0,0,0-5.31-5.542,19.821,19.821,0,0,0-8.528-3.32c-.41-.073-.808-.071-1.217-.11l-.613-.044-.307-.022c-.149,0-.223,0-.338.005a20.163,20.163,0,0,0-7.7,1.516l-1.244.567c-.414.2-.8.45-1.2.674l-.6.349c-.193.129-.379.268-.569.4-.375.276-.769.532-1.132.829a21.143,21.143,0,0,0-3.847,4.186,20.322,20.322,0,0,0-2.513,5.222l-.371,1.418-.092.355-.058.37-.117.741-.113.742a7.1,7.1,0,0,0-.054.71l-.076,1.4.078,1.512a10.357,10.357,0,0,0,.17,1.457l.115.725.057.362.091.355.372,1.417a20.246,20.246,0,0,0,2.514,5.22,21.028,21.028,0,0,0,3.848,4.185c.362.3.756.553,1.131.828.19.135.377.273.569.4l.6.348c.4.224.788.478,1.2.674s.831.379,1.244.567a19.186,19.186,0,0,0,5.148,1.358,18.9,18.9,0,0,0,2.532.158c.113,0,.183.008.332.007l.315-.023.626-.044c.415-.04.831-.039,1.236-.112a19.821,19.821,0,0,0,8.509-3.317,20.061,20.061,0,0,0,5.31-5.54,19.366,19.366,0,0,0,2.384-5.4q.15-.6.285-1.128c.077-.357.11-.7.162-1.014s.09-.607.129-.874.031-.514.047-.733c.04-.878.062-1.346.062-1.346l-.074,1.345c-.018.219-.013.466-.053.733l-.137.871c-.055.314-.091.655-.171,1.01s-.19.728-.294,1.124a17.8,17.8,0,0,1-2.459,5.335,18.711,18.711,0,0,1-5.407,5.3,19.254,19.254,0,0,1-8.381,2.86c-.391.054-.791.034-1.189.054l-.6.018-.3.008c-.057,0-.193-.013-.286-.019a19.088,19.088,0,0,1-7.227-1.747l-1.14-.581c-.379-.2-.728-.453-1.1-.678l-.545-.347-.512-.4c-.336-.273-.691-.523-1.015-.814a20.233,20.233,0,0,1-3.441-3.96l-.673-1.143a4.18,4.18,0,0,1-.307-.59l-.28-.6-.286-.6c-.09-.2-.154-.417-.233-.625-.144-.421-.316-.833-.44-1.26l-.327-1.3-.081-.325-.049-.331-.1-.663a8.9,8.9,0,0,1-.144-1.332l-.063-1.295.066-1.4a6.6,6.6,0,0,1,.047-.69l.1-.646.1-.647.047-.323.082-.324.326-1.3c.125-.428.3-.84.441-1.261.078-.207.143-.421.232-.624l.287-.6.282-.6a4.326,4.326,0,0,1,.306-.589l.673-1.143a20.105,20.105,0,0,1,3.442-3.958c.323-.29.678-.541,1.015-.813l.512-.4.544-.348c.367-.224.716-.479,1.094-.678l1.14-.581a19.135,19.135,0,0,1,7.209-1.747l.28-.02.308.009.614.017c.4.021.822,0,1.207.056a19.267,19.267,0,0,1,8.362,2.857,18.685,18.685,0,0,1,5.408,5.294,17.81,17.81,0,0,1,2.46,5.335l.294,1.124c.08.355.116.7.171,1.01l.137.872c.04.266.035.513.053.732l.074,1.344-.062-1.345C367.087,907.9,367.094,907.656,367.056,907.389Z" fill="#323a52"/>
    <path id="Path_22" data-name="Path 22" d="M340.119,862.94l-4.8-10.389,5.247,10.791a.554.554,0,0,0,.2.2.6.6,0,0,0-.193.218.745.745,0,0,0-.427-.2l-.118.011a.626.626,0,0,0,.072-.1A.561.561,0,0,0,340.119,862.94Z" fill="#323a52"/>
    <path id="Path_23" data-name="Path 23" d="M368.337,864.788a.965.965,0,0,1,.422-.317l.267-.118a.891.891,0,0,0,.308-.088l2.079-.256c1.355-.2,2.7-.366,4.081-.537l4.089-.507,2.029-.226c.752-.06,1.371-.11,2.013-.134l2.588-.345,2.517-.366.427-.025a.75.75,0,0,1,.311.083,1.505,1.505,0,0,1,.542.512,1.693,1.693,0,0,0,.141.339c.024.071.071.193.1.286l.077.366,1,8.693-.008.2-1.015-8.583-.06-.311-.1-.338a2.257,2.257,0,0,0-.218-.479,1.173,1.173,0,0,0-.5-.515,1.036,1.036,0,0,0-.327-.083.574.574,0,0,0-.278.074l-2.561.471-2.558.449a.3.3,0,0,0-.174.047l-.057.027c-.056,0-.113,0-.177,0a14.935,14.935,0,0,0-1.652.154l-2,.253-4.483.625c-1.214.177-2.423.35-3.635.5l-1.049.141-.975.113a.564.564,0,0,0-.223,1.046,3.156,3.156,0,0,0,.438.231c.254.11,1.7.689,1.716.694l.842.284c.994.256,7.165,1.79,7.165,1.79,1.162.289,8.927,2.5,10.089,2.811l.022.005-.49-.093c-.581-.11-1.168-.223-1.741-.355l-9.769-2.545c-1.1-.206-2.186-.44-3.274-.674l-2.145-.455c-.314-.1-.578-.176-.876-.286a8.4,8.4,0,0,1-.889-.3c-.314-.115-.608-.22-.9-.358a2.545,2.545,0,0,1-.388-.19l-.3-.157c-.014-.025-.251-.176-.267-.2a2.446,2.446,0,0,1-.165-.234.566.566,0,0,0-.474-.259c-.016,0-21.653,1.922-21.653,1.922l21.747-2.574A.564.564,0,0,0,368.337,864.788Z" fill="#323a52"/>
    <path id="Path_24" data-name="Path 24" d="M144.654,888.055l.363-.278a29.671,29.671,0,0,1,3.1-2.1l.462-.286.43-.245a8.147,8.147,0,0,1,.705-.413c.845-.443,1.454-.749,2.09-1.024,1.286-.628,2.547-1.22,3.81-1.779.312-.138.626-.273.937-.41-.306.154-.609.308-.912.465-1.242.617-2.486,1.242-3.728,1.889l-1.826,1.027c-.143.069-.316.176-.5.286l-.366.215-.906.584a29.12,29.12,0,0,0-3.3,2.387l-.507-.184Z" fill="#323a52"/>
    <path id="Path_25" data-name="Path 25" d="M213.99,913.247a3.037,3.037,0,0,1-.218-.372c0-.113-.055-.165-.118-.259a4.873,4.873,0,0,1-.309-.594c-.1-.281-.212-.581-.294-.876-.149-.526-.254-1.049-.353-1.553-.11-.708-.193-1.291-.248-1.848l-.085-.878s-.055-.82-.058-.834c-.239-1.743-.429-3.464-.619-5.2l-.168-1.531c-.254-2.247-.479-4.5-.678-6.782l-.253-3.4c-.083-1.121-.11-2.239-.138-3.415.031-2.53.13-4.684.309-6.76.071-1.01.19-1.99.33-2.984l.08-.006c-.113,1.066-.157,2.04-.185,3.01-.057,1.1-.085,2.233-.085,3.373s.028,2.266.058,3.4c.061,1.1.143,2.231.256,3.365.055.719.138,1.46.218,2.2l.121,1.154c.256,2.238.537,4.5.82,6.727l.956,7.186.113,1.234c.057.57.143,1.118.231,1.663.154.705.256,1.17.38,1.594a6.286,6.286,0,0,0,.239.744,4.714,4.714,0,0,0,.229.451c.005.019.218.446.218.446.013.042.047.073.063.113Z" fill="#323a52"/>
    <path id="Path_26" data-name="Path 26" d="M200.409,869.926l.226-.355.234-.281a5,5,0,0,1,.551-.507c1.388-1.073,2.841-2.139,4.3-3.117.207-.159.4-.28.578-.4a.772.772,0,0,0,.234-.253l6.364-2.611c-2.33,1.333-4.5,2.688-6.567,4.1-1.454,1.027-2.842,2.018-4.233,3.125-.019.014-.228.193-.245.207a4.443,4.443,0,0,0-.347.352,1.493,1.493,0,0,0-.11.209l.006-.016a1.607,1.607,0,0,0-.309,1.013,2.676,2.676,0,0,0,.983,1.919,3.489,3.489,0,0,0,.945.606,1.977,1.977,0,0,0,.4.1h-.022c-.1,0-.011.041.157.074l.311.058a5.4,5.4,0,0,0,.716.055,15.834,15.834,0,0,0,1.611-.113l.482-.047,1.335-.083,1.317-.055,1.866-.112a.57.57,0,0,0,.51-.4c.014-.044.025-.085.038-.126a.566.566,0,0,0,.551.443.536.536,0,0,0,.2-.036l10-.787,10.512-.76,21.059-1.5,21.037-1.467,5.017-.336a.56.56,0,0,0,.52-.485l.367-2.679-.245,2.434a.567.567,0,0,0,.561.62c.014,0,4.3-.342,4.3-.342l10.521-.93s33.194-2.847,35.507-3.043l-35.468,3.527-10.521,1.071-4.648.449a.565.565,0,0,0-.5.457l-.256,1.355c-.137.708-.256,1.421-.366,2.131-.2,1.427-.4,2.839-.57,4.249s-.311,2.836-.424,4.254c-.058.71-.088,1.424-.115,2.134-.036.463-.047.933-.061,1.407l-.022.683q.379,6.927.675,13.778l.311,6.909.113,3.434.015,1.294a26.359,26.359,0,0,0-.585,2.69h-.452l.033-.633a.745.745,0,0,1,0-.314,9.62,9.62,0,0,0,0-1.316l0-.557-.113-4.581-.2-6.881-.452-13.765.14-2.192c.061-.788.116-1.465.193-2.117q.215-2.164.51-4.307c.192-1.4.446-2.825.727-4.224.074-.482.173-.942.272-1.4l.149-.714c.052-.305.121-.572.193-.856a.66.66,0,0,0-.1-.553.61.61,0,0,0-.435-.251l-4.541.369-42.062,3.186-15.792,1.211-3.954.339-5.669.386c-.328.013-.645.027-.934.068l-.652.056c-.49.044-1.011.093-1.578.093l-.476-.014-.314-.027-.378-.075a2.14,2.14,0,0,0-.432-.115l-.286-.127a4.517,4.517,0,0,1-1.256-.8,3.689,3.689,0,0,1-1.341-2.671A2.869,2.869,0,0,1,200.409,869.926Z" fill="#323a52"/>
  </g>
</svg>
