<svg enable-background="new 0 0 430 266" viewBox="0 0 430 266" xmlns="http://www.w3.org/2000/svg"><path d="m101.36 232.49c-17.83 0-32.67-.72-41.34-2.57-5.82-1.24-11.03-2.2-15.63-3.05-19.4-3.59-30.09-5.56-41.79-20.33l.78-.62c11.47 14.47 21.4 16.31 41.19 19.96 4.6.85 9.82 1.81 15.65 3.06 27.16 5.79 115.44.42 165.64-3.3 7.22-.53 11.93-2.86 14-6.91 4.08-7.98-3.32-20.19-3.4-20.32-.23-.45-21.21-41.94-64.44-96.41-36.76-46.34-165.85-43.82-167.15-43.79l-.02-1c.33-.01 33.02-.72 69.85 4.34 34.05 4.68 78.72 15.38 98.12 39.83 43.3 54.56 64.32 96.13 64.53 96.55.3.48 7.75 12.77 3.42 21.25-2.24 4.39-7.23 6.89-14.82 7.46-34.28 2.54-86.32 5.85-124.59 5.85z"/><path d="m116.04 158.62c-45.76 0-98.8-4.62-113.45-25.89l.82-.57c22.31 32.39 136.06 25.54 173.44 23.3 5.19-.31 8.94-.54 10.58-.54 2.85 0 4.57-.64 5.1-1.92 1.21-2.86-3.53-8.61-5.46-10.59-.24-.3-21.04-26.29-40.96-44.07-19.82-17.68-140.07-26.48-141.29-26.57l.07-1c4.96.36 121.81 8.91 141.89 26.83 19.98 17.83 40.83 43.89 41.04 44.15.27.27 7.34 7.58 5.63 11.64-.71 1.68-2.73 2.53-6.02 2.53-1.61 0-5.35.22-10.52.54-13.22.79-35.97 2.16-60.87 2.16z"/><path d="m105.94 215.82c-21.27 0-62.08-2.5-103.12-18.75l.37-.93c58.81 23.28 117.18 18.24 117.76 18.18.86-.03 83.41-2.7 97.73-3.11 3.17-.09 5.18-.9 5.97-2.39 1.88-3.56-2.73-10.74-6.8-17.08-1.04-1.63-2.03-3.16-2.89-4.61-3.25-5.45-12.28-17.91-25.99-15.91-11.29 1.64-66.09 2.28-66.64 2.28-57.79 0-87.23-7.69-101.75-14.14-15.9-7.06-17.96-14.13-18.04-14.42l.96-.26c.08.28 9.07 27.82 118.82 27.82.55-.01 55.28-.64 66.5-2.27 10.09-1.46 19.92 4.51 27 16.38.86 1.44 1.84 2.96 2.88 4.58 4.22 6.57 9 14.01 6.84 18.09-.99 1.87-3.22 2.82-6.82 2.93-14.32.41-96.87 3.08-97.7 3.11-.19.02-5.76.5-15.08.5z"/><path d="m103.52 83.67-.93-.36c5.4-13.86-4.85-51.57-4.95-51.95l.96-.27c.43 1.56 10.43 38.41 4.92 52.58z"/><path d="m107.76 215.35h1v41.13h-1z"/><path d="m54.39 31.8c-31.03 0-50.65-.08-51.39-.08v-1c2.9.01 290.93 1.17 425.97-5.59l.05 1c-100.32 5.02-285.04 5.67-374.63 5.67z"/><path d="m54.39 15.69c-31.03 0-50.65-.08-51.39-.08v-1c2.9.01 290.93 1.16 425.97-5.59l.05 1c-100.32 5.02-285.04 5.67-374.63 5.67z"/><path d="m337.16 167.03h-25.89v-68.06h14.78v54.57h13.61zm-24.89-1h24.06l2.13-11.49h-13.4v-54.57h-12.78v66.06z"/><path d="m379.48 167.03h-14.65l-4.77-21.74-4.69 21.74h-14.65l9.66-35.46-9.3-32.6h14.39l4.6 21.72 4.77-21.72h14.29l-9.3 32.6zm-13.84-1h12.54l-9.39-34.47.04-.13 8.97-31.46h-12.16l-5.09 23.19h-.98l-4.91-23.19h-12.26l9.01 31.59-.04.13-9.35 34.33h12.54l5-23.19h.98z"/></svg>