<svg height="450.639" viewBox="0 0 206.979 450.639" width="206.979" xmlns="http://www.w3.org/2000/svg"><g fill="#74e0ff"><path d="m96.748 95.83c-5.454 0-9.747-.2-12.01-.338a.628.628 0 0 1 .075-1.254c6.254.377 28.127 1.266 46.987-3.092a157.777 157.777 0 0 0 51.075-21.731.627.627 0 1 1 .7 1.038 159.108 159.108 0 0 1 -51.5 21.917c-12.181 2.816-25.601 3.46-35.327 3.46z" transform="matrix(0 1 -1 0 242.823 -71.408)"/><path d="m87.138 92.663a.628.628 0 0 1 -.544-.941c.082-.141 8.3-14.287 19.356-23.163 6.567-5.272 19.073-5.233 24.156-4.97a7.3 7.3 0 0 1 4.791 2.136l2.879 2.879a.628.628 0 0 1 -.542 1.065c-.186-.03-18.738-2.9-26.166 5.471a20.523 20.523 0 0 0 -2.754 3.942 24.875 24.875 0 0 1 -5.024 6.42c-5.78 5.624-15.645 7.098-16.062 7.156a.818.818 0 0 1 -.09.005zm39.382-27.911c-5.831 0-14.742.74-19.783 4.786-9.019 7.237-16.126 18.062-18.337 21.625 2.889-.606 9.752-2.412 14.014-6.559a23.819 23.819 0 0 0 4.81-6.144 21.843 21.843 0 0 1 2.906-4.153c6.527-7.358 20.424-6.648 25.46-6.114l-1.582-1.58a6.046 6.046 0 0 0 -3.968-1.77c-.94-.049-2.146-.091-3.521-.091z" transform="matrix(0 1 -1 0 246.739 -69.815)"/><path d="m78.795 132.639a.628.628 0 0 1 -.628-.628c0-26.973 10.174-46.386 14.094-51.591a.628.628 0 0 1 1 .755c-.139.184-13.841 19.259-13.841 50.836a.628.628 0 0 1 -.625.628z" transform="matrix(0 1 -1 0 235.5 -75.44)"/><path d="m83.75 97.667h-.04s-1.125-.072-2.036-.219a.628.628 0 0 1 .2-1.241c.524.085 1.123.144 1.51.176a195.162 195.162 0 0 1 11.367-18.632l.716-1.023c3.27-4.657 5.243-7.466 4.585-8.453-.09-.092-.717-.325-2.437-.206a.628.628 0 0 1 -.09-1.252c2.627-.184 3.295.347 3.573.76 1.137 1.7-.544 4.093-4.6 9.872l-.717 1.023a193.72 193.72 0 0 0 -11.475 18.859.627.627 0 0 1 -.556.336z" transform="matrix(0 1 -1 0 244.527 -73.431)"/><path d="m77.166 147.347a.628.628 0 0 1 -.628-.628c0-36.991 17.391-76.654 37.215-84.88a48.305 48.305 0 0 1 14.391-3.04c12.375-1.033 38.277-.067 59.087.708 11.69.435 21.787.812 28.115.812a.628.628 0 1 1 0 1.256c-6.352 0-16.458-.377-28.162-.812-20.776-.773-46.635-1.739-58.935-.713a47.115 47.115 0 0 0 -14.015 2.95c-19.071 7.913-36.44 47.817-36.44 83.72a.628.628 0 0 1 -.628.627z" transform="matrix(0 1 -1 0 250.208 -76.538)"/><path d="m157.524 75.307a.629.629 0 0 1 -.588-.847c.194-.524 4.852-12.9 12.583-18.567 8.327-6.1 12.511-6.574 17.511-6.574a1.887 1.887 0 0 1 1.8.976c1.91 3.568-6.944 17.2-8.74 19.893a.629.629 0 0 1 -.36.259 9.633 9.633 0 0 1 -4.61.181 22.05 22.05 0 0 0 -3.616-.295c-1.527 0-4.227 2.674-5.57 4.359a.624.624 0 0 1 -.46.236l-7.918.377zm29.506-24.733c-4 0-8.129 0-16.768 6.33-6.266 4.592-10.57 14.143-11.794 17.1l6.666-.318c.844-1.021 3.979-4.61 6.37-4.61a23.55 23.55 0 0 1 3.8.308 8.342 8.342 0 0 0 3.874-.1c3.991-6.027 9.735-16.18 8.545-18.4-.051-.091-.168-.31-.693-.31z" transform="matrix(0 1 -1 0 256.297 -22.368)"/><path d="m179.021 73.273a55.644 55.644 0 0 1 -12.343-2.349 103 103 0 0 1 -13.5-4.831.627.627 0 0 1 .122-1.193c.03-.007 3.1-.626 7.261-1.1a.628.628 0 1 1 .144 1.247c-2.052.236-3.832.506-5.1.717a101.8 101.8 0 0 0 11.414 3.951 72.777 72.777 0 0 0 9.732 2.111 12.6 12.6 0 0 1 -5.288-4.2 5.958 5.958 0 0 1 -.783-3.129c-.514-.008-1.033-.008-1.545-.005h-.007a.628.628 0 0 1 -.005-1.256q1.117-.013 2.22.022a.628.628 0 0 1 .608.68 5.477 5.477 0 0 0 .544 2.973c1.975 2.851 5.156 3.983 6.686 4.525.927.331 1.54.549 1.373 1.22a.822.822 0 0 1 -.345.449 2.744 2.744 0 0 1 -1.188.168z" transform="matrix(0 1 -1 0 246.919 -25.131)"/><path d="m462.8 146.942a.628.628 0 0 1 -.628-.628c0-47.072-5.826-72.494-6.839-73.8a17.955 17.955 0 0 0 -8.315-5.879 167.367 167.367 0 0 1 -18.606-.3c-7.348-.623-16.714-1.535-19.614-2.35-10.7-3-18.917-3.2-28.431-3.432-2.039-.05-4.14-.1-6.34-.181a231.5 231.5 0 0 0 -28.189.663c-3.3.239-6.711.485-10.461.646a348.233 348.233 0 0 1 -34.87-.283c-10.215-.457-22.932-1.026-43.868-1.026-27.326 0-56.372.452-71.975.695-7.158.112-11.886.184-12.939.164a.628.628 0 0 1 .013-1.256h.013c1.023.015 5.747-.054 12.892-.164 15.608-.243 44.658-.695 71.995-.695 20.965 0 33.695.571 43.923 1.028 11.325.506 20.268.9 34.759.283 3.733-.161 7.137-.407 10.428-.645a231.445 231.445 0 0 1 28.324-.665c2.193.079 4.289.129 6.325.179 9.6.231 17.886.432 28.739 3.48 2.22.623 8.921 1.42 19.378 2.307a166 166 0 0 0 18.541.29.515.515 0 0 1 .176.015 18.6 18.6 0 0 1 9.069 6.321c1.659 2 7.127 29.176 7.127 74.6a.628.628 0 0 1 -.627.633z" transform="matrix(0 1 -1 0 249.804 -12.787)"/><path d="m249.884 88.509c-7.86 0-14.732-.229-23.272-.9-8.479-.665-14.451-1.445-16.626-1.749a248.675 248.675 0 0 1 -40.912-9.626.628.628 0 0 1 .378-1.2 247.518 247.518 0 0 0 40.707 9.579c2.163.3 8.1 1.08 16.548 1.741 15.2 1.192 25.113.986 44.856.573l14.612-.293c20.966-.4 28.813-.552 41.873-2.456 11.722-1.709 23.69-4.157 29.9-13.477 1.793-2.689 3.08-6.588 3.829-11.59a.628.628 0 1 1 1.242.184c-.775 5.186-2.131 9.259-4.028 12.1-6.5 9.748-18.763 12.273-30.767 14.022-13.138 1.915-21 2.066-42.03 2.468l-14.608.293c-8.709.188-15.513.331-21.702.331z" transform="matrix(0 1 -1 0 250.052 -14.454)"/><path d="m362.848 67.231h-.03c-17.961-.912-37.1-1.627-58.5-2.181-28.225-.732-51.5-.8-101.464-.874-9.146-.037-17.858.172-25.555.335-5.206.11-9.7.206-13.179.213a.628.628 0 0 1 0-1.256c3.465-.007 7.955-.1 13.153-.211 7.7-.164 16.443-.345 25.584-.336 49.972.079 73.254.142 101.5.874 21.415.554 40.56 1.269 58.533 2.183a.628.628 0 0 1 -.033 1.256z" transform="matrix(0 1 -1 0 247.13 -17.925)"/><path d="m222.831 88.136a.628.628 0 0 1 -.573-.372c-1.167-2.61-5.474-22.135-5.474-28.05a.628.628 0 0 1 1.256 0c0 5.613 4.251 25.041 5.364 27.537a.626.626 0 0 1 -.316.829.609.609 0 0 1 -.257.056z" transform="matrix(0 1 -1 0 249.712 18.002)"/><path d="m208.311 63.463c-5.282 0-6.574-1.6-6.728-2.936a.651.651 0 0 1 .532-.718.6.6 0 0 1 .7.494l.01.08c.131 1.143 2.18 1.825 5.481 1.825 15.522 0 15.522-1.142 15.522-2.463a.628.628 0 1 1 1.256 0c.005 2.578-.675 3.718-16.773 3.718z" transform="matrix(0 1 -1 0 249.691 7.751)"/><path d="m266.419 64.184c-5.282 0-6.574-1.6-6.73-2.938a.654.654 0 0 1 .536-.718.611.611 0 0 1 .7.494c0 .012.01.07.01.082.132 1.142 2.18 1.825 5.481 1.825 15.521 0 15.521-1.142 15.521-2.464a.628.628 0 0 1 1.256 0c.007 2.579-.675 3.719-16.774 3.719z" transform="matrix(0 1 -1 0 249.207 46.922)"/><path d="m312.581 89.011c-19.113 0-39-.462-60.368-2.267-15.151-1.279-22.754-1.922-29.533-3.283a231.94 231.94 0 0 1 -26.016-7.1c-13-4.138-24.228-7.706-40.18-7.078-5.7.228-10.185.981-12.634 2.124a.628.628 0 0 1 -.531-1.138c3.328-1.552 8.97-2.074 13.115-2.24 16.187-.645 27.5 2.963 40.612 7.137a230.9 230.9 0 0 0 25.882 7.06c6.706 1.349 14.288 1.989 29.39 3.264 32.647 2.757 61.868 2.374 90.129 2 9.74-.127 19.813-.259 29.849-.259a.628.628 0 1 1 0 1.256c-10.028 0-20.1.132-29.833.259-9.81.135-19.737.265-29.882.265z" transform="matrix(0 1 -1 0 243.731 -31.765)"/><path d="m350.979 77.319a.627.627 0 0 1 -.586-.4c-.018-.049-1.934-4.865-8.493-7.123-2.637-.907-6.574-1.463-12.539-2.3-1.4-.2-2.925-.412-4.572-.651a33.472 33.472 0 0 1 -11.689-4.464.628.628 0 0 1 .678-1.058 32.853 32.853 0 0 0 11.191 4.277c1.647.238 3.166.452 4.569.651 6.035.849 10.023 1.411 12.773 2.359a15.913 15.913 0 0 1 8.479 6.387c.434-1.95.869-5.377-.7-7.587-1.025-1.44-2.8-2.168-5.27-2.168a.628.628 0 0 1 0-1.256c2.9 0 5.022.907 6.295 2.7 2.667 3.752.554 9.958.464 10.219a.631.631 0 0 1 -.584.422z" transform="matrix(0 1 -1 0 248.272 82.737)"/><path d="m349.428 139.434a.628.628 0 0 1 -.628-.623c-.365-47.906-4.465-55.59-6.874-55.907-.922-.121-4.276-.85-4.418-.882a.622.622 0 0 1 -.464-.425c-.1-.3-2.317-7.445-1.768-10.977a.627.627 0 1 1 1.239.193c-.439 2.831 1.184 8.59 1.621 10.061.906.2 3.254.695 3.953.787 3.236.424 7.584 6.809 7.967 57.14a.628.628 0 0 1 -.623.633z" transform="matrix(0 1 -1 0 242.296 97.819)"/><path d="m282.573 140.475a.628.628 0 0 1 -.628-.628c0-9.059-.837-20.031-1.577-29.709-1.015-13.312-1.54-20.943-.539-22.949 4.026-8.059 13.148-9.546 40.229-13.959 4.8-.782 10.162-1.656 16.17-2.675l1.349-.231c10.6-1.81 19.753-3.372 28.8 1.311 4.272 2.213 8.32 8.161 9.509 10.533a.627.627 0 1 1 -1.122.563c-1.261-2.513-5.185-8.022-8.967-9.981-8.667-4.488-17.628-2.958-28.008-1.187l-1.351.229c-6.01 1.021-11.379 1.9-16.177 2.677-26.606 4.336-35.568 5.8-39.306 13.281-.9 1.793-.137 11.751.668 22.292.74 9.7 1.579 20.7 1.579 29.8a.628.628 0 0 1 -.629.633z" transform="matrix(0 1 -1 0 243.337 60.139)"/><path d="m325 139.613a.628.628 0 0 1 -.628-.628c0-2.091.018-4.3.04-6.608.181-19.729.427-46.748-11.769-61.527a.628.628 0 0 1 .968-.8c12.489 15.132 12.238 42.415 12.057 62.337-.022 2.3-.04 4.51-.04 6.6a.628.628 0 0 1 -.628.626z" transform="matrix(0 1 -1 0 242.475 82.526)"/><path d="m342.874 135.128a.628.628 0 0 1 -.628-.628c0-33.907-4.051-53.421-5.9-57.115a.627.627 0 1 1 1.122-.563c1.969 3.936 6.033 23.211 6.033 57.678a.628.628 0 0 1 -.627.628z" transform="matrix(0 1 -1 0 237.99 98.554)"/><path d="m269.987 80.564a.63.63 0 0 1 -.606-.459c-.475-1.7-.991-3.906-1.59-6.454-.641-2.722-1.364-5.809-2.178-8.848a.628.628 0 1 1 1.214-.323c.817 3.057 1.545 6.152 2.186 8.884.6 2.535 1.11 4.723 1.579 6.4a.626.626 0 0 1 -.437.773.641.641 0 0 1 -.168.027z" transform="matrix(0 1 -1 0 246.39 50.903)"/><path d="m270.882 77.623a.628.628 0 0 1 -.34-.1.637.637 0 0 1 -.276-.4s-1.48-7.02-2.67-12.268a.628.628 0 0 1 1.225-.278c.974 4.306 2.146 9.8 2.54 11.647 2.6-.7 12.778-3.817 16.989-10.923a.627.627 0 1 1 1.08.639c-5.1 8.617-17.871 11.545-18.412 11.667a.746.746 0 0 1 -.136.016z" transform="matrix(0 1 -1 0 246.339 52.244)"/><path d="m141.89 139.886a.628.628 0 0 1 -.628-.628c0-30.377 2.784-62.923 9-67.153 3.511-2.389 7.309-2.506 12.119-2.657a75.482 75.482 0 0 1 26.242 4.219c1.5.491 2.967.983 4.436 1.475 25.185 8.427 48.972 16.383 179.892 13.366a.628.628 0 0 1 .03 1.256c-131.131 3.021-155.023-4.97-180.319-13.432-1.466-.491-2.935-.983-4.426-1.472a74.091 74.091 0 0 0 -25.813-4.16c-4.786.149-8.243.256-11.451 2.439-4.9 3.331-8.454 31.138-8.454 66.115a.628.628 0 0 1 -.628.632z" transform="matrix(0 1 -1 0 242.747 -32.908)"/><path d="m133.459 140.629h-.007a.631.631 0 0 1 -.621-.636c.194-16.316 10.461-69.234 24.08-71.67a.628.628 0 0 1 .221 1.235c-12.147 2.173-22.828 52.242-23.046 70.449a.627.627 0 0 1 -.627.622z" transform="matrix(0 1 -1 0 243.491 -38.591)"/><path d="m187.255 134.16a.628.628 0 0 1 -.628-.628c0-25.17 2.382-46.336 6.216-55.239a.628.628 0 0 1 1.153.5c-3.715 8.623-6.114 30.11-6.114 54.743a.628.628 0 0 1 -.627.624z" transform="matrix(0 1 -1 0 237.021 -2.327)"/><path d="m183.227 163.645a.617.617 0 0 1 -.352-.109 157.854 157.854 0 0 0 -51.075-21.736c-18.859-4.358-40.731-3.469-46.987-3.092a.619.619 0 0 1 -.665-.589.63.63 0 0 1 .589-.665c6.3-.377 28.322-1.272 47.345 3.124a159.08 159.08 0 0 1 51.5 21.916.627.627 0 0 1 -.353 1.147z" transform="matrix(0 1 -1 0 197.108 -71.408)"/><path d="m126.561 170.516c-6.007 0-15.273-.775-20.612-5.059-11.057-8.876-19.274-23.022-19.356-23.165a.628.628 0 0 1 .634-.934c.417.06 10.282 1.53 16.061 7.155a24.847 24.847 0 0 1 5.024 6.419 20.58 20.58 0 0 0 2.754 3.944c7.428 8.367 25.977 5.5 26.166 5.471a.627.627 0 0 1 .542 1.063l-2.879 2.881a7.312 7.312 0 0 1 -4.791 2.136c-.95.049-2.16.089-3.543.089zm-38.161-27.664c2.213 3.568 9.323 14.392 18.336 21.626 6.229 5 18.375 4.949 23.3 4.7a6.054 6.054 0 0 0 3.968-1.77l1.582-1.582c-5.032.534-18.931 1.244-25.46-6.112a21.9 21.9 0 0 1 -2.906-4.155 23.79 23.79 0 0 0 -4.81-6.142c-4.258-4.151-11.121-5.959-14.01-6.565z" transform="matrix(0 1 -1 0 194.256 -69.815)"/><path d="m92.763 163.229a.629.629 0 0 1 -.5-.249c-3.921-5.2-14.094-24.619-14.094-51.591a.628.628 0 1 1 1.256 0c0 31.575 13.7 50.652 13.841 50.836a.625.625 0 0 1 -.124.877.616.616 0 0 1 -.379.127z" transform="matrix(0 1 -1 0 214.878 -75.44)"/><path d="m98.526 167.931c-.3 0-.629-.012-1-.039a.627.627 0 0 1 -.581-.671.643.643 0 0 1 .671-.581c1.719.126 2.347-.112 2.443-.214.653-.976-1.321-3.787-4.59-8.444l-.716-1.021a195.33 195.33 0 0 1 -11.364-18.634c-.387.033-.986.09-1.51.176a.628.628 0 1 1 -.2-1.239c.911-.149 2.036-.219 2.036-.219a.613.613 0 0 1 .6.336 193.886 193.886 0 0 0 11.473 18.859l.717 1.021c4.058 5.781 5.739 8.171 4.6 9.872-.247.356-.776.798-2.579.798z" transform="matrix(0 1 -1 0 197.164 -73.431)"/><path d="m143.092 199.758c-5.921 0-11.091-.127-14.948-.45a48.253 48.253 0 0 1 -14.391-3.04c-19.825-8.225-37.215-47.889-37.215-84.879a.628.628 0 1 1 1.256 0c0 35.9 17.369 75.807 36.44 83.72a47.068 47.068 0 0 0 14.016 2.948c12.3 1.026 38.158.064 58.935-.711 11.7-.437 21.81-.814 28.162-.814a.628.628 0 1 1 0 1.256c-6.328 0-16.425.377-28.115.812-14.324.533-31.064 1.158-44.14 1.158z" transform="matrix(0 1 -1 0 214.878 -76.538)"/><path d="m187.03 183.42c-5 0-9.184-.472-17.511-6.574-7.731-5.667-12.388-18.045-12.583-18.569a.625.625 0 0 1 .082-.589.585.585 0 0 1 .537-.256l7.918.377a.63.63 0 0 1 .46.236c1.343 1.686 4.043 4.359 5.57 4.359a22.271 22.271 0 0 0 3.616-.293 9.633 9.633 0 0 1 4.61.181.619.619 0 0 1 .36.258c1.8 2.7 10.651 16.327 8.74 19.9a1.887 1.887 0 0 1 -1.799.97zm-28.56-24.688c1.224 2.958 5.531 12.512 11.792 17.1 8.638 6.331 12.77 6.331 16.768 6.331.526 0 .643-.221.693-.313 1.19-2.223-4.554-12.378-8.545-18.405a8.365 8.365 0 0 0 -3.874-.1 23.547 23.547 0 0 1 -3.8.308c-2.391 0-5.526-3.588-6.37-4.61z" transform="matrix(0 1 -1 0 183.42 -22.368)"/><path d="m169.688 163.085h-.568a.628.628 0 0 1 .005-1.256 4.239 4.239 0 0 1 .564 0c.33 0 .66 0 .988-.008a5.965 5.965 0 0 1 .782-3.127 12.6 12.6 0 0 1 5.29-4.205 73.043 73.043 0 0 0 -9.732 2.111 102.129 102.129 0 0 0 -11.417 3.95c1.271.213 3.05.482 5.1.718a.628.628 0 0 1 .552.695.638.638 0 0 1 -.7.552c-4.165-.479-7.23-1.1-7.261-1.1a.628.628 0 0 1 -.129-1.19 102.754 102.754 0 0 1 13.5-4.83c7.2-2.021 12.623-2.707 13.528-2.178a.822.822 0 0 1 .345.449c.167.671-.445.889-1.373 1.219-1.53.544-4.711 1.674-6.686 4.527a5.435 5.435 0 0 0 -.544 2.971.619.619 0 0 1 -.157.47.634.634 0 0 1 -.45.211c-.532.014-1.085.021-1.637.021z" transform="matrix(0 1 -1 0 186.377 -25.131)"/><path d="m365.165 198.752c-7.847 0-13.7-.424-19.416-.835-3.291-.238-6.695-.482-10.428-.643a347.1 347.1 0 0 0 -34.759.283c-10.229.457-22.959 1.026-43.923 1.026-27.336 0-56.387-.452-71.995-.695-7.143-.11-11.868-.187-12.892-.162h-.013a.628.628 0 0 1 -.013-1.256c1.051-.027 5.781.052 12.939.162 15.6.243 44.648.695 71.975.695 20.936 0 33.653-.569 43.868-1.026 11.357-.506 20.329-.907 34.87-.281 3.75.161 7.163.407 10.461.645a231.062 231.062 0 0 0 28.189.665c2.2-.08 4.3-.131 6.34-.181 9.514-.229 17.729-.429 28.431-3.434 2.9-.815 12.266-1.728 19.614-2.349a167.1 167.1 0 0 1 18.606-.3 17.955 17.955 0 0 0 8.315-5.879c1.013-1.306 6.839-26.727 6.839-73.8a.628.628 0 1 1 1.256 0c0 45.423-5.468 72.6-7.127 74.6-4.24 5.123-8.874 6.275-9.069 6.321a.69.69 0 0 1 -.176.017 166.008 166.008 0 0 0 -18.541.29c-10.456.886-17.158 1.682-19.378 2.307-10.853 3.049-19.143 3.248-28.739 3.48-2.036.049-4.132.1-6.325.179-3.259.119-6.202.171-8.909.171z" transform="matrix(0 1 -1 0 214.878 -12.787)"/><path d="m362.4 175.743a.628.628 0 0 1 -.621-.534c-.748-5-2.036-8.9-3.829-11.591-6.214-9.318-18.182-11.767-29.9-13.475-13.06-1.905-20.906-2.056-41.873-2.456l-14.612-.293c-19.741-.415-29.652-.621-44.856.571-8.444.663-14.386 1.44-16.547 1.743a247.309 247.309 0 0 0 -40.709 9.578.628.628 0 0 1 -.378-1.2 248.648 248.648 0 0 1 40.913-9.626c2.173-.3 8.144-1.083 16.624-1.749 15.264-1.2 25.194-.988 44.98-.574l14.608.293c21.025.4 28.892.552 42.03 2.469 12 1.749 24.266 4.272 30.767 14.021 1.9 2.844 3.253 6.916 4.028 12.1a.63.63 0 0 1 -.529.715.87.87 0 0 1 -.096.008z" transform="matrix(0 1 -1 0 191.25 -14.454)"/><path d="m201.868 161.091c-8.789 0-17.171-.179-24.6-.336-5.2-.11-9.688-.206-13.153-.211a.628.628 0 0 1 0-1.256c3.477.005 7.972.1 13.179.211 7.7.164 16.428.377 25.555.335 49.96-.077 73.238-.142 101.464-.872 21.4-.556 40.542-1.269 58.5-2.183a.628.628 0 0 1 .064 1.254c-17.973.914-37.118 1.629-58.533 2.185-28.242.73-51.524.8-101.5.872z" transform="matrix(0 1 -1 0 183.858 -17.925)"/><path d="m217.412 174.883a.628.628 0 0 1 -.628-.628c0-5.915 4.307-25.44 5.474-28.05a.627.627 0 1 1 1.145.511c-1.113 2.5-5.364 21.924-5.364 27.539a.628.628 0 0 1 -.627.628z" transform="matrix(0 1 -1 0 191.237 18.002)"/><path d="m224.461 164.906a.628.628 0 0 1 -.628-.628c0-1.323 0-2.464-15.522-2.464-3.3 0-5.35.683-5.481 1.825l-.63-.022-.619-.1.619.1-.621-.1c.157-1.364 1.45-2.961 6.732-2.961 16.1 0 16.778 1.14 16.778 3.72a.628.628 0 0 1 -.628.63z" transform="matrix(0 1 -1 0 181.31 7.752)"/><path d="m282.567 164.185a.627.627 0 0 1 -.628-.628c0-1.321 0-2.463-15.521-2.463-3.3 0-5.349.683-5.481 1.825l-.629-.022-.621-.1.621.1-.621-.1c.157-1.363 1.45-2.96 6.732-2.96 16.1 0 16.776 1.14 16.776 3.718a.627.627 0 0 1 -.628.63z" transform="matrix(0 1 -1 0 181.795 46.923)"/><path d="m160.147 162.792q-1.816 0-3.712-.075c-4.147-.166-9.788-.688-13.117-2.242a.627.627 0 1 1 .531-1.137c2.449 1.142 6.936 1.9 12.636 2.124 15.948.628 27.179-2.941 40.178-7.078a231.223 231.223 0 0 1 26.016-7.1c6.778-1.363 14.382-2.006 29.533-3.285 32.707-2.761 61.958-2.377 90.251-2.007 9.737.127 19.8.259 29.833.259a.628.628 0 1 1 0 1.256c-10.036 0-20.109-.132-29.849-.26-28.264-.372-57.484-.755-90.129 2-15.1 1.277-22.684 1.917-29.39 3.264a230.53 230.53 0 0 0 -25.882 7.061c-12.085 3.855-22.652 7.22-36.899 7.22z" transform="matrix(0 1 -1 0 193.997 -31.765)"/><path d="m313.443 167.529a.628.628 0 0 1 -.338-1.157 33.458 33.458 0 0 1 11.685-4.458c1.647-.239 3.167-.454 4.572-.651 5.965-.84 9.9-1.395 12.539-2.3 6.593-2.27 8.474-7.071 8.493-7.12a.685.685 0 0 1 .594-.407.63.63 0 0 1 .586.422c.09.263 2.2 6.469-.464 10.219-1.272 1.79-3.392 2.7-6.295 2.7a.628.628 0 1 1 0-1.256c2.473 0 4.246-.73 5.27-2.168 1.574-2.21 1.138-5.637.7-7.589a15.905 15.905 0 0 1 -8.479 6.387c-2.751.948-6.738 1.51-12.773 2.36-1.4.2-2.921.412-4.569.65a32.734 32.734 0 0 0 -11.186 4.274.63.63 0 0 1 -.335.094z" transform="matrix(0 1 -1 0 187.461 82.737)"/><path d="m335.9 180.106a.626.626 0 0 1 -.619-.531c-.549-3.532 1.672-10.676 1.768-10.979a.628.628 0 0 1 .464-.425c.142-.03 3.5-.76 4.418-.882 2.409-.316 6.509-8 6.874-55.9a.628.628 0 0 1 .628-.623h.005a.627.627 0 0 1 .623.633c-.383 50.33-4.731 56.715-7.967 57.139-.7.094-3.047.593-3.953.787-.437 1.472-2.059 7.232-1.621 10.063a.625.625 0 0 1 -.522.716.642.642 0 0 1 -.098.002z" transform="matrix(0 1 -1 0 214.878 97.819)"/><path d="m352.835 182.69a92.635 92.635 0 0 1 -15.258-1.781l-1.349-.231c-6.008-1.018-11.374-1.893-16.17-2.675-27.08-4.411-36.2-5.9-40.229-13.957-1-2.007-.475-9.638.539-22.949.74-9.68 1.577-20.65 1.577-29.709a.628.628 0 1 1 1.256 0c0 9.107-.839 20.1-1.579 29.8-.805 10.54-1.565 20.5-.668 22.292 3.738 7.483 12.7 8.943 39.306 13.279 4.8.782 10.167 1.657 16.177 2.677l1.351.231c10.379 1.77 19.339 3.3 28.008-1.189 3.782-1.959 7.706-7.467 8.967-9.981a.627.627 0 1 1 1.122.563c-1.189 2.374-5.237 8.32-9.509 10.533a28.551 28.551 0 0 1 -13.541 3.097z" transform="matrix(0 1 -1 0 214.878 60.139)"/><path d="m313.131 180.549a.618.618 0 0 1 -.4-.144.626.626 0 0 1 -.085-.884c12.2-14.777 11.95-41.8 11.769-61.525-.022-2.305-.04-4.518-.04-6.608a.628.628 0 1 1 1.256 0c0 2.086.018 4.3.04 6.6.181 19.922.432 47.2-12.057 62.337a.626.626 0 0 1 -.483.224z" transform="matrix(0 1 -1 0 214.878 82.526)"/><path d="m336.908 169.411a.626.626 0 0 1 -.561-.909c1.848-3.695 5.9-23.206 5.9-57.114a.628.628 0 1 1 1.256 0c0 34.465-4.065 53.74-6.033 57.676a.622.622 0 0 1 -.562.347z" transform="matrix(0 1 -1 0 214.878 98.554)"/><path d="m266.22 164.921a.6.6 0 0 1 -.162-.022.629.629 0 0 1 -.445-.768c.814-3.038 1.537-6.124 2.178-8.848.6-2.548 1.115-4.748 1.59-6.454a.629.629 0 0 1 1.21.34c-.469 1.679-.983 3.867-1.579 6.4-.641 2.732-1.369 5.829-2.186 8.886a.629.629 0 0 1 -.606.466z" transform="matrix(0 1 -1 0 189.525 50.903)"/><path d="m268.209 163.631a.574.574 0 0 1 -.139-.017.627.627 0 0 1 -.474-.75c1.19-5.25 2.67-12.268 2.67-12.268a.633.633 0 0 1 .276-.4.623.623 0 0 1 .475-.085c.541.12 13.309 3.05 18.412 11.667a.627.627 0 0 1 -1.08.64c-4.21-7.108-14.384-10.227-16.989-10.925-.393 1.848-1.565 7.341-2.54 11.648a.629.629 0 0 1 -.611.49z" transform="matrix(0 1 -1 0 188.362 52.244)"/><path d="m164.38 181.227q-.987 0-2-.03c-4.81-.149-8.608-.268-12.119-2.655-6.219-4.232-9-36.777-9-67.153a.628.628 0 1 1 1.256 0c0 34.977 3.556 62.782 8.454 66.115 3.208 2.183 6.665 2.29 11.451 2.438a74.131 74.131 0 0 0 25.813-4.157c1.492-.489 2.96-.979 4.426-1.47 25.294-8.464 49.188-16.455 180.322-13.433a.628.628 0 0 1 .613.643.6.6 0 0 1 -.643.613c-130.913-3.023-154.707 4.939-179.892 13.368-1.47.491-2.94.984-4.436 1.473a76.187 76.187 0 0 1 -24.245 4.248z" transform="matrix(0 1 -1 0 214.878 -32.908)"/><path d="m157.022 183.08a.616.616 0 0 1 -.111-.01c-13.619-2.437-23.886-55.354-24.08-71.672a.628.628 0 0 1 .621-.634c.291-.059.631.273.634.619.218 18.208 10.9 68.276 23.046 70.449a.629.629 0 0 1 -.11 1.247z" transform="matrix(0 1 -1 0 214.881 -38.591)"/><path d="m193.421 167.006a.63.63 0 0 1 -.578-.378c-3.834-8.9-6.216-30.068-6.216-55.239a.628.628 0 1 1 1.256 0c0 24.631 2.4 46.12 6.114 54.741a.629.629 0 0 1 -.328.825.619.619 0 0 1 -.248.051z" transform="matrix(0 1 -1 0 214.878 -2.327)"/></g></svg>