<svg enable-background="new 0 0 430 266" viewBox="0 0 430 266" xmlns="http://www.w3.org/2000/svg"><path d="m161.62 167.93c-13.91 0-27.35-8.64-32.39-22.26-3.56-9.62-2.75-20.2 2.21-29.02 4.96-8.81 13.56-14.97 23.6-16.91 6.75-1.3 13.39-.58 19.76 2.16.48.21.63.18.68.16.09-.04.22-.27.38-.67 6.21-15.87 17.69-25.13 34.13-27.54 18.76-2.74 37.52 8.28 44.61 26.21.21.54.44 1.1.55 1.16.12.05.69-.15 1.24-.35 9.29-3.37 19.16-2.8 27.79 1.62 8.62 4.41 14.85 12.08 17.55 21.59 2.67 9.42 1.05 19.63-4.45 27.99-5.53 8.41-14.31 13.98-24.11 15.28-1.06.14-2.13.19-3.17.23-.51.02-1.03.04-1.55.08h-.05c-12.7-.36-22.57-5.91-29.35-16.49-.26-.41-.38-.46-.41-.47s-.15-.01-.57.27c-5 3.38-10.89 5.48-17.51 6.25-10.41 1.22-20.02-1.1-28.58-6.88-.29-.2-.42-.19-.41-.19-.07.02-.23.3-.31.44l-.1.17c-4.25 7.18-10.37 12.28-18.18 15.15-3.72 1.38-7.56 2.02-11.36 2.02zm-.12-67.81c-2.08 0-4.17.2-6.28.61-9.75 1.88-18.1 7.87-22.92 16.42-4.82 8.57-5.6 18.84-2.15 28.18 6.23 16.84 25.68 25.83 42.47 19.65 7.58-2.79 13.53-7.75 17.66-14.72l.09-.16c.21-.37.46-.8.95-.91.35-.08.75.03 1.2.33 8.36 5.64 17.74 7.9 27.91 6.71 6.46-.75 12.2-2.8 17.07-6.09.41-.28.85-.52 1.33-.42.47.1.79.5 1.05.91 6.59 10.28 16.18 15.67 28.52 16.03.52-.03 1.03-.05 1.55-.08 1.06-.04 2.06-.09 3.08-.22 9.5-1.26 18.04-6.67 23.4-14.84 5.34-8.12 6.91-18.03 4.32-27.17-2.62-9.24-8.67-16.68-17.04-20.97-8.38-4.29-17.96-4.84-26.99-1.57-2 .72-2.28.59-3.06-1.38-6.92-17.51-25.22-28.27-43.53-25.59-16.06 2.35-27.28 11.41-33.35 26.92-.2.51-.43 1.02-.93 1.23-.48.2-1 .03-1.46-.17-4.19-1.8-8.5-2.7-12.89-2.7zm-.4 64.82c-15.2 0-28.4-11.18-30.75-26.64-1.28-8.42.81-16.79 5.89-23.58 5.1-6.81 12.59-11.18 21.07-12.32 1.09-.15 2.18-.18 3.04-.2l.63-.02c4.5-.09 8.65.73 13.03 2.57 1.11.46 1.5 1.19 1.25 2.35l-.02.11c-.3 1.44-.45 2.16-1.04 2.46-.59.31-1.26.02-2.72-.61-7.37-3.18-15.71-2.67-22.9 1.38-7.18 4.04-11.92 10.9-13.02 18.81-1.15 8.31 1.12 15.65 6.73 21.8.27.3.51.53.74.72.56.46.94.28 1.19.1.18-.13.73-.61.35-1.14-1-1.39.04-2.17.6-2.59.48-.36.73-.56.79-.9.12-.63-.09-.89-.31-1.05-.35-.26-.67-.29-1.06-.07-.11.06-.21.15-.32.23l-.13.1c-.94.71-1.41 1.06-1.96.95-.56-.11-.87-.63-1.43-1.59-.25-.42-.47-.85-.69-1.29-.21-.41-.41-.81-.64-1.21-.11-.19-.46-.78-.22-1.33.22-.5.78-.67 1.18-.76.38-.08.77-.23 1.12-.42.5-.27.64-.65.45-1.15-.2-.51-.56-.71-1.12-.62-.04.01-.09.03-.14.03-.18.02-.39.12-.63.22-.5.22-1.19.53-1.81.04-.63-.5-.68-1.27-.73-1.95-.02-.23-.03-.45-.07-.66-.09-.49-.13-.99-.17-1.47-.03-.33-.05-.66-.09-.99-.08-.55.02-.96.29-1.24.26-.27.66-.39 1.19-.34l.31.03c.38.04.74.07 1.1.06 1.02-.03 1.06-.71 1.07-.94.02-.35-.05-.83-.9-.97l-.11-.01c-1.35-.2-2.03-.3-2.38-.82s-.2-1.18.12-2.5c.09-.36.18-.73.28-1.09.34-1.22.51-1.83 1.04-2.11.53-.27 1.09-.06 2.22.35.93.33 1.25-.05 1.44-.46.17-.36.25-.75-.63-1.29-1.02-.62-1.53-.94-1.64-1.51-.12-.58.25-1.08.97-2.09l.09-.13c.19-.27.38-.54.59-.79.14-.16.27-.35.4-.54.38-.53.77-1.09 1.37-1.3.9-.31 1.42.39 1.76.86.14.19.29.39.42.49.69.53 1.06.35 1.37.08.27-.24.57-.64.1-1.33l-.07-.09c-.72-1.03-1.08-1.55-.96-2.14s.68-.95 1.69-1.59c.53-.34 1.09-.64 1.64-.94.28-.15.56-.3.84-.46.41-.23.78-.29 1.11-.16s.57.42.71.9c.17.54.33.93.51 1.28.29.53.7.67 1.25.44.31-.13.69-.38.52-1.14l.46-.23-.49.12c-.3-1.25-.45-1.88-.12-2.39s.97-.63 2.23-.85c.2-.04.4-.06.61-.08.13-.01.26-.03.39-.04 1.32-.19 1.98-.28 2.47.1.48.38.55 1.01.68 2.27.1.92.55 1.06.98 1.08.37 0 .79-.08.99-.95.02-.08.02-.15.03-.23.13-1.23.19-1.81.65-2.14s1.07-.2 2.18.04c.51.11 1.01.24 1.52.37.41.11.82.21 1.23.31.4.09.96.27 1.18.78.16.37.09.81-.21 1.33-.21.36-.37.79-.44 1.21-.1.56.1.91.61 1.09.31.11.71.15 1.11-.44.12-.17.2-.37.29-.56.08-.17.15-.34.24-.5.03-.06.06-.14.08-.21.09-.28.34-1.03 1.18-.86.92.19 1.49.72 1.6 1.49.05.33.04.65.03.97v.21c-.13 8.65 2.26 16.69 7.1 23.92l.12.17c.21.29.47.66.32 1.08-.14.43-.6.63-.99.75-.42.13-.52.44-.54.61-.05.38.16.78.54 1.02.32.21.72.35 1.13.5.45.16.74.39.86.71.13.32.08.68-.14 1.11-.13.26-.27.63-.17.94.07.22.26.4.57.54.26.12.49.15.7.08.25-.09.47-.34.64-.7.2-.43.53-1 1.11-1.07.57-.07 1.03.4 1.36.81.15.19.35.36.57.55l.17.15c1.83 1.6 1.87 1.89.61 3.89-5.67 8.98-13.78 14.06-24.11 15.1-1.05.08-2.1.13-3.13.13zm-.1-61.75-.62.02c-.85.02-1.9.05-2.94.19-8.22 1.1-15.46 5.34-20.4 11.93-4.92 6.57-6.95 14.67-5.71 22.83 2.44 15.98 16.84 27.25 32.8 25.64 10.01-1.01 17.87-5.94 23.37-14.64.91-1.44.91-1.44-.42-2.6l-.18-.15c-.24-.21-.49-.42-.7-.68-.3-.38-.44-.43-.46-.44 0 .01-.12.09-.31.5-.28.61-.7 1.04-1.21 1.22-.46.17-.96.13-1.47-.11-.7-.33-.98-.8-1.09-1.13-.17-.51-.09-1.1.23-1.72.1-.19.1-.27.1-.28s-.06-.06-.26-.13c-.47-.16-.92-.33-1.34-.6-.7-.45-1.09-1.23-.99-1.99.09-.68.54-1.22 1.22-1.44.14-.05.23-.08.29-.11-.04-.06-.09-.13-.13-.19l-.13-.19c-4.96-7.39-7.4-15.63-7.27-24.49v-.22c.01-.28.01-.55-.02-.8-.02-.14-.07-.5-.8-.65.01.02-.02.12-.04.19-.04.14-.09.27-.16.38-.08.14-.14.28-.21.42-.11.24-.22.48-.37.7-.56.83-1.39 1.14-2.27.83-.98-.34-1.45-1.17-1.27-2.21.09-.54.29-1.07.56-1.54.18-.31.16-.42.16-.42s-.06-.1-.49-.2c-.42-.1-.84-.21-1.26-.32-.49-.13-.98-.26-1.47-.36-.58-.13-1.25-.27-1.38-.2-.1.1-.16.74-.23 1.36-.02.19-.03.31-.06.43-.36 1.55-1.42 1.73-2.01 1.72-1.11-.05-1.8-.75-1.93-1.97-.08-.79-.16-1.47-.3-1.59-.15-.12-.88-.02-1.71.1-.14.02-.28.03-.42.05-.18.02-.36.04-.54.07-.76.14-1.47.27-1.57.42s.07.86.25 1.62l.03.12c.24 1.04-.17 1.9-1.11 2.29-1.02.42-1.99.08-2.51-.89-.28-.52-.47-1.08-.59-1.45-.06-.2-.12-.26-.13-.27 0 0-.08.01-.24.1-.28.16-.57.31-.85.47-.54.29-1.07.58-1.58.9-.6.38-1.21.77-1.25.94-.03.17.37.75.8 1.37l.08.1c.65.94.55 1.92-.25 2.64-.45.4-1.38.92-2.64-.03-.25-.19-.44-.45-.62-.7-.37-.5-.47-.56-.62-.51-.3.11-.6.53-.89.93-.15.21-.3.42-.45.6-.19.23-.37.48-.54.72l-.09.13c-.41.57-.83 1.16-.8 1.31.03.14.64.52 1.19.85 1.41.87 1.33 1.87 1.01 2.56-.49 1.07-1.47 1.43-2.69.98-.61-.22-1.29-.46-1.43-.4-.14.07-.34.79-.54 1.48-.1.35-.18.7-.27 1.05-.19.8-.37 1.55-.26 1.71s.88.27 1.7.39l.12.01c1.16.19 1.81.95 1.75 2.02-.06 1.13-.84 1.85-2.04 1.88-.42.01-.83-.03-1.23-.07l-.3-.03c-.26-.02-.36.02-.38.04s-.06.13-.02.42c.05.35.07.7.1 1.05.04.48.07.92.16 1.36.05.25.07.51.09.78.04.52.07 1.02.35 1.24.13.11.35.02.78-.17.27-.12.58-.26.91-.3.02-.01.06-.02.1-.03 1.04-.17 1.85.28 2.22 1.24s.03 1.88-.9 2.39c-.44.24-.92.42-1.39.52-.4.09-.48.18-.48.19s-.01.11.17.42c.24.41.46.84.67 1.26.21.41.42.83.65 1.23.29.5.63 1.06.77 1.12.14 0 .66-.39 1.16-.77l.12-.09c.14-.11.28-.22.44-.3.73-.42 1.5-.36 2.16.14.62.47.85 1.16.68 2.04-.14.73-.68 1.13-1.11 1.46-.78.59-.83.74-.46 1.26.59.82.36 1.83-.57 2.52-.76.57-1.64.52-2.42-.13-.27-.22-.54-.48-.84-.82-5.83-6.38-8.18-13.98-6.99-22.61 1.14-8.22 6.06-15.34 13.52-19.54 7.47-4.21 16.13-4.73 23.76-1.44.86.37 1.72.75 1.89.65.17-.08.34-.94.52-1.78l.02-.11c.15-.7.02-.94-.66-1.22-4.24-1.76-8.26-2.54-12.62-2.47zm107.23 61.46c-8.54 0-16.11-3.24-22.52-9.65-1.68-1.68-3.04-3.64-4.26-5.51-.67-1.02-.54-1.8.43-2.59 3.74-3.05 6.92-6.89 9.48-11.41 2.66-4.71 4.32-10.04 4.95-15.86.47-4.36.18-8.9-.87-13.48-.25-1.11.11-1.8 1.14-2.18 11.8-4.33 22.67-2.56 32.27 5.24 1.14.92 1.73 1.44 1.71 2.11-.02.7-.69 1.19-1.91 2.07-.66.48-1.31.97-1.96 1.46-.24.18-.53.47-.57.81-.03.23.05.47.25.72.14.18.55.71 1.51.03 1.16-.82 2.33-1.66 3.44-2.53.28-.22.71-.5 1.22-.45.37.05.7.27 1.01.68 3.13 4.14 5.16 8.87 6.03 14.07.08.45 0 .81-.22 1.07-.23.27-.54.4-1.09.4l-2.78-.03c-.42 0-.83-.01-1.25.01-.54.02-.97.17-1.2.42-.14.15-.19.33-.18.55.04.53.23 1.02 1.39 1.04l.83.02c1.05.02 2.14.05 3.2 0 .55-.01.95.1 1.23.38.38.37.43.92.42 1.41-.03 5.09-1.26 9.96-3.65 14.49-.2.37-.48.81-.97.9s-.91-.2-1.19-.43c-.95-.8-1.95-1.59-3.06-2.42-.42-.31-.81-.45-1.12-.41-.21.03-.39.16-.54.37-.33.47-.38.89.43 1.54l.54.44c.85.69 1.73 1.4 2.62 2.05.36.26.79.64.86 1.19s-.25 1.02-.5 1.32c-5.87 7.22-13.32 11.26-22.15 12.01-1 .11-1.99.15-2.97.15zm.56-61.98c-3.83 0-7.79.75-11.87 2.24-.52.19-.66.36-.51 1.02 1.07 4.69 1.37 9.33.89 13.81-.64 5.95-2.35 11.42-5.07 16.24-2.61 4.63-5.88 8.56-9.71 11.69-.58.47-.62.67-.23 1.27 1.19 1.82 2.51 3.73 4.13 5.35 6.93 6.93 15.25 10.03 24.7 9.24 8.54-.72 15.76-4.64 21.46-11.64.2-.24.3-.44.28-.56-.01-.09-.1-.25-.46-.51-.91-.67-1.8-1.39-2.66-2.08l-.54-.44c-1.4-1.13-1.11-2.2-.62-2.89.31-.44.72-.71 1.2-.79.59-.09 1.23.11 1.88.59 1.12.84 2.14 1.64 3.1 2.45.25.21.35.22.36.22s.09-.04.28-.39c2.31-4.38 3.5-9.1 3.53-14.03 0-.38-.04-.61-.12-.69-.07-.07-.25-.1-.5-.09-1.09.04-2.19.02-3.25 0l-.82-.02c-1.84-.03-2.31-1.08-2.37-1.96-.04-.49.11-.94.43-1.29.41-.46 1.09-.73 1.91-.75.43-.01.86-.01 1.29-.01l2.78.03c.26.04.32-.05.33-.05 0 0 .03-.07 0-.26-.84-5.04-2.81-9.62-5.84-13.63-.19-.25-.3-.29-.34-.3s-.18.01-.47.24c-1.13.89-2.32 1.73-3.47 2.54-1.1.78-2.18.7-2.89-.22-.36-.46-.51-.97-.45-1.46.07-.54.4-1.05.96-1.48.65-.5 1.31-.99 1.98-1.47s1.49-1.08 1.5-1.29-.84-.9-1.34-1.31c-6.03-4.87-12.53-7.32-19.46-7.32zm-53.02 51.67c-3.02 0-6.11-.3-9.33-.91-1.03-.19-1.5-.77-1.5-1.81.02-5.23.04-11.41-.01-17.55 0-.56.13-.96.4-1.24.41-.41 1.01-.4 1.5-.41 5.41.01 10.82.01 16.23.01h9.82 15.56c.81 0 1.4.04 1.64.49.25.46-.05.98-.46 1.61-7.53 11.54-16.25 17.68-27.41 19.33-2.12.32-4.26.48-6.44.48zm-8.98-20.92c-.27 0-.64.01-.74.11-.03.03-.11.15-.11.52.04 6.14.03 12.32.01 17.56 0 .56.13.72.68.83 5.43 1.02 10.49 1.16 15.45.43 10.86-1.6 19.35-7.6 26.72-18.89.17-.25.26-.42.32-.53-.13-.01-.34-.02-.67-.02h-20.75-4.64c-5.41 0-10.82 0-16.23-.01-.01 0-.03 0-.04 0zm-4.76 18.68c-.36 0-.78-.18-1.24-.39-14.1-6.2-22.2-16.84-24.07-31.63-2.61-20.67 11.42-39.58 31.95-43.06 12.67-2.14 23.85 1.14 33.22 9.76 9.08 8.36 13.3 19.06 12.53 31.81-.19 3.19-.89 6.48-2.13 10.07-.44 1.27-1.16 1.79-2.49 1.79-.01 0-.02 0-.03 0-5.64-.03-11.27-.03-16.91-.03h-27.65c-2.06 0-2.28.22-2.28 2.32v17.55c0 .77 0 1.38-.45 1.67-.14.1-.29.14-.45.14zm13.97-74.71c-2.33 0-4.72.21-7.17.62-20 3.38-33.67 21.81-31.12 41.95 1.82 14.42 9.72 24.79 23.48 30.84.14.06.5.22.71.28.03-.21.03-.61.03-.78v-17.55c0-2.66.65-3.32 3.28-3.32h27.65c5.64 0 11.28-.01 16.91.03.95.04 1.27-.24 1.57-1.11 1.21-3.5 1.89-6.7 2.08-9.8.75-12.43-3.36-22.87-12.21-31.02-7.32-6.75-15.78-10.14-25.21-10.14z"/><path d="m191.49 141.73c-.44 0-.89-.18-1.29-.54-1.18-1.07-2.28-2.28-3.36-3.7-5.15-6.79-7.67-14.39-7.48-22.61.43-18.18 13.71-32.97 31.57-35.18 1.09-.13 2.18-.16 3.14-.19.4-.01.78-.02 1.14-.04h.02c18.01-.26 33.45 13.09 35.95 30.97.54 3.9.45 7.85-.27 11.75-.27 1.46-1.02 2.17-2.29 2.05-.51-.04-.93-.26-1.22-.63-.39-.49-.53-1.22-.4-2.11.07-.48.13-.96.18-1.44.08-.66.16-1.32.27-1.98.04-.27.01-.36 0-.36s-.08-.05-.32-.04c-.78.01-1.58.03-2.38-.03-1.29-.09-2.06-.87-2.03-2.05.03-1.1.8-1.84 2.01-1.92.78-.05 1.58-.04 2.34-.03.36.01.42-.06.42-.06.01-.02.05-.11.02-.33-.26-2.33-.61-4.81-1.37-7.25-.13-.42-.24-.48-.25-.48-.01-.01-.12-.04-.48.13-.72.34-1.48.63-2.24.87-1.07.34-2-.08-2.44-1.08-.43-1.01-.07-1.96.95-2.5.67-.35 1.44-.68 2.43-1.04.27-.1.32-.17.32-.17s.01-.08-.11-.32c-1.22-2.39-2.58-4.47-4.15-6.38-.17-.21-.25-.23-.26-.23 0 0-.08.02-.28.22-.65.68-1.24 1.25-1.81 1.73-.93.79-2 .77-2.78-.05-.77-.81-.75-1.88.05-2.78.54-.6 1.11-1.17 1.69-1.69.29-.25.29-.37.29-.38s-.01-.12-.28-.36c-2.1-1.78-4.11-3.18-6.15-4.29-.23-.13-.31-.11-.31-.11s-.06.03-.15.24l-.08.19c-.31.72-.63 1.46-.99 2.18-.58 1.14-1.62 1.52-2.71.99-1.02-.49-1.35-1.48-.88-2.63.3-.73.6-1.45.94-2.16.15-.31.12-.43.11-.46s-.08-.13-.42-.25c-2.07-.73-4.38-1.27-7.06-1.64-.41-.05-.53.02-.56.05s-.12.15-.1.58c.04.71.03 1.48-.04 2.28-.1 1.21-.83 1.94-1.96 1.96-.01 0-.03 0-.04 0-1.13 0-1.88-.74-1.95-1.95-.06-1.04.02-2.08.1-2.78.02-.24 0-.33-.01-.34-.01 0-.04-.01-.16-.01-.05 0-.1 0-.17.01-2.62.24-4.97.5-7.3 1.14-.49.13-.58.24-.59.27 0 .01-.05.12.12.47.19.41.33.83.47 1.24.07.21.14.43.22.64.65 1.75-.17 2.55-.98 2.91-.49.22-.98.23-1.41.05-.57-.24-1.03-.79-1.35-1.63l-.15-.4c-.21-.53-.41-1.05-.58-1.59-.07-.23-.14-.3-.16-.31s-.13-.01-.36.09c-2.14.96-4.26 2.26-6.49 3.96-.17.13-.22.22-.22.25 0 .04.04.15.21.33.58.6 1.16 1.21 1.67 1.86.74.95.68 2.01-.15 2.77-.85.78-1.89.73-2.77-.15-.69-.69-1.22-1.28-1.68-1.87-.18-.23-.27-.26-.27-.26s-.1.02-.33.27c-1.71 1.81-3.24 3.86-4.55 6.09-.12.21-.13.29-.13.3s.05.06.23.13c.88.39 1.6.74 2.25 1.1 1.15.64 1.51 1.65.97 2.71-.55 1.07-1.58 1.38-2.75.83l-.19-.09c-.6-.28-1.23-.58-1.83-.91-.3-.17-.39-.14-.39-.14s-.09.04-.2.34c-.85 2.2-1.47 4.57-1.9 7.24-.04.28.01.34.01.35 0 0 .06.07.36.08.74.03 1.48.1 2.19.17l.53.05c1.32.13 2.06.91 1.97 2.1-.1 1.24-.97 1.89-2.37 1.79-.25-.02-.49-.01-.75-.02-.42.01-.93 0-1.4-.1-.54-.11-.69-.03-.73 0-.06.05-.15.24-.11.91.16 2.67.46 4.84.95 6.82.09.37.19.44.21.45s.12.05.45-.07c.73-.27 1.51-.5 2.4-.73 1.16-.29 2.11.19 2.47 1.26.37 1.08-.11 2-1.28 2.46-.84.33-1.72.6-2.48.83-.28.09-.33.16-.33.16s-.01.06.06.24c1.02 2.44 2.29 4.7 3.79 6.72.05.07.09.1.11.12.01-.01.07-.04.18-.14.69-.59 1.38-1.18 2.08-1.75 1.02-.82 2.09-.78 2.87.12.39.45.57.93.54 1.42-.04.54-.34 1.06-.89 1.53l-.38.33c-.43.38-.88.78-1.37 1.11-.48.33-.49.47-.49.47s.01.12.35.37c.16.12.31.28.45.49.63.94.53 1.9-.27 2.63-.36.38-.8.56-1.24.56zm23.77-61.26c-.36.02-.75.03-1.16.04-.94.02-2 .05-3.04.18-17.37 2.14-30.28 16.53-30.7 34.21-.19 7.99 2.26 15.38 7.27 21.98 1.04 1.37 2.1 2.54 3.24 3.56.42.38.81.39 1.21.02.43-.4.47-.81.12-1.34-.09-.14-.16-.21-.21-.24-.52-.38-.76-.77-.75-1.2.01-.58.5-.99.93-1.28.44-.3.84-.66 1.27-1.03l.39-.34c.23-.2.52-.51.54-.85.02-.22-.08-.45-.29-.69-.29-.33-.71-.62-1.49 0-.7.56-1.38 1.14-2.06 1.72-.21.18-.54.43-.95.38-.29-.03-.56-.21-.79-.52-1.55-2.08-2.86-4.42-3.91-6.93-.17-.4-.18-.75-.04-1.05.2-.42.63-.59.94-.69.74-.23 1.59-.5 2.41-.81.98-.38.77-.98.7-1.2-.07-.21-.29-.86-1.28-.61-.85.21-1.61.44-2.3.7-.52.19-.93.19-1.27.01-.45-.24-.62-.74-.71-1.09-.5-2.05-.81-4.27-.97-7-.04-.63-.01-1.33.46-1.73s1.13-.32 1.59-.22c.37.08.78.08 1.19.08.27 0 .55 0 .82.02 1.08.08 1.26-.39 1.3-.87.02-.25.07-.92-1.06-1.03l-.53-.05c-.7-.07-1.42-.14-2.13-.17-.51-.02-.87-.16-1.1-.45-.23-.28-.3-.65-.22-1.14.44-2.75 1.08-5.18 1.96-7.45.19-.5.45-.79.8-.92.46-.16.92.04 1.22.21.57.32 1.17.6 1.76.88l.19.09c.88.42 1.23.01 1.44-.38.2-.38.31-.89-.56-1.37-.62-.34-1.31-.68-2.17-1.06-.42-.19-.68-.43-.78-.75-.14-.43.06-.84.22-1.11 1.35-2.3 2.93-4.41 4.69-6.27.26-.28.63-.61 1.11-.58.48.02.81.38 1.01.64.43.56.94 1.12 1.6 1.78.65.65 1.1.38 1.39.12.17-.15.67-.61.04-1.42-.48-.62-1.05-1.2-1.59-1.77-.37-.39-.54-.75-.51-1.12.03-.35.23-.68.61-.97 2.29-1.75 4.48-3.08 6.69-4.08.46-.21.85-.24 1.18-.09s.56.45.71.93c.16.52.36 1.02.55 1.53l.15.4c.22.57.5.94.8 1.07.18.08.39.06.62-.04.56-.25.84-.61.45-1.64-.08-.22-.16-.44-.23-.67-.14-.4-.26-.78-.43-1.14-.24-.53-.28-.96-.12-1.31.22-.48.75-.68 1.23-.82 2.4-.66 4.8-.92 7.47-1.17.33-.03.81-.03 1.14.3s.32.81.29 1.14c-.11 1.06-.14 1.87-.09 2.61.04.68.37 1.04.98 1.01.38-.01.9-.12.98-1.04.06-.75.07-1.47.04-2.14-.04-.63.1-1.08.42-1.37s.77-.39 1.38-.3c2.75.38 5.13.93 7.26 1.69.53.19.86.45 1 .81.15.36.11.77-.13 1.27-.33.69-.62 1.41-.92 2.12-.4.97.17 1.24.39 1.35s.89.43 1.38-.54c.35-.69.66-1.42.97-2.13l.08-.2c.18-.42.42-.68.74-.79.33-.11.69-.05 1.12.18 2.1 1.14 4.17 2.58 6.32 4.41.42.36.63.72.63 1.11 0 .52-.36.9-.63 1.14-.55.49-1.1 1.03-1.61 1.6-.69.77-.23 1.26-.07 1.42.15.16.62.65 1.41-.02.54-.46 1.11-1 1.74-1.66.23-.24.58-.56 1.04-.53.46.02.79.35.99.6 1.62 1.96 3.01 4.11 4.26 6.56.15.29.32.72.15 1.15s-.6.63-.91.74c-.96.35-1.67.65-2.31.98-.83.44-.58 1.02-.49 1.22.23.54.63.71 1.22.52.72-.22 1.43-.5 2.11-.82.34-.16.84-.35 1.31-.14.48.21.69.73.8 1.1.78 2.52 1.13 5.06 1.41 7.43.05.48-.04.85-.28 1.11-.25.27-.57.4-1.14.39-.78-.01-1.55-.02-2.29.03-.7.05-1.06.37-1.08.95-.01.23-.03.94 1.1 1.02.75.05 1.53.04 2.29.03.49-.01.87.12 1.1.39.35.41.25.99.22 1.18-.11.64-.18 1.29-.26 1.93-.06.49-.12.98-.19 1.46-.09.6-.02 1.08.2 1.34.12.15.29.24.52.26.61.06 1.01-.14 1.22-1.23.71-3.79.8-7.64.27-11.43-2.41-17.24-17.21-30.11-34.51-30.11-.21.01-.35.01-.49.01z"/><path d="m214.62 121.4c-.01 0-.01 0-.02 0-3.57-.01-6.54-2.39-7.39-5.92-.81-3.37.84-6.91 3.92-8.41.84-.41 1.35-.96 1.75-1.89 1.6-3.72 3.22-7.44 4.84-11.15l2.25-5.16c.32-.74 1.18-2.72 2.84-2.07s1.41 2.12 1.25 3.1l-.03.17c-1.05 6.54-2.04 12.6-3.03 18.51-.1.61.11 1.09.41 1.65 1.25 2.41 1.16 5.22-.23 7.51-1.4 2.29-3.85 3.66-6.56 3.66zm7.56-33.74c-.29 0-.71.26-1.29 1.6l-2.25 5.17c-1.62 3.71-3.24 7.43-4.84 11.15-.5 1.16-1.17 1.88-2.23 2.4-2.66 1.29-4.08 4.35-3.38 7.27.74 3.07 3.32 5.14 6.42 5.15h.02c2.36 0 4.49-1.19 5.7-3.18s1.29-4.43.2-6.53c-.35-.68-.66-1.37-.5-2.28.99-5.92 1.98-11.97 3.03-18.51l.03-.18c.19-1.17.19-1.68-.63-2-.09-.03-.18-.06-.28-.06zm-7.54 30.72c-1.28 0-2.44-.46-3.28-1.29s-1.3-1.99-1.31-3.26c-.01-2.61 1.97-4.68 4.52-4.72 1.22.03 2.46.5 3.36 1.41.89.89 1.4 2.09 1.38 3.29-.03 2.59-2.03 4.56-4.65 4.57s-.01 0-.02 0zm-.01-8.27c-.01 0-.03 0-.04 0-1.99.03-3.54 1.66-3.53 3.71 0 1.01.36 1.91 1.01 2.56s1.62 1.01 2.6 1c2.06-.01 3.63-1.55 3.66-3.58.01-.93-.39-1.87-1.09-2.57-.71-.71-1.66-1.12-2.61-1.12zm2.63-2.54c-.21 0-.4-.05-.55-.09-.37-.11-.76-.28-.95-.68-.13-.3-.11-.64.07-1.04.58-1.28 1.14-2.56 1.69-3.84l.82-1.88.85.25.07.48-.27 1.64c-.22 1.35-.44 2.7-.65 4.05-.07.47-.24.79-.53.97-.17.1-.36.14-.55.14zm-.58-1.17c.01 0 .09.05.32.12.2.06.28.05.29.05 0-.01.04-.07.07-.27.12-.78.24-1.56.36-2.34-.32.74-.65 1.47-.98 2.2-.06.16-.06.23-.06.24z"/><path d="m268.03 157.26c-3.35 0-6.69 0-10.04-.01-1.57 0-2.28-.7-2.31-2.27-.03-1.55-.03-3.12 0-4.68.03-1.64.7-2.29 2.4-2.29 2.43-.01 4.86-.01 7.28-.01h2.91 2.89c2.35 0 4.71 0 7.06.01 1.79.01 2.39.61 2.41 2.38.02 1.52.02 3.04 0 4.56-.03 1.62-.7 2.31-2.25 2.31-3.45 0-6.9 0-10.35 0zm-5.58-8.27c-1.46 0-2.91 0-4.37.01-1.14 0-1.38.23-1.4 1.31-.03 1.55-.03 3.11 0 4.65.02 1.02.29 1.29 1.31 1.29 6.79.01 13.58.01 20.38 0 1 0 1.24-.25 1.26-1.33.02-1.51.02-3.02 0-4.53-.01-1.21-.18-1.38-1.42-1.39-2.35-.01-4.7-.01-7.06-.01h-2.89-2.91c-.96 0-1.93 0-2.9 0zm13.61 5.27c-.02 0-.05 0-.07 0-1.85-.03-3.7-.02-5.54-.02h-2.17-2.17c-1.85 0-3.7-.01-5.55.01-.41 0-.93-.03-1.32-.33-.37-.28-.55-.74-.56-1.39-.01-.57.13-.98.41-1.27.39-.4.94-.45 1.47-.42 4.98.02 10.18.02 15.45 0 .53-.02 1.03.04 1.39.41.27.27.4.67.4 1.22 0 .4-.05.98-.44 1.37-.38.37-.91.42-1.3.42zm-3.44-1.02c1.13 0 2.26.01 3.39.02.33-.01.55-.04.64-.13s.14-.32.14-.66c0-.26-.04-.44-.11-.51-.12-.12-.54-.11-.68-.11-5.28.02-10.48.02-15.46 0-.31 0-.64.01-.76.13-.08.08-.12.27-.12.55 0 .32.06.52.17.61.11.08.33.12.7.12 1.85-.02 3.71-.01 5.56-.01h2.17 2.17c.74-.01 1.46-.01 2.19-.01z"/><path d="m268.61 139.33c-1.83 0-3.59-.67-4.88-1.88-1.08-1.01-1.7-2.31-1.7-3.56-.04-3.44 1.03-5.56 3.46-6.88 2.27-1.23 4.61-1.09 6.78.42.49.34.8.36 1.39.07 3.33-1.63 6.67-3.24 10.02-4.85l3.32-1.6c.32-.16.64-.32.97-.44 1.18-.43 2.15-.05 2.58 1 .44 1.07.05 2.06-1 2.58-1.9.94-3.81 1.87-5.72 2.79l-2.72 1.33c-1.82.89-3.64 1.78-5.48 2.64-.55.26-.68.5-.6 1.12.22 1.76-.32 3.56-1.47 4.93-1.14 1.36-2.78 2.2-4.51 2.3-.15.02-.3.03-.44.03zm-.04-12.15c-.86 0-1.73.24-2.6.71-2.09 1.13-2.97 2.92-2.93 5.99 0 .97.51 2.01 1.39 2.83 1.19 1.12 2.84 1.69 4.56 1.6 1.46-.08 2.84-.79 3.8-1.95.97-1.17 1.43-2.69 1.25-4.17-.13-1.04.23-1.7 1.17-2.14 1.83-.86 3.65-1.75 5.46-2.64l2.72-1.33c1.91-.93 3.81-1.85 5.71-2.79.59-.29.76-.72.52-1.31-.15-.37-.44-.75-1.31-.44-.29.11-.58.25-.86.39l-3.34 1.61c-3.34 1.61-6.68 3.21-10.01 4.84-.91.45-1.6.4-2.4-.15-1.02-.69-2.07-1.05-3.13-1.05zm-.04 9.12c-1.96 0-3.58-1.54-3.61-3.44-.02-.95.34-1.86 1.02-2.55.68-.7 1.6-1.08 2.58-1.08h.01c1.97 0 3.55 1.52 3.6 3.47.02.95-.33 1.85-.99 2.53-.69.69-1.61 1.07-2.61 1.07zm0-6.07c-.01 0-.01 0 0 0-.71 0-1.37.28-1.87.79-.49.5-.75 1.15-.74 1.83.02 1.36 1.19 2.46 2.61 2.46h.01c.72 0 1.39-.28 1.88-.78.47-.49.72-1.13.71-1.8-.04-1.41-1.18-2.5-2.6-2.5z"/><path d="m155.49 157.53c-1.42 0-2.83 0-4.25-.01-1.92-.01-2.6-.69-2.62-2.62-.02-1.48-.03-2.82.01-4.19.04-1.69.79-2.44 2.43-2.45 6.71-.01 13.42-.01 20.13 0 1.68 0 2.34.66 2.36 2.33.02 1.68.02 3.21 0 4.68-.03 1.6-.67 2.23-2.3 2.24-2.34.01-4.68.01-7.03.01h-3.04v-.5.5h-2.49c-1.06.01-2.13.01-3.2.01zm5.45-8.27c-3.3 0-6.59 0-9.89.01-1.1 0-1.4.32-1.43 1.47-.04 1.35-.02 2.68-.01 4.15.01 1.38.26 1.62 1.63 1.63 2.49.01 4.97.01 7.46 0h2.49 3.04c2.34 0 4.68 0 7.02-.01 1.09-.01 1.29-.19 1.31-1.26.02-1.46.03-2.98 0-4.65-.02-1.11-.25-1.34-1.37-1.34-3.42 0-6.83 0-10.25 0zm-7.65 5.41c-.42 0-.92-.06-1.27-.41-.37-.37-.41-.91-.41-1.27.01-1.18.56-1.73 1.71-1.73h.02c5.53.02 10.67.02 15.7 0 .56-.01.97.13 1.25.41.38.37.43.92.43 1.36 0 .37-.04.89-.41 1.25s-.9.38-1.25.39c-1.91-.03-3.82-.02-5.73-.02h-2.24-2.17c-1.85 0-3.7-.01-5.55.02-.02 0-.05 0-.08 0zm.02-2.41c-.59 0-.69.11-.7.74 0 .28.04.48.11.55.06.06.21.13.63.12 1.85-.03 3.71-.02 5.56-.02h2.17 2.23c1.92 0 3.83-.01 5.74.02.36 0 .49-.06.53-.1s.11-.16.11-.54c0-.35-.04-.57-.13-.65-.08-.08-.26-.12-.53-.12h-.01c-5.03.03-10.17.03-15.7 0 .01 0 0 0-.01 0z"/><path d="m146.79 141c-.38 0-.79-.11-1.19-.42-.54-.44-.8-1.06-.71-1.72.1-.75.65-1.4 1.46-1.74 3.12-1.32 5.5-2.28 7.75-3.13.92-.35 1.35-.69 1.44-1.8.28-3.38 3.45-5.81 7.22-5.53 3.29.24 5.87 3.13 5.87 6.58 0 2.75-1.56 5.1-4.08 6.13-2.54 1.04-5.56.4-7.33-1.58-.45-.5-.68-.55-1.3-.29-1.94.82-3.9 1.61-5.85 2.39l-1.99.8c-.34.13-.79.31-1.29.31zm15.38-13.37c-2.99 0-5.42 1.96-5.64 4.64-.13 1.6-.89 2.2-2.08 2.65-2.23.84-4.61 1.8-7.71 3.11-.48.2-.8.56-.86.96-.04.31.08.59.35.8.39.31.79.24 1.47-.04l2-.8c1.95-.78 3.9-1.56 5.83-2.38 1.02-.43 1.7-.28 2.44.54 1.49 1.67 4.04 2.21 6.2 1.32 2.13-.88 3.46-2.87 3.46-5.21 0-2.92-2.17-5.38-4.95-5.58-.17 0-.34-.01-.51-.01zm-.17 9.23c-.95 0-1.85-.37-2.55-1.04-.71-.69-1.11-1.61-1.12-2.58-.01-.95.4-1.9 1.12-2.61.7-.7 1.64-1.1 2.57-1.1h.03c1.98.02 3.54 1.63 3.56 3.66.01 2.07-1.46 3.62-3.51 3.67-.04 0-.07 0-.1 0zm.02-6.33c-.67 0-1.35.29-1.87.81-.53.52-.83 1.21-.82 1.9 0 .7.29 1.36.81 1.87.53.51 1.2.8 1.93.76 1.5-.04 2.55-1.14 2.54-2.66-.01-1.49-1.14-2.66-2.57-2.67-.01-.01-.02-.01-.02-.01z"/><path d="m210.95 141.06c-.63 0-2.16-.08-2.36-1.82-.06-.5.08-.95.4-1.31.42-.48 1.16-.74 2.06-.74 2.33 0 4.66-.01 6.99 0 2.66 0 5.32 0 7.99-.01h.01c1.49 0 2.3.64 2.38 1.91.03.5-.11.94-.43 1.27-.41.45-1.09.68-1.96.69-1.77.01-3.55.01-5.32.01h-4.5c-1.72 0-3.44 0-5.15.01-.04-.01-.08-.01-.11-.01zm5.08-2.87c-1.66 0-3.33 0-4.99 0-.6 0-1.08.15-1.31.41-.13.14-.17.31-.15.53.07.61.36.95 1.46.93 1.72-.01 3.44-.01 5.16-.01h4.5c1.77 0 3.54 0 5.31-.01.58 0 1.01-.13 1.23-.37.12-.13.18-.3.16-.52-.04-.62-.28-.97-1.38-.97h-.01c-2.66.01-5.33.01-7.99.01-.66 0-1.32 0-1.99 0z"/><path d="m72.08 240.41c-35.55 0-70.69-9.46-71.21-9.61l.26-.96c.79.22 79.58 21.43 120.21.04 36.16-19.03 69.97-17.33 99.8-15.82 4.29.22 8.35.42 12.34.56 6.87.24 13.23.22 19.38.2 21.51-.08 40.12-.14 62.31 11.81 31.84 17.15 95.08 4.3 113.71-.05l.23.97c-23.98 5.6-83.13 16.79-114.41-.05-21.97-11.83-39.57-11.77-61.83-11.69-6.16.02-12.53.04-19.42-.2-4-.14-8.06-.34-12.35-.56-29.7-1.5-63.36-3.2-99.28 15.71-13.75 7.24-31.8 9.65-49.74 9.65z"/><path d="m3.4 81.94-.45-.89c118.24-59.12 207.92-55.49 208.82-55.45 74.12 0 129.31 15.08 162.55 27.73 36.04 13.72 54.79 27.63 54.98 27.77l-.6.8c-.18-.14-18.86-13.98-54.78-27.65-33.16-12.62-88.21-27.65-162.18-27.65-.92-.05-90.36-3.65-208.34 55.34z"/><path d="m184.18 64.52c-46.58 0-65.67-7.99-73.34-15.41-4.29-4.14-4.25-7.52-4.25-7.67l1 .02c0 .03 0 3.16 4.03 7.01 7.45 7.12 30.8 18.41 103.36 14.05 32.17-1.93 52.39-2.15 65.76-2.3 25.54-.28 25.54-.28 35.81-11.58 2.39-2.63 5.37-5.91 9.34-9.92l.71.7c-3.95 4-6.92 7.27-9.31 9.89-10.56 11.62-10.56 11.62-36.54 11.9-13.37.15-33.56.37-65.71 2.3-11.44.7-21.69 1.01-30.86 1.01z"/><path d="m145.48 71.13c-17.48 0-24.27-12.09-24.34-12.21l.88-.48c.06.12 6.6 11.69 23.46 11.69h134.7c.12-.01 15.9-1.2 25.02-11.78l.76.65c-9.4 10.89-25.58 12.11-25.74 12.12z"/><path d="m96.87 209.81c-2.51 0-5.06-.05-7.63-.17-20.96-.95-48.64-6.38-61.5-26.85-1.32-2.58-31.47-62.51-10.75-78.87 1.19-.94 2.37-1.88 3.54-2.81 19.18-15.27 37.3-29.7 99.84-45.08l.24.97c-62.33 15.33-80.36 29.68-99.46 44.89-1.18.94-2.35 1.88-3.55 2.82-20.08 15.85 10.69 76.98 11 77.59 12.61 20.06 39.96 25.4 60.68 26.34 24.23 1.09 46.65-3.4 52.74-5.94 12.98-5.41 72.61-5.47 75.15-5.47 2.51-.13 62.16-3.2 75.15 2.21 13.32 5.55 79.12 3.14 97.32-7.57 18.66-10.98 35.28-65.55 26.94-88.47-8.5-23.39-101.97-50.28-102.91-50.55l.27-.96c3.87 1.1 94.9 27.3 103.58 51.17 4.01 11.04 2.72 30.1-3.39 49.75-6.05 19.49-15.24 34.79-23.99 39.93-18.37 10.8-84.77 13.24-98.21 7.63-12.78-5.33-74.12-2.17-74.74-2.14-.64 0-61.99.06-74.79 5.39-5.5 2.3-24.19 6.19-45.53 6.19z"/><path d="m116.26 192.24c-18.02 0-37.71-2.08-43.92-8.28-10.8-10.8-28.67-47.46-29.43-49.02-.09-.17-9.82-18.91 1.2-28.83 13.73-12.36 42.75-34.24 82.8-41.94l.19.98c-39.82 7.66-68.67 29.41-82.32 41.7-10.45 9.4-1.08 27.46-.98 27.64.19.39 18.56 38.08 29.24 48.76 10.46 10.46 63.21 8.68 74.46 5.31 10.8-3.24 43.29-4.32 44.67-4.37 3.29-.09 80.65-2.12 96.83 2.19 14.83 3.96 38.88 2.71 62.75-3.26 21.54-5.39 33.3-52.74 33.3-75.56 0-23.24-81.91-45.09-82.74-45.31l.25-.97c3.41.9 83.48 22.27 83.48 46.28 0 23.74-11.7 70.94-34.05 76.53-24.03 6-48.26 7.25-63.25 3.26-16.04-4.28-95.74-2.18-96.54-2.16-.33.01-33.73 1.12-44.41 4.32-5.05 1.53-17.81 2.73-31.53 2.73z"/><path d="m64 170.62h305.27v1h-305.27z" transform="matrix(1 -.00976516 .00976516 1 -1.6606 2.1236)"/></svg>