<svg enable-background="new 0 0 430 266" viewBox="0 0 430 266" xmlns="http://www.w3.org/2000/svg"><path d="m244.91 243.98c-.72 1.08-1.86.84-2.88.84-15.51.01-31.01.02-46.52 0-3.84-.01-4.93-1.08-5.26-4.79-.68-7.71-1.43-15.42-2.04-23.14-.12-1.5-.81-2.01-2.08-2.22-4.29-.73-8.61-1.36-12.87-2.26-2.16-.46-2.37.37-2.12 2.11 1.17 8.19 2.03 16.42 3.91 24.49.1.41.43.8-.13 1.34-1.44-2.89-1.68-6.01-2.16-9.02-.9-5.62-1.55-11.28-2.3-16.92-.06-.44-.18-.87-.23-1.31-.2-1.74-1.61-1.88-2.79-1.79-1.27.09-1.27 1.33-1.12 2.3 1.07 6.94 1.77 13.94 3.39 20.79.47 1.97.9 3.94 1.35 5.91-.22.06-.43.12-.65.18-.35-1.52-.67-3.04-1.04-4.55-.44-1.76-4.27-3.7-5.84-2.98-.5.23-.5.69-.5 1.13 0 .53-.02 1.12.69 1.24.64.11 1.19.28 1.58.87.58.89.57 9.34 0 10.3-.37.63-.93.8-1.57.81-2.23.01-4.45 0-6.68 0-1.26 0-1.76-.77-1.79-1.87-.06-2.67-.09-5.34-.06-8.02.01-1.23.63-2.01 1.98-2.01 1.07 0 2.13.18 2.11-1.55-.03-1.92-1.34-1.54-2.41-1.57-7.45-.24-14.74.79-21.88 2.86-5.96 1.72-12.02 2.26-18.21 2.14-6.05-.11-12.1.3-18.16.3-16.4-.01-32.77-.69-49.11-2.07-3.83-.32-4.68-1.13-5.7-4.84-2.32-8.46-2.93-17.18-3.58-25.86-.17-2.22-1.08-2.82-3.03-3.07-3.53-.45-7.05-1.05-10.62-1.02-4.62.04-9.18.03-13.61-1.79-3.62-1.48-7.17-.02-10.65 1.09-.41.13-.87.08-1.31.11 0-9.81 0-19.61 0-29.42 5.4-2.07 11.02-3.43 16.56-5.03 1.89-.55 2.51-1.47 2.6-3.35.45-8.98.98-17.97 1.59-26.94.16-2.3-.32-4.36-1.18-6.46-1.4-3.44-3.67-6.48-4.62-10.12 1.06.23 1.18 1.27 1.55 1.99 1.49 2.93 2.96 5.87 4.26 8.89.57 1.32 1.04 1.31 2.09.59 3.19-2.15 4.38-7.52 2.22-10.62-6.97-10.01-14.62-19.49-22.7-28.62-.4-.45-.65-1.36-1.48-1.06-.8 4.12-.28 7.9 2.34 11.22-1.55-.6-2.1-2.21-3.22-3.23 0-20.5 0-41.01 0-61.51 14.79-1.24 29.61-2.47 44.44-3.67 12.07-.97 24.15-1.89 36.22-2.86 14.29-1.15 28.57-2.44 42.87-3.48 6.73-.49 13.45-1.75 20.24-.52 4.5.82 8.19 2.86 10.79 6.71.6.88 1.31 1.69 1.96 2.54 4 5.26 4 5.26 10.77 4.73.25-1.05-.64-1.6-1.11-2.28-2.67-3.89-5.54-7.65-8.06-11.64-2.34-3.72-.54-6.93 3.84-7.26.8-.06 1.6-.03 2.41-.03h105.36c.53 0 1.07-.01 1.6.01 4.98.21 6.82 3.62 4.08 7.81-2.19 3.35-4.61 6.56-6.92 9.84-.75 1.07-1.48 2.15-2.55 3.7 2.53 0 4.54-.04 6.54.02.99.03 1.39-.66 1.86-1.29 1.17-1.58 2.46-3.08 3.46-4.75 4.38-7.36 11.3-9.13 19.1-8.5 23.88 1.91 47.75 3.96 71.62 5.97 19.08 1.6 38.15 3.24 57.24 4.78 1.75.14 2.21.72 2.21 2.4-.05 19.16-.04 38.33-.04 57.49 0 .7.18 1.48-.36 2.06-2.17 2.31-3.57 5.26-6.13 7.23.39-2.13 1.92-3.66 3.33-4.97 3.35-3.12 2.42-6.8 2.29-10.9-.79.72-1.28 1.1-1.68 1.55-8.08 9.26-15.86 18.75-22.84 28.87-1.71 2.48-.67 7.61 1.78 9.71 1.43 1.22 2.25 1.44 3.13-.69 3.16-7.67 7.34-14.81 12.09-21.6.52-.75.78-1.84 1.93-2.01-.83 2.58-2.74 4.5-4.13 6.73-3.58 5.75-6.78 11.69-9.49 17.9-.58 1.34-.85 2.67-.76 4.13.58 9.42 1.17 18.83 1.64 28.26.1 1.94.9 2.76 2.73 3.25 4.81 1.28 9.54 2.81 14.34 4.13 1.49.41 2.19.99 2.17 2.72-.1 8.55-.07 17.1-.02 25.65.01 1.67-.27 2.31-2.09 1.56-4.69-1.92-9.37-1.79-13.95.46-1.1.54-2.25.45-3.4.43-5.89-.14-11.74.18-17.56 1.16-1.79.3-2.9.88-3.31 3.03-1.28 6.64-3.41 13.06-5.78 19.39-.36.97-.49 2.11-1.49 2.75-.1-.1-.2-.2-.31-.3 3.25-8.42 6.24-16.91 7.45-26.07-2.49.33-4.55 1.23-6.87.84.22-.29.31-.51.43-.54.61-.12 1.22-.21 1.84-.27 4.83-.48 5.28-.94 5.32-5.68.02-1.77 0-3.54 0-5.37-1.71.23-3.22.69-4.67.58-2.93-.22-3.38 1.13-3.41 3.74-.1 8.56-1.04 17.05-3.61 25.27-.85 2.73-1.39 5.7-3.82 7.68.02-.26-.04-.57.08-.77 3.59-6.14 4.56-13.03 5.76-19.85.4-2.26-.19-3.14-2.73-2.98-12.08.77-24.18 1.4-36.27 1.97-2 .09-2.81.75-2.87 2.78-.06 2.21-.8 3.99-3.58 4-4.9.02-9.8.16-14.69.27-2.37.06-3.86-.78-3.5-3.43.23-1.69-.64-1.92-2.03-1.85-7.03.33-14.06.55-21.08.93-6.26.35-12.51.87-18.76 1.32 1.73-.71 3.53-.99 5.33-1.15 10.91-1.01 21.86-1.4 32.8-1.87 4.02-.17 4.02-.29 4.38-4.36.29-3.2 1.22-4.1 4.32-4.11 4.54-.01 9.09-.01 13.63.02 3.32.02 4.16.87 3.61 4.23-.37 2.25.5 2.53 2.39 2.42 8.62-.48 17.25-.85 25.88-1.3 3.91-.2 7.82-.49 11.73-.75 1.02-.07 1.96-.18 1.99-1.58.06-2.85.17-5.7.28-8.55.05-1.33-.53-1.96-1.9-1.91-1.96.06-3.92.05-5.88.06-32.07.16-64.14.35-96.21.42-2.66.01-3.25.86-3.19 3.36.13 6.31.19 12.64-.8 18.92-1.5 9.48-3.31 18.9-5.65 28.21l.06-.06c-.82-.6-.6-1.34-.38-2.15 2.15-7.99 3.56-16.13 4.91-24.27.16-.98 1.07-2.7-.33-2.92-1.72-.27-3.3.57-3.59 2.92-1.04 8.38-2.75 16.64-4.34 24.93-.12.61-.16 1.23-1.14 2.09.87-4.62 1.66-8.72 2.4-12.82.8-4.46 1.54-8.93 2.33-13.39.37-2.05.05-2.82-2.4-2.23-3.61.87-7.34 1.43-11.05 1.68-2.95.2-3.81 1.59-4.04 4.26-.62 7.17-1.43 14.32-2.16 21.48-.15 1.46-.46 2.83-2.22 3.18.14-1.01 1.56-1.5 1.09-2.74.12-.1.31-.18.34-.3.06-.24-.08-.33-.21-.15-.09.12-.07.32-.09.48-.74-.61-.58-1.45-.5-2.23.59-5.75 1.16-11.5 1.83-17.24.37-3.14.21-3.48-2.89-3.48-17.1-.02-34.2.02-51.29-.05-2.08-.01-2.58.67-2.46 2.62.37 6.04.65 12.09.83 18.14.15 4.9.07 4.93 5.06 4.93 16.13 0 32.24-.01 48.36-.02zm-190.02-86.47.05-.14-.07.09c.41.49 1.06 1.12-.34.69-.44-.14-.93-.78-1.04.26-.07.71.16 1.21.96 1.23.8.03 1.68.13 1.61-1.09-.03-.71.24-1.85-1.17-1.04zm9.21-1.28.09.07-.11-.06c-5.05-1.07-10.12-.53-15.16-.04-1.37.13-1.28 1.7-1.31 2.87-.01.64.26 1.07.91.99.71-.09.35-.63.29-1.02-.29-2.14.8-2.85 2.77-2.83 4.19.04 8.36.02 12.52.02zm272.77 44.43c1.26-2.33-.62-2.1-1.85-2.12-4.86-.07-9.73-.01-14.59-.04-1.06-.01-2.05.21-2.47 1.18-.36.83.64 0 .77.42-.17.59-.41 1.16-.51 1.76-.6 3.53-.18 4.02 3.46 3.94 4-.08 8-.27 12-.24 2.06.02 2.94-.82 2.99-2.79.02-.69.13-1.4.2-2.11zm-193.58 31.53c7.87-.64 15.74-1.29 23.56.51 1.1.25 1.67 0 1.45-1.32-.89-5.42-1.8-10.84-2.53-16.28-.25-1.9-1.06-.55-1.67-.52-.05-1.11.85-1.71 1.36-2.51 12.45-19.81 12.92-39.94 1.56-60.34-1.62-2.92-3.73-5.57-5.61-8.34 1.26.28 1.76 1.76 3.4 1.72 6.35-.15 12.7-.06 17.77-.06-6.77-1.99-15.01-3.83-23.5-5.23.54 1.54 2.26 2.05 2.38 3.63-2.09-1.5-3.92-3.25-5.37-5.39 1.09.33 2.16.78 3.28.97 6.57 1.1 13.07 2.46 19.5 4.22 5.01 1.38 9.96 3.39 15.36 1.92 2.19-.6 4.44-1 6.66-1.49-11.82 5.16-24.24 1.61-36.83 2.49 1.86 1.39 1.7 4.16 4.39 4.16-.96 2.32 1 3.53 1.91 5.19.08-2.01.41-3.87 1.74-5.43-1.38-.68-2.46.62-3.69.29.46-.94 1.4-.91 2.24-1.15 2.44-.69 4.94-.43 7.42-.52 13.06-.5 26.13-1.5 39.18-1.36 15.99.17 31.97 1.27 47.95 2.05 1.68.08 3.59-.1 4.85 1.52-.82.26-1.45-.35-2.19-.47-1.41-.23-.14.78-.49 1.02-6.58-.78-13.21-1.12-19.8-1.84-10.51-1.15-21.16-1.28-31.76-1.31-9.13-.03-18.28-.06-27.37 1.42-4.37.71-8.88.54-13.33.78-1.15.06-2.38.05-3.16 1.11-1.3 1.76-.91 6.73.81 8.75 0-1.28-.04-2.34.01-3.41.14-3.62.82-4.25 4.47-4.49 2.67-.17 5.34-.33 7.98-.7 2.28-.32 3.13.59 3.08 2.77-.12 5.08.02 10.17-.37 15.23-.2 2.63 1.16 5.78-1.81 7.83-.06.04.17.47.22.73.39 1.94-.6 2.61-2.37 2.54-2.14-.09-4.27-.2-6.41-.3-.84-.04-1.61-.05-1.65 1.16-.04 1.17.66 1.26 1.53 1.31 2.4.13 4.8.38 7.2.41 1.62.02 2.27.66 2.19 2.24-.04.8-.02 1.61.04 2.4.13 1.77-.47 2.68-2.43 2.46-1.59-.18-3.21-.09-4.81-.2-4.67-.33-4.67-.35-5.43 4.16-.04.21.05.44.09.71 6.18-3.96 11.82-.28 12.63 4.9.56 3.59-1.89 7.3-5.57 8.36-3.39.97-6.78-.52-8.17-3.58.8.1 1.08.85 1.59 1.3 2.63 2.27 6.16 2.41 8.78.33 2.58-2.05 3.37-5.78 1.82-8.64-1.62-2.98-5.03-4.35-8.15-3.26-3.36 1.17-5.14 4.19-4.53 7.75.15.86.35 1.71.53 2.57-1.16-.23-.72-1.7-1.72-2.22-.19.34-.36.63-.5.93-.19.4-.4.8-.54 1.22-1.2 3.6.36 6.33 4 7 3.76.69 7.53 1.35 11.29 2.06 1.64.31 2.38-.08 2.45-1.98.65-18.61 1.4-37.21 2.08-55.82.15-4.17 1.28-5.4 5.44-5.4 15.86-.01 31.73-.01 47.59-.01 3.95 0 5.21 1.25 5.3 5.29.17 7.39.32 14.79.46 22.18.23 11.4.49 22.81.62 34.21.02 1.89.45 2.53 2.39 2.17 2.62-.48 5.31-.61 7.92-1.14 8.88-1.81 7.28.51 7.77-8.69.88-16.73.27-33.5.09-50.25-.01-1.04-.34-2.08-.52-3.11 1.27.36 1.16 1.43 1.19 2.38.46 15.67.74 31.34.18 47.02-.13 3.58-.02 7.17-.02 10.71 3.36-.77 3.37-.77 3.56-4.36.12-2.22.3-4.44.35-6.67.36-14.25-.39-28.5-.43-42.75-.01-2.58-.46-4.9-2.17-6.88 2.42.78 2.72 2.77 2.76 4.88.19 10.42.47 20.84.49 31.26 0 2.55.81 3.07 3.17 3.05 15.77-.13 31.54-.1 47.31-.18 12.92-.07 25.84-.25 38.76-.29 2.04-.01 2.92-.56 2.8-2.71-.13-2.22.04-4.45.04-6.68-.02-8.12-1.07-16.16-1.89-24.21-.15-1.52-.05-2.85 1.8-2.86 7.52-.06 15.04-.03 23.29-.03-1.42.98-2.31.79-3.13.79-6.24.02-12.47.06-18.71-.02-1.97-.03-2.79.6-2.48 2.63.36 2.37.63 4.76.83 7.16.66 7.89 1.71 15.77.93 23.71-.16 1.67.26 2.21 1.93 2.18 4.99-.1 9.98-.14 14.97-.08 5.73.07 8.2-.88 8.01-7.05-.01-.26.05-.53.1-.79 1.58-9.56.78-18.93-2.12-28.17-.58-1.84-1.36-2.63-3.33-2.54-3.05.15-5.92-.83-8.07-2.94-2.71-2.66-5.88-3.29-9.47-3.44-11.92-.48-23.84-1.14-35.76-1.72-24.82-1.21-49.63-2.55-74.46-3.57-21.09-.87-42.2-1.38-63.3-2.04-1.06-.03-2.11 0-3.17 0 0 .13-.01.26-.01.39 4.16 1.31 8.33 2.61 12.69 3.98-.84.87-1.34.37-1.77.23-10.4-3.42-20.98-6.16-31.73-8.22-8.29-1.59-16.57-3.28-25.06-3.51-.08-.12-.03-.47-.34-.19.13.05.25.1.38.15 1.7 1.79 4.5 2.08 5.87 4.33-1.02.13-1.6-.69-2.34-1.12-19.61-11.52-39.24-11.54-58.91-.19-.6.35-1.1.95-1.91.78.31-.47.62-.95 1.02-1.56-.48.07-.83.1-1.17.17-13.29 3.01-25.78 7.93-36.94 15.86-2.84 2.02-5.78 2.87-9.2 2.72-2.81-.12-3.41.73-3.19 3.74 2.5-.97 5.15-.98 7.77-1.21 4.5-.41 9.03-.53 13.04-3.16 1.19-.79 2.51-1.73 4.13-1.64-3.15 2.1-6.31 4.3-10.13 4.86-3.78.56-7.61.82-11.42 1.07-2.37.16-3.61 1.19-3.64 3.62-.05 3.19-.22 6.39-.24 9.58-.05 6.93-.21 13.87.82 20.77.36 2.43 1.7 3.96 3.99 4.42 3.52.69 7.1.72 10.62-.02 1.63-.34 3.08-1.34 4.83-1.38 5.43-.14 5.31-.15 4.74-5.41-.2-1.81-.86-2.17-2.46-2.13-4.09.09-8.19-.04-12.28.07-2.33.06-3.25-.88-3.08-3.18.57-7.72 1.08-15.44 1.62-23.16.12-1.71 1.09-2.59 2.75-2.66 4.27-.18 8.54-.32 12.81-.46 1.93-.07 2.73.97 2.7 2.81-.04 2.05-.05 4.09-.07 6.14l-.02.08.02-.13c.81-.55.74-1.51 1.08-2.28 1.44-3.23 2.35-6.73 4.87-9.4.11 1.27-.81 2.12-1.31 3.13-11.07 21.97-6.89 47.97 10.49 65.37 1.23 1.23 2.85 2.1 3.65 3.76-2.5-.6-3.45-3.3-5.92-4.45 0 3.67.02 7.09-.01 10.52-.01 1.11.24 2.34-1.04 3.02.57-4.07.29-8.16.34-12.23.06-4.71-4.22-6.91-6.17-10.47-.11-.19-.66-.2-1.01-.2-2.31-.01-4.63-.05-6.94.01-1.74.05-2.92.92-2.93 2.77-.04 6.05-.03 12.09.01 18.14.01 1.25.55 2.46 1.94 2.46 4.94 0 9.91.79 14.8-.54-.43 1.4-1.65 1.54-2.78 1.56-3.65.06-7.3.07-10.96.02-2.43-.04-3.87-1.35-3.9-3.81-.07-5.88-.08-11.76 0-17.64.03-2.29 1.35-3.61 3.72-3.66 1.69-.04 3.39.06 5.08-.05.75-.05 2.07.68 2.15-.66.07-1.16-1.04-1.41-2.14-1.41-8.37.03-16.75.03-25.12 0-1.33 0-1.98.36-1.8 1.84.83 6.97 1.35 13.99 3.23 20.8 1 3.63 1.85 4.33 5.52 4.62 15.1 1.2 30.23 1.65 45.37 2.01 4.09.1 8.21.3 12.83-.53-2.18-.59-3.84-.91-5.41-1.49-3.19-1.19-6.65-1.83-9.28-4.26.88-.22 1.53.39 2.22.71 13.61 6.23 27.5 6.88 41.72 2.31 3.72-1.2 6.96-3.42 10.66-4.62-1.11 1.8-3.41 1.85-4.78 3.27-.11.09-.21.17-.32.26.06-.12.15-.22.24-.32zm46.58-38c-.16.78-.43 1.55-.46 2.33-.23 5.79-.63 11.58-.55 17.36.07 5.01.7 10.02 1.08 15.03.61-2.79.04-5.53-.14-8.27-.14-2.14.64-3.05 2.89-3.05 17.46.06 34.93.04 52.39.02 1.9 0 3.27.49 3.24 2.68 1.47-6.75.33-13.52.25-20.28-.18-14.7-.54-29.39-.88-44.08-.09-3.8-.88-4.49-4.64-4.49-15.77-.01-31.54-.01-47.31 0-3.54 0-4.41.76-4.62 4.36-.25 4.18-.38 8.36-.5 12.55-.24 8.63-.94 17.25-.81 25.9zm237.44-142.8c-4.33 5.12-9.33 8.72-16.55 8.3-4.17-.24-8.52-1.33-12.69 1.3 4.61.7 8.99 1.79 13.38 1.87 2.13.04 2.79.81 3.67 2.19 2.73 4.27 5.59 8.47 9.3 11.97 1.04.98 2.04 2.19 3.83 2.26 0-8.78 0-17.4 0-26.03 0-.78.15-1.64-.97-1.82.75-1.13 1.01-2.34.97-3.71-.08-2.58-.15-5.17.02-7.75.15-2.21-.66-2.83-2.84-2.97-9.41-.64-18.81-1.48-28.21-2.27-14.01-1.18-28.02-2.38-42.03-3.56-13.92-1.18-27.84-2.4-41.77-3.49-6.3-.49-12.57-1.47-18.9-1.3-6 .16-11.05 2.13-14.5 7.49-2.79 4.34-5.99 8.41-8.98 12.62-.81 1.14-2.05 2.31-1.3 3.83.77 1.55 2.46 1.53 3.98 1.63 11.1.75 22.2 1.49 33.3 2.25 15.01 1.02 30.01 2.04 45.02 3.09 11.63.81 23.26 1.72 34.89 2.44 3.96.25 8.07 1.4 11.89-.22 2.61-1.11 5.13-1.14 7.79-.93 1.42.11 2.84.19 4.27.29 4.39.3 8.19-1.05 11.59-3.86 1.54-1.3 2.78-3.03 4.84-3.62zm-423.65.54c1.75.37 2.8 1.79 4.07 2.84 3.6 2.98 7.66 4.42 12.34 4.07 1.33-.1 2.67-.16 4-.26 2.92-.22 5.77-.44 8.58.97 1.64.82 3.62.73 5.51.58 3.82-.31 7.64-.51 11.46-.76 11.9-.77 23.81-1.53 35.71-2.32 15.28-1.01 30.55-2.03 45.83-3.05 10.57-.71 21.14-1.37 31.71-2.15 3.62-.27 4.38-1.98 2.25-4.9-3.51-4.82-7.17-9.53-10.67-14.36-2.28-3.15-5.39-4.83-9.07-5.63-3.51-.76-7.07-.77-10.64-.47-12.06 1.01-24.12 2.04-36.19 3.01-14.37 1.16-28.75 2.24-43.12 3.4-16.95 1.37-33.89 2.82-50.84 4.1-2.31.17-3.19.86-2.94 3.18.18 1.67.15 3.39.01 5.07-.22 2.54.05 4.86 2.03 6.7-1.62-.7-2.09-.23-2.07 1.57.1 7.48.04 14.97.04 22.45v3.52c2.69-.97 4.2-2.74 5.74-4.43 3.12-3.44 5.67-7.31 8.19-11.2.34-.53.42-1.5 1.38-1.36 5.28.8 10.17-1.4 15.31-1.73-1.22-.76-2.31-1.5-3.76-1.41-2.93.18-5.87.18-8.81.33-6.78.36-11.85-2.79-16.05-7.76zm42.27 64.73c1.12.31 1.24 1.42 1.71 2.21 2.46 4.13 4.85 8.3 7.31 12.43 1.7 2.86 3.94 5.26 6.52 7.36 1.3 1.06 2.48 1.22 4.09.43 5.93-2.89 12.16-5.01 18.58-6.53 5.01-1.19 9.86-2.75 14.67-4.67 13.91-5.57 27.96-5.3 41.9.21 1 .39 1.98.74 3.07.83 9.41.76 18.69 2.36 27.97 4.08 5.76 1.07 11.3 3.26 17.22 3.43 11.93.33 23.87.52 35.8.91 17.36.56 34.73 1.12 52.08 1.9 24.02 1.09 48.04 2.39 72.06 3.59 2.48.12 4.99.38 7.45.22 8.89-.58 14.97-5.49 19.34-12.91 11.48-19.49 21.97-39.52 32.66-59.44 1.16-2.17 2.26-4.38 3.48-6.74-11.29-1.75-22.28-3.33-33.4-3.96-14.14-.8-28.26-1.87-42.38-2.82-14.84-1.01-29.68-1.92-44.51-3.09-7.18-.56-14.36-.93-21.54-1.73-5.58-.62-11.52-1.72-17 1.25-1.1.6-2.41.52-3.67.52-20.94-.01-41.89-.01-62.83 0-1.35 0-2.83.14-3.91-.59-2.91-1.96-6.11-1.53-9.29-1.53-3.92-.01-7.78.53-11.67.89-11.61 1.06-23.27 1.58-34.92 2.33-12 .77-24 1.53-35.99 2.31-15.37 1.01-30.74 2.06-46.12 3.06-8.86.57-17.6 1.91-26.57 3.37.42.87.71 1.5 1.04 2.11 8.49 15.75 16.98 31.5 25.46 47.26.57 1.06 1.56 1.98 1.4 3.36-1.14-.41-1.34-1.57-1.82-2.46-8.69-16.03-17.35-32.09-26.01-48.14-1.33-2.47-1.28-2.45-2.89-.1-3.64 5.35-7.03 10.97-12.86 14.39-.41.24-.67.6-.66 1.08.06 3.12-.41 6.09 2.16 8.92 10.02 11.01 19.28 22.65 27.25 35.26 4.57 7.23 8.77 14.67 10.19 23.3.1.61.36 1.1.98 1.01 1.91-.3 4.02.41 5.73-.77 4.57-3.16 9.22-6.2 14.44-8.75-3.1-2.09-5.52-4.46-7.31-7.35-2.95-4.76-5.75-9.62-8.58-14.46-.35-.61-.92-1.17-.63-1.98zm171.96-97.17c-17.19 0-34.38 0-51.57.01-1.07 0-2.15 0-3.19.16-4.25.65-5.36 2.92-2.9 6.5 4.74 6.89 9.54 13.76 14.57 20.43 3.3 4.37 7.63 6.7 13.52 6.62 19.41-.25 38.84-.32 58.25.03 7.08.13 11.89-2.79 15.74-8.18 4.04-5.65 8.07-11.3 12.03-17 1.32-1.91 3.52-3.8 2.12-6.41-1.42-2.64-4.3-2.12-6.73-2.13-17.28-.05-34.56-.03-51.84-.03zm144.73 123.7c2.56.21 5.11.53 7.67.61 2.43.07 4.64.7 6.36 2.37 2.95 2.86 6.38 3.94 10.45 3.77 1.24-.05 1.46-.26 1.62-1.32.69-4.72 2.39-9.12 4.58-13.31 8.69-16.64 20.44-31.08 32.85-44.99 2.58-2.89 1.94-5.85 2.06-8.94.02-.63-.49-.88-.96-1.15-3.66-2.09-6.21-5.3-8.65-8.6-1.48-2-2.9-4.06-4.24-6.16-.96-1.51-1.63-1.4-2.3.16-.21.49-.49.95-.74 1.42-11.34 21.2-22.46 42.51-34.67 63.23-3.37 5.64-7.67 10.24-14.03 12.91zm27.27 58.12c7.01-1.26 14.18-1.8 21.4-1.65.68.01 1.4-.28 2.04-.55 4.17-1.79 8.41-2.25 12.7-.51 1.87.76 2.27.1 2.25-1.7-.07-6.86-.07-13.72.01-20.58.02-1.53-.49-2.14-1.96-2.57-5.12-1.49-10.22-3.05-15.25-4.82-2.2-.77-4.26-.92-6.52-.57-3.9.61-7.67 2.52-12.03 1.07.92 10.89-3.04 21.04-2.64 31.88zm-388.23-14.7c0 3.47.05 6.95-.02 10.42-.04 1.67.33 2.21 2.13 1.64 2.69-.84 5.45-1.92 8.33-.86 4.57 1.69 9.3 1.97 14.12 2.01 3.9.03 7.83.33 11.66 1.21 1.85.42 1.99-.44 1.91-2.02-.19-3.99-1.04-7.84-1.89-11.72-1.13-5.17-.47-10.47-.63-15.71-.02-.72.51-2.15-1.08-1.76-2.95.73-5.61-.47-8.38-.95-2.51-.44-5.04-1.41-7.62-.39-5.47 2.16-11.13 3.7-16.75 5.33-1.38.4-1.84.99-1.81 2.39.09 3.46.04 6.93.03 10.41zm400.24-64.06c-4.76 7.2-8.77 13.79-11.09 21.25-.95 3.04-2.01 6.16-1.05 9.39 1.28 4.27 2.33 8.59 2.6 13.03.13 2.13 1.19 2.82 3.02 2.81 1.15-.01 2.3-.13 3.43-.33 2.71-.49 5.39-1.35 8.1-1.48 2.19-.11 2.29-1 2.18-2.71-.63-10.21-1.18-20.42-1.76-30.64-.05-.89-.03-1.81-.97-2.33-3.2-1.78-4.45-4.66-4.46-8.99zm-373.66.76c-.17 3.77-1.71 6.58-4.92 8.42-.77.44-.71 1.39-.76 2.18-.58 10.14-1.09 20.28-1.78 30.41-.15 2.15.37 2.9 2.56 2.92 3.75.04 7.24 1.8 11.02 1.83 2.06.02 3.08-.68 3-2.98-.13-3.74.01-7.48.1-11.22.04-1.81.23-3.59 2.16-4.55 1.03-.52.84-1.45.64-2.34-2.06-9.1-6.66-16.95-12.02-24.67zm12.4 70.12c-.19 4.08.04 8.14.5 12.2.12 1.07.87 1.23 1.72 1.23 8.2 0 16.4.01 24.6-.02.56 0 1.41.15 1.3-.84-.07-.63-.47-1.17-1.21-1.23-.8-.06-1.6-.05-2.4-.09-.95-.05-2.02-.34-1.98-1.37.11-3.04-1.03-6.2.71-9.09.61-1.01.38-1.58-.73-1.59-2.22-.03-4.68-.53-6.63.23-5.26 2.06-10.43 1.56-15.88.57zm296.44 12.14c-.7.28-1.26.69-1.82.7-5.75.15-11.5.74-17.24-.13-.28-.04-.61-.62-.83-.1-.57 1.33-.75 2.77-.46 4.18.22 1.09 1.21 1.16 2.13 1.16 5.07-.02 10.14-.05 15.22-.06 1.71 0 2.68-.77 2.79-2.52.07-1.04.14-2.09.21-3.23zm-78.59-155.07c.1.27.2.54.31.81 2.3 0 4.59-.06 6.89.02 1.79.07 3.53.41 3.13-2.43-.15-1.06.86-1.9 1.45-2.78 1.11-1.66 2.23-3.3 3.58-5.28-2.36 0-4.21.05-6.06-.02-1-.04-1.66.29-2.22 1.11-2.12 3.04-4.19 6.13-7.08 8.57zm-81.51.55c-2.48-3.09-4.56-6.05-6.62-9.04-.39-.56-.78-1.22-1.65-1.18-2.16.11-4.35-.25-6.53.22 1.46 3.63 5.57 5.7 5 9.99 3.26.01 6.53.01 9.8.01zm-12.25 189.94c0-.8-.06-1.61.01-2.4.17-1.82-.53-2.48-2.43-2.49-6.27-.05-6.27-.12-6.24 6.14 0 .53.04 1.07.01 1.6-.07 1.23.46 1.81 1.72 1.73.8-.05 1.6.01 2.41-.01 5.03-.1 4.47.82 4.52-4.57zm16.62-56.88c-1.68-.08-2.83-.21-3.98-.18-2.69.06-1.48 2.3-1.89 3.59-.41 1.31.23 1.92 1.66 1.89 1.77-.03 3.55.08 5.32.22 3.73.31 3.62.33 3.64-3.31.01-1.81-.69-2.36-2.35-2.23-.97.09-1.95.02-2.4.02zm-125.79-15.6c0-.01 0-.02 0-.03 2.39 0 4.79-.01 7.18.01.85.01 1.31-.27 1.31-1.21 0-.95-.48-1.21-1.32-1.21-4.7 0-9.39-.02-14.09-.04-.9 0-1.53.21-1.58 1.31-.05 1.25.78 1.18 1.58 1.18 2.31 0 4.61-.01 6.92-.01zm-.54 3.09c2.39 0 4.79-.04 7.18.02 1.03.03 1.47-.48 1.58-1.37.14-1.13-.73-1.02-1.42-1.02-4.61-.02-9.22-.01-13.83-.03-.88 0-1.59.11-1.57 1.25.02 1.2.87 1.14 1.67 1.15 2.14.01 4.26 0 6.39 0zm-35.36-4.53c.02-1.35-.72-.94-1.41-.73-3.23.95-6.47 1.88-9.71 2.83-1.87.55-3.74 1.11-5.62 1.64-.91.26-1.41.82-1.19 1.75.3 1.25 1.14.44 1.68.28 4.76-1.42 9.52-2.87 14.25-4.38.77-.25 1.81-.34 2-1.39zm391.27-.97c-.27-.12-.56 0-.66.43-.27 1.09.53 1.41 1.3 1.66 4.65 1.5 9.29 3.04 13.98 4.38.73.21 2.06 1.65 2.6-.1.46-1.48-1.01-1.57-2.01-1.86-3.66-1.08-7.32-2.16-10.98-3.25-1.36-.42-2.72-.82-4.23-1.26zm-355.4-.79c0-.01 0-.02 0-.02 2.4 0 4.79.01 7.19 0 .62 0 1.28.03 1.33-.89.05-.85-.43-1.07-1.15-1.07-4.79-.01-9.58-.01-14.37-.03-.75 0-1.17.31-1.19 1.08-.02.92.64.93 1.27.93zm-.91 13.3c-2.21 0-4.43 0-6.64 0-.84 0-1.61.08-1.71 1.19-.11 1.3.85 1.15 1.6 1.16 4.43.03 8.86.02 13.29.01.79 0 1.69.03 1.72-1.13.04-1.4-1.04-1.2-1.88-1.22-2.12-.05-4.25-.02-6.38-.01zm126.02-18.16v.15c1.78.1 3.55.19 5.33.29.83.05 1.37-.23 1.44-1.15.07-.89-.31-1.32-1.21-1.35-3.73-.14-7.46-.29-11.2-.45-.9-.04-1.27.41-1.29 1.28-.02.94.49 1.23 1.33 1.23 1.86-.01 3.73 0 5.6 0zm.14 7.27c0-.06 0-.12 0-.19-1.6 0-3.2-.03-4.79.02-.53.02-1.49-.33-1.42.61.05.74-.03 1.89 1.29 1.96 3.28.16 6.56.33 9.84.52 1.01.06 1.45-.33 1.45-1.37-.01-.93-.46-1.23-1.31-1.26-1.7-.07-3.38-.19-5.06-.29zm-.72-12.39c0-.03 0-.06 0-.09-1.6-.09-3.2-.18-4.8-.28-.78-.05-1.43-.02-1.46 1.03-.03.98.52 1.2 1.34 1.21 3.56.06 7.13.14 10.69.19.68.01 1.54.12 1.59-.94.05-1.03-.77-1.09-1.47-1.11-1.97-.03-3.93-.01-5.89-.01zm-125.32 22.35c2.05 0 4.1.04 6.15-.02.78-.02 1.97.43 2.05-1 .09-1.68-1.29-1.26-2.1-1.17-2.53.29-4.98 1.06-7.6.88-1.78-.12-3.3-1.35-5.17-1-.84.16-1.62.13-1.55 1.31.06 1.08.86.97 1.54.98 2.23.02 4.46.01 6.68.02zm126.95-6.37c-2.1-.15-3.5-.25-4.91-.35-.74-.05-1.46-.07-1.42 1.01.03.8.25 1.33 1.2 1.37 3 .12 5.99.28 8.99.44.87.05 1.58-.02 1.56-1.2-.02-1.13-.75-1.26-1.59-1.27-1.51-.01-3.01 0-3.83 0zm-126.19 1.03c-2.05 0-4.1-.07-6.14.03-.99.05-2.78-.68-2.64 1.18.13 1.72 1.85.65 2.84.91.24.06.56.02.78-.09 2.96-1.46 5.86-1.41 8.88-.03.89.4 2.1.16 3.16.09.77-.05.96-.74.95-1.39 0-.8-.69-.67-1.17-.68-2.21-.04-4.43-.02-6.66-.02zm-.77 11.15v.01c2.13 0 4.26.01 6.39-.01.68-.01 1.65.15 1.67-.82.03-1.06-.99-.79-1.63-.8-4.43-.03-8.87-.04-13.3-.02-.55 0-1.44-.28-1.52.55-.1.91.72 1.08 1.48 1.08 2.29.02 4.6.01 6.91.01zm1.09-20.9v-.01c2.31 0 4.62.01 6.93-.01.59-.01 1.38.12 1.28-.85-.07-.73-.73-.66-1.24-.66-4.62 0-9.24.01-13.86.03-.58 0-1.38-.12-1.28.86.07.75.74.63 1.23.64 2.32.01 4.63 0 6.94 0zm124.52-.96c0-.05 0-.11 0-.16-1.78-.08-3.55-.14-5.33-.26-1.01-.07-1.48.34-1.56 1.33-.09 1.26.81 1.19 1.6 1.17.6-.01 1.23-.11 1.8-.29 2.6-.85 5.11-1.43 7.56.56.48.39 1.58.28 2.3.07.7-.2.58-1.04.44-1.63-.22-.96-1.09-.77-1.75-.78-1.68-.04-3.37-.01-5.06-.01zm4.13 14.91h.82c.89.01 1.68-.25 1.7-1.26.03-1.18-1.01-.75-1.6-.79-2.75-.17-5.51-.27-8.27-.38-.61-.02-1.38-.16-1.47.72-.09.92.55 1.16 1.37 1.2 2.23.13 4.44.31 7.45.51zm-116.91 27.03c-1.01-2.84-2.01-5.66-3.25-9.16-.8 2.57-.5 4.43-.52 6.25-.04 3.42.16 3.54 3.77 2.91zm113.26-36.68v.19c1.42 0 2.85.04 4.27-.02.72-.03 1.7.5 2.05-.62.12-.37.05-1.03-.2-1.24-.75-.61-2.13-.65-2.46-.16-.88 1.29-2.01.84-3.06.86-1.75.04-3.51.22-5.09-.99-.54-.42-1.56-.48-2.26.05-.16.12-.12.67-.03.97.31.99 1.2.93 1.99.94 1.58.04 3.19.02 4.79.02zm-5.67-13.36c-.01.17-.02.35-.03.52 3.53.18 7.06.39 10.59.51.67.02 1.81.42 1.73-.92-.06-1.05-.95-1.16-1.78-1.09-3.5.32-7.01.65-10.51.98zm1 25.01c-.01.23-.01.46-.02.69h8.59c.01-.23.02-.46.03-.69-2.87 0-5.73 0-8.6 0zm-125.03-21.54c-.96.02-1.49.45-1.47 1.47.03 1.09.72 1.26 1.62 1.3 1.05.04 1.42-.43 1.42-1.43 0-1.13-.67-1.33-1.57-1.34zm129.43 8.31c.6-.45 2.19.46 2.03-.8-.19-1.55-1.88-.66-2.89-.82-.68-.11-2.05-.39-1.93.63.18 1.48 1.75.62 2.79.99zm-118.34-7.24c-.72-.27-1.22-.66-1.24.32-.02.8.2 1.41 1.13 1.37.84-.03 1.94.13 1.97-1.13.06-2.78-1.38-.51-1.86-.56zm-4.29 16.81c-2.07-.73-4.13-.78-6.15.07 2.07.64 4.13.87 6.15-.07zm.73-15.22c.47-.07 1.36.32 1.55-.7.11-.58.3-1.32-.34-1.69-1.3-.76-1.12.25-1.12 1.01 0 .01-.34.09-.45.03-.5-.28-1.08-1.01-1.18.29-.08 1.02.58 1.14 1.54 1.06zm103.37 74.46c.03-.78-.12-1.41-1.1-1.4-.85.01-.99.53-.97 1.22.02.74.04 1.42 1.08 1.39.86-.02 1-.54.99-1.21zm7.26-26.61c-.61.96-1.67 1.6-1.12 2.8.21.46 1.12.67 1.41.32.79-.98.14-1.98-.29-3.12zm-5.99 38.9c0-.03 0-.06 0-.08-2.01 0-4.01 0-6.02 0v.08zm84.41-20.59c.09-.03.19-.05.28-.08-.04-.32-.07-.65-.11-.97-.06.34-.11.69-.17 1.05zm-.35 4.95c.02-.21.06-.38.04-.53-.01-.11-.09-.21-.14-.32-.02.16-.06.32-.05.48.02.11.09.21.15.37zm-.5 5.04c-.01-.15-.03-.31-.04-.46-.04.14-.11.27-.12.41-.01.09.07.18.12.27.02-.07.03-.15.04-.22z"/><path d="m378.76 229.17c-3.25 2.7-7.07 4.22-11.18 4.58-17.38 1.51-34.82 2.07-52.25 2.76-13.96.56-27.93 1.11-41.89 1.64-1.39.05-2.56.68-3.79 1.17-.1-.11-.21-.22-.31-.34.96-1.05 2.21-1.42 3.58-1.48 3.02-.15 6.04-.35 9.06-.46 25.42-.92 50.85-1.77 76.24-3.42 4.57-.3 9.93 1.15 13.44-3.59.27.79-.77 1.23-.67 2.11 2.84-.55 5.07-2.11 7.45-3.32.12.12.22.24.32.35z"/><path d="m268.09 240.94c-.5.95-1 1.9-1.58 3.01-.64-1.2.43-1.83.35-2.68 0 0-.06.06-.06.06.31-.24.62-.47.93-.71.12.11.24.22.36.32z"/><path d="m381.41 226.98c-.69.96-1.52 1.76-2.65 2.19-.1-.12-.2-.23-.3-.35.88-.71 1.76-1.43 2.64-2.14.11.1.21.2.31.3z"/><path d="m269.66 239.33c-.52.54-1.05 1.08-1.57 1.62-.12-.11-.23-.21-.35-.32.31-.77.87-1.3 1.62-1.64.09.11.2.22.3.34z"/><path d="m4.19 101.15c1.44.41 1.88 1.79 2.66 2.8 2.97 3.9 5.66 7.99 8.1 12.24.47.82 1.27 1.54 1.05 2.64-1.44-.76-1.76-2.34-2.52-3.57-2.53-4.07-5.17-8.05-8.04-11.89-.51-.66-1.41-1.17-1.25-2.22z"/><path d="m234.91 67.37c-.14-3.12.92-5.89 1.49-8.74.26-1.27 1.26-1.9 2.57-1.9 2.76-.01 5.52-.05 8.28.02 1.99.05 2.94 1.12 2.55 3.14-.28 1.48-.56 2.98-.98 4.42-.65 2.2-.41 3.21 2.37 3.12 7.12-.22 14.25-.08 21.37-.07 6.29.01 10.4 2.93 12.46 8.88.84 2.43 1.73 4.87 2.36 7.36.91 3.58-1.39 6.57-5.09 6.88-.27.02-.53.02-.8.02-25.56 0-51.12.02-76.67-.01-4.67 0-6.98-3.19-5.57-7.69.85-2.71 1.73-5.44 2.94-8 2.23-4.71 5.91-7.46 11.33-7.44 7.11.02 14.23.01 21.39.01zm-30.13 4.89c.19-.19.38-.38.57-.57.17-.18.35-.37.52-.55s.34-.36.52-.54c.37.02.73.04 1.1.07-3.29 2.96-4.67 7-6.17 10.96-1.8 4.74-.13 7.16 5.02 7.18 8.11.04 16.21.01 24.32.01 16.48 0 32.96.01 49.44-.01 5.03-.01 6.72-2.49 5.11-7.22-1.17-3.44-2.46-6.81-4.5-9.84.18-.02.37-.03.55-.04.34.04.56.22.6.58-.01 0-.02 0-.03 0-.56.2-.75.02-.57-.55-.35-.09-.64-.22-.42-.66-.26-.12-.51-.23-.77-.35l-.05-.14s.1.12.1.12c.24.11.48.22.71.34-.03.25-.06.5-.09.76-4.02-2.82-8.59-2.75-13.23-2.72-15.85.1-31.7.05-47.55.03-4.25-.01-8.51-.28-12.51 1.61-.02-.18-.03-.36-.05-.54.2-.21.39-.41.59-.62.07 0 .14-.01.21-.01-.06.02-.11.04-.17.06-.2.21-.4.41-.59.62-.34.15-.68.29-1.02.44-.17.18-.35.36-.52.54s-.35.37-.52.55c-.22.18-.43.35-.65.53-.04.02-.08.03-.12.05.06-.05.11-.07.17-.09zm-3.82 16.12c.06.04.11.08.17.1.03.01.07-.01.1-.02-.11-.01-.22-.02-.33-.04.03-.36-.13-.55-.48-.61-.07-.12-.15-.24-.22-.36.09.1.18.21.28.31.16.21.31.42.48.62zm85.13-1.19c.06-.01.12-.01.17-.02-.04.02-.09.05-.13.07-.22.18-.43.37-.65.55-.16.16-.32.31-.48.47-.18.21-.36.43-.54.64-.08.03-.16.05-.23.09-.05.03-.07.09-.1.14.09-.09.19-.19.28-.28.18-.21.36-.43.54-.64.16-.15.32-.31.49-.46.21-.19.43-.38.65-.56zm-8.5-18.21c-.1.03-.19.07-.29.1.01-.07.03-.13.04-.2.09.05.18.09.28.14.32.22.64.43.96.64.02.04.04.08.06.13-.02-.05-.04-.11-.07-.16-.32-.22-.65-.44-.98-.65zm-33.52-7.47c.89 0 1.84-.2 2.66.04 1.78.53 2.07-.54 2.31-1.82.29-1.59-.67-2.11-1.98-2.15-2.58-.06-5.16-.05-7.74-.03-.95.01-1.82.3-2.07 1.33-.51 2.16-.97 4.33-1.39 6.51-.11.59-.12 1.37.67 1.55 1.08.24.72-.76.88-1.24 1.35-4.19 1.34-4.19 5.87-4.2.25.01.52.01.79.01zm-1.73 5.79h1.34c2.79-.02 4.19-1.18 3.89-3.73-.28-2.33-2.36-1-3.63-1.28-.76-.17-1.6-.05-2.4-.03-1.92.06-3.6 1.88-3.29 3.88.29 1.85 1.94.94 3.03 1.15.33.07.7.01 1.06.01z"/><path d="m374.6 154.6c1.96 0 3.92.02 5.88-.01 1.69-.02 2.66.77 3 2.41 1.62 7.79 2.3 15.66 2.11 23.61-.05 1.98-1.1 2.9-3.03 2.93-3.74.07-7.48.14-11.22.22-1.81.04-2.56-.88-2.56-2.63.02-8.03-.66-16-2.37-23.86-.4-1.81.48-2.68 2.31-2.67 1.96.02 3.92 0 5.88 0zm-2.31 1.54c-.03.97-1.14 1.06-1.47 1.76-.36.79-.17 1.58.34 2.25.37.49.98.4 1.47.26 1.03-.29.55-1.15.53-1.78-.02-.9-.36-1.73-.91-2.45 1.08-.6 2.17.83 3.24-.02-.11.8-.93.99-1.33 1.53-.57.77-.15 1.51.17 2.21.34.74 1.03.62 1.59.43.95-.32.51-1.17.5-1.8-.03-.88-.2-1.75-.98-2.33.25-.76.6-.59 1.15-.24.91.57.94.52 1.9-.52-7.11-.69-10.35-.36-11.15 1.33 1.52-1.73 3.38.41 4.95-.63zm1.74 15.08c0-.02 0-.04 0-.05 3.02-.17 6.05-.34 9.07-.5.77-.04 1.39-.11 1.36-1.14-.03-.95-.49-1.24-1.35-1.19-4.18.23-8.36.45-12.54.68-.71.04-1.46.02-1.45 1.1.01 1.03.68 1.11 1.44 1.11 1.16-.01 2.32-.01 3.47-.01zm2.22 9.1c2.83-.19 4.95-.32 7.07-.47.72-.05 1.48-.07 1.5-1.08.03-1.22-.86-1.15-1.66-1.12-4.07.17-8.14.36-12.2.54-.75.03-1.43.11-1.37 1.15.07 1.07.84.96 1.53.97 1.94.01 3.89.01 5.13.01zm-2.59-12.21c3.46-.23 6.13-.39 8.78-.61.68-.06 1.77.33 1.69-1.04-.07-1.17-.92-1.13-1.74-1.09-4.09.18-8.17.36-12.26.54-.63.03-1.3 0-1.27.93.03.85.41 1.29 1.32 1.27 1.43-.03 2.85 0 3.48 0zm3.65 14.86c1.47-.08 3.69-.16 5.9-.32.61-.04 1.25-.27 1.33-1.06.07-.82-.54-.8-1.06-.78-4.18.12-8.35.25-12.52.41-.49.02-1.19 0-1.24.7-.06.81.6 1.04 1.25 1.05 1.86.02 3.72 0 6.34 0zm.12-11.14v.1c-1.96 0-3.92-.06-5.87.03-.72.03-1.73-.22-2.03.83-.11.39-.08 1.06.16 1.26.75.6 1.91.61 2.49.11 1.16-.99 2.46-.82 3.75-1.03 2.25-.36 4.35.34 6.51.7.81.13 2.14.51 2.14-1.14 0-1.58-1.13-1.27-2.09-1.2-1.68.1-3.37.22-5.06.34zm-1.62-9.08c0-.05 0-.11 0-.16 2.14 0 4.27.01 6.41-.01.56-.01 1.34.21 1.25-.85-.09-.94-.73-.81-1.36-.78-4.18.18-8.36.33-12.54.54-.51.03-1.43-.38-1.43.65 0 .98.78 1.03 1.54.98 2.04-.12 4.08-.24 6.13-.37zm.4 14.31c0 .04 0 .08.01.12 2.48-.16 4.97-.31 7.45-.49.7-.05 1.19-.37 1.16-1.16-.03-.82-.56-1.04-1.26-.99-.87.07-1.91-.26-2.54.48-.96 1.15-2.19 1.03-3.42 1.02-1.91-.02-3.85.33-5.63-.91-.52-.36-1.62-.33-2.23.31-.23.25-.25.89-.11 1.26.38 1.08 1.32.59 2.05.57 1.51-.04 3.02-.13 4.52-.21zm7.44-12.57c-.02-.36-.03-.72-.05-1.08-4.84-.27-9.68.36-14.51.62-.14.01-.36.39-.37.6-.02.45.39.57.73.55 4.73-.21 9.47-.45 14.2-.69zm-3.65 9.95c-1.94-.73-3.84-.49-5.74-.46-.35.01-.78.11-.74.53.03.27.36.72.56.73 2.02.07 4.08.39 5.92-.8zm2.95-15.79c-.18-1.38-.12-2.91-1.92-3.34-.53-.13-.99.21-.7.69.74 1.26-.39 3.42 1.78 3.92.83.2.89-.61.84-1.27zm-3.28-2.42c-1.59.93-3.05 1.36-2.18 3.31.48 1.07 1.41.91 1.97.55 1.59-1.02.09-2.29.21-3.86zm-9.7 2.82c-.18-.6.05-1.84-.94-1.96-.78-.1-1.7.6-1.52 1.73.13.76.3 1.61 1.33 1.71.96.09 1.26-.42 1.13-1.48z"/><path d="m377.06 187.82c-1.41 0-2.83.03-4.24-.01-1.01-.03-1.65-.53-1.73-1.61-.1-1.22.56-1.92 1.66-1.95 3.09-.08 6.18-.06 9.28-.01 1.04.02 1.62.71 1.6 1.74-.02 1.11-.56 1.84-1.79 1.83-1.6 0-3.19.01-4.78.01zm-3.97-2.21c-.05.27-.09.55-.14.82 2.98.33 5.97.29 8.95.03.01-.28.01-.57.02-.85-2.95 0-5.89 0-8.83 0z"/><path d="m156.13 138.09c-1.55-.35-2.54-1.36-3.25-2.72 1.43.49 2.61 1.28 3.25 2.72z"/><path d="m152.93 135.42c-.86.1-1.41-.28-1.66-1.11.85-.08 1.38.32 1.66 1.11z"/><path d="m373.82 226.83c.07.85-.28 1.41-1.11 1.66-.04-.83.26-1.43 1.11-1.66z"/><path d="m372.75 228.43c.06.84-.26 1.43-1.11 1.66-.06-.84.28-1.41 1.11-1.66z"/><path d="m84.87 146.17c3.22-4.46 7.77-7.25 12.55-9.57 26.13-12.7 56.2-1.48 67.26 25.4 6.54 15.89 4.81 31.31-4.64 45.76-.12-.1-.24-.2-.36-.3.6-1.21 1.2-2.43 1.8-3.64 0 0-.05.06-.05.06 2.49-3.41 3.46-7.45 4.76-11.36.71-2.15.62-4.07-1-5.77.64-.73 1.76 1.74 1.98-.12.54-4.57.64-9.17-.36-14.15-2.89 4.33-6.5 2.57-10.18 1.56 1.26 3.87 2.54 7.37 2.8 11.11.09 1.25.84.68 1.5.63 1.52-.1 3.2-.73 4.31 1.01-1.24.1-2.36-.77-3.66-.4-3.84 1.07-6.35 3.79-8.64 6.81-.51.68.11 1.09.18 1.63.41 3.02.86 6.07-.22 9.06-.44-2.92.28-5.94-.51-9.1-1.65 1.22-2.07 2.8-2.7 4.22-2.24 5.06-2.22 5.07 3.26 4.83-.26 1.04-1.14.93-1.9.99-3.24.28-4.43 1.94-3.32 4.99.4 1.1 1.39 1.98 2.11 2.96-.1.12-.2.24-.31.35-1.42-.52-1.71-2.27-3.08-2.84.22-7.98 2.5-15.46 8.64-20.54 4.06-3.35 3.68-6.45 2.47-10.37-.39-1.27-.91-2.51-1.28-3.79-.55-1.93-1.82-3.08-3.55-4.05-8.88-4.94-18.45-7.39-28.52-7.99-13.98-.83-27.27 1.62-39.49 8.78-.82.48-1.37 1.08-1.73 1.93-1.27 3.05-2.19 6.2-2.78 9.45-.29 1.63.08 2.75 1.65 3.75 1.98 1.26 3.91 2.78 4.75 5.18-1.78-.85-2.67-2.67-4.16-3.86-3.84-3.05-6.05-3.19-9.8-.39.59-2.39 2.45-2.72 4.49-2.79.82-.03 1.92.43 2.12-.91.53-3.62 1.67-7.08 2.92-10.88-3.93 1.41-7.44 2.32-10.11-2.01-1.2 5.61-1.12 10.79-.39 15.98.09.66.71.32 1.02.56-.14 1.11-.62 2.11-.3 3.35 1.9 7.5 5.19 14.26 10.2 20.17 2.25 2.66 3.31 2.82 6.33 1.13.45-.25.94-.41 1.41-.61-.71 2.31-3.42 1.59-4.66 3.08-.12.11-.24.21-.36.32-8.74-8.09-13.52-18.26-14.69-29.93-1.44-14.37 2.42-27.27 12.27-38.12.57-.63.96-1.54 2-1.61.61.53 1.33.39 2.04.33 4.07-.35 8.17-.52 12.21-1.09 4.32-.6 8.9.52 12.95-1.28 6.01-2.67 11.93-2.24 17.97-.57 6.95 1.92 14.03.6 21.08 1.1-4-3.31-7.55-7.22-13.18-7.43-12.28-.46-24.51-.34-36.76 1.16-5.89.72-10.73 2.75-14.78 6.95-.41.44-.83.96-1.56.88zm11.79-8.26c1.16.28 2.29.03 3.44-.13 11.05-1.51 22.14-2.23 33.29-1.55 1.43.09 2.87.14 4.31.21-13.97-6.02-27.65-5.5-41.03 1.53v.09zm61.06 13.51c.01.04.03.09.04.13 0-.04-.01-.08-.01-.12-.48-.64-1-1.25-1.44-1.91-1.95-2.99-4.51-4.15-8.24-4.03-7.26.23-14.52.27-21.65-1.96-4.49-1.41-9.12-.93-13.5 1.17-1.09.52-2.38.75-3.6.85-5.49.43-10.99.8-16.49 1.11-9.05.51-10 1.05-14.68 8.87-.59.99-1.12 2.02-1.67 3.03-1.72 3.14-2.93 6.48-3.54 10-.33 1.92-.03 3.86 1.78 4.96 1.37.83 2.97 1.31 4.36-.18 1.63.36 2.93-.45 4.24-1.21 5.1-2.95 10.34-5.6 16.12-6.95 1.85-.43 2.71-1.17 2.91-3.27.42-4.35 1.53-8.55 5.11-11.58.12 1.03-.75 1.56-1.2 2.28-1.87 3-3.04 6.2-3.16 9.77-.05 1.41.23 1.83 1.79 1.53 11.07-2.13 22.12-1.89 33.05.91 1.85.47 2.11-.14 2.06-1.72-.11-3.16-1.37-6.03-2.11-9.03 1.64 1.23 2.23 3.24 2.13 4.91-.33 5.65 2.83 7.73 7.63 9.26 3.67 1.17 6.98 3.47 10.46 5.26 1.41.73 2.45.82 3.49-.86 4.02-6.51.87-18.23-5.68-21.27-7.09-3.28-14.41-3.34-21.88-3.03l.09-.13-.06.1c1.28 1.46 2.95 2.65 3.35 4.74-.97-.08-1.15-1.01-1.62-1.59-4.71-5.76-10.63-8.32-18.08-6.9-3.02.57-5.44 2.43-8.14 3.67-.74-.97-1.79-.57-2.71-.55-7.66.18-15.36.19-22.46 3.77 1.66-2.26 4.24-2.73 6.69-3.27 5.94-1.32 12.04-.95 18.06-1.48 1.17-.1 2.22-.3 3.28-.89 6.19-3.51 12.4-3.22 18.49.25 1.21.69 2.36 1 3.74 1.08 7.86.45 15.89.02 23.05 4.28zm6.55 12.76c.48 3.71-.98 6.89-2.64 10.11 4.78-.08 5.81-4.26 2.64-10.11z"/><path d="m156.85 212.08c-8.02 9.97-18.54 15.73-31.09 17.35-14.5 1.86-27.46-2.13-38.58-11.74-.67-.58-1.24-1.26-1.85-1.9.12-.11.24-.21.36-.32 3.66 2.91 7.14 6.1 11.69 8.08-.23-2.23-.57-4.34.68-6.13.9-1.29.64-2.02-.68-2.68-.52-.26-1.15-.54-1.2-1.29 1.86.18 3 2.21 5.38 1.45 9.57-3.05 19.35-3.07 29.23-1.64 3.14.46 6.04 2.06 9.29 1.79-.17.56-.34 1.12-.51 1.68-.8-.35-1.57-.8-2.4-1.04-12.02-3.43-24.03-3.41-36.03.12-2.46.72-3.13 2.76-3.26 4.97-.12 2.12.75 3.64 2.93 4.52 12.12 4.88 24.24 4.94 36.41.29 2.8-1.07 3.91-3.5 3.07-6.41-.24-.84-.94-1.53-.77-2.5 2.49 1.81 1.49 4.51 1.61 7.13 4.52-2.36 8.46-5.09 11.95-8.74-1.3-.74-2.71-.84-3.55-1.95.1-.12.2-.24.31-.35 2.53 1.69 4.79 1.65 6.66-1.02.12.12.24.22.35.33z"/><path d="m63.55 148.79c2.64-2.18 5.93-2.98 9.04-4.1 2.88-1.04 5.46-2.25 7.48-4.67 1.03-1.23 2.1-2.65 3.87-3.04-3.22 3.4-6.45 6.81-9.67 10.21-.25-1.05.96-1.42 1.1-2.52-4.21.78-7.75 3.26-11.82 4.12z"/><path d="m71.05 152.01c-.24-.99.83-1.54.8-2.62-3.12.59-6.22 1.18-9.32 1.76 2.33-1.5 4.98-1.76 7.55-2.21 1.62-.28 2.97-.84 4.23-1.8-.73 1.86-1.73 3.55-3.26 4.87z"/><path d="m161.48 217.74c-1.15 2.45-3.01 4.18-5.39 5.39 1.49-2.1 3.35-3.83 5.39-5.39z"/><path d="m152.93 225.77c-1.28 1.59-2.83 2.79-4.87 3.25 1.35-1.49 2.93-2.63 4.87-3.25z"/><path d="m83.88 137.02c1.01-1.67 2.49-2.7 4.33-3.25-1.12 1.51-2.59 2.57-4.33 3.25z"/><path d="m164.16 214.53c-.25 1.29-.98 2.2-2.18 2.72.29-1.25.98-2.19 2.18-2.72z"/><path d="m86.6 226.35c-1.28-.26-2.22-.95-2.72-2.18 1.26.28 2.18.99 2.72 2.18z"/><path d="m155.6 223.63c-.54 1.19-1.44 1.93-2.72 2.18.53-1.19 1.44-1.92 2.72-2.18z"/><path d="m158.94 209.35c-.46 1.09-1.21 1.96-2.09 2.73-.12-.11-.23-.22-.35-.33.69-.91 1.39-1.81 2.08-2.72.12.11.24.22.36.32z"/><path d="m92.49 230.09c-1.21-.05-2.13-.58-2.73-1.65 1.2.07 2.16.54 2.73 1.65z"/><path d="m160.05 207.76c-.18.66-.57 1.18-1.1 1.59-.12-.1-.24-.21-.36-.31.37-.53.73-1.05 1.1-1.58.12.1.24.2.36.3z"/><path d="m88.21 227.41c-.86.09-1.42-.27-1.66-1.11.85-.07 1.41.29 1.66 1.11z"/><path d="m89.82 228.48c-.84.05-1.45-.24-1.66-1.11.82-.03 1.41.28 1.66 1.11z"/><path d="m93.56 230.62c-.52.1-.99.07-1.13-.57.52-.09 1.01-.11 1.13.57z"/><path d="m162.02 217.21c.03.42-.13.64-.58.58-.03-.42.15-.63.58-.58z"/><path d="m156.13 223.09c.04.43-.17.6-.58.58-.04-.43.18-.59.58-.58z"/><path d="m405.57 103.5c-2.81 4.43-5.53 8.91-8.46 13.27-1.6 2.38-4.05 3.08-5.71 2.05-1.83-1.14-2.29-3.66-.68-6.22 5.49-8.74 11.11-17.4 16.72-26.07.42-.65 1.07-1.21 1.72-1.65 1.22-.82 2.54-1.32 3.98-.42 1.49.94 1.83 2.36 1.52 3.95-.58 2.99-2.64 5.17-4.26 7.59-.14-.12-.29-.25-.43-.37.43-.77.85-1.56 1.31-2.32.86-1.45 2.04-2.75 2.45-4.42.32-1.31.47-2.76-.9-3.62-1.34-.84-2.63-.25-3.66.68-.78.7-1.44 1.59-2.01 2.48-4.98 7.71-9.93 15.43-14.87 23.15-1.78 2.79-2.01 5.32-.63 6.34 1.6 1.17 3.77.04 5.74-2.97 2.58-3.95 5.17-7.89 7.75-11.83.13.13.28.25.42.38z"/><path d="m410.39 96.01c-1.42 2.62-3.01 5.13-4.82 7.49-.14-.13-.29-.25-.43-.38 1.45-2.6 3.02-5.12 4.83-7.48.14.12.28.24.42.37z"/><path d="m218.78 221.73c-1.15 0-2.31.04-3.46-.02-.67-.04-1.21-.48-1.27-1.16-.07-.84.53-1.36 1.3-1.38 2.3-.05 4.61-.02 6.92.03.66.01 1.19.34 1.24 1.12.06.91-.49 1.32-1.28 1.37-1.15.07-2.31.02-3.46.02.01.01.01.01.01.02zm-3.58-1.17c2.49.3 4.99.79 7.42-.23-2.48-.35-4.97-.71-7.42.23z"/><path d="m29.35 110.81c-.95-.15-1.13-1.05-1.54-1.68-3.72-5.74-7.41-11.5-11.1-17.26-2.09-3.27-2.08-6.04 0-7.38 1.93-1.25 4.43-.1 6.48 3.06 5.11 7.91 10.21 15.84 15.27 23.78 2.14 3.35 2.16 6.06.17 7.42-1.96 1.35-4.5.21-6.66-3.18-.98-1.54-2.41-2.85-2.65-4.8.99.1 1.12 1.04 1.56 1.64 1.21 1.64 2 3.58 3.6 4.94 1.11.94 2.44 1.41 3.69.62 1.15-.73 1.18-2.06.89-3.38-.26-1.17-.88-2.13-1.5-3.1-5-7.79-9.99-15.59-15.01-23.36-1.82-2.82-4.03-3.9-5.55-2.82-1.43 1.02-1.32 3.38.38 6.06 3.11 4.88 6.3 9.71 9.35 14.62.97 1.54 2.42 2.85 2.62 4.82z"/><path d="m265.83 176.01c-.19.86-.85 1.09-1.59 1.13-3.55.2-7.1.37-10.65.57-1.69.1-2.53-.79-2.57-2.36-.15-7.02-.26-14.05-.34-21.07-.02-1.58.96-2.23 2.44-2.11 3.37.27 6.73.56 10.09.91 1.43.15 2.56.81 2.69 2.45.52 6.48.42 12.97.5 19.47.01.44-.14.88-.63 1.06-.14-1.27-1.09-1.16-1.98-1.15-3.39.03-6.77.04-10.16.12-.61.01-1.63-.37-1.67.74-.04 1.02.77 1.36 1.66 1.25 4.07-.47 8.19-.15 12.21-1.01zm-7.11-7.66v.19c-1.87 0-3.73 0-5.6 0-.84 0-1.34.31-1.36 1.23-.02 1.03.45 1.42 1.46 1.38 3.64-.14 7.29-.23 10.93-.36.7-.03 1.47-.01 1.47-1.08 0-1.1-.68-1.35-1.56-1.35-1.78-.02-3.56-.01-5.34-.01zm-.49-7.23c0-.04 0-.07 0-.11 1.86 0 3.73-.01 5.59 0 .8 0 1.35-.16 1.37-1.16.03-1.09-.49-1.37-1.46-1.34-3.64.13-7.28.23-10.92.35-.74.02-1.4.08-1.41 1.13-.01 1.1.58 1.39 1.5 1.36 1.78-.06 3.56-.15 5.33-.23zm.73 10.6v.12c-1.78 0-3.56 0-5.34 0-.91 0-1.83-.03-1.78 1.33.05 1.22.88 1.15 1.69 1.13 3.56-.1 7.12-.21 10.68-.32.72-.02 1.46-.03 1.48-1.07.02-1.23-.84-1.17-1.65-1.18-1.7-.02-3.39-.01-5.08-.01zm-.77-13.8c0-.05 0-.1 0-.15h5.85c.74 0 1.14-.31 1.09-1.13-.04-.7-.46-.9-1.05-.9-3.81.02-7.62.05-11.43.09-.66.01-1.23.16-1.23 1.02-.01 1.06.74 1.05 1.46 1.06 1.77.02 3.54.01 5.31.01zm.5 4.17v.05c-1.69 0-3.39-.05-5.08.02-.72.03-1.7-.4-2.04.69-.16.51-.18 1.14.35 1.45.8.47 2.17.64 2.49.09.94-1.58 2.32-1.01 3.55-1.12 1.58-.14 3.13-.24 4.59.85.6.45 1.78.4 2.51-.24.4-.35.32-1.03.07-1.51-.5-.94-1.42-.52-2.16-.51-1.43.02-2.86.15-4.28.23zm-.11 5.52c0-.06 0-.11 0-.17h5.6c.68 0 1.26-.11 1.27-.97.01-.94-.56-1.23-1.38-1.21-.53.01-1.14-.06-1.57.17-2.77 1.47-5.46 1.66-8.28.05-.56-.32-1.57-.05-2.3.17-.43.13-.33.78-.18 1.2.36 1.06 1.31.72 2.04.75 1.6.05 3.2.01 4.8.01zm5.43-13.24c-3.71-.77-7.45-1.22-11.23-1.32-.8-.02-1.38.33-1.37 1.25.01.96.75.83 1.33.83 3.77-.03 7.53-.02 11.27-.76zm-5.24 9.71c-.75.42-2.29-.6-2.43 1.01-.08.97 1.15.69 1.71.57 1.09-.23 2.87.61 3.09-.98.13-.93-1.48-.33-2.37-.6z"/><path d="m258.01 181.58c-1.24.09-2.48.17-3.71.27-1.3.11-2.08-.49-2.17-1.76-.08-1.17.64-1.82 1.77-1.89 3.01-.18 6.02-.34 9.03-.43 1.16-.03 1.77.7 1.77 1.87.01 1.09-.64 1.67-1.64 1.72-1.68.08-3.37.02-5.05.02zm-3.81-2.18c.01.3.01.59.02.89 2.63.32 5.29-.05 7.93-.14.27-.01.74-.36.75-.56.01-.75-.63-.71-1.14-.69-2.52.15-5.04.33-7.56.5z"/><path d="m259.6 183.88c1.69 0 3.38.1 5.06-.03 1.66-.12 2.4.36 2.46 2.16.15 4.65.16 4.75-4.47 4.92-2.93.1-5.87.02-8.8.22-1.83.12-2.4-.66-2.31-2.3.03-.62.05-1.25 0-1.86-.18-2.02.63-2.99 2.73-2.89 1.77.09 3.55.02 5.33.02 0-.09 0-.16 0-.24zm-.55 6.52c0-.06 0-.12 0-.18 1.68-.08 3.37-.33 5.04-.21 2.66.2 2.1-1.59 2.22-3.11.13-1.65-.33-2.44-2.18-2.31-3.26.24-6.54.35-9.81.4-1.5.02-1.93.63-1.95 2.08-.05 3.39-.12 3.39 3.24 3.32 1.14-.01 2.29.01 3.44.01z"/><path d="m49.73 187.87c-1.31-1.71-1.08-2.92.79-3.03 3.09-.2 6.2-.1 9.3-.03.97.02 1.64.63 1.63 1.73 0 .9-.37 1.74-1.28 1.73-3.47-.04-6.98.73-10.4-.42-.08-.09-.15-.18-.23-.27.12.02.25.05.37.07-.06.07-.12.14-.18.22zm5.51-.76v.02c1.23 0 2.46.01 3.69-.01.39 0 .75-.26.7-.61-.03-.25-.43-.64-.68-.64-2.46-.05-4.92-.04-7.38-.03-.38 0-.71.22-.72.61 0 .38.31.64.69.65 1.23.02 2.46.01 3.7.01z"/><path d="m68.61 233.42c-1.44-.27-3.45.74-3.49-2.03-.04-2.54 1.68-2.37 3.27-2.26 1.57.11 3.8-.83 3.8 2.23 0 3.04-2.26 1.66-3.58 2.06zm.26-.62c.89-.46 2.75.66 2.59-1.55-.15-2.04-1.86-1.15-2.89-1.2-1.05-.06-2.8-.68-2.67 1.42.13 2.07 1.9.86 2.97 1.33z"/><path d="m189.82 194.25c.72-.46 1.3-.73 1.19-1.97-.27-2.91-.08-5.86-.15-8.8-.04-1.57.56-2.22 2.2-2.21 17.44.04 34.88.04 52.32-.01 1.75-.01 2.33.59 2.3 2.31-.07 3.5.04 7 .07 10.5-.11.11-.22.22-.33.33-.17-.03-.35-.09-.52-.09-18.07-.03-36.14-.04-54.22-.1-1.79-.01-2.03.93-2.02 2.36.01 5.88.05 11.75-.07 17.63-.04 2.01.63 2.57 2.61 2.55 10.24-.09 20.48-.02 30.71-.05 7.83-.02 15.66-.1 23.49-.16.11.11.23.22.34.33-.82.77-1.86.51-2.8.51-17.29.02-34.59-.02-51.88.05-2.4.01-3.35-.67-3.3-3.19.15-6.68.09-13.36.11-20.04 0-.01-.05.05-.05.05zm29.41-1.65c8.47 0 16.94-.05 25.4.04 1.91.02 2.5-.59 2.37-2.44-.14-2.13-.1-4.28-.01-6.41.06-1.42-.51-1.84-1.87-1.84-17.2.03-34.41.04-51.61 0-1.45 0-1.85.58-1.81 1.9.05 2.14.12 4.29-.05 6.41-.15 1.93.61 2.4 2.44 2.39 8.38-.09 16.76-.05 25.14-.05z"/><path d="m219.41 152.44c7.84 0 15.68-.01 23.51.01 3.14.01 3.58.45 3.6 3.55.02 7.13.03 14.25.01 21.38-.01 2.95-.65 3.59-3.64 3.59-15.77.01-31.53.01-47.3-.01-2.93 0-3.59-.69-3.61-3.64-.03-7.04-.04-14.07-.03-21.11 0-3.25.5-3.75 3.69-3.76 7.92-.02 15.84-.01 23.77-.01zm-.19 27.76c7.84 0 15.68-.05 23.52.03 2.33.03 3.16-.89 3.13-3.17-.08-6.95-.09-13.9-.01-20.85.03-2.29-.8-3.13-3.13-3.12-15.59.07-31.18.07-46.77-.01-2.31-.01-3.18.74-3.16 3.07.05 6.94.01 13.89-.12 20.84-.04 2.41.83 3.29 3.29 3.26 7.74-.12 15.5-.05 23.25-.05z"/><path d="m247.74 194.07c.45.39.46.93.46 1.46 0 6.62-.01 13.24-.02 19.86 0 .53.01 1.07-.45 1.46-.11-.11-.23-.22-.34-.33.24-7.37.21-14.75.02-22.12z"/><path d="m56.05 194.79c1.39-1.44 3.14-.99 4.64-.55 1.5.45 1.01 2.07 1.07 3.26.05 1.24.02 2.49 0 3.73-.04 3.12-2.6 4.67-5.35 3.21-.35-.19-.82-.62-.81-.94.06-2.93-.92-5.92.5-8.76.01 2.3.11 4.61 0 6.91-.09 1.77.6 2.28 2.31 2.29 1.74 0 2.74-.36 2.5-2.33-.07-.61 0-1.24-.01-1.86-.07-5.91.7-4.84-4.85-4.96z"/><path d="m318.68 200.13c.51-1.06 1.52-.71 2.32-.72 4.49-.05 8.98-.04 13.47 0 .98.01 2.24-.32 2.45 1.27-1.48-.82-3.1-.53-4.67-.53-4.52-.03-9.05-.02-13.57-.02z"/><path d="m182.84 197.41c2.3 1.88 2.58 4.75.71 7.12-1.86 2.35-4.72 2.73-7.12.95.96-.13.92-.79.94-1.54.04-2.31.16-4.62.24-6.93 0 0 .01-.1.01-.1l-.05.14c-1.65-.1-2.17 1.17-2.74 2.33-1.23 2.51.53 4.25 1.65 6.15-2.38-.92-2.91-2.9-2.69-5.11.23-2.31 1.58-4.01 3.83-4.55 1.93-.47 4.05-.68 5.27 1.6-.77.28-1.22-1.05-2.11-.42v8.47s-.04-.04-.04-.04c3.47-1.59 3.97-3.52 2.1-8.07zm-2.71 4.05c0-1.2.02-2.18-.01-3.15-.01-.66-.19-1.29-1.01-1.26-.79.03-.97.65-.98 1.31-.03.97-.16 1.97-.01 2.91.21 1.33-.91 3.75.99 3.74 1.95 0 .51-2.49 1.02-3.55z"/><path d="m94.09 211.9c-1.09-.41-2.17-1.24-3.26 0 2.53-5.82-.2-10.78-2.54-15.82-.55-1.18-1.78-2.02-1.74-3.48 3.91 4.06 5.6 9.09 5.98 14.55.14 1.81.39 3.38 1.56 4.75z"/><path d="m146.51 210.25c-.66 1.42-1.71 2.37-3.26 2.72.76-1.3 1.82-2.23 3.26-2.72z"/><path d="m143.3 212.93c-.72 1.28-1.76 2.08-3.27 2.18.83-1.11 1.87-1.92 3.27-2.18z"/><path d="m96.23 213.51c-1.09-.06-1.8-.65-2.19-1.65 1.07.1 1.79.66 2.19 1.65z"/><path d="m137.37 153.01c.63.16.67.61.58 1.14-.61-.17-.68-.61-.58-1.14z"/><path d="m107.41 150.39c-.02-.41.16-.61.58-.58.02.4-.13.64-.58.58z"/><path d="m107.95 149.86c-.04-.42.13-.64.58-.58.02.41-.17.61-.58.58z"/><path d="m109.02 148.79c-.05-.44.18-.59.58-.58.06.44-.15.62-.58.58z"/><path d="m108.49 149.32c-.06-.45.14-.63.57-.58.05.44-.16.61-.57.58z"/><path d="m78.58 172.86c-2.9-2.41-4.01-8.11-2.28-12.12.65-1.5 1.2-3.13 2.81-3.97-1.14 2.87-3.22 5.35-2.76 8.87.35 2.59 1.23 4.89 2.23 7.22z"/><path d="m79.07 156.82c1.17-2.43 2.77-4.42 5.4-5.39-1.77 1.82-3.35 3.84-5.4 5.39z"/><path d="m79.11 173.4c-.39 0-.63-.15-.58-.58.43-.04.63.14.58.58z"/><path d="m90.88 211.86c.03.41-.16.62-.58.58-.04-.43.16-.62.58-.58z"/><path d="m160.98 203.83c-1.23 1.83-3.01 1.04-4.51.75-1.58-.3-1.3-1.88-1.33-3.09-.03-1.24-.02-2.48-.01-3.71.02-3.46 1.72-4.63 5.1-3.62 1.24.37 1.3 1.3 1.29 2.29-.02 2.47-.06 4.95-.09 7.42 0 0 .05-.06.05-.06-.18.02-.37.04-.55.06-.03-2.21-.15-4.43-.05-6.64.08-1.82-.53-2.5-2.42-2.5-1.82 0-2.66.52-2.43 2.4.07.61-.01 1.24.01 1.86.16 5.35-1.03 5 4.94 4.84z"/><path d="m233.67 197.95c2.4-1.6 5.35-1.49 7.81.3 2.46 1.78 3.59 4.94 2.87 8.04-.64 2.79-3.3 5.22-6.11 5.6-4.08.54-7.58-1.82-8.6-5.82-.88-3.41.82-6.82 4.08-8.16-2.22 2.71-2.16 2.87 1.49 3.53-.33-1.3.22-2.85-1.54-3.49zm7.48 11.8c-.51-.28-.38-.46.09-.6.3-1.48-.7-2.21-1.75-2.77-.49-.26-1 .33-1.23.74-.47.85.29 1.46.68 2.08.75 1.19 1.5-.38 2.29-.1-.03.21-.06.42-.09.63-.05.02-.11.03-.16.05.06-.01.11-.02.17-.03zm-7.49 0c1.52.08 1.97-1.01 2.2-2.17.15-.75-.6-1.17-1.14-1.24-.9-.1-1.25.83-1.74 1.4-.81.95.81 1.2.67 1.99.01.23-.05.25-.17.05.06 0 .12-.02.18-.03zm3.24-6.97c-.93.12-1.6.63-1.52 1.7.08 1.02.72 1.58 1.78 1.5.95-.07 1.45-.69 1.46-1.56.03-1.02-.57-1.61-1.72-1.64zm-2.38.24c-.27-1.09-1.37-1.37-2.2-1.54-.9-.18-.93.96-1.02 1.57-.21 1.42 1.04 1.09 1.8 1.27.97.22 1.13-.58 1.42-1.3zm8.14 4.98c.66-.97 1.64-2.13.8-2.98-.58-.59-2.09-.19-3.16.42.56 1.13 1.38 1.84 2.36 2.56zm-3.69-6.02c1.3-.98 2.91-.84 2.91-2.16 0-.82-1.48-1.83-2.16-1.53-1.18.52-.55 1.97-.75 3.69zm-1.41-.42c.65-.02.62-1.02.78-1.83.18-.94-.37-1.19-1.2-1.2-1-.02-1.44.39-1.31 1.4.09.75-.06 1.65 1.73 1.63zm-.57 6.26c-.37 1.13-1.99 1.85-1.2 3.11.42.68 1.89.67 2.38.07 1.06-1.28-.7-2.01-1.18-3.18zm5.75-4.79c-.17-.63-.15-1.65-1.01-1.5-.83.14-2.06.33-2.06 1.64 0 .84.53 1.29 1.41 1.14.76-.14 1.68-.08 1.66-1.28zm-9.14 2.59c-.59-.95-1.58-.63-2.39-.73-1.04-.13-.84.7-.7 1.25.17.67.11 1.86 1.16 1.57.88-.25 1.5-1.17 1.93-2.09z"/><path d="m195.51 209.38c-2.8-3.32-2.8-6.64-.01-9.97.11.1.23.21.34.31.71 1.34 1.95 1.62 3.4 1.93-.22-1.34-.39-2.41-.6-3.65-.9.48-1.59.84-2.28 1.21-.11-.12-.22-.24-.32-.35 3.09-2.61 6.06-2.76 9.41-.49-.11.12-.22.24-.33.36-3.9-1.41-1.05 2.08-2.1 2.78 1.24-.38 2.6-.43 3.21-1.78.12-.11.24-.21.36-.32 2.95 3.69 2.65 7.97-.74 10.33-.24.01-.26-.05-.06-.18.02.06.03.13.05.19-2.45 2.99-6.49 3.07-9.79.19.11-.12.22-.25.33-.37v-.17c-.12-.12-.25-.24-.37-.36l-.12-.01c-.12.11-.25.23-.38.35zm7.13-4.87c0-1.03-.47-1.68-1.55-1.71-1.06-.02-1.63.55-1.65 1.61-.02.94.49 1.5 1.41 1.57 1.03.09 1.66-.41 1.79-1.47zm-1.64 3.42c-.46 1.07-2.08 1.84-1 3.11.46.54 1.76.54 2.18-.03.93-1.3-.55-2.06-1.18-3.08zm5.83-4.83c-.29-.59-.24-1.68-1.05-1.58-.84.1-2.03.34-2.06 1.64-.02.85.47 1.31 1.37 1.15.76-.13 1.67-.06 1.74-1.21zm-10.43-1.7c-.79.13-.95.87-1.1 1.5-.28 1.2.69 1.24 1.46 1.39.93.18 1.62-.09 1.61-1.17-.02-1.19-1.18-1.15-1.97-1.72zm1.4 3.8c-1.36-.09-2.7-.94-3.37-.01-.47.65.2 1.97 1.01 2.78.88-.7 1.78-1.36 2.36-2.77zm8.87 2.83c.82-1 .97-2.01 1.15-3.3-1.25.24-2.39.02-3.43.71.45 1.14 1.3 1.77 2.28 2.59zm-4.39-8.35c.27-1.22-.57-1.14-1.27-1.15-.74-.02-1.55 0-1.21 1.11.23.74-.19 1.94 1.25 1.93s.91-1.25 1.23-1.89zm-2.37 8.04c-.04-.89-.75-1.51-1.28-1.39-.79.18-1.61.92-1.74 1.78-.13.9.82 1.43 1.53 1.45 1.08.02 1.07-1.18 1.49-1.84zm3.48-1.52c-.53.45-1.43.7-1.16 1.55.24.74.37 1.88 1.49 1.81.65-.04 1.47-.57 1.45-1.28-.03-1.01-.98-1.53-1.78-2.08z"/><path d="m225.3 200.5c1.48 2.59 2.04 5.15-.18 7.65-.13-2.73-3.17-2.21-3.63-1.88-1.56 1.11-.37 2.81-.05 4.26 1.79-.12 2.33-1.91 3.73-2.43.18 1.03-.91 1.4-1.15 2.21l.06-.05c-.2.2-.4.4-.59.6l.05-.06c-3.05 1.55-6.09 1.5-9.14 0l.05.06c-.2-.2-.4-.4-.59-.6l.06.05c-2.42-3.01-3.65-6.18-1.31-9.82.13.11.26.22.38.32-.03.55-.47 1.33.56 1.37 1.31.05 2.53.76 3.87.47.13.11.25.22.38.33-.88.97-.33 2.03-.17 3.06-.35.01-.74-.08-1.04.05-1.18.54-3.42-.23-3.5 1.23-.09 1.56 1.54 2.79 3.32 3.2.49-.66.5-1.46.64-2.24.14-.77.35-1.52.53-2.29 3.06-.06 3.39-.45 2.54-3.01.12-.11.24-.22.35-.33 1.29-.15 2.59-.3 3.88-.45 1.03-.12.61-.83.56-1.38.14-.12.26-.22.39-.32zm-5.12 8.22c-.1-.52.05-1.56-1.29-1.51-1.14.03-1.1.89-1.21 1.67-.14 1.03.33 1.42 1.33 1.4.86-.03 1.34-.32 1.17-1.56zm-5.94-5.61c-1.03-.23-1.21.48-1.22 1.2-.01.67 0 1.57 1.05 1.33.73-.17 1.88.18 1.95-1.18.09-1.39-1.06-1.07-1.78-1.35zm9.33.02c-.67.26-1.68-.03-1.7 1.22-.02 1.43 1.13 1.12 1.89 1.28 1.08.22 1.11-.65 1.1-1.35-.01-.77-.26-1.45-1.29-1.15z"/><path d="m212.6 200.48c3.36-5 9.41-4.99 12.7.02-.13.1-.25.21-.38.31-1-.96-1.9-2.73-3.2-2.42-1.26.3-.63 2.29-1.05 3.48-.09.25-.12.51-.19.77-.12.11-.24.22-.35.33-.78-.26-1.55-.25-2.33 0-.13-.11-.25-.22-.38-.33-.66-1.4.26-3.67-1.25-4.24-1.14-.44-2.19 1.44-3.19 2.41-.13-.12-.25-.23-.38-.33zm6.75 1.06c.93-.08.8-1.07.88-1.91.1-1.01-.57-1.08-1.33-1.11-1.1-.05-1.32.56-1.2 1.49.1.81.19 1.6 1.65 1.53z"/><path d="m224.01 210.3c1.77 0 3.54.05 5.31 0 1.81-.05 2.23.91 2.21 2.51-.02 1.5-.47 2.4-2.13 2.29-.53-.03-1.06-.01-1.59-.01-4.33 0-4.33 0-4.28-4.31 0 0-.05.06-.05.06.2-.2.4-.4.59-.6 0 .01-.06.06-.06.06zm3.5.83v-.01c-.44 0-.88.03-1.32-.01-1.26-.11-2.02.22-1.97 1.71.04 1.32.73 1.64 1.87 1.6s2.29-.01 3.43-.04c1.2-.02 1.03-.96 1.1-1.72.08-.77-.05-1.45-1-1.52-.7-.05-1.41-.01-2.11-.01z"/><path d="m214.39 210.78c-.3 1.39.84 3.44-.95 4.06-1.96.68-4.25.59-6.28-.01-1.23-.37-.72-1.84-.75-2.85-.03-1.07.57-1.64 1.64-1.65 1.95-.02 3.9-.02 5.85-.02l-.06-.05c.03.36.25.54.59.6zm-4.17.29c-.14 0-.58.02-1.02 0-1.17-.05-2.14.07-2.12 1.62.01 1.44.79 1.79 2.04 1.72 1.06-.06 2.12-.03 3.18-.03.75 0 1.17-.36 1.18-1.11.01-.69.3-1.52-.37-1.98-.76-.52-1.71-.15-2.89-.22z"/><path d="m196.06 209.93c-.18-.18-.36-.37-.54-.55.13-.12.26-.24.38-.36l.12.01c.12.12.25.24.37.36v.17c-.11.12-.22.24-.33.37z"/><path d="m206.04 198.86c.18.18.37.36.55.53-.12.11-.24.21-.36.32-.18-.17-.35-.35-.53-.52.12-.11.23-.22.34-.33z"/><path d="m195.5 199.4c.18-.18.36-.37.54-.55.11.12.22.23.32.35-.18.17-.35.34-.53.51-.1-.1-.22-.2-.33-.31z"/><path d="m205.46 198.36c.2.17.39.33.59.5-.11.11-.23.22-.34.33-.19-.16-.38-.32-.57-.47.1-.12.21-.24.32-.36z"/><path d="m219.12 191.51c-7.74 0-15.48-.07-23.21.04-2.28.03-3.17-.56-3.1-2.98.19-6.14-.65-5.43 5.41-5.44 14.68-.04 29.35-.01 44.03-.01 3.48 0 3.48.01 3.51 3.63.04 4.77.04 4.75-4.76 4.75-7.29-.01-14.59 0-21.88 0 0-.01 0 0 0 .01zm15.57-2.13c.56-.39.83-1.19 1.7-1.11 2.77.26 5.57-.26 8.47.34-.22-1.48.65-3.12-.76-4.75-.63 4.83.18 3.87-4.44 4.06-.62.03-1.25-.07-1.86 0-1.91.24-2.88-.39-2.6-2.48.19-1.45-.28-1.91-1.52-.82-8.82.04-17.63.1-26.45.12-1.72 0-3.08-.05-3.1 2.43-.01 2.43 1.07 2.73 3.08 2.72 8.82-.05 17.64.01 26.45.03.34.2.57.78 1.05.53.56-.29.12-.71-.02-1.07zm-35.93-5.42c-5.64.07-5.64.07-5.18 4.99.01.09.01.18.01.27-.07 1.06.54 1.41 1.48 1.41 2.49 0 4.99.02 7.48 0 .5 0 1.31.02 1.08-.72-.58-1.92.3-3.96-.32-5.62-.2-.6-2.96-.25-4.55-.33zm40.86 3.49c.96-.94 3.26.91 3.36-1.28.12-2.48-2.27-1.31-3.48-1.31-1.22 0-3.59-1.13-3.48 1.32.09 2.16 2.33.49 3.6 1.27zm.22 2.6c.16-.1.57-.22.63-.44.12-.41-.28-.52-.62-.56-.35-.04-.69 0-.78.4-.12.5.29.49.77.6zm3.1.07c.3-.27.86-.14.67-.65-.08-.21-.5-.36-.79-.41-.36-.06-.74.14-.62.54.06.22.47.34.74.52zm-6.27-.07c.42-.15.9-.04.78-.57-.09-.38-.43-.47-.79-.42-.33.04-.77.09-.64.53.06.22.47.34.65.46zm7.88.17.12.08.02-.14z"/><path d="m240.11 169.68c.37 1.79 1.77.77 2.63.82 2.26.14 2.88.93 1.63 2.91.16-2.75-1.79-2.14-3.37-2.09-.49.02-.81.28-.82.81-.02.59.2 1.05.85 1.09 1.13.07 2.27.09 3.4.14-.82 1.04-1.96.51-2.95.55-1.13.04-2.08 0-2.26 1.52-.14 1.16-1.18 1.13-2.1 1.13-11.66 0-23.32-.02-34.98.02-1.77.01-2.31-.7-2.29-2.39.07-5.69.07-11.39-.01-17.08-.02-1.72.6-2.39 2.32-2.38 12.19.12 24.37-.25 36.56.18 1.47.05 2.94-.25 4.42-.36 1.19-.08 1.81.42 1.81 1.7 0 1.3-.66 1.72-1.84 1.68-.89-.03-1.78.03-2.67-.01-.88-.04-1.05.46-1 1.18.06.86.6.59 1.13.55.88-.07 1.78-.04 2.67-.03 1.21.01 1.74.61 1.72 1.84s-.61 1.8-1.79 1.81c-1.06.01-2.13 0-3.28 0 1.56 1.13 4.32-.98 4.91 1.64.33 1.48.91 3.64-.38 4.81-1.08.98-2.92 1.03-4.35-.1 1.06-.05 2.13-.06 3.18-.15.59-.05.95-.42.95-1.06 0-.39-.16-.63-.52-.82-1.63-.84-3.39.18-3.57 2.09zm-20.65 6.13c5.52 0 11.04-.09 16.55.05 2.06.05 2.6-.65 2.55-2.59-.11-5.07-.12-10.15-.02-15.22.04-1.84-.52-2.47-2.41-2.46-11.12.07-22.25.07-33.37.01-1.77-.01-2.29.6-2.26 2.31.09 5.16.11 10.32-.01 15.48-.04 1.87.54 2.48 2.41 2.45 5.53-.09 11.05-.03 16.56-.03zm22.89-20.6c-.73.27-2.1-.6-2.16 1.05-.04 1.23 1.02 1.03 1.74.97.83-.07 2.17.58 2.23-1.01.06-1.23-1.02-.89-1.81-1.01zm-.34 11.11c.79-.2 2.14.51 2.16-1.09.01-1.25-1.11-.93-1.79-.87-.81.06-2.17-.64-2.19 1.01-.01 1.24 1.08.82 1.82.95zm.13-3.85c.82-.1 1.99.24 2-1.07.01-1.23-1.13-.87-1.81-.85-.76.02-1.99-.54-2.1.79-.13 1.37 1.12.98 1.91 1.13z"/><path d="m226.15 179.27c-6.34 0-12.68.01-19.02-.02-.89 0-2.26.34-2.2-1.16.05-1.23 1.28-.98 2.13-.98 8.11-.01 16.22-.01 24.34 0 .87 0 2.05-.16 2.07 1.06.02 1.25-1.16 1.1-2.02 1.08-1.78-.03-3.55.24-5.3.02zm5.99-1.13c-1.49-.25-3-.61-4.43.11 1.49.43 2.98.49 4.43-.11zm-11.38.11c1.49.36 2.98.56 4.4-.05-1.48-.49-2.95-.57-4.4.05zm-3.05-.12c-1.48-.18-2.98-.77-4.8.26 1.89.35 3.35.31 4.8-.26zm-7-.11c-1.47 0-2.94 0-4.41 0 1.49.72 2.97.69 4.41 0z"/><path d="m198.94 164.82c0 1.74.15 3.51-.04 5.23-.25 2.33-2.19 1.09-3.38 1.32-1.14.22-2.37-.16-1.95-1.63.57-2.01.1-3.96.08-5.93-.01-2.01.64-2.78 2.77-2.83 2.21-.05 2.87.8 2.67 2.79-.04.35-.01.71-.01 1.06-.05-.01-.1-.01-.14-.01zm-.62-.06c-.01-1.58.51-3.08-1.88-3.07-1.97.01-1.89 1.13-1.78 2.38.1 1.23-.71 2.94 1.74 2.99 2.06.06 2.02-1.14 1.92-2.3zm-1.96 6.07c.49-.48 1.85.56 1.86-.99.01-1.41-1.21-1.01-1.97-1.02-.77-.01-2-.37-2.03.98-.02 1.45 1.27.73 2.14 1.03z"/><path d="m196.35 175.47c-1.27-.2-2.87.26-2.85-1.9.02-2.01 1.39-1.96 2.77-1.97 1.43-.01 2.7.11 2.68 2.07-.02 1.98-1.46 1.62-2.6 1.8zm.16-.89c.52-.34 1.76.3 1.67-.99-.1-1.32-1.32-.83-2.09-.87-.72-.03-1.87-.21-1.79.93.09 1.32 1.37.61 2.21.93z"/><path d="m198.95 156.89c-.07 1.59-.85 2.56-2.42 2.59-1.56.02-2.46-.92-2.47-2.48-.01-1.43.81-2.33 2.26-2.4 1.57-.08 2.45.76 2.63 2.29zm-.71.01c-.24-.92-.77-1.66-1.79-1.6-1.11.07-1.81.83-1.66 1.96.13.95.86 1.62 1.86 1.5.95-.13 1.54-.81 1.59-1.86z"/><path d="m196.18 179.28c-1.19-.08-2.63.36-2.67-1.65-.04-2.26 1.62-1.66 2.8-1.68 1.11-.01 2.63-.53 2.64 1.56.02 2.22-1.58 1.63-2.77 1.77zm.11-2.73c-.73.24-2-.45-2.03.96-.03 1.31 1.13 1.09 1.95 1.06.8-.03 1.97.3 2.01-1.01.05-1.45-1.21-.79-1.93-1.01z"/><path d="m242.34 179.26c-1.59.02-2.99.23-2.9-1.88.09-2.07 1.58-1.52 2.68-1.51 1.2.01 2.84-.51 2.81 1.7-.02 2.16-1.62 1.59-2.59 1.69zm-.14-2.74c-.55.42-1.99-.59-1.99 1.1 0 1.19 1.04.96 1.77.95.89 0 2.15.35 2.18-1.11.03-1.24-1.11-.73-1.96-.94z"/><path d="m234.76 189.43c-.36.22-.58.71-1.12.55.47-1.8.33-3.6 0-5.41 2.05 1.24.64 3.27 1.12 4.86z"/></svg>