<svg enable-background="new 0 0 430 266" viewBox="0 0 430 266" xmlns="http://www.w3.org/2000/svg"><text font-family="'MyriadPro-Regular'" font-size="18" transform="translate(36.7653 -23)">Open tailgate door (Vans, SUVs and Hatchbacks)</text><path d="m198.31 237.54c-33.31 0-67.66-.82-95.79-3.27l-.16-.01-.12-.11c-.06-.05-1.49-1.33-1.34-3.05.1-1.11.82-2.1 2.14-2.96l-.58-37.78 2.2-10.24c-.2-2.83-3.31-48.71 8.56-63.04 1-2.86 16.35-46.34 23.87-52.89 7.08-6.17 125.79-6.72 153.32-2.19 5.26.87 6.36 1.69 6.72 2.32 3.92 6.71 20.52 46.86 21.65 53.21 1.11 1.52 11.79 17.49 8.98 60.4l1.36 13.16-2.31 37.09c.63.24 1.8.85 2.18 2.04.35 1.13-.1 2.43-1.34 3.89l-.14.16-.21.01c-.94.04-62.9 3.26-128.99 3.26zm-95.53-4.25c82.36 7.15 217.94.32 224.24-.01.9-1.1 1.24-2.03 1.01-2.77-.34-1.09-1.86-1.51-1.87-1.51l-.4-.11.02-.41 2.34-37.39-1.36-13.16c2.87-43.91-8.74-59.76-8.86-59.92l-.08-.1-.02-.12c-.81-5.14-17.33-45.74-21.55-52.98-.16-.28-1.08-1.02-6.02-1.84-30.72-5.05-146.16-3.56-152.5 1.96-7.41 6.46-23.45 52.1-23.61 52.56l-.09.16c-11.8 14.09-8.42 61.99-8.39 62.47v.07l-.01.07-2.19 10.2.59 38.23-.25.15c-1.19.72-1.83 1.5-1.9 2.34-.08.99.62 1.82.9 2.11z"/><path d="m268.07 215.19h-53.08l-60.26-1.17c-.29.04-9.04 1.12-15.75-4.68-4.74-4.09-7.2-10.54-7.33-19.18-.39-26 .96-72.77.97-73.24.15-1.92 4.02-46.42 28.66-50.13 24.29-3.66 53.43-3.32 53.72-3.32l42.56 1.56c.06-.01 13.35-1.35 24.8 8.19 9.69 8.07 15.26 21.33 16.57 39.4 3.58 49.5.2 76.82 0 78.32.09.86.75 8.74-5.11 15.37-5.2 5.9-13.87 8.88-25.75 8.88zm-53.07-1h53.06c11.58 0 19.99-2.87 25.01-8.53 5.78-6.52 4.88-14.58 4.87-14.66l-.01-.06.01-.06c.04-.27 3.65-27.61 0-78.17-1.29-17.79-6.74-30.81-16.21-38.7-11.13-9.27-23.99-7.97-24.12-7.96l-42.62-1.55c-.28-.01-29.33-.35-53.55 3.3-23.87 3.6-27.77 48.74-27.81 49.2-.01.44-1.36 47.19-.97 73.17.12 8.34 2.47 14.54 6.98 18.44 6.37 5.51 14.95 4.46 15.04 4.44z"/><path d="m265.73 211.81h-50.69l-57.56-1.12c-.28.04-8.64 1.07-15.05-4.47-4.53-3.91-6.89-10.08-7.01-18.33-.37-24.83.92-69.5.93-69.95.15-1.83 3.84-44.35 27.39-47.9 23.2-3.5 51.04-3.18 51.31-3.17l40.65 1.49c.05-.01 12.76-1.29 23.7 7.83 9.26 7.71 14.59 20.38 15.83 37.64 3.41 47.24.19 73.34 0 74.8.09.83.71 8.36-4.89 14.69-4.96 5.64-13.25 8.49-24.61 8.49zm-50.68-1h50.68c11.06 0 19.09-2.74 23.88-8.15 5.51-6.23 4.64-13.9 4.64-13.98l-.01-.06.01-.06c.04-.26 3.49-26.37 0-74.66-1.23-16.97-6.43-29.4-15.46-36.94-10.61-8.85-22.92-7.62-23.04-7.61l-40.71-1.49c-.27-.01-28.02-.33-51.14 3.16-22.77 3.43-26.51 46.54-26.54 46.97-.01.42-1.3 45.07-.93 69.88.12 7.95 2.36 13.87 6.66 17.59 6.07 5.25 14.27 4.25 14.35 4.24z"/><path d="m265.73 211.81h-50.69l-57.56-1.06c-.29.04-8.96 1.05-15.41-4.55-4.29-3.73-6.53-9.49-6.65-17.12-.37-23.57.92-65.96.93-66.39.15-1.74 3.84-42.11 27.4-45.49 23.21-3.32 51.03-3.01 51.31-3.01l40.65 1.41c.06-.01 13.29-1.27 24.38 7.99 8.84 7.38 13.94 19.22 15.15 35.19 3.41 44.78.2 69.54 0 71 .09.81.67 7.65-4.53 13.57-4.93 5.61-13.33 8.46-24.98 8.46zm-50.68-1h50.68c11.34 0 19.49-2.73 24.22-8.11 5.12-5.82 4.3-12.79 4.29-12.86l-.01-.07.01-.07c.04-.25 3.49-25.02 0-70.84-1.19-15.69-6.17-27.3-14.8-34.5-10.77-8.99-23.58-7.77-23.71-7.76l-40.71-1.41c-.27-.01-28.02-.31-51.14 3-22.78 3.26-26.5 44.14-26.54 44.55-.01.4-1.3 42.77-.93 66.31.11 7.33 2.23 12.83 6.3 16.37 6.11 5.31 14.62 4.33 14.71 4.32z"/><path d="m280.88 232.88c-.69 0-1.65-.34-2.34-1.59-.18-.32-.33-.57-.46-.78-.31-.5-.52-.84-.31-1.2.21-.38.63-.37 1.49-.37h.45c2.06 0 19.52-.53 19.7-.54.1.01 2.51-.09 4.57 1.63.51.42.69.84.53 1.24-.26.69-1.43.81-2.36.77l-20.75.78c-.15.03-.33.06-.52.06zm-1.99-2.94c.01.02.02.03.03.05.13.21.3.48.48.82.76 1.37 1.72 1.04 1.73 1.04l.15-.03 20.87-.78c.48.02 1.02-.04 1.3-.12-.03-.03-.07-.07-.13-.11-1.76-1.47-3.87-1.4-3.89-1.39-.73.02-17.66.54-19.74.54h-.45c-.11-.02-.24-.02-.35-.02z"/><path d="m148.64 232.88c-.2 0-.37-.03-.52-.07l-20.75-.78c-.93.04-2.1-.08-2.36-.77-.15-.4.03-.81.53-1.24 2.05-1.71 4.47-1.63 4.58-1.63.17.01 17.63.54 19.69.54h.45c.88 0 1.28-.01 1.49.37.2.37 0 .7-.31 1.2-.13.2-.28.46-.46.78-.69 1.26-1.65 1.6-2.34 1.6zm-21.26-1.84h.02l20.98.81c.1.03 1 .27 1.73-1.04.19-.33.35-.6.48-.82.01-.02.02-.03.03-.05-.11 0-.24 0-.36 0h-.45c-2.08 0-19.01-.51-19.73-.54-.02.01-2.15-.06-3.9 1.39-.05.04-.09.08-.13.11.27.08.81.14 1.3.12h.03z"/><path d="m134.27 213.05c-1.48 0-2.69-1.21-2.69-2.69s1.21-2.69 2.69-2.69 2.69 1.21 2.69 2.69-1.2 2.69-2.69 2.69zm0-4.38c-.93 0-1.69.76-1.69 1.69s.76 1.69 1.69 1.69 1.69-.76 1.69-1.69-.75-1.69-1.69-1.69z"/><path d="m129.03 178.03c-1.48 0-2.69-1.21-2.69-2.69s1.21-2.69 2.69-2.69 2.69 1.21 2.69 2.69-1.2 2.69-2.69 2.69zm0-4.38c-.93 0-1.69.76-1.69 1.69s.76 1.69 1.69 1.69 1.69-.76 1.69-1.69-.76-1.69-1.69-1.69z"/><path d="m128.7 160.35c-1.48 0-2.69-1.21-2.69-2.69s1.21-2.69 2.69-2.69 2.69 1.21 2.69 2.69-1.21 2.69-2.69 2.69zm0-4.38c-.93 0-1.69.76-1.69 1.69s.76 1.69 1.69 1.69 1.69-.76 1.69-1.69-.76-1.69-1.69-1.69z"/><path d="m212.07 222.26c-32.07 0-68.11-1.28-104.12-5.12l.11-.99c107.36 11.45 215.15.12 216.22 0l.11.99c-.72.07-48.68 5.12-112.32 5.12z"/><path d="m306.81 181.46c-.43 0-.85-.01-1.27-.02h-.12l-1.94-1.09h-3.94v-1h4.2l1.95 1.1c8.13.22 19.38-2.17 19.49-2.2l.21.98c-.1.02-10.45 2.23-18.58 2.23z"/><path d="m124.82 181.46c-8.13 0-18.48-2.21-18.59-2.24l.21-.98c.11.02 11.34 2.41 19.49 2.2l1.95-1.1h4.2v1h-3.94l-1.94 1.09h-.12c-.41.03-.83.03-1.26.03z"/><path d="m297.19 213.05c-1.48 0-2.69-1.21-2.69-2.69s1.21-2.69 2.69-2.69 2.69 1.21 2.69 2.69-1.21 2.69-2.69 2.69zm0-4.38c-.93 0-1.69.76-1.69 1.69s.76 1.69 1.69 1.69 1.69-.76 1.69-1.69-.76-1.69-1.69-1.69z"/><path d="m302.43 178.03c-1.48 0-2.69-1.21-2.69-2.69s1.21-2.69 2.69-2.69 2.69 1.21 2.69 2.69-1.21 2.69-2.69 2.69zm0-4.38c-.93 0-1.69.76-1.69 1.69s.76 1.69 1.69 1.69 1.69-.76 1.69-1.69-.76-1.69-1.69-1.69z"/><path d="m302.76 160.35c-1.48 0-2.69-1.21-2.69-2.69s1.21-2.69 2.69-2.69 2.69 1.21 2.69 2.69-1.2 2.69-2.69 2.69zm0-4.38c-.93 0-1.69.76-1.69 1.69s.76 1.69 1.69 1.69 1.69-.76 1.69-1.69-.76-1.69-1.69-1.69z"/><path d="m316.37 177.5h1v20.58h-1z" transform="matrix(.4573 -.8893 .8893 .4573 4.9667 383.7197)"/><path d="m104.2 187.18h15.9v1h-15.9z" transform="matrix(.8885 -.4589 .4589 .8885 -73.6176 72.3916)"/><path d="m116.92 202.49h1v18.87h-1z" transform="matrix(.0657 -.9978 .9978 .0657 -101.7649 315.1763)"/><path d="m304.05 212.05h17.36v1h-17.36z"/><path d="m306.95 169.03-.28-.96c.14-.04 14.24-4.17 17.25-8.5l.82.57c-3.21 4.62-17.19 8.71-17.79 8.89z"/><path d="m123.37 169.04c-.33-.02-8.12-.5-17.38-9.68l.7-.71c8.99 8.91 16.65 9.39 16.73 9.4z"/><path d="m123.61 155.5-.14-.02c-.62-.1-15.22-2.44-17.59-7.62-2.34-5.11 1.84-18.91 2.02-19.5l.12-.4 4.57.52 1.67-3.08h18.78l-.48 29.3h-7.01zm-14.87-26.45c-.67 2.32-3.92 14.08-1.95 18.39 2.04 4.45 15.22 6.78 16.7 7.03l1.97-.76h6.12l.44-27.3h-17.17l-1.71 3.15z"/><path d="m123.56 155.52-2.42-.9v-24.32l4.76-1.72.07 25.97zm-1.42-1.6 1.41.53 1.42-.58-.06-23.88-2.77 1z"/><path d="m122.14 134.92-15.71-1.24 2.15-5.68 13.56 2.21zm-14.3-2.13 13.3 1.05v-2.77l-11.91-1.94z"/><path d="m122.14 142.33-16.72-2.69 1.31-6.94 15.41 1.22zm-15.55-3.51 14.55 2.34v-6.31l-13.6-1.07z"/><path d="m106.59 148.83-.19-1.24c-.69-5.35.61-8.21.67-8.33l.91.42c-.01.03-1.24 2.75-.58 7.77l.19 1.23z"/><path d="m121.6 149.35c-4.89-.34-11.06-2.56-12.2-3.73-.51-.52-.6-1.03-.58-1.36.03-.72.56-1.19.62-1.24l.19-.17 12.13 2.93-.23.97-11.58-2.8c-.06.09-.12.22-.12.36-.01.19.09.4.3.61.82.84 6.47 3.08 11.55 3.43z"/><path d="m307.92 155.5-1.95-.79h-6.36l-1.13-29.3h18.8l1.67 3.08 4.57-.52.12.4c.18.58 4.36 14.38 2.02 19.5-2.37 5.18-16.97 7.52-17.59 7.62zm-7.36-1.8 5.69.04 1.78.72c1.49-.25 14.67-2.57 16.7-7.03 1.98-4.31-1.28-16.07-1.95-18.39l-4.41.5-1.71-3.15h-17.16z"/><path d="m307.97 155.52-2.41-.98.07-25.97 4.76 1.72v24.32zm-1.41-1.65 1.42.58 1.41-.53v-22.93l-2.77-1z"/><path d="m309.39 134.92v-4.71l13.56-2.21 2.15 5.68zm1-3.85v2.77l13.3-1.05-1.39-3.67z"/><path d="m309.39 142.33v-8.41l15.41-1.22 1.31 6.94zm1-7.49v6.31l14.55-2.34-.95-5.05z"/><path d="m309.92 149.35-.07-1c5.08-.35 10.73-2.59 11.55-3.43.21-.21.31-.42.3-.62-.01-.14-.06-.26-.12-.35l-11.58 2.8-.23-.97 12.13-2.93.19.17c.06.05.58.52.62 1.24.01.33-.07.84-.58 1.36-1.14 1.17-7.32 3.4-12.21 3.73z"/><path d="m215.27 86.03c-6.28 0-10.34-1.11-12.06-3.29-.62-.79-.78-1.55-.8-2.06h-45.78v-1h46.95l-.15.62c-.01.03-.18.88.6 1.85 1.06 1.31 3.87 2.88 11.24 2.88 7.42 0 10.35-1.58 11.5-2.91.84-.97.73-1.82.73-1.86l-.08-.57.58-.01h46.13v1h-45.63c-.05.5-.26 1.25-.92 2.04-1.87 2.2-6 3.31-12.31 3.31z"/><path d="m250.65 86.03c-21.76 0-24.2-2.21-24.24-3.15l1-.04c0-.1-.03-.14-.03-.14.06.1 1.75 2.34 23.27 2.34 18.72 0 22.2-2.61 22.83-3.73.27-.48.08-.81.06-.85l.83-.55c.21.3.44 1.03.01 1.84-1.49 2.8-9.69 4.28-23.73 4.28z"/><path d="m180.11 86.03c-14.05 0-22.26-1.48-23.75-4.29-.43-.81-.2-1.54.01-1.84l.83.56-.41-.28.42.27c-.02.04-.21.37.06.84.63 1.12 4.11 3.73 22.85 3.73 21.08 0 23.26-2.17 23.26-2.19l1 .04c-.04.96-2.48 3.16-24.27 3.16z"/><path d="m222.86 95.51h-14.97c-2.05 0-3.72-1.67-3.72-3.72v-.56c0-2.05 1.67-3.72 3.72-3.72h14.97c2.05 0 3.72 1.67 3.72 3.72v.56c0 2.05-1.67 3.72-3.72 3.72zm-14.97-7.01c-1.5 0-2.72 1.22-2.72 2.72v.56c0 1.5 1.22 2.72 2.72 2.72h14.97c1.5 0 2.72-1.22 2.72-2.72v-.56c0-1.5-1.22-2.72-2.72-2.72z"/><path d="m214.77 85.53h1v2.47h-1z"/><path d="m137.29 81.15-20.06-37.33c-.24-.18-.74-.62-.88-1.37-.15-.75.09-1.56.7-2.43-.25-.68-.79-2.48-.08-3.78.39-.72 1.09-1.16 2.06-1.32.8-.13 1.51.08 2.04.59 1.41 1.37 1.17 4.58 1.08 5.4l18.24 35.7zm-17.8-45.26c-.1 0-.2.01-.31.03-.66.1-1.09.37-1.33.81-.53.96-.02 2.62.22 3.17l.12.27-.18.23c-.54.7-.78 1.33-.68 1.84.1.53.52.79.54.8l.12.07.07.12 19.34 35.99 1.84-2.69-18.12-35.43.02-.15c.12-.98.23-3.74-.77-4.71-.24-.23-.53-.35-.88-.35z"/><path d="m143.44 74.36c-.64 0-1.25-.28-1.73-.83-.41-.47-.58-1.01-.51-1.56.17-1.21 1.44-2.07 1.58-2.16l4.47-3.93 3.15 3.57-.43.33c-1.96 1.5-4.15 3.21-4.63 3.65-.09.22-.34.44-.74.64-.39.19-.78.29-1.16.29zm3.73-7.08-3.78 3.31c-.34.23-1.11.86-1.2 1.51-.04.27.05.52.27.77.29.33.6.49.96.49.46-.02.82-.22.98-.35.2-.37 1.14-1.1 4.55-3.71z"/><path d="m149 69.36-2-2.27 9.75-7.75 5.35-.07zm-.55-2.14.69.78 9.98-7.68-2 .03z"/><path d="m161.69 60.3h-4.94c-.85 0-1.54-.69-1.54-1.54v-.18c0-.85.69-1.54 1.54-1.54h4.94c.85 0 1.54.69 1.54 1.54v.18c-.01.85-.7 1.54-1.54 1.54zm-4.94-2.26c-.29 0-.54.24-.54.54v.18c0 .29.24.54.54.54h4.94c.29 0 .54-.24.54-.54v-.18c0-.29-.24-.54-.54-.54z"/><path d="m138.51 82.79c-.96 0-1.6-.28-1.89-.82-.46-.86.22-1.94.3-2.06l.83.55c-.18.27-.39.79-.26 1.03.1.18.47.29 1.01.29 2.12 0 2.67-2.78 2.68-2.81l.65-3.36-2.99-.32.11-.99 4.08.43-.86 4.43c-.23 1.26-1.3 3.63-3.66 3.63z"/><path d="m123.99 56.36-18.35-21.75 8.31-6.65-.89-4.23h-1.8c-.1 0-2-.09-2.97-1.26-.46-.55-.63-1.24-.51-2.04.42-2.79 9.8-5.16 11.67-5.6.44-.08 42.13-7.68 95.56-7.02l-.01 1c-53.34-.65-94.93 6.92-95.34 7-4.37 1.04-10.66 3.22-10.89 4.78-.08.52.02.93.29 1.26.68.82 2.21.9 2.22.9h2.59l1.19 5.63-7.99 6.39 17.69 20.97z"/><path d="m215.4 28.41h-.79c-2.78 0-5.04-2.26-5.04-5.04v-5.84h10.88v5.84c-.01 2.78-2.27 5.04-5.05 5.04zm-4.84-9.88v4.84c0 2.23 1.81 4.04 4.04 4.04h.79c2.23 0 4.04-1.81 4.04-4.04v-4.84z"/><path d="m150.11 47.31c-5.26 0-7.44-1.83-10.64-4.91-1.15-1.11-1.59-2.16-1.32-3.12.5-1.74 3.13-2.34 3.43-2.41 20.62-5.53 72.91-5.23 73.42-5.23l-.01 1c-.53 0-52.66-.29-73.18 5.21-.67.14-2.42.72-2.7 1.71-.16.58.19 1.29 1.05 2.12 3.43 3.31 5.5 5.3 13.42 4.41 1.84-.21 4.01-.69 6.74-1.3 9.03-2.01 24.15-5.37 54.68-5.07l-.01 1c-30.45-.31-45.47 3.04-54.45 5.04-2.77.61-4.95 1.1-6.85 1.32-1.34.16-2.53.23-3.58.23z"/><path d="m145.19 56.86c-4.23 0-8.52-1.59-10.87-7.29-4.09-9.9-8.76-14.66-12.52-18.48l-.72-.73c-.95-.98-1.31-2-1.04-3.03.74-2.94 6.46-4.76 6.71-4.83 24.5-9 87.61-9.82 88.25-9.83l.01 1c-.63.01-63.57.83-87.94 9.78-1.53.48-5.55 2.14-6.06 4.13-.17.68.09 1.36.79 2.08l.72.73c3.82 3.89 8.57 8.73 12.73 18.8 4.07 9.84 14.33 6.4 19.27 4.74l.46-.15c.53-.18.99-.37 1.49-.58 4.03-1.68 9.56-3.99 58.54-3.99v1c-48.78 0-54.42 2.36-58.16 3.91-.52.22-1 .42-1.56.6l-.46.15c-2.25.76-5.92 1.99-9.64 1.99z"/><path d="m292.71 81.15-3.1-4.54.13-.26 18.11-35.43c-.09-.82-.33-4.02 1.08-5.4.53-.51 1.24-.71 2.04-.59.97.15 1.66.59 2.06 1.32.71 1.29.17 3.09-.08 3.78.61.86.85 1.68.7 2.43-.15.74-.64 1.19-.88 1.37zm-1.94-4.61 1.84 2.69 19.41-36.12.12-.07c.01-.01.44-.27.54-.8.09-.51-.14-1.14-.68-1.84l-.18-.23.12-.27c.24-.56.75-2.21.22-3.17-.24-.44-.68-.7-1.33-.81-.5-.08-.89.03-1.19.32-1 .97-.9 3.73-.77 4.71l.02.15z"/><path d="m286.56 74.36c-.38 0-.78-.1-1.17-.3-.4-.21-.65-.42-.75-.65-.49-.44-2.67-2.15-4.63-3.65l-.43-.33 3.15-3.57 4.53 3.97c.09.05 1.36.91 1.53 2.12.08.55-.1 1.09-.51 1.56-.47.57-1.07.85-1.72.85zm-.96-1.35c.17.13.55.35.97.35h.01c.36 0 .67-.16.96-.49.22-.25.31-.5.27-.77-.09-.64-.85-1.28-1.14-1.46l-3.83-3.36-1.78 2.02c3.4 2.62 4.34 3.34 4.54 3.71z"/><path d="m281 69.36-13.1-10.09 5.35.07.13.11 9.62 7.65zm-10.11-9.04 9.98 7.68.69-.78-8.66-6.88z"/><path d="m273.25 60.3h-4.94c-.85 0-1.54-.69-1.54-1.54v-.18c0-.85.69-1.54 1.54-1.54h4.94c.85 0 1.54.69 1.54 1.54v.18c0 .85-.69 1.54-1.54 1.54zm-4.94-2.26c-.3 0-.54.24-.54.54v.18c0 .29.24.54.54.54h4.94c.3 0 .54-.24.54-.54v-.18c0-.29-.24-.54-.54-.54z"/><path d="m291.49 82.79c-2.36 0-3.42-2.37-3.66-3.62l-.86-4.43 4.08-.43.11.99-2.99.32.65 3.36c.02.12.56 2.81 2.68 2.81.54 0 .91-.11 1.01-.29.14-.25-.1-.8-.25-1.03l.83-.55c.08.12.77 1.2.3 2.06-.31.53-.94.81-1.9.81z"/><path d="m306.01 56.36-.76-.64 17.69-20.97-7.99-6.39 1.19-5.63h2.61s1.52-.07 2.2-.9c.27-.33.37-.74.29-1.26-.23-1.56-6.52-3.73-10.92-4.78-.39-.07-41.97-7.64-95.32-7l-.01-1c53.42-.66 95.12 6.94 95.54 7.02 1.9.45 11.28 2.82 11.7 5.61.12.8-.05 1.49-.51 2.04-.97 1.17-2.87 1.25-2.95 1.26h-1.82l-.89 4.23 8.31 6.65z"/><path d="m279.89 47.31c-1.06 0-2.24-.07-3.59-.23-1.9-.22-4.08-.7-6.85-1.32-8.98-2-24-5.35-54.45-5.04l-.01-1c30.56-.3 45.66 3.06 54.68 5.07 2.74.61 4.9 1.09 6.74 1.3 7.91.9 9.99-1.1 13.42-4.41.86-.83 1.21-1.54 1.05-2.12-.28-.99-2.07-1.58-2.68-1.7-20.55-5.51-72.68-5.21-73.21-5.21l-.01-1c.51-.01 52.8-.3 73.45 5.24.27.06 2.91.66 3.4 2.4.27.96-.17 2.01-1.32 3.12-3.17 3.08-5.35 4.9-10.62 4.9z"/><path d="m284.81 56.86c-3.72 0-7.38-1.23-9.64-1.99l-.46-.15c-.55-.18-1.04-.39-1.56-.6-3.73-1.56-9.37-3.91-58.16-3.91v-1c48.98 0 54.51 2.31 58.54 3.99.49.21.96.4 1.49.58l.46.15c4.93 1.66 15.2 5.11 19.27-4.74 4.16-10.08 8.91-14.92 12.73-18.8l.72-.73c.7-.72.96-1.4.79-2.08-.5-2-4.53-3.65-6.03-4.12-24.39-8.95-87.33-9.78-87.96-9.79l.01-1c.63.01 63.75.84 88.27 9.84.22.07 5.94 1.88 6.68 4.83.26 1.03-.09 2.05-1.04 3.03l-.72.73c-3.76 3.83-8.43 8.59-12.52 18.48-2.35 5.69-6.65 7.28-10.87 7.28z"/><path d="m200.78 210.86h-30.43c-15.89 0-28.82-12.93-28.82-28.82v-42.81c0-9.99 8.13-18.12 18.12-18.12h23.02c9.99 0 18.12 8.13 18.12 18.12v71.63zm-41.13-88.74c-9.44 0-17.12 7.68-17.12 17.12v42.81c0 15.34 12.48 27.82 27.82 27.82h29.43v-70.63c0-9.44-7.68-17.12-17.12-17.12z"/><path d="m229.96 211.82v-83.48c0-3.98 3.24-7.22 7.22-7.22h44.82c3.98 0 7.22 3.24 7.22 7.22v71.23c0 3.93-1.72 6.82-5.42 9.09-2.86 1.76-6.24 2.71-9.79 2.74zm7.22-89.7c-3.43 0-6.22 2.79-6.22 6.22v82.47l43.04-.41c3.37-.03 6.57-.93 9.27-2.6 3.42-2.11 4.94-4.65 4.94-8.24v-71.23c0-3.43-2.79-6.22-6.22-6.22h-44.81z"/><path d="m230.96 211.81h-31.18v-77.01c0-7.54 6.14-13.68 13.68-13.68h3.82c7.54 0 13.68 6.14 13.68 13.68zm-30.18-1h29.18v-76.01c0-6.99-5.69-12.68-12.68-12.68h-3.82c-6.99 0-12.68 5.69-12.68 12.68z"/><path d="m224.72 122.12h-18.69c-2.28 0-4.13-1.85-4.13-4.13v-.63c0-2.28 1.85-4.13 4.13-4.13h18.69c2.27 0 4.13 1.85 4.13 4.13v.63c-.01 2.28-1.86 4.13-4.13 4.13zm-18.69-7.89c-1.72 0-3.13 1.4-3.13 3.13v.63c0 1.72 1.4 3.13 3.13 3.13h18.69c1.72 0 3.13-1.4 3.13-3.13v-.63c0-1.72-1.4-3.13-3.13-3.13z"/><path d="m188.76 122.12h-35.21c-2.28 0-4.13-1.85-4.13-4.13v-.63c0-2.28 1.85-4.13 4.13-4.13h35.21c2.28 0 4.13 1.85 4.13 4.13v.63c0 2.28-1.86 4.13-4.13 4.13zm-35.21-7.89c-1.72 0-3.13 1.4-3.13 3.13v.63c0 1.72 1.4 3.13 3.13 3.13h35.21c1.72 0 3.13-1.4 3.13-3.13v-.63c0-1.72-1.4-3.13-3.13-3.13z"/><path d="m277.19 122.12h-35.21c-2.28 0-4.13-1.85-4.13-4.13v-.63c0-2.28 1.85-4.13 4.13-4.13h35.21c2.28 0 4.13 1.85 4.13 4.13v.63c0 2.28-1.85 4.13-4.13 4.13zm-35.21-7.89c-1.72 0-3.13 1.4-3.13 3.13v.63c0 1.72 1.4 3.13 3.13 3.13h35.21c1.72 0 3.13-1.4 3.13-3.13v-.63c0-1.72-1.4-3.13-3.13-3.13z"/><path d="m309.86 258.16h-2.32c-7.58 0-13.75-6.17-13.75-13.75v-9.72h29.81v9.72c.01 7.58-6.16 13.75-13.74 13.75zm-15.07-22.47v8.72c0 7.03 5.72 12.75 12.75 12.75h2.32c7.03 0 12.75-5.72 12.75-12.75v-8.72z"/><path d="m299.28 255.09-.3-.95c3.97-1.26 2.74-14.04 1.93-18.86l.99-.17c.31 1.86 2.9 18.23-2.62 19.98z"/><path d="m301.65 256.71-.32-.95c3.99-1.37 2.75-15.26 1.94-20.49l.99-.15c.31 2.01 2.89 19.7-2.61 21.59z"/><path d="m305.28 257.85-.34-.94c4-1.45 2.76-16.12 1.95-21.65l.99-.15c.31 2.13 2.89 20.76-2.6 22.74z"/><path d="m308.87 258.13-.34-.94c4-1.46 2.76-16.32 1.95-21.92l.99-.14c.31 2.13 2.88 20.99-2.6 23z"/><path d="m312.99 257.85-.34-.94c4-1.45 2.76-16.12 1.95-21.65l.99-.15c.31 2.13 2.88 20.76-2.6 22.74z"/><path d="m316.71 256.29-.32-.95c3.98-1.34 2.75-14.94 1.94-20.07l.99-.16c.31 1.97 2.89 19.33-2.61 21.18z"/><path d="m123.27 258.25c-.29 0-.57-.01-.86-.03l-2.72-.17c-7.41-.46-13.07-6.88-12.61-14.3l.61-9.92 29.97 1.63-.7 10.03c-.51 7.2-6.56 12.75-13.69 12.76zm-14.64-23.37-.55 8.93c-.42 6.87 4.81 12.81 11.67 13.24l2.72.17c6.99.43 13-4.86 13.48-11.81l.63-9.02z"/><path d="m130.69 255.65c-5.42-2.08-1.7-18.39-1.26-20.24l.97.23c-1.14 4.8-3.25 17.57.65 19.07z"/><path d="m128.2 257.12c-5.38-2.22-1.6-19.83-1.15-21.83l.98.22c-1.17 5.21-3.34 19.08.56 20.69z"/><path d="m124.48 258.04c-5.35-2.32-1.54-20.84-1.09-22.94l.98.21c-1.18 5.5-3.39 20.13.51 21.81z"/><path d="m120.88 258.09c-5.33-2.34-1.54-21.06-1.09-23.18l.98.21c-1.18 5.56-3.38 20.36.51 22.06z"/><path d="m116.79 257.56c-5.32-2.31-1.57-20.78-1.13-22.88l.98.21c-1.16 5.48-3.33 20.07.55 21.75z"/><path d="m113.19 255.77c-5.34-2.17-1.69-19.34-1.26-21.29l.98.22c-1.13 5.07-3.2 18.58.66 20.15z"/></svg>