<svg enable-background="new 0 0 430 266" viewBox="0 0 430 266" xmlns="http://www.w3.org/2000/svg"><path d="m215.59 241.79c-1.36.55-1.67 2.02-2.58 2.95-.54.55-.61 1.58-1.63 1.65l.03.06c5.19-10.15 12.17-19.02 19.73-27.47 1.71-1.91 2.59-4.39 4.29-6.34.62-.71 1.01-2.02-.67-2.46-.26-.07-.56-.29-.7-.52-2.39-3.98-6.11-6.37-10.04-8.54-.71-.39-1.27-1.04-1.87-1.61-3.86-3.63-8.7-3.88-12.9-.5-5.84 4.71-10.71 10.39-15.75 15.9-6.3 6.89-12.41 13.96-18.6 20.95-.07-.07-.14-.13-.21-.2 4.55-6.4 9.58-12.41 14.6-18.43 1.26-1.51 1.23-2.07-.59-2.96-15.04-7.35-30.04-14.77-45.02-22.23-1.14-.57-1.89-.42-2.84.28-14.23 10.3-28.49 20.57-42.72 30.88-1.09.79-1.96 1.87-2.99 2.75-2.12 1.83-2.14 1.81-.03 3.49 4.8 3.8 8.96 8.28 13.33 12.53l-.04-.04c-.82.31-1.27-.35-1.75-.75-4.99-4.23-10.72-7.48-15.47-12.05-3.14-3.03-6.79-3.2-10.38-1.25l.03-.03c1.38-2.43 3.84-2.36 6.06-2.31 4.93.12 7.58-1.34 9.68-5.89 2-4.34 2.05-8.94 1.47-13.55-1.37-10.79-5.63-20.62-10.44-30.23-2.4-4.79-5.26-9.36-7.38-14.27-3.51-8.16-7.05-16.33-9.04-25.06-1.72-7.51 1.03-13.77 5.19-19.69 1.48-2.11 3.36-3.87 5.21-5.64.05-.05.13-.13.12-.19-.03-.21-.15-.24-.31-.1l.01.01c3.77-2.63 7.67-5.04 11.98-6.68 13.01-4.93 26.31-8.88 40.03-11.29 1.88-.33 3.89.11 5.84.12 4.45.03 8.91.01 13.36.13-6.38.32-12.81.24-19.12 1.04-12.13 1.52-23.57 5.72-34.98 9.94-6.23 2.3-12.07 5.18-16.79 9.98-4.12 4.18-6.95 9.07-8.18 14.86-.63 2.98-.21 5.86.45 8.74 2.65 11.43 7.47 21.92 13.38 32.02 6.01 10.27 10.54 21.22 12.84 32.97 1.04 5.3 1.11 10.61-.44 16.43 4.33-3.22 8.13-6.16 12.05-8.94 9.11-6.46 18.26-12.87 27.44-19.23 1.53-1.06 2.04-1.52.01-2.75-10.08-6.09-16.95-14.86-20.82-25.94-.68-1.94-1.22-2.16-2.81-.9-1.88 1.5-3.95 2.77-5.96 4.11-1.53 1.01-3.22 1.61-5.04 1.93-5.91 1.03-10.65-2.76-10.56-8.75.15-10.82 1.81-21.35 6.63-31.19.06-.12.04-.28.11-.94-1.38 1.3-2.51 2.3-3.58 3.37-4.71 4.72-8.86 9.89-12.62 15.39-.38.55-.49 1.52-1.52 1.42.01.01.05.06.05.06 9.77-18.47 24.08-32.05 43.36-40.28 1.25-.53 2.49-1.08 3.84-1.3l-.01.02c.19 0 .38 0 .57-.01l-.03-.09c.86.28 1.21-.47 1.69-.87 11.18-9.34 23.82-12.77 38.14-9.48.51.12 1.03.28 1.5-.13.41.6 1.05.83 1.7 1.05 8.02 2.69 14.57 7.5 20.04 13.88.54.62 1.18 1.16 1.77 1.74l-.04-.05c-.02.85.64 1.33 1.06 1.92 14.51 20.67 12.67 53.65-9.41 71.47-.87.7-1.76 1.37-2.98 2.32 1.43.57 2.57 1.05 3.72 1.48 6.78 2.54 13.57 5.07 20.34 7.63.73.27 1.35.52 2.14.19 4.86-2.02 9.32-.93 13.51 1.86 2.19 1.46 4.31 3.04 6.42 4.62 3.07 2.3 4.63 5.74 6.71 8.8 6.09-2.43 12.56-1.76 18.93-1.6 10.89.27 21.69 1.32 32.09 4.92 5.12 1.78 9.87 4.13 13.82 7.92.52.5.95 1.19 2 1.31.31-5.01 1.43-9.79 3.56-14.35 3.74-8 7.98-15.72 13.13-22.91l-.05-.07c.18 0 .36.01.54.01 0 0-.05.05-.05.05.16-.32.33-.64.49-.97l-.05.05c.28-.08.57-.16.85-.25-.03-.34-.07-.69-.1-1.03.31.01.61.03.92.04-.05-.01-.11-.02-.16-.03.07-.04.15-.09.22-.13-.02.05-.03.1-.05.15-.32 0-.64-.01-.95-.01.18.32.48.63.12 1.01-.29-.09-.57-.17-.85-.26l.04.04c1.67-3.2 4.33-5.55 7.03-7.77 4.12-3.39 8.43-6.53 13.48-8.46.47-.18.88-.53 1.32-.79.01.99-.84 1.2-1.47 1.52-15.2 7.71-23.76 21.27-31.08 35.76-2.79 5.52-3.39 11.84-4.58 17.9-.12.63-.13 1.39.54 1.85 3.31 2.31 4.2 5.93 5.22 9.5.24.84.51 1.67.6 2.58-1.21-1.79-1.89-3.83-3.21-5.55-6.19-8.06-14.55-12.72-24.04-15.74-10.39-3.3-20.99-4.91-31.89-4.54-3.24.11-6.49.09-9.74.14-4.58.08-7.78 2-10.34 6.05-2.84 4.5-6.46 8.52-9.61 12.86-2.3 3.16-4.3 6.54-6.93 9.45l.05.06c-.18 0-.36 0-.54 0l.07-.03c-.42.41-.91.78-.97 1.43zm-100.35-126.92c-.81-.04-1.41.4-2.04.83-5.78 3.94-9.77 9.3-12.41 15.71-3.41 8.28-4.65 16.98-5.05 25.85-.31 6.86 4.24 10.29 10.71 7.94 3.81-1.39 6.76-4.21 10.05-6.46.82-.56.56-1.48.13-2.02-.56-.7-1.05.15-1.46.47-3 2.32-6.18 4.29-9.77 5.59-3.03 1.1-5.15.2-6.27-2.84-.58-1.58-.76-3.24-.68-4.9.36-7.44 1.71-14.69 4.43-21.63 2.77-7.09 6.49-13.58 12.39-18.6-.03-.03-.06-.06-.09-.09.03.06.04.1.06.15zm13.65-6.65c-.78-.56-1.46-.04-2.11.27-4.49 2.09-8.52 4.84-11.99 8.39-8.47 8.67-12.54 19.37-14.35 31.11-.53 3.43-1.01 6.89-.41 10.36.59 3.39 2.29 4.16 5.49 2.97 3.45-1.29 6.44-3.27 9.27-5.54.51-.41 1.43-.72 1.26-1.45-.24-1.01-1.28-.5-1.95-.55-5.92-.44-9.8-3.66-10.77-9.18-.95-5.42.39-10.33 3.75-14.67 2.27-2.93 5.35-4.54 9.02-4.36 1.97.09 2.52-.73 3.15-2.27 2.3-5.62 5.24-10.85 9.66-15.12l-.13-.04zm-11.73 34.74c.16 11.13 2.81 20.84 8.56 29.6 15.24 23.22 46.81 27.44 66.44 4.62 15.07-17.53 15.99-44.26 2.69-63.16-15.28-21.71-43.63-24.81-62.62-6.62-10.24 9.8-14.56 22.29-15.07 35.56zm90.01 54.83c-7.85-2.94-15.63-5.81-23.37-8.78-1.25-.48-2.21-.39-3.38.24-8.27 4.43-17.08 5.75-26.33 4.41-.73-.11-1.46-.19-2.2-.29.34.64.72.87 1.12 1.07 11.51 5.67 23.01 11.34 34.52 17.01 4.6 2.26 4.55 2.2 7.95-1.46 3.79-4.08 7.7-8.04 11.69-12.2zm-103.4-57.22c-.24 7.52 4.11 12.41 10.61 12.4 1.15 0 1.62-.22 1.46-1.52-.97-7.95-.57-15.82 1.79-23.52.43-1.41-.17-1.73-1.42-1.7-3.45.08-6.33 1.38-8.47 4.08-2.48 3.1-3.76 6.68-3.97 10.26zm-23.03 91.76c-.35-.27-.74-.51-1.05-.82-9.78-9.86-19.49-19.79-29.33-29.59-11.71-11.66-23.31-23.45-35.76-34.34-.91-.79-1.82-1.57-2.96-2.06-5.39-2.33-7.03-5.69-5.68-11.39.96-4.06 3.19-7.48 5.42-10.88 12.33-18.78 26.2-36.38 41.51-52.8 26.33-28.26 56.56-51.17 92.23-66.53 2.93-1.26 6.1-2.02 8.78-3.88 0 0 .04.04.03.04-.73.17-1.48.27-2.18.52-11.62 4.11-22.88 9.05-33.63 15.06-44.73 25.06-80.92 59.2-108.35 102.55-2.98 4.7-6.13 9.35-7.34 14.96-1.43 6.64.76 12.26 6.13 14.53 2.36 1 4.33 2.41 6.22 4.03 3.32 2.85 6.63 5.72 9.88 8.65 18.42 16.66 36.26 33.94 54.28 51.02.48.47.8 1.42 1.8.93 0-.01 0 0 0 0zm151.6-119.57c.99.22 1.49-.59 2.1-1.08 4.69-3.67 9.4-7.33 14.03-11.08 10.01-8.08 9.2-21.44-1.66-28.13-1.88-1.16-3.79-2.27-5.69-3.4 37.27 1.05 74.49.92 111.7 1.65-18.43-1.49-36.87-2.82-55.32-3.95-15.66-.96-31.3-2.52-47.02-2.27-3.84.06-7.7.17-11.53.03-1.96-.07-4.64.06-5.28-2.14-.59-2.02 1.59-3.42 3.09-4.62 13.72-11.01 27.6-21.77 43.02-30.37l.05.02c-1.19.01-2.14.66-3.15 1.15-6.87 3.34-13.32 7.39-19.72 11.52-7.55 4.87-14.89 10.04-22.14 15.33-1.6 1.16-2.99 2.54-4 4.26-1.12 1.9-.95 3.81.34 6.08-5.81-1.56-11.13-2.93-16.57-3.77.97.46 1.96.79 2.97 1.07 5.74 1.6 11.44 3.34 17 5.47 5.69 2.18 10.97 5.03 15.26 9.45 1.75 1.8 3.36 3.82 3.44 6.45.21 6.34-1.63 11.84-6.71 16.07-4.81 4-9.45 8.2-14.17 12.32zm-178.65-14.44c.98-.76 2.19-.97 3.31-1.38 26.17-9.6 53.14-16.46 80.04-23.59 19.88-5.26 40.17-8.27 60.42-11.52 3.49-.56 6.59-1.93 9.41-4.12 3.52-2.72 7.12-5.35 10.81-7.83 14.52-9.79 29.58-18.7 44.59-27.71.78-.47 1.94-.65 1.96-1.93v.01c-.55.37-1.08.79-1.65 1.12-10.51 5.92-21.08 11.74-31.53 17.78-8.81 5.09-17.74 10.03-25.65 16.52-2.46 2.02-5.15 3.34-8.24 3.98-18.83 3.9-37.86 6.78-56.68 10.77-28.86 6.13-56.71 15.48-84.14 26.18-.95.37-2.35.28-2.62 1.75-.03-.01-.04-.03-.03-.03zm208.92-7.78c5.64-1.19 5.76-1.11 7.27 2.78.49 1.28.15 1.6-1.09 1.59-2.94-.04-5.86.13-9.34.73 2.62 0 4.68.22 6.68-.05 3.48-.48 5.92.69 7.41 3.86.03.07.04.14.07.22 0 0-.07-.05-.07-.05-2.82-5.91-4.26-12.18-5.16-18.63-.24-1.73.26-2.37 1.81-2.58.75-.1 1.49-.31 2.23-.33 1.84-.05 2.88 1.31 3.73 2.58.71 1.05.2 2.21-.88 2.92-.78.52-.25 1.03-.13 1.57.8 3.72 2.76 7 3.94 10.57.99 3-.2 5.32-3.25 6.03-3.46.8-7.05.66-10.58.77s-7.07.02-10.6.02c7.9 1.28 15.82.92 23.74.9 5.64-.01 11.27-.59 16.92.57 6.65 1.36 13.37 2.34 20.03 3.68 5.72 1.15 11.5 2.01 17.26 3-.49-.5-1.05-.68-1.62-.86-11.23-3.66-22.86-5.48-34.41-7.74-4.59-.9-9.07-1.28-13.67-.63-.95.13-1.92.15-3.15.23.69-1.28 1.49-2.28 1.38-3.53-.16-1.75.64-2.13 2.26-2 7.07.56 14.16.96 21.23 1.54 9.09.75 18.17 1.68 27.08 3.77l-.03.02c-.36-.97-1.32-.91-2.07-1.1-2.05-.52-4.11-.98-6.17-1.4-13.28-2.68-26.66-4.36-40.24-4.21-.83.01-1.91.43-2.42-.66-.64-1.33-1.18-2.71-1.8-4.16 1.81-.32 3.38-.11 4.95.04 10.53 1 20.96 2.68 31.25 5.13 5.49 1.31 10.93 2.84 16.4 4.28l-.04.04c-.09-.47-.52-.49-.85-.61-9.7-3.6-19.59-6.51-29.75-8.47-6.98-1.34-14.05-1.95-21.15-1.8-2.55.05-2.64-2.07-3.68-3.37-.98-1.23.5-1.47.97-2.05 1.58-1.93 1.27-3.79-.88-5.06-2.7-1.6-5.5-1.21-8.31-.42-1.14.32-1.44 1.15-1.33 2.28.24 2.4.29 4.83 1.12 7.13.57 1.58.31 2.31-1.54 2.42-1.19.07-2.58-.08-3.52 1.05zm-9.43 51.43c.63.03.94-.46 1.25-.85 2.43-3.07 5.29-5.78 7.45-9.08 2.03-3.08 5.03-5.22 8.04-7.15 2.84-1.82 11.39.27 13.72 2.9 1.4 1.58 1.24 4.56-.42 5.92-5.11 4.22-7.98 9.86-10.13 15.95l.03-.07c4.36-5.12 7.45-11.12 11.44-16.51 1.99-2.69 1.05-5.58-1.84-7.34-1.21-.73-2.64-1.12-3.87-1.84-4.64-2.71-8.21-2.53-12.15 1.12-3.04 2.81-6.04 5.7-8.59 8.99-.83 1.07-1.54 1.31-2.84.93-6.95-2.03-13.91-3.99-20.9-5.89-1.28-.35-1.8-.97-2.12-2.23-.96-3.72-1.91-7.45-3.52-10.97-3.85-8.4-2.51-13.77 4.83-19.33 2.75-2.08 5.55-4.11 8.32-6.17 0 0-.07-.08-.07-.08-4.23 2.19-8.28 4.67-11.95 7.71-3.61 2.99-5.19 6.92-4.87 11.64.17 2.53.98 4.85 1.8 7.21 2.31 6.72 4.34 13.59 4.88 20.65.29 3.9 2.05 5.51 5.14 6.68 2.99 1.13 6.18 1.36 9.27 2.06 6.3 1.43 12.61 2.85 18.92 4.27-7.01-2.35-14.12-4.31-21.26-6.19-2.7-.71-5.46-1.19-7.91-2.63-.99-.58-2.04-1.23-1.9-2.57.27-2.68-.3-5.26-.74-7.86-.23-1.35.01-1.8 1.46-1.38 6.82 1.96 13.64 3.88 20.48 5.77 1.29.36 1.26.85.62 1.87-.91 1.45-2.12 2.75-2.56 4.48zm87.47 59.82c-.01.29-.15.46-.46.44 0 .32-.15.47-.47.44.03.56-.31.81-.8.94-.23.03-.45.05-.68.08-.21.23-.42.46-.63.69.05.4.1.79.15 1.19-.29-.01-.58-.01-.87-.02.01.27.02.54.04.81-.42-.03-.84-.1-1.05.4.04.03.09.06.13.09-.04 0-.08 0-.13 0 .42-.03.8-.12 1.03-.53.5-.27.12-.49-.03-.74.3-.02.6-.03.9-.04-.05-.39-.1-.79-.16-1.18.36-.08.55-.32.61-.67.24-.02.48-.04.72-.06-.01-.54.31-.81.8-.93.01-.29.14-.46.45-.46 0-.29.15-.44.45-.45-.03-.57.35-.83.78-1.06.8-1.57 2.55-2.33 3.3-3.93-.26.13-.57.2-.77.39-10.88 9.91-19.47 21.49-25.47 34.96-.27.6-.68 1.2-.33 1.92 0 0-.07-.05-.06-.05 9.54-20.66 26.51-34.87 43.09-49.35 4.39-3.83 8.98-2.63 11.47 2.67 1.9 4.06 4.28 7.95 5.33 12.39-.05.1-.11.21-.16.31.05-.04.12-.08.13-.13.02-.06-.02-.14-.03-.21-.51-.14-.53-.96-1.21-.88 0 0 .04-.05.04-.04 3.67 12.16 5.77 24.66 8.15 37.11-.15-2.33-.38-4.66-.57-6.98-.7-8.54-3.25-16.73-4.69-25.13-1.08-6.27-3.63-11.98-6.46-17.54-2.61-5.12-7.12-6.05-12-3.04-1.82 1.12-3.31 2.6-4.85 4.05-4.88 4.6-9.81 9.14-14.73 13.7-.18.44-.43.8-.96.84zm-167.19-107.39c3.5-.95 6.81-2.37 10.02-4.04 6.3-3.28 5.84-3.03 11.1 1.11 3.19 2.51 5.81 5.63 8.35 8.8l-.04.05c-1.61-6.74-6.43-10.33-12.9-12.51 2.77-2.05 5.34-2.76 8.38-2.32 5.3.76 8.64 4.08 11.26 8.3 7.46 12.01 14.2 24.36 17.06 38.43-.68-6.74-2.61-13.14-5.19-19.36-3.36-8.1-7-16.05-12.51-22.99-4.86-6.13-10.81-7.69-18.59-4.69-3.44 1.32-6.74 3.03-10.05 4.67-2.47 1.23-4.83 2.67-6.85 4.6 0-.02-.04-.05-.04-.05zm127.65 103.33c-.59-.65-1.46-.72-2.22-.98-23.27-7.82-46.63-15.38-70.49-21.24-5.48-1.34-10.84-3.14-16.41-4.1l.03-.04c.36.71 1.12.68 1.73.87 24.16 7.82 48.39 15.42 73 21.72 4.81 1.23 9.49 2.93 14.41 3.71 0 .01-.05.06-.05.06zm-264.03-33.16c9.53.06 18.57 1.79 26.52 7.52 4.73 3.41 7.69 8.23 10.6 13.07 1.19 1.98.61 4.11-1.34 5.6-4.18 3.21-8.41 6.36-12.94 9.09-1.58.95-3.19.74-4.78.07-1.97-.84-3.6-2.18-5.11-3.67-7.57-7.47-15.37-14.7-23.33-21.75-1.7-1.51-3.59-2.74-5.41-4.08-.9-.66-1.97-1.45-1.76-2.71.23-1.4 1.67-1.38 2.72-1.6 4.89-1.01 9.82-1.6 14.83-1.54zm-.07.8c-4.92-.03-9.8.43-14.61 1.5-.77.17-1.89.08-2.03 1.07-.12.86.77 1.4 1.43 1.9 1.79 1.38 3.69 2.63 5.39 4.11 7.89 6.91 15.58 14.04 23.04 21.42 1.51 1.49 3.07 2.92 5.04 3.78 1.43.62 2.9.87 4.34.01 4.46-2.68 8.6-5.82 12.75-8.96 1.57-1.19 2.25-2.81 1.2-4.57-2.86-4.79-5.74-9.57-10.42-12.93-7.84-5.63-16.74-7.34-26.13-7.33zm30.04-59.08c.93-.29 1.88-.53 2.8-.87 33.51-12.28 67.39-23.37 102.05-31.95.75-.19 1.71-.11 2.05-1.1-.49.16-.97.36-1.48.48-26.7 6.17-52.99 13.73-78.77 23.04-9 3.25-18.04 6.39-26.83 10.2.06.06.12.13.18.2zm315.71-44.05c-.05-.22-.05-.47-.16-.64-3.54-5.13-3.22-10.39-.8-15.87 1.93-4.37 4.91-7.89 8.17-11.27 5.14-5.35 11.44-7.54 18.65-6.66 10.5 1.28 15.55 6.93 15.05 16.92-.16 3.19-.82 6.25-1.65 9.32-.54 2-1.45 3.93-1.39 6.08l-.06-.04c2.1-5.9 4.19-11.8 3.88-18.21-.26-5.19-2.13-9.53-6.82-12.27-5.87-3.42-12.16-4.33-18.5-1.98-10.22 3.79-16.72 11.39-19.7 21.72-1.34 4.64-.31 9.26 3.38 12.88-.01-.02-.05.02-.05.02zm10.15 70.47c-6.3 1.06-12.5 2.57-17.52 6.74-8.27 6.86-15.77 14.49-22.18 23.15-4.34 5.87-5.1 14.77-3.02 22.38-.29-5.52.28-10.45 1.28-15.34.69-3.37 1.94-6.41 4.25-9.09 5.39-6.23 11.41-11.83 17.19-17.68 4.85-4.9 10.72-7.67 17.33-9.17.89-.2 2.01-.02 2.63-1zm-370.36 23.39c-2.42-.09-5.56-.29-6.76-3.64-1.19-3.35 1.03-5.61 3.37-7.48 4.2-3.35 9.03-4.79 14.38-3.89 5.01.84 6.49 5.1 3.23 9.03-3.02 3.66-8.34 6-14.22 5.98zm8.36-14.29c-4.69.25-8.84 1.67-12.19 4.89-1.48 1.42-2.72 3.19-1.95 5.43.74 2.19 2.8 2.67 4.75 2.89 4.64.52 8.81-.94 12.5-3.66 2.09-1.54 4.14-3.51 3.24-6.4-.96-3.01-3.9-2.88-6.35-3.15zm107.13-49.46c3.91-.77 7.81-1.53 11.72-2.31 15.41-3.07 30.1-8.59 45.02-13.33 2.11-.67 4.39-.93 6.24-2.31 0 0 .03.04.03.04-5.82 1.23-11.43 3.23-17.13 4.88-14.67 4.26-29.08 9.42-44.15 12.23-.6.12-1.42-.04-1.73.8zm237.75-27.12c-.13.71-.68.88-1.27 1.1-5.76 2.12-9.43 6.44-12.22 11.67l.11.09c2.42-3.16 4.83-6.31 8.09-8.71 5.76-4.25 12.87-2.79 16.38 3.47 4.26 7.58 3.11 15.74-3.17 22.67-.69.76-1.65 1.36-1.83 2.5 1.01-.43 1.57-1.38 2.28-2.12 6.82-7.17 8.09-15.75 3.59-23.86-2.07-3.73-5.23-5.74-9.48-6.03-.9-.07-1.83.05-2.48-.78zm-352.77 73.57c2.97-.48 5.92-1.13 8.91-1.4 7.09-.64 13.74-2.67 20.04-5.9 2.36-1.21 4.53-2.73 6.2-4.83 1.33-1.67 2.91-3.05 4.56-4.37 4.5-3.58 9.41-6.53 14.4-9.35.65-.37 1.7-.42 1.73-1.53-3.46 1.97-6.97 3.85-10.37 5.92-3.79 2.31-7.59 4.66-10.57 8.03-1.47 1.66-3.08 3.1-4.98 4.21-6.39 3.71-13.2 6.16-20.58 7.02-3.17.37-6.4.68-9.3 2.25 0 0-.04-.05-.04-.05zm379.13-106.15c-3.91 2.32-7.07 5.45-9.36 9.33-3 5.08-5.68 10.34-5.91 16.42-.2 5.22 2.34 9.76 6.2 11.13 3.42 1.22 6.9 1.16 10.37.13-2.02-.13-4.06.04-6.07-.16-6.08-.6-9.44-4.1-9.24-10.14.33-10.26 5.36-18.3 12.62-25.17.51-.48 1.45-.6 1.35-1.59-.01 0 .05.06.04.05zm25.7 150.69c-1.29-3.6-2.57-7.2-3.88-10.79-4.3-11.73-10.34-22.38-19.35-31.18-.81-.79-1.49-1.93-2.87-1.92 0 0 .04-.06.04-.06 2.52 2.39 4.97 4.85 7.03 7.66 7.58 10.29 12.86 21.78 17.48 33.62.37.95.45 2.1 1.51 2.67zm-163.09-16.22c1.05.13 1.12-.86 1.5-1.41 2.36-3.42 4.91-6.67 7.81-9.66 1.25-1.29 2.67-2.11 4.45-2.47 6.99-1.43 14.05-1.82 21.15-1.62 4.78.13 9.56.46 14.33.7-2-.34-4.01-.68-6.03-.86-9.7-.89-19.4-1.51-29.05.6-2.31.5-4.18 1.54-5.75 3.3-3.18 3.56-5.92 7.41-8.37 11.5.01-.02-.03-.07-.04-.08zm145.99-95.56c1.76 1.24 2.86 3.09 4.35 4.56 4.71 4.69 4.91 10.08 2.52 15.83-2.69 6.46-5.23 12.99-8.47 19.22-1 1.92-2.24 3.75-2.79 5.89 0 0-.02-.02-.02-.02 1.39-.85 1.32-2.82 2.78-3.61l-.07.06c.03-.4.08-.8.51-1l-.05.08c.09-.37.1-.79.51-1l-.06.09c2.76-5.66 5.53-11.31 7.82-17.21 3.65-9.37 2.32-15.37-4.74-21.94-.57-.53-1.17-1.51-2.29-.93-.01.01 0-.04 0-.02zm-29.28 53.05c-.62-1.1-1.81-.88-2.77-1.1-3.81-.87-7.74-1.33-11.32-2.92-2.74-1.21-5.5-1.56-8.36-1.01-10.58 2.04-16.51 9.97-22.46 17.87 0 0-.01-.01-.01-.01 2.48-1.98 4.3-4.58 6.47-6.85 4.16-4.35 8.78-8 14.72-9.62 2.73-.74 5.53-1.05 8.21.02 2.33.93 4.71 1.52 7.15 1.99 2.8.54 5.59 1.08 8.37 1.63zm40.97 20.59c.31-.99-.63-1.27-1.07-1.76-3.85-4.22-7.72-8.42-10.85-13.23-.99-1.53-1.76-3.12-2.06-4.95-.88-5.26.56-9.97 3.33-14.36 1.48-2.34 3.06-4.62 4.6-6.92l-.12-.11c-2.55 2.24-3.99 5.38-6.31 7.8l.06-.09c-.17.33-.34.66-.51 1l.05-.08c-.17.33-.34.67-.51 1 0 0 .07-.06.07-.06-4 8.49-2.02 15.77 4.36 22.25 3.06 3.11 5.98 6.37 8.96 9.56zm-198.91-10.36c-.26-.93-.56-1.86-.77-2.8-2.04-8.91-5.88-16.82-12.69-23.1-.82-.76-1.59-1.61-2.75-1.87l-.03.04c1.4.94 2.38 2.28 3.36 3.6 5.06 6.79 8.6 14.39 11.65 22.24.27.68.06 1.75 1.22 1.88zm31.97 85.49c.38.76 1.2.83 1.85 1.13 5.65 2.66 11.29 5.34 16.98 7.89 6.65 2.98 13.23 6.13 20.04 8.75l.14-.17c-8.31-4.42-16.81-8.44-25.47-12.11-4.49-1.9-8.86-4.11-13.58-5.44.01 0 .04-.05.04-.05zm57.7-42.79c-.15-.72-.77-.6-1.26-.69-4.6-.89-9.26-1.27-13.92-1.55-2.63-.16-5.27-.16-7.91-.12-2.71.04-5.42.19-8.13.35-2.53.15-5.06.37-7.59.57 12.98.12 25.95-.18 38.85 1.42zm-51.29-20.4c-6.72-1.68-13.44-3.35-20.16-5.05-.68-.17-.98-.12-1.3.67-.69 1.69-3.35 2.24-4.74 1.09-1.1-.91-.87-1.82.18-2.6.72-.53 1.56-.53 2.39-.37 7.4 1.43 14.85 2.62 21.98 5.18.61.22 1.36.26 1.63 1.04zm-22.51-4.57c-.91-.84-1.86-.94-2.88-.36-.41.23-.46.64-.03.86 1.01.49 2 .58 2.91-.5zm71.97 30.41c-.23-.62-.79-.59-1.3-.7-11.21-2.41-22.51-3.11-33.92-1.76-.52.06-1.09-.01-1.28.67.75-.08 1.49-.21 2.24-.24 11.5-.43 22.93.29 34.31 1.99zm44.61-76.42c-.26.15-.56.25-.77.45-7.91 7.49-13.61 16.62-19.14 25.88 0 0 .1.09.1.09.74-.94 1.5-1.87 2.22-2.83 5.89-7.83 11.02-16.22 17.73-23.43zm-35.75 27.27c-3.22-3.31-7.34-5.15-11.51-6.84-6.79-2.77-13.99-3.43-21.23-3.78h.01c.51.58 1.22.53 1.88.6 4.82.44 9.53 1.43 14.21 2.68 5.94 1.6 11.44 4.14 16.68 7.31zm23.48-31.83c-.56.5-1.15.97-1.66 1.51-7.34 7.69-11.43 16.91-12.93 27.36l-.03-.04c1-.4.75-1.41.93-2.14.72-2.85 1.57-5.64 2.68-8.36 2.72-6.68 6.65-12.6 11.18-18.16-.05-.06-.11-.11-.17-.17zm-76.13 5.76c11.14-1.29 22.2-.82 33.21 1.3 3.38.65 6.52 2.23 10 2.45 0 0-.04.06-.04.06-.54-.25-1.06-.54-1.62-.74-12.31-4.38-25-5.05-37.87-3.83-1.21.12-2.61-.28-3.65.78zm-41.86 59.43c2.08 1.61 4.69 1.77 7.07 2.53 6.73 2.16 13.49 4.21 20.39 5.78 0 0-.04.04-.04.04-.13-.56-.66-.57-1.05-.71-8.6-3.23-17.42-5.74-26.42-7.59zm-150.03 12.28c-1.17-2.32-2.87-4.24-4.67-6.07-7.71-7.86-17.25-11.36-28.05-11.8 4.18.42 8.3 1.28 12.31 2.65 8.44 2.9 14.94 8.34 20.15 15.45.09-.08.18-.16.26-.23zm188.46-26.8c-.1-1.04-1.02-.97-1.68-1.2-5.33-1.93-10.8-3.37-16.43-4.04-2.34-.28-4.59-1.52-7.04-.7 1.95-.29 3.62.75 5.41 1.19 6.56 1.62 13.31 2.52 19.74 4.75zm54.24-10.21c-1.61-1.75-3.89-2.42-5.88-3.54-5.83-3.26-12.01-5.71-18.42-7.6 1.85.98 3.77 1.81 5.67 2.68 6.21 2.83 12.31 5.91 18.67 8.41 0 .01-.04.05-.04.05zm-98.72 11.78c-.52-.06-.82.33-1.18.58-4.18 2.9-7.98 6.46-13.55 7.55 5.27 1.11 11.8-2.66 14.68-8.17zm31.24 5.88c-3.63-2.02-7.69-2.74-11.62-3.72-.12-.83 1.13-.86.81-1.78-1.42.79-2.94.72-4.52.48.42 1.21 1.16 1.61 2.18 1.94 4.31 1.39 8.86 1.7 13.17 3.05zm-40.9-12.49c1.1-.04 1.88.26 2.01 1.56.07.73.38 1.45.58 2.17.14-.94.13-1.85-.14-2.68-.45-1.41-.1-2.31 1.13-3.21 2.37-1.74 2.31-1.82 3.75.82.09-1.43-.77-2.6-.43-3.88 0 0 .04.04.04.04-1-.22-.97-1.47-1.82-1.82 0 0 .01-.01.01-.01.53 2.31-.11 3.64-2.56 4.8-1.77.83-1.13-1.58-2.18-1.79-.14-.03-.29-.01-.43-.01l-.04-.02c.72 1.35 2.08 2.68.12 4.11 0-.01-.04-.07-.04-.08zm184.21-72.21c-1.15 1.55-.55 2.71.91 3.52 3.18 1.76 6.6 1.95 10.07 1.17 1.11-.25 2.28-.88 1.87-2.79-.32 1.5-1.2 2.05-2.31 2.13-3.02.23-6.02-.07-8.91-.99-1.46-.46-2.29-1.44-1.59-3.11zm-172.56 74.4c-.42-2.7.58-5 2.59-5.18 4.69-.42 6.28-.11 7.89 5.46-.04-4.88-3.53-7.55-8.12-6.21-2.37.69-3.57 3.67-2.38 5.93zm29.28 10.27c1.56 2.11 1.49 2.39-.8 3.98-.92.64-1.78 1.39-2.71 2-2.41 1.59-4.99 2.43-7.88 1.46h.01c.14.52.54.61 1.02.71 3.49.71 9.8-1.98 11.69-5.11.92-1.52.36-2.56-1.34-3.01-.02 0 .01-.03.01-.03zm-2.47 8.1c.92.03 1.47-.65 2.17-1.08 3.02-1.87 5.26-4.68 8.12-6.73h-.02c-.91-.53-1.36.33-1.96.68-3.23 1.87-5.55 4.8-8.36 7.15zm74.8-48.63c.3.33.64.63.9.99 1.75 2.51 1.49 3.17-1.36 4.12-2.38.79-4.87 1.06-7.27 1.74 2.74.07 5.4-.37 8.01-1.14 1.22-.36 2.44-.92 2.19-2.41-.24-1.39-.45-3.05-2.42-3.25zm-127.59-8.27c2.51-1.22 5.4-1.85 7.18-4.7-3.18.74-5.84 1.73-7.13 4.76-.01-.01-.05-.06-.05-.06zm62.1 7.98c-.38-1.06-.75-2.12-1.15-3.18-1.26-3.4-.51-5.34 2.74-7.02.45-.23 1.04-.27 1.11-.94 0 0 .01.02 0 .01-.88.41-1.79.76-2.62 1.25-2.25 1.31-3.21 3.26-2.55 5.44.5 1.64 1.08 3.27 2.34 4.54zm-167.24 45.36c2.23 4.25 4.45 8.49 6.68 12.74l-.07.05c-1.13-4.82-3.62-8.93-6.66-12.76zm122.33 1.82c3.14-2.1 5.76-4.75 8.13-7.66 0 0 .04.04.04.05-3.4 1.81-6.2 4.26-8.17 7.61-.01-.01 0 0 0 0zm185.82-91.11c-.07-1.3 1.36-2.44.23-4.02-.86 1.58-1 3.15-1.06 4.63-.06 1.52 1.79 2.24 3.57 1.5-.9-.74-2.64-.19-2.74-2.11zm-282.06 100.46c-1.42 0-1.42 1.18-1.53 2.06-.31 2.45 2.64 5.22 5.4 5.17-4.34-1.8-5.72-4.37-3.87-7.23zm271.75-105.89c1.26 2.01 3.65 2.43 6.28 1.05-2.13-.21-4.29 0-6.09-1.34-.06.1-.21.25-.19.29zm-141.44 57.48c-1.62-2.44-3.23-4.88-4.85-7.31-.22-.33-.48-.57-.92-.42 1.76 2.71 2.91 5.84 5.55 7.94.07-.08.15-.14.22-.21zm-143.96 43.3c.35.02.8.2 1.04.05 2.37-1.47 4.9-2.73 6.91-4.73 0 0-.09-.1-.09-.1-2.94 1.07-5.09 3.44-7.86 4.78zm272.81-105.46c2.21.42 4-.7 6.5-1.47-2.91-.7-4.62.7-6.5 1.47zm-137.21 100.23c-2.33.13-2.6-2.51-4.31-3.2-.05.06-.11.11-.16.17.55.79 1.01 1.66 1.66 2.36.73.79 1.56 1.7 2.76.63zm-23.27-34.09c-.86-.52-1.44.17-2 .56-1.41.97-2.76 2.04-4.14 3.07 0 0-.03-.07-.03-.08.95.33 1.5-.43 2.15-.84 1.37-.86 2.69-1.81 4.02-2.71.01-.01 0 0 0 0zm50.19-15.6c1.87-1.29 3.51-2.81 4.89-4.62l.04.04c-2.21.88-3.64 2.66-5.09 4.42zm-39.84 47.28c.85 2.09 2.87 3.21 5.54 3.07-1.81-1.14-4.23-1.19-5.6-3.12zm-13.33-39c-1.59 1.5-4.16 1.76-5.12 4.05l-.01.04c1.56-1.52 4.09-1.81 5.08-4.04zm192.01-52.12c-1.09 1.08-1.32 2.2-1.24 3.85 1.12-1.26 1.45-2.34 1.24-3.85zm-337.47 34.15c-1.99.63-4.01 1.18-5.75 2.4 0 0-.04-.05-.04-.05 2.14-.3 4.05-1.22 5.96-2.15-.05-.06-.11-.13-.17-.2zm289.26.64c1.49-.78 2.78-1.95 4.54-2.19-1.9-.09-3.46.59-4.68 2.03zm-277.77 76.88c-.54-1.61-1.68-2.82-2.67-4.13-.08.08-.17.15-.25.23.69 1.5 1.71 2.78 2.81 4zm283.94-105.6c-1.16 1.31-1.78 2.88-2.17 4.56l-.05-.05c1.02-1.34 1.77-2.83 2.32-4.42 0 .01-.1-.09-.1-.09zm-63.77 161.71c-1.34-.59-2.68-1.19-4.01-1.78 0 0-.14.17-.14.17 1.32.72 2.53 1.77 4.2 1.54zm-29.11-54.04c.29-1.11.14-1.91-.9-2.83-.11 1.28-.12 2.15.9 2.83zm110.26-84.43c.85-.99 1.88-1.86 2.2-3.21-1.02.89-1.94 1.84-2.15 3.26 0-.01-.05-.06-.05-.05zm41.31-3.31c-.25 1.2-1.87 1.53-1.86 2.89l-.05-.05c.75-.86 1.94-1.43 1.94-2.8 0-.01-.02-.04-.03-.04zm-299.67 80.31c-.11-1.27-.91-1.84-2.04-2.07.75.62 1.03 1.75 2.1 2.03zm192.56-65.29c-.92-.74-2-1.11-3.13-1.38 0 0 .04-.06.04-.05.8 1.04 1.92 1.32 3.14 1.37zm-234.96 76.28c1.19-1.01.9-2.12.22-3.25 0 0 .04-.03.04-.03-.12 1.1.33 2.25-.23 3.32zm254.98-48.71c.73-.61 1.58-1.14 1.73-2.2 0 0 .04.05.04.05-.87.51-1.47 1.23-1.74 2.2zm-66.3-32.76c-1.24-.15-2.5-.45-3.57.51v-.01c1.12-.65 2.38-.27 3.56-.51-.01.01.02.02.01.01zm-63.59-34.34c-.98.38-2.11.31-2.96 1.03 0 0-.03-.04-.03-.04 1.14.11 2.13-.21 2.95-1 0 0 .05.02.04.01zm212.37 30.55c.82-.6 1.57-1.24 1.74-2.33l.01.01c-.89.51-1.48 1.27-1.88 2.2zm-169.66 23.62c.49.75 1 1.48 1.96 1.67l-.04.04c-.34-.84-.94-1.45-1.7-1.91-.07.07-.15.13-.22.2zm-12.45 34.67c-.34-.58-.89-.84-1.59-1.06.34.67.8 1.04 1.43 1.23.05-.06.1-.12.16-.17zm-22.28 9.16c-.5-.54-1.17-.45-2.08-.58.82.53 1.44.68 2.12.54 0-.01-.04.04-.04.04zm192.41-51.54c1-.11 1.03-1.24 1.75-1.64l.02.01c-1.27-.2-.95 1.35-1.79 1.63zm-326.16 63.82c.11.83.34 1.62.95 2.25 0 0-.04.03-.04.03.19-.94-.18-1.7-.78-2.38-.01 0-.13.1-.13.1zm43.31-9.1c.66-.16.94-.51.96-1.3-.65.38-1.04.66-.96 1.3zm271.34-41.9c.61.04 1.22.07 1.82.11 0-.08 0-.16-.01-.24-.6.05-1.19.1-1.79.14 0 0-.03-.02-.02-.01zm-128.87-24.43c-1.16-.45-2.36-.11-3.53-.13.01.01 0-.01.01-.01 1.16.56 2.35.02 3.52.14 0 0 0 .01 0 0zm-205.06 1.2c.73-.32 1.6-.32 2.13-1.04 0 0 .04.05.04.04-.87 0-1.69.12-2.12 1.03-.01.01-.06-.03-.05-.03zm215.91 71.71c-.63-.06-1.25-.11-1.88-.17 0 .06-.01.11-.01.17.63.01 1.26.01 1.89 0-.01.01 0 0 0 0zm73.44 12.62c-.85-.06-1.22.72-1.85 1.04l-.04-.07c.99.37 1.18-.75 1.84-1 0 0 .05.03.05.03zm-269.37-2.65c-.99.16-1.44.74-1.34 1.74.27-.71.76-1.25 1.34-1.74zm174.28 28.37c.72.4 1.38.94 2.28.81 0 0-.04.04-.04.04-.62-.7-1.39-.95-2.3-.79.01.01.06-.06.06-.06zm-78.53 16.15c-.53.57-1.31.99-1.21 1.95l-.04-.04c.73-.36 1.12-1.02 1.47-1.7-.08-.08-.15-.15-.22-.21zm154.44-104.79c-.04.62-.32 1.23.02 1.93.13-.72.24-1.35-.06-1.97 0-.01.03.03.04.04zm55.26-67.51c-.3.98.67.96 1.09 1.36l-.04.03c-.55-.31-.97-.72-1.05-1.39zm-71.14 114.13c.48.01.97.41 1.46-.07-.54-.13-1.04-.15-1.51.11 0 0 .04-.03.05-.04zm68.24-52.91c.55-.01 1.09-.01 1.93-.01-.88-.35-1.41-.19-1.94.02-.01.01 0 0 .01-.01zm-141.96 42.95c-.5.14-1.04-.26-1.67.27.68-.11 1.19-.2 1.69-.28 0 0-.01 0-.02.01zm-65.58-95.18c.87.29 1.72.41 2.48-.28 0 0 .06.05.05.04-.84.09-1.68.17-2.53.24zm68.98 16.81c-.37.37-.74.74-1.11 1.1 0 0 .07.08.07.08.62-.16 1.24-.31 1.04-1.18zm88.78 12.27c.64.15 1.4-.12 1.9.51l-.04-.06c-.53-.59-1.15-.8-1.9-.42 0 0 .03-.02.04-.03zm-9.81 33.78c-.23-.74-.77-.84-1.43-.68h.01c.49.23.99.47 1.49.7 0 0-.06-.03-.07-.02zm25.71-36.64c.35-.3.7-.6 1.04-.9l.06.02c-.51.1-.84.41-1.05.86zm73.01-38.48c-.76-.14-.79.76-1.33.93.64-.04.93-.53 1.28-.96 0-.01.06.03.05.03zm-133.12 63.1c-.28 0-.56 0-.84 0 0 .03 0 .06.01.09.28-.03.56-.06.83-.09zm91.44-21.75c.02.61-.83 1-.42 1.7l-.05-.03c.25-.53.79-.98.47-1.67zm-288.44 63.22c-.06-.67-.22-1.23-1.09-1.09.38.35.76.7 1.14 1.05-.01 0-.05.04-.05.04zm328.34-101.82c.05-.63.7-1.12.45-1.83-.15.61-.3 1.21-.45 1.83.01-.01 0 0 0 0zm-200.33 78.79c-.68-.03-1.28.08-1.56.81 0 0-.04-.04-.04-.04.55-.27 1.1-.55 1.66-.82zm-106.37 23.37c-.43.3-.86.6-1.3.91 0 0 .09.1.09.1.57-.14 1.13-.31 1.15-1.05zm155.33-146.5c-.2.5-.9.66-.9 1.3h-.01c.29-.42.59-.83.88-1.25zm43.95 164.43c.38 0 .76.36 1.33-.17-.6.09-.99.15-1.38.21 0 0 .04-.04.05-.04zm23.76-48.7c.69-.14.85-.69 1-1.26 0 0-.1-.09-.1-.09-.55.3-.81.78-.85 1.39zm-197.14-41.89c-.42-.03-.84-.06-1.26-.09 0 .07.01.13.01.2.42-.04.83-.07 1.25-.11zm115.16 49.63c-.14.13-.28.25-.41.38.08.06.17.12.25.18.05-.19.09-.38.14-.57zm-177.28 51.38c.67.24 1.11-.33 1.67-.46-.67-.22-1.08.47-1.68.49zm182.19-73.07c.17.55.47.96 1.11.98 0 0 .02.01.02.01-.51-.16-.49-1-1.18-.94 0-.01.06-.05.05-.05zm-80.07-48.81c-.52.22-1.04.43-1.55.65 0 0-.05-.04-.05-.04.65.11 1.27.14 1.6-.61zm157.19 62.8c-.59.18-.68.8-1.03 1.19 0 0-.04-.06-.05-.07.81.03 1.01-.49 1.04-1.16-.01 0 .04.04.04.04zm-157.2-62.8c.4.07.79.36 1.32 0-.51 0-.91 0-1.32 0zm84.59 19.04c-.29-.03-.59-.05-.88-.08.29.03.58.06.88.09-.01.01 0-.01 0-.01zm-90.34 147.76c-.17.5-.33 1.01-.5 1.51 0 0-.04-.04-.04-.04.4-.41.92-.77.54-1.47-.01 0 0 0 0 0zm-152.36-98.83c-.36.15-.73.31-1.09.46l.02.06c.39-.1.86-.04 1.07-.52zm244.23 13.22c.54.02 1.09-.02 1.48.46l-.03-.06c-.34-.66-.88-.61-1.45-.4zm-2.24 4.47h.35c-.12-.01-.24-.02-.36-.03 0-.01.01.03.01.03zm-23.38 8.27c.21.02.42.04.63.06 0-.08 0-.16 0-.24-.19.08-.39.15-.58.23 0 0-.05-.05-.05-.05zm-12.86 1.84c-.19-.06-.37-.13-.56-.18-.02-.01-.1.11-.09.12.23.24.46.17.7.01 0-.01-.05.05-.05.05zm10-.09h.18l-.09-.1zm-80.23-147.4c.41-.17.83-.33 1.24-.5l.06.07c-.54-.16-1.06-.26-1.26.48zm.05.04c-.59-.26-1.11-.24-1.55.28 0 0-.03-.04-.03-.04.56.14 1.06 0 1.54-.29-.01.01.04.05.04.05zm98.81 156.34c-.14-.68-.64-.66-1.16-.59 0 0 .04-.04.04-.04.24.49.8.36 1.18.6zm-41.49-114.57c-.05-.04-.1-.1-.15-.11-.06-.01-.12.04-.19.06.05.04.1.08.15.11.06-.02.13-.04.19-.06zm41.55 114.52c.44.18.87.37 1.3.56l-.04-.05c-.3-.54-.75-.68-1.32-.46 0 0 .05-.04.06-.05zm130.03-112.72c-.39-.22-.78-.45-1.17-.67l.04-.04c.05.76.48.92 1.13.71zm-200.74 7.19-.12.05.13.04zm-2.22.44-.15.07.18.05zm25.29 1.39c-.25.29-.51.59-.76.88.24-.28.48-.55.72-.83zm-.76.89c-.66.04-1.31.09-1.98.13-.01 0 .04.02.03.01.64-.05 1.3-.1 1.95-.14zm34.96 45.04c-.07-.11-.14-.23-.21-.34.04.13.09.27.13.4 0 .01.08-.06.08-.06zm118.69-34.76c-.2.33-.4.67-.61 1l.04-.01c.32-.28.62-.56.49-1.05.01 0 .08.06.08.06zm68.24 99.78v.52c.01-.03.02-.05.04-.08.14-.18.17-.34-.08-.45 0 0 .04.01.04.01zm-68.8-98.8c-.07.11-.14.21-.22.32.1.03.2.05.31.08-.04-.13-.08-.26-.13-.39-.01 0 .04-.01.04-.01zm-335.99 54.31c-.51-.02-1.11-.27-1.25.55l-.05-.04c.43-.16.98-.05 1.27-.55-.01-.01.03.04.03.04zm55.9 50.43c0 .63-.02 1.25-.03 1.87.11-.64.36-1.28-.01-1.92 0 0 .03.04.04.05zm-26.89-90.86c.54-.03 1.09-.06 1.62-.1-.01-.01 0 .02 0 .01-.56-.34-1.09-.38-1.56.15zm-1.22.4c-.33.28-.66.55-.99.83l.05-.06c.83.42.43-.8.99-.74.01 0-.05-.03-.05-.03zm280.71.57c.35.22.69.44 1.04.67 0 0-.03.01-.03.01-.06-.68-.49-.76-1.04-.63-.01-.01.03-.05.03-.05zm2.43 1.1c-.36-.54-.86-.62-1.42-.43.01 0 .03-.01.05-.02.51.07 1.06.01 1.41.5zm42.38 96.94c.13.45.25.9.39 1.35.01-.01-.04.04-.03.03.25-.56.17-1.01-.39-1.32zm-74.04.98c-.35-.32-.65-.75-1.21-.67 0 0 .05-.05.05-.05.4.26.8.52 1.2.79zm-78.82-63.58v.58c.01-.19.01-.38.02-.57 0 0-.02-.01-.02-.01zm-166.67-24.35c.35-.19.7-.39 1.05-.58l.06.08c-.52-.16-.92-.06-1.07.53zm.02.01c-.57-.18-1.12-.29-1.6.19l-.05-.06c.54-.05 1.08-.09 1.63-.14 0 0 .03.02.02.01zm-3.83 1.1c.46.01.77-.17.86-.65-.27.23-.53.47-.8.7zm-31.23 27.8c-.63.02-1.25.04-1.88.06.62.15 1.25.31 1.84-.1 0 0 .04.05.04.04zm199.86 10.43c-.06.4.1.7.42.93 0 0-.01-.01-.01-.01-.14-.31-.29-.62-.43-.92zm112.33-49.33c.1-.01.21-.02.31-.03-.17-.28-.2-.03-.28.08 0 .01-.03-.05-.03-.05zm-111.6 51.5c-.1-.42-.2-.83-.31-1.25 0 0-.01-.01-.01-.01.1.43.21.87.31 1.3zm-19.47-51.73c.03.12.06.24.08.35.06-.06.12-.12.18-.18-.1-.04-.21-.09-.31-.13.01 0 .05-.04.05-.04zm54.75 19.11c.15.31.3.62.45.92 0 0-.05.04-.05.04.21-.44.13-.8-.28-1.06-.01 0-.12.1-.12.1zm-207.81-19.72c-.04-.13-.04-.35-.11-.38-.2-.09-.29.04-.15.22.05.07.21.06.32.09-.01 0-.06.07-.06.07zm2.26-1.17c-.41.12-.82.24-1.22.36.01.01-.05-.03-.05-.02.45-.01.92.06 1.21-.4.01 0 .06.06.06.06zm213.48 54.59c.1 0 .2 0 .3.01-.01-.06-.01-.11-.02-.17-.08.07-.16.14-.24.22-.01 0-.04-.06-.04-.06zm-24.43-33.41c0-.45.33-.99-.33-1.27 0 0 .07-.06.07-.06.09.44.18.88.26 1.33 0-.01 0 0 0 0zm164.97-1.43c.06-.4.12-.8.19-1.19 0 0 .02.02.02.02-.6.32-.4.75-.18 1.19 0 0-.02-.01-.03-.02zm-233.93-23.54c.41-.13.94.25 1.25-.29 0 0 .03.04.03.04-.42.08-.85.16-1.28.25.01-.01 0 0 0 0zm70.72-5.52c.46.02.92.04 1.38.06l.04-.03c-.48-.01-.95-.02-1.42-.03 0-.01 0 0 0 0zm71 23.71c.05.47.44.5.77.61 0 0-.06.05-.06.05 0-.52-.43-.5-.77-.59.01 0 .06-.07.06-.07zm46.2-30.32c-.17.33-.35.66-.52.99 0 0-.07-.06-.07-.06.57-.12.54-.56.55-.98-.01 0 .04.05.04.05zm-153.41-10.17c.07.08.15.16.22.24.09-.33-.14-.16-.26-.18 0 0 .04-.06.04-.06zm112.96 43.17c.26.18.52.37.78.55l-.06-.08c.04-.57-.13-.82-.7-.45 0-.01-.02-.02-.02-.02zm-230.44 46.62c.05.47.11.93.16 1.4-.03-.44-.07-.89-.1-1.33zm229.55-47.12c.17.38.52.44.88.49.01 0 .03.02.03.02-.3-.16-.6-.33-.91-.51zm0 0c-.38-.09-.76-.18-1.13-.28 0 0 .06-.05.07-.05.24.48.68.3 1.06.33zm-2.02-.77c.15.5.6.37.95.44 0 0-.07.05-.07.06-.32-.15-.63-.3-.94-.44zm-65.81 16.51c-.36.02-.72.04-1.08.05l.01.01c.37-.02.74-.04 1.11-.07zm65.75-16.45c-.3-.15-.61-.31-.91-.47l.05-.05c.13.49.55.42.91.46.01 0-.05.06-.05.06zm-204.62 50.62c.36-.05.72-.11 1.07-.16 0 0 .03.06.03.06-.37-.09-.74-.15-1.05.15 0-.01-.06-.06-.05-.05zm291.1-132.61c-.35.1-.7.19-1.04.3.01.01-.05-.05-.04-.04.45.23.81.18 1.03-.31zm-355.64 81.76c.15.08.36.26.43.21.16-.1.25-.33-.02-.44-.25-.1-.56-.21-.46.29zm355.59-81.82c.33-.02.68 0 .78-.44l.05.05c-.33.03-.72-.04-.78.45 0 0-.05-.06-.05-.06zm.84-.39c.4-.17.79-.34 1.19-.51l.07-.04c-.43.17-.87.34-1.31.5-.01 0 .05.05.05.05zm-356.49 82.27c-.04-.17-.08-.34-.12-.5-.07.07-.14.14-.21.22.11.1.11.41.39.23 0-.01-.06.05-.06.05zm4.17-2.26c-.05.04-.1.07-.15.11.14.14.19.1.15-.11 0-.01 0 0 0 0zm264.14 1.96c-.29-.43-.72-.41-1.15-.35 0 0 .06-.05.06-.05.39.11.77.23 1.15.34 0 .01-.06.06-.06.06zm-35.97-86.45c.05.01.12.05.16.03s.05-.09.07-.14c-.09.03-.18.06-.27.09-.01 0 .04.02.04.02zm-14.47-7.35c-.38.05-.76.11-1.15.17v-.01c.41.18.85.48 1.09-.21zm-.83 148.11c.47-.28.44-.66.23-1.07.01.01.05.06.06.07-.07.36-.16.7-.24 1.05zm80.38.11c.07-.03.14-.05.22-.08-.09.01-.19.01-.28.02zm-80.33-.06c-.59.24-.29.71-.28 1.1l-.03.03c.09-.39.17-.79.26-1.18 0 0 .05.05.05.05zm80.32.06c-.48.05-.96.11-1.43.17.48.05.99.27 1.38-.22-.01-.01.06.05.05.05zm-79.58-148.27c.42-.07.83-.14 1.25-.22h.01c-.42.03-.9-.24-1.21.27-.01 0-.06-.05-.05-.05zm-2.43 150.72c.1-.02.19-.03.29-.05-.06-.1-.13-.21-.19-.31-.05.05-.13.09-.14.14 0 .06.06.12.1.18zm-106.2-151.49c.12-.07.24-.14.36-.21-.08-.04-.16-.08-.24-.12-.02.13-.04.27-.07.4.01 0-.05-.07-.05-.07zm106.26 151.45c.01.11.02.21.03.32.06-.01.12-.03.17-.04-.09-.08-.17-.16-.26-.24 0 0 .06-.04.06-.04zm-160.06.93c-.42.06-.85.12-1.27.18l-.03.09c.45-.07.89-.15 1.33-.23-.01 0-.03-.04-.03-.04zm164.58-153.13c.09.05.17.1.26.16-.02-.12-.04-.23-.06-.35-.07.08-.14.16-.21.24-.01 0 .01-.05.01-.05zm-108.98-.08-.03.13.17-.04zm-41.32 155.44c-.12.22-.24.44-.36.66 0 0-.06-.06-.06-.06.41-.04.36-.36.39-.64zm-.55 1.93c.04-.45.08-.89.13-1.34 0 0 .06.06.06.07-.51.35-.38.8-.19 1.27zm-63.59-64.21c-.46.11-.92.22-1.38.33.48-.09.95-.18 1.43-.27.01-.01-.05-.06-.05-.06zm25.83-.17c.45.11.7-.15.91-.49-.18.38-.53.46-.91.49zm255.21 25.27c.02-.43.04-.87.07-1.29.01.01.05.07.06.08-.33.37-.17.79-.13 1.21zm-78.45 39.91c.11-.05.22-.1.33-.15-.06 0-.14-.02-.18.01-.05.04-.08.12-.12.19.01 0-.03-.05-.03-.05zm-158.4.77c.11.39.44.45.77.52l.01.01c-.3-.12-.4-.62-.85-.48 0 0 .07-.05.07-.05zm-47.65-64.61c-.13-.21-.35-.28-.43-.03-.09.3.2.32.42.3.05-.01.13-.09.13-.15.01-.06-.06-.12-.09-.18zm31.81-1.84c-.53 0-1.07.01-1.6.01.53 0 1.06 0 1.6-.01.01.01 0 0 0 0zm16.62 66.97c-.01.19-.03.37-.04.56.02-.18.03-.37.05-.55-.01 0-.01-.01-.01-.01zm23.38.31v.35c.08-.04.16-.08.24-.11-.1-.06-.2-.13-.29-.19-.01-.01.05-.05.05-.05zm93.57-38.7c-.17.41-.37.82.19 1.11 0 0-.01.01-.01.01-.07-.39-.14-.77-.21-1.16zm-196.12.41c-.15.27-.3.55-.45.82 0 0-.01-.03-.01-.03.16-.24.33-.48.48-.72 0-.01-.02-.07-.02-.07zm36.43-29.23c-.46.09-.92.18-1.37.26.48.05 1 .24 1.32-.33 0 .01.06.07.05.07zm-37.83 30.51c.59.37.64-.28.93-.49 0 0 .01.03.01.03-.39.01-.72.14-.95.47.01 0 .01-.01.01-.01zm105.5 41.64h.05zm149.56-73.05c-.45.07-.89.14-1.34.21 0 0 .01.03.01.03l1.29-.18zm-222.89 2.92c.05.11.1.21.14.32.03-.12.06-.23.07-.35 0-.02-.12-.08-.16-.06-.05.02-.06.11-.09.16.01-.01.04-.07.04-.07zm-33.59 28.86c.53.1.98-.11 1.42-.37v.01c-.45.11-.9.22-1.35.33zm304.65 45.26c.18 0 .36.01.54.01 0 0-.05.05-.05.05-.01-.33-.01-.65-.02-.98l.05.06c-.16.31-.31.62-.47.93zm-262.77-76.93c.36-.14.72-.28 1.07-.42-.01-.01.05.04.04.03-.48-.13-.93-.18-1.05.47 0 0-.06-.07-.06-.08zm149.3 18.25c-.09-.03-.19-.05-.28-.08.04.11.08.22.12.33.06-.1.12-.2.17-.3 0 .01-.01.05-.01.05zm168.58-22.14c.16-.23.32-.46.48-.7 0 0-.05-.04-.05-.04-.3-.16-.58-.16-.66.21-.03.14.18.32.27.49zm-165.84 37.59c.02-.1.04-.2.07-.3-.06.01-.12.03-.19.04.05.09.11.18.16.28-.01 0-.04-.02-.04-.02zm109.07-.51c.16-.57-.15-.66-.61-.61 0 0 .04-.04.04-.04.2.22.39.44.59.66 0-.01-.02-.01-.02-.01zm-244.59 51.46c.37-.11.74-.21 1.11-.32 0 0-.05-.06-.05-.06-.34.1-.67.2-1.01.29zm-2.25 1.45c.4-.18.81-.37 1.21-.55l.06-.01c-.45.06-.92.08-1.25.46zm304.21 1.44c-.05-.11-.11-.22-.16-.33.04.13.09.25.13.38 0 .01.03-.05.03-.05zm-44.97-54.21c.19-.2.37-.39.56-.59 0-.01-.01-.07-.01-.07-.26-.08-.56-.18-.69.14-.05.11.13.31.2.47zm-11.46.32c-.17-.41-.54-.43-.91-.47-.01 0-.03 0-.03 0 .31.14.61.28.92.42zm-.02-.05c.09.03.19.06.28.09.01-.05.02-.11.03-.16-.09.04-.19.08-.29.12 0 0-.02-.05-.02-.05zm-17.59 54.92c.1.02.21.04.31.05-.02-.1-.05-.2-.07-.29-.07.1-.14.19-.2.3-.01 0-.04-.06-.04-.06zm75.24-93.95c-.02-.39-.03-.78-.05-1.17h-.01c.01.4.03.79.04 1.19zm-126.96 113.93.04-.12-.16.03zm1.34.82c-.05-.08-.1-.16-.15-.23-.05.04-.1.09-.14.13.09.04.18.08.27.12zm.01-.01c.43.1.84.21 1.26.32 0 0-.05.07-.05.06-.24-.73-.79-.38-1.25-.36 0 .01.03-.01.04-.02zm81.61-117.3c.11-.01.21-.02.32-.03-.02-.06-.03-.12-.05-.17-.08.09-.15.17-.23.26 0-.01-.04-.06-.04-.06zm-74.02 20.78c-.11-.47-.21-.94-.32-1.41 0 0 .02.01.02 0 .09.45.18.89.27 1.34 0 0 .03.07.03.07zm57.94 112.07c.46-.03.43-.46.6-.73 0 0 .06.05.06.05-.61-.09-.56.36-.61.73 0 0-.05-.05-.05-.05zm-.6.72c.36-.1.65-.27.6-.72 0 0 .05.05.05.06-.23.23-.47.45-.7.68zm-233.91-87.43c.13-.43.36-.84.12-1.29.01.01.05.06.06.07-.28.36-.27.75-.12 1.16zm233.91 87.43c-.08.08-.15.16-.23.24.1.02.2.04.31.05-.04-.09-.08-.18-.12-.27-.01-.01.04-.02.04-.02zm-.49 2-.05.15.11-.01zm88-117.59c-.32.34-.85.6-.53 1.22l-.01.09c.17-.44.35-.88.52-1.31zm-105.83 119.76c.08.47.39.59.81.55l-.06.06c-.27-.18-.53-.37-.8-.55.01.01.05-.06.05-.06zm-81.58.66c-.18 0-.36 0-.54 0 0 0 .07-.03.07-.03.01.32.01.64.02.96 0 0-.04-.08-.04-.08.15-.3.3-.6.45-.91zm82.34-.04c.24.17.48.34.73.52 0 0 .07-.01.07-.01-.24-.19-.49-.38-.74-.57-.01 0-.06.06-.06.06zm1.74 1.24c-.16-.45-.56-.57-.95-.73-.01 0-.07.01-.07.01.25.32.03 1.35.97.66zm-.04-.06h.27c-.04-.09-.08-.18-.12-.27-.04.11-.08.21-.12.32.01.01-.03-.05-.03-.05zm-89.62 5.02c-.18.39-.37.78-.55 1.16l.02-.09c.16-.38.65-.63.5-1.15 0 .01.02.07.03.08zm62.2-146.8c.02-.03.05-.05.07-.08-.04.01-.09.02-.13.03-.01 0 .06.05.06.05zm72.87-.28c-.27.05-.41.19-.38.47 0 0-.04-.03-.04-.04.32 0 .48-.13.37-.47 0 .01.05.04.05.04zm-263.45 48.59c-.03-.02-.07-.03-.1-.05.02.04.03.08.05.12 0 0 .05-.06.05-.07zm126.48.04c.38.15.51-.03.5-.38 0 .01.04.07.05.08-.18.11-.37.21-.55.3zm0 0c-.03.25-.06.5-.08.74l.06.03c.01-.25.01-.5.02-.77zm-.08.75c-.26.16-.52.32-.77.48l-.06.06c.3-.17.59-.34.89-.51 0 0-.06-.03-.06-.03zm-.83.53c.03.01.06.03.09.05-.01-.03-.02-.07-.03-.1-.01 0-.07.06-.06.05zm64.52.29c.01.09.02.17.03.26.03-.04.05-.07.08-.11-.04-.03-.09-.06-.13-.09-.01.01.02-.06.02-.06zm72.54-49.26c.28-.05.44-.2.4-.51 0 0 .04.04.04.03-.29-.02-.46.11-.52.39 0 .01.08.09.08.09zm-.49.41c.29.02.45-.13.49-.41 0 0-.08-.08-.08-.08-.28.06-.44.2-.39.51 0 0-.02-.02-.02-.02zm-.37.54c.12-.18.24-.36.37-.54 0 0 .02.02.02.02-.19.11-.38.22-.57.32.06.07.12.14.18.2zm74.33-.45c-.35-.11-.5.05-.54.38.16-.14.33-.28.49-.43 0 0 .05.05.05.05zm-74.77.91c.15-.15.3-.31.45-.46-.06-.06-.12-.13-.18-.19-.15.15-.31.3-.46.45.05.07.12.13.19.2zm34.57-.28c.29.07.57.11.75-.21 0 0 .05.05.04.05-.26.04-.52.1-.79.16zm39.19.19c.33.03.46-.14.46-.45-.3 0-.43.17-.45.46 0 0-.01-.01-.01-.01zm-74.23.53c.16-.15.31-.29.47-.44-.07-.07-.14-.14-.2-.21-.15.16-.29.31-.44.47.05.07.11.12.17.18zm34.57.95c-.31.06-.62.11-.94.17h.01c.32-.05.64-.1.98-.14 0 0-.05-.03-.05-.03zm-.9 1.36c-.2.07-.39.15-.59.22 0 0 .05.05.05.05.18-.09.37-.19.55-.28 0-.01-.01.01-.01.01zm-155.18 47.56c0-.01.08-.01.08-.01l-.07-.04s-.01.05-.01.05zm-92.04-46.78c.19 0 .38 0 .57-.01 0 0-.03-.09-.03-.09-.18.02-.36.05-.53.07zm232.6.29c-.06-.1-.12-.2-.17-.31-.07.07-.14.13-.21.2.1.03.2.05.3.08zm14.03-.85c-.26.19-.52.37-.78.56 0 0 .06.04.05.04.25-.18.51-.37.77-.56.01.01-.04-.04-.04-.04zm-156.72 49.1.07-.08s-.14.02-.14.02.07.06.07.06zm-.62.39c.32.02.46-.19.55-.45 0 0 .07.06.07.06-.3.01-.55.07-.57.43-.01.01-.05-.04-.05-.04zm143.3-48.64c.01-.04.02-.09.04-.13-.04.03-.08.07-.12.1.01 0 .09.03.08.03zm12.88.41c.01.26.03.51.04.77v-.03c.14-.03.4-.04.4-.08.02-.33-.16-.52-.48-.61 0-.01.04-.05.04-.05zm-168.49 1.11c-.01-.03-.03-.06-.05-.09 0 .04 0 .08.01.12 0 .01.03-.03.04-.03zm167.47.1c.35-.16.7-.32 1.06-.47v.03c-.37.02-1.02-.73-1.03.36zm.01-.01c.05.02.09.04.13.06-.03-.04-.07-.09-.1-.13-.01 0-.04.08-.03.07zm-153.26 51.02.03-.17-.09.1zm-.06-.07c-.16.22-.32.45-.48.67 0 0 .04.05.04.05.17-.21.33-.43.5-.65 0 0-.06-.07-.06-.07zm51.01-48.33c-.03-.02-.05-.05-.07-.08.01.05.02.09.03.14 0 0 .04-.06.04-.06zm-1.7.82c.44-.02.32-.36.36-.61 0 0 .01.03.01.03-.1.22-.21.43-.32.64.01 0-.05-.06-.05-.06zm-11.55 48.99.06-.07s-.11.01-.11.02c0 0 .05.05.05.05zm11.16-48.44c.34-.04.46-.23.4-.55 0 0 .06.06.06.06-.26.08-.49.19-.41.53-.01.01-.05-.04-.05-.04zm-11.65 49.23c.47-.07.39-.48.49-.79 0 0-.05-.05-.05-.06-.14.28-.28.56-.43.84 0 .01-.01.01-.01.01zm-26.41-47.62c-.19.22-.37.45-.56.67l-.06.06c.22-.22.44-.44.66-.67 0 0-.04-.06-.04-.06zm-.61.73c0-.01.13.03.13.03l-.08-.09s-.05.07-.05.06zm-143.45 47.7c.01-.1.02-.2.03-.31-.05.03-.11.07-.16.1.04.05.07.09.11.14zm-.02-.07c.03.02.07.03.1.05-.01-.04-.03-.08-.04-.11-.02.04-.03.08-.05.13.01 0-.01-.07-.01-.07zm.99 1.07c0 .01-.06.09-.06.09l.12-.03c-.01 0-.07-.07-.06-.06zm176.1-46.57c-.14.17-.27.33-.41.5 0 0 .09.08.09.08.16-.14.32-.29.48-.43-.01 0-.16-.15-.16-.15zm-.84.96c.29.03.45-.11.51-.38 0 0-.09-.08-.09-.08-.28.05-.43.21-.39.51.01-.01-.03-.05-.03-.05zm-38.91 46.42c-.03.02-.06.04-.09.06.05 0 .1-.01.15-.01 0 0-.06-.05-.06-.05zm94.8-46.97c-.01 0-.05.09-.05.09l.12-.01c-.01-.01-.07-.08-.07-.08zm-56.45.83c.28.11.49.07.56-.28 0 0 .04.04.04.04-.18.1-.36.2-.54.31 0 0-.05-.06-.06-.07zm-150.27 47.15c.04-.04.08-.08.11-.11-.05.02-.11.04-.16.06zm-.04-.06c-.16.28-.32.57-.48.85 0 0 .03.06.03.06.16-.28.33-.56.49-.85 0 0-.04-.06-.04-.06zm208.04-47.23c-.04.01-.07.02-.11.03.04-.01.09-.02.13-.03zm-57.78.86c.04-.21.07-.42.11-.64 0-.01-.05-.07-.06-.07-.03.24-.05.49-.09.73-.01-.01.04-.02.04-.02zm58.09.04c-.1-.3-.21-.6-.31-.9h.02c.08.28.16.56.23.84zm-59.11.36c.33-.14.67-.27 1.01-.41.01 0-.05.01-.03.02-.3.12-.83-.42-.93.32zm59.11-.37c.02 0 .04.01.05.01-.04-.02-.07-.04-.11-.07 0 .01.06.07.06.06zm-59.1.37c.03.02.06.04.09.07-.02-.04-.03-.09-.05-.13 0-.01-.05.06-.04.06zm60.43 1.61s.04-.15.04-.15l-.09.11c0 .01.05.05.05.04zm-110.89 47.24c.3.05.42-.11.44-.38 0 0-.01-.01-.01-.01-.31-.01-.4.16-.4.44 0 0-.03-.05-.03-.05zm191.44-45.63c.04.01.08.01.11.02-.04-.04-.07-.08-.11-.11 0-.01-.01.09 0 .09zm-192.18 46.09c.26-.14.52-.28.78-.41 0 0-.03-.04-.03-.04-.23.14-.46.27-.69.41zm47.85-44.62c-.01-.01.04-.07.04-.07l-.06.01s.03.07.02.06zm-47.8 44.57c-.01.05-.03.11-.04.16.18-.05.18-.09-.01-.12 0 .01.05-.04.05-.04zm.52-43.14c.02.03.03.06.05.09 0-.05.01-.09.01-.14.01 0-.06.05-.06.05zm36.42 5.16c-.01.32.15.45.46.41l-.04.04c-.02-.29-.17-.42-.46-.41 0 .01.04-.04.04-.04zm.46.42c.05.23.11.45.16.67 0 0-.03.01-.04.01.13-.26.19-.51-.17-.64.01 0 .06-.04.05-.04zm-33.58.83c.03-.08.06-.16.1-.24-.05.06-.1.12-.15.17zm32.91 37.68c-.03.05-.06.09-.09.14.2.02.22-.02.05-.12 0 .01.04-.02.04-.02zm1.41-37.34c-.18-.17-.37-.34-.56-.51-.01 0-.04.01-.04.01.19.18.4.34.6.5zm-34.37-.41c-.07.31-.13.61-.2.92v.01c.09-.28.17-.57.25-.86 0 0-.05-.07-.05-.07zm35.48.36c.04.38-.04.8.41 1.02l.09.01c.03-.45.06-.89-.53-1.02 0-.01.03-.01.03-.01zm13.28 38.57c-.03-.05-.05-.09-.08-.14-.11.14-.08.18.11.1 0 .01-.03.04-.03.04zm-12.78-37.56c-.04-.05-.07-.1-.1-.14.01.05.01.09.02.14-.01 0 .08.01.08 0zm68.79 1.98c.07.25.13.5.2.75h-.01c.07-.29.2-.59-.24-.71 0 0 .05-.04.05-.04zm-217.3 36.9c-.04.31-.07.62-.1.94.01.01.03.05.04.06.03-.33.05-.66.06-1 .01.01 0 0 0 0zm105.79-34.9c.14-.26.28-.52.41-.78-.01-.01-.04-.08-.04-.08-.13.3-.25.61-.37.92zm113.88-.42c-.03-.17-.01-.45-.1-.5-.35-.19-.46.12-.58.37 0 0-.06-.02-.06-.02.25.06.5.11.75.16zm-113.88.48c0-.03 0-.05 0-.07zm113.89-.47c0 .28.01.57.02.85 0 0 .03.03.03.03-.02-.3-.04-.59-.06-.89 0 0 .01.01.01.01zm-221.07 36.53c.04.01.08.02.12.03-.03-.04-.06-.07-.09-.11 0-.01-.03.08-.03.08zm16.28 1.24s-.04-.04-.04-.04.04.04.04.04zm-.7.72c.23-.24.46-.48.7-.72 0 0-.04-.04-.04-.04-.39.07-.75.18-.7.71 0 0 .04.05.04.05zm206.29-37.63c-.26-.78-.5-.07-.75.02 0 0-.03-.03-.03-.03.28.01.55.01.83.02zm.05 0c-.04.4-.83 1.1.39 1l.09.03c.08-.47-.04-.85-.53-1.03zm10.56.45c-.26.03-.53.06-.79.09l-.07.05c.29-.05.58-.1.86-.14.01-.01 0 0 0 0zm-10.09.58c.01-.05.04-.09.06-.14-.05.04-.09.08-.14.12 0-.01.08.02.08.02zm9.24-.44c.02-.02.04-.03.06-.05 0 0-.06.05-.06.05zm2.93 1.11c.14-.17.27-.33.41-.5 0 0 .01.01.01.01-.32-.05-.45.13-.5.41zm-3.94.52c.1-.06.2-.12.3-.19-.04-.06-.07-.11-.11-.17-.06.09-.12.18-.18.26zm3.86-.6c-.13.17-.27.34-.4.51 0 0-.04-.05-.04-.05.33.08.46-.1.53-.38-.01 0-.09-.08-.09-.08zm64.83.28c-.2-.17-.2-.15-.05.05 0 .01.05-.05.05-.05zm-68.67.23c.03.04.06.08.1.12 0-.06 0-.11.01-.17-.04.04-.07.08-.11.13-.02.01 0-.08 0-.08zm69.14.28c-.15-.17-.31-.33-.47-.51 0 0-.05.05-.05.05.15.17.31.34.46.52zm-155.99-50.59c.06.03.11.06.17.09.06-.19.02-.21-.12-.08zm159.85-56.7c-.03-.01-.05-.04-.07-.06 0 .03.01.06.01.09 0 .01.07-.03.06-.03zm-22.01 31.34c0-.3-.15-.46-.46-.46 0 0 .04-.04.04-.04.01.3.16.46.46.46 0 0-.04.04-.04.04zm18.09 76.01c.15.24.29.49.44.74 0 0 .04-.06.04-.06-.14-.24-.28-.49-.42-.74 0 0-.06.06-.06.06zm-277.65 43.39.08-.05h-.09zm0-.05c-.51 0-.47.52-.72.77-.01 0 .05 0 .05.01.93.44.86-.08.68-.72-.01-.01-.01-.06-.01-.06zm295.19-119.21c-.29-.01-.58-.02-.87-.04.28.01.57.03.87.04-.01.01 0 0 0 0zm-.87-.04c-.02.32-.03.64-.05.96 0 0 .03-.05.03-.05 0-.3.01-.6.02-.91-.01 0 0 0 0 0zm-203.07 76.67c-.04.01-.08.02-.13.02.06 0 .11.01.17.01 0 0-.04-.04-.04-.03zm202.19-75.7c.28-.02.57-.05.86-.06 0 0-.03.05-.03.05-.26-.1-.53-.91-.8 0 0 0-.03.01-.03.01zm-95.97 122.12c.17 0 .34.01.51.01l-.05.05c0-.17 0-.34 0-.51 0 0 .04.04.04.04-.15.16-.3.31-.45.47zm95.94-121.34c.01-.26.02-.52.03-.78 0 0 .03-.02.03-.02-.48.2-.04.54-.12.8zm-.06 0c-.23.03-.46.06-.68.09 0 0-.05.02-.05.02.26-.04.52-.08.78-.11zm-31.57.21c.18.28.35.56.53.84l.08.02c.22-.56.06-.87-.57-.89 0 0-.04.03-.04.03zm30.38.77c1.21.3.57-.42.45-.85 0-.01.05-.04.05-.04-.4.19-.47.56-.5.95zm-29.77.09c.02-.04.04-.09.07-.13-.05.04-.1.07-.15.11 0 0 .08.02.08.02zm29.77-.03c-.02-.03-.04-.06-.05-.09.01.04.01.08.02.12.01-.03.03-.07.04-.1-.01.01-.01.07-.01.07zm-65.41 126.38c.02-.05.03-.11.05-.16-.08.04-.17.08-.25.12.06.02.11.05.17.07zm-.03.04c-.19-.15-.37-.3-.56-.46-.07.14-.15.28-.22.42 0 0-.03.02-.03.02.28 0 .56-.01.84-.01 0-.01-.03.03-.03.03zm-.84.75c.44-.24.18-.51.03-.78 0 0 .03-.02.03-.02-.03.27-.05.54-.09.81-.02 0 .03-.01.03-.01zm-.59.36c.19-.12.38-.24.58-.36.01 0-.04.01-.03.01-.18.1-.38.2-.58.3zm-.02-.05c-.22.23-.43.46-.66.7-.01 0 .04.03.04.03.65.2.84-.04.64-.67 0-.01-.02-.06-.02-.06zm-273.01.29c-.15.27-.31.53-.46.8 0 0 .05.06.05.06.13-.27.27-.55.4-.83 0-.01.01-.03.01-.03zm257.98-52.84c-.06.23-.12.46-.19.68-.01 0 .02-.01.02-.01.34-.12.3-.36.21-.63-.01.01-.04-.04-.04-.04zm-259.49 54.01c.04.01.07.03.1.04-.02-.04-.04-.08-.07-.12.01 0-.03.09-.03.08zm-1 .91c-.01.01-.02-.04-.02-.04l-.03.05c0-.01.06-.02.05-.01zm273.05-.6c-.17.15-.35.29-.53.43 0 0-.04-.05-.05-.05.34.04.53-.09.54-.45 0-.01.04.06.04.07zm-.85 1.04c.46-.07.4-.36.27-.66 0 .01.05.05.06.06-.09.22-.19.43-.29.64zm-273.45.1c0-.01.15-.07.15-.07l-.14-.01s-.01.09-.01.08zm273.49-.07c-.29.02-.45.16-.45.46 0 0-.04-.04-.04-.04.3-.01.47-.14.45-.46 0 .01.04.04.04.04zm-.93.9c.31-.01.46-.16.44-.47 0 0 .04.04.04.04-.31-.03-.48.11-.48.43 0-.01 0 0 0 0zm-126.16-55.22c-.02-.03-.03-.06-.05-.09v.14s.06-.06.05-.05zm114.41-.2c.25-.06.49-.13.75-.19.01 0-.02.01-.01.01-.25.04-.52.08-.78.12zm-316.89.14c-.01.03-.02.07-.03.1.03-.02.06-.04.1-.05-.04-.01-.08-.02-.13-.02-.01 0 .06-.03.06-.03zm394.43-70.96c-.04-.04-.07-.09-.11-.13.03.06.06.13.09.19zm-.02.05c.08.32.17.63.25.96 0 .01.01-.04 0-.02-.08-.32-.16-.65-.24-.98.01-.01-.01.04-.01.04zm-77.56 70.71c-.14.15-.27.3-.41.45l.04.03c.14-.14.27-.27.41-.41 0-.01-.04-.07-.04-.07zm61.33-65.98c0 .01-.12-.01-.12-.01l.08.08s.04-.08.04-.07zm-148.87 12.7c-.01.01-.02.03-.04.04.03-.01.06-.02.09-.03 0 0-.06 0-.05-.01zm87.13 53.73c-.73-.15-.97.06-.58.77 0 .01.01.07.01.08.2-.27.4-.54.6-.82.02 0-.03-.03-.03-.03zm-88.18-52.58c-.01.01-.02.02-.03.03 0 0 .03-.03.03-.03zm178.29 7.2c.05.01.14.03.14.03.06-.2.01-.22-.14-.08zm-73.3.56.09-.03s-.1-.05-.1-.04c-.01.01.01.07.01.07zm73.06.16c.08-.23.16-.46.24-.7 0-.01 0-.05 0-.06-.1.23-.19.47-.3.71 0 0 .06.05.06.05zm-341.58 130.71c-.03-.03-.06-.06-.1-.1.02.04.04.09.06.13.01 0 .04-.03.04-.03zm.29 4.95c-.12-.16-.24-.31-.36-.46v-.01c.07.18-.17.59.33.45 0 .01.03.03.03.02zm.54.48c-.18-.16-.36-.33-.54-.48 0 .01-.03-.02-.03-.01.19.17.38.33.57.49zm0 0c.06.19-.2.56.29.51 0 0-.02.05-.03.05-.09-.19-.18-.37-.26-.56zm.89.93c-.01-.41-.25-.5-.6-.43 0 0-.02.05-.03.05.21.13.42.26.63.38zm.08.78c-.03-.26-.06-.52-.08-.78v.01c.01.25.02.5.03.75zm-.05-.02c.28.03.57.06.85.1 0 0-.01-.01-.01-.01-.19-.67-.5-.21-.78-.07-.01 0-.06-.02-.06-.02zm266.15-137.26c.94.4.9-.05.62-.72 0-.01-.01-.07-.01-.08-.22.26-.43.52-.66.78-.01 0 .05.02.05.02zm-265.19 138.17c-.04-.28-.08-.55-.13-.83 0 0 .01.01.01.01.02.26.04.52.07.77zm-.04-.04c.21.06.42.12.64.18 0 .01.03-.02.03-.02-.02-.12-.04-.25-.06-.37-.19.08-.37.17-.56.25-.01 0-.05-.04-.05-.04zm247.97-92.65c-.05.19-.1.38-.15.57l.04.01c.14-.08.39.3.46-.14.05-.36-.26-.26-.39-.37-.01-.02.04-.07.04-.07zm90.25-45.86c.23-.06.45-.13.69-.19 0 0-.05-.05-.05-.05-.2.08-.4.16-.6.24zm-337 139.59c.39-.65.23-.97-.55-.91 0 0-.03.02-.04.02.03.36.14.69.52.85zm0-.01c.03-.04.06-.07.09-.1-.05.02-.11.04-.16.06 0 0 .07.05.07.04zm246.61-93.16c-.39.02-1.01-.37-.87.53l-.01.09c.64.31 1.06.28.92-.61 0 0-.04-.01-.04-.01zm-157.84 93.88c-.35-.06-.44.14-.44.43l-.03-.04c.3.01.42-.16.43-.43 0 0 .04.04.04.04zm-.43.44c-.25.08-.51.16-.76.24.3.06.6.13.72-.28 0-.01.04.04.04.04zm157.39-93.71c.05.01.1.03.14.05-.04-.04-.09-.09-.13-.13 0 0-.01.09-.01.08zm92.01.86c-.31.52-.18.7.41.55l.01.02c-.14-.18-.28-.35-.42-.53 0-.01 0-.04 0-.04zm-251 95.16c.11-.19.22-.37.33-.56 0 0-.05-.04-.04-.05-.12.19-.24.39-.36.59zm251.41-94.62c.23.06.46.13.69.19l-.01-.06c-.23-.04-.45-.08-.68-.11.01 0 0-.02 0-.02zm-251.48 94.6c-.29.08-.67-.06-.84.34l-.05.02c.31-.11.63-.23.95-.34.01 0-.06-.02-.06-.02zm250.37-143.03c-.65-.23-.92-.04-.72.66 0 0-.02-.04-.03-.04.37-.04.58-.27.71-.6 0-.02.04-.02.04-.02zm-74.13 1.27c-.19-.14-.39-.27-.58-.41-.07.15-.14.29-.21.44v.02c.28-.03.56-.05.84-.08 0 0-.05.03-.05.03zm-177.07 142.1c-.01.06-.03.12-.04.19l.12-.09c-.04-.02-.08-.05-.13-.07 0-.01.05-.03.05-.03zm253.01-94.74c-.13.2-.45.29-.28.66.2.42.44.09.66.09l.04.04c-.14-.29-.28-.57-.42-.86-.01 0 0 .07 0 .07zm-207.06 95.21c-.16.2-.32.4-.47.61l.04-.06c.16-.16.31-.31.47-.47zm130.33-142.52c-.11.26-.23.5-.34.75 0 0-.05-.03-.05-.03.39-.11.35-.45.38-.74.01-.01.01.01.01.02zm-130.8 143.13c-.16-.34-.31-.37-.43.03 0 0-.05-.08-.05-.08h.51zm-107.64.16c-.03.03-.07.06-.1.09.05-.02.09-.03.14-.05 0 0-.04-.04-.04-.04zm106.48 1.2c.1-.07.2-.14.3-.21-.04-.06-.08-.15-.12-.16-.21-.02-.27.08-.17.28zm.01 0c.05.01.1.02.15.04-.05-.04-.1-.08-.15-.13.01 0-.01.09 0 .09zm209.09-96.38c.04 0 .07.01.11.01-.05-.02-.1-.03-.15-.05.01-.01.04.04.04.04zm-213.1 100.88c.04.02.07.04.11.06-.03-.05-.06-.09-.09-.14 0 0-.02.08-.02.08zm-73.25-87.06c-.59 1.67-1.44 3.2-2.37 4.69 1.23-2.2 1.08-4.33-.25-6.44-.31-.49-.36-1.14-.55-1.7-1.26-3.66-.43-7.24.46-10.8 0 .01.01.16.01.16l.02-.14c-2.21 2.01-3.88 4.38-4.85 7.21-.29.83-.66 1.73-.2 2.62 1.31 2.53 2.16 5.29 3.81 7.66.42.6.69 1.37 1.61 1.37.03 1.39 1.02 1.96 2.13 2.28 1.21.34 1.98-.45 2.65-1.32 1.17-1.52 1.74-3.34 2.47-5.07 1.03-2.44 2.15-4.83 3.81-6.92.47-.59 1.05-1.3 1.86-.57.68.61.12 1.24-.28 1.78-1.96 2.63-3.15 5.65-4.43 8.64-1.07 2.52-2.16 5.27-5.35 5.54-3.1.26-4.62-2.25-6.06-4.45-6.28-9.55-8.99-19.8-6.03-31.19 1.08-4.16 2.26-8.29 3.37-12.45 2.81-10.6 17.57-22.77 34.17-21.96 12.2.59 19.75 7.99 27.54 15.55 1.65 1.6 2.62 3.89 3.08 6.23.53 2.72-.67 4.27-3.45 4.29-2.24.01-4.04 1.11-5.94 2-.99.47-.86.99-.2 1.71 1.36 1.5 2.08 3.34 2.27 5.33.11 1.21.59 1.34 1.59 1.03 1.69-.51 3.44-.35 5.18-.35 2.75.01 3.74.7 4.32 3.56 1.46 7.18 1.01 14.23-1.54 21.16-3.34 9.06-8.17 16.8-17.39 21-8.47 3.86-16.92 4.02-25.37.07-3.44-1.61-4.64-4.06-3.62-7.77 1.13-4.09 2.76-7.99 5.97-10.95.68-.63.23-.88-.05-1.26-2.12-2.85-4.28-5.66-6.36-8.53-.75-1.04-1.7-.79-2.65-.64-1.82.29-3.45 1.01-4.83 2.25l.04.06c-1.66-5.4-.7-10.43 2.24-15.22-4.05 2.51-7.62 5.37-8.82 10.14-1.03 4.07-.77 8.01 2.05 11.45zm-5.07-21.49c.15-.19.3-.38.46-.57.06-.08.13-.16.19-.23.01.11.02.22.02.33-.07-.02-.14-.04-.21-.04-.13.2-.27.39-.39.6-.13.2-.26.39-.39.59-1.06.17-1.71.93-2.4 1.62-.56.27-1.26.44-1.08 1.39.23-.12.44-.18.59-.31.27-.24.51-.52.76-.78.84-.5 1.7-.98 2.09-1.96.36-.08.42-.32.36-.64zm-5.33 4.27c.89-1.42.88-2.89.41-4.38-.43 1.47-.75 2.94-.37 4.44zm61.62-27.64c-7.15-7.09-14.22-14.13-25.43-14.1-6.08.02-11.8.89-17.36 3.89 1.2.88 2.46.84 3.58 1.13 6.45 1.64 12.87 3.42 18.34 7.38 3.32 2.41 6.61 5.06 4.59 10.1-.35.87.48.46.87.17 2.34.73 4.93.59 7.1 1.9 1.16.7 2.05.41 3.11-.21 2.28-1.33 4.61-2.53 7.38-2.47 1.3.03 1.5-.85 1.21-1.85-.67-2.23-1.51-4.39-3.39-5.94zm.24 35.26c-.01-4.22-1.01-8.22-2.63-12.09-.38-.91-.75-1.79-.73-2.81.15-6.93-6.8-10.56-11.4-9.98-9.97 1.25-19.26 4.41-26.68 11.67-3.04 2.98-4.74 6.59-4.97 10.85-.16 2.93.12 3.14 2.86 2.36 3.4-.97 4.08-.73 6.02 2.11 2.74 3.99 5.87 7.67 8.95 11.39.74.9 1.68 1.5 2.72 1.98 6.07 2.81 11.8 1.35 17.39-1.43 5.78-2.87 8.56-7.61 8.47-14.05zm-31.14 29.37c4.17 1.94 10.8 2.11 15.87.52 9.21-2.89 15.47-8.84 19.24-17.77 3.14-7.43 4.61-14.94 3.2-22.94-.33-1.88-.91-3.14-3.16-2.83-1.11.16-2.26.03-3.39.12-1.51.13-2.16.75-1.51 2.4.63 1.6 1.1 3.29 1.47 4.99 2.7 12.46-2.45 21.33-14.58 25.2-1.22.39-2.62.48-3.65 1.15-4.47 2.91-8.85 5.98-13.49 9.16zm-15.82-66.75c-2.11.09-4.25.17-6.24.9-2.27.84-6.17 9.63-5.26 11.93 4.11 10.41 12.43 11.47 19.8 7.11.76-.45 1.69-.82 2.03-1.73 1.72-4.48 2.04-8.99-.31-13.32-2.13-3.94-5.92-4.82-10.02-4.89zm-5.18-.42c15.08-2.45 19.48 6.18 16.89 18.12 3.57-1.95 7.28-3.15 10.87-4.63 4.16-1.72 4.45-4.94 1.03-7.83-1.62-1.37-3.45-2.43-5.37-3.31-5.44-2.49-11.16-4.11-16.99-5.36-3.56-.77-4.51-.31-6.43 3.01zm4.31-4.37c1.12.28 1.84.47 2.57.63 5 1.14 9.94 2.5 14.69 4.44 3.22 1.32 6.32 2.86 8.82 5.37 1.9 1.91 2.07 3.39.67 5.63-.17.27-.67.49-.22.91 3.69-.51 5.32-4.12 3.17-7.17-1.5-2.13-3.54-3.68-5.81-4.94-6.27-3.49-13.1-5.28-20.06-6.7-1.61-.32-2.49.63-3.83 1.83zm24.69 63.61c-.04-.2-.08-.4-.12-.59-4.04.12-8.07.17-12.09-.29-.39-.04-.71.09-.99.4-1.2 1.33-1.3 4.93.01 6.16.93.88 1.97 2.02 3.52.95 3.22-2.23 6.44-4.43 9.67-6.63zm-37.42-19.23c2.3-5.88 7.09-9.43 11.64-13.01-5.89-3.4-8.82 1.44-11.95 4.47-2.4 2.33-.81 5.64.31 8.54zm42.59 16.16c-5.55.08-10.3-1.47-13.56-6.41-1.24 2-2.27 3.75-3.39 5.44-.95 1.44-.47 1.93 1.09 2.01 5.32.28 10.65.65 15.86-1.04zm-41.16-41.71c-.49 1.37-1.36 2.54-.61 3.95 1.37 2.58 3.09 4.82 5.72 6.22 3.38 1.79 7.32 1.34 9.87-1.31-7.47 1.07-11.76-2.9-14.98-8.86zm-1.13 4.8c-1.69 3.01.13 5.53.02 8.53 1.41-1.07 2.42-1.85 3.44-2.61.55-.41.9-.81.17-1.4-1.46-1.2-2.47-2.8-3.63-4.52zm12.93 22.26c-.81.59-1.58 1.21-1.81 2.27l-.04-.06c.75-.63 1.5-1.26 1.78-2.27zm-2.26 2.72c-.37.2-.48.52-.44.92l-.04-.06c.4-.19.44-.53.42-.91zm-.91 1.36c-.15.3-.3.61-.45.91l-.06-.06c.47-.15.43-.54.43-.91zm-.44.91c-.45.16-.46.54-.46.93 0 0-.05-.03-.05-.03.38-.21.45-.57.46-.96zm4.03-5.5c-.16.15-.32.3-.49.46 0 0 .07.05.07.05.15-.15.31-.3.46-.45zm-2.22 2.79c-.15.15-.31.3-.46.44 0 0-.07-.06-.07-.06.31.01.43-.19.49-.45zm-.9 1.36c-.31-.01-.42.18-.46.44 0 0-.07-.06-.07-.06.32.02.43-.18.49-.44zm36.93-22.73c3.31.06 5.87.5 7.21 3.12 1.36 2.66.49 5.2-1.19 7.39-3.69 4.82-8.59 7.55-14.72 7.5-6.09-.05-8.64-4.82-5.29-9.92 3.41-5.2 8.48-7.69 13.99-8.09zm-.12 14.88c-.48-.04-.96-.08-1.45-.12-.03.08-.05.16-.08.24-.06-.04-.11-.07-.17-.11.08-.04.17-.09.27-.13.47.02.95.04 1.41.03.06-.36.12-.71.18-1.07.37.19.74.38 1.08-.04.36-.18.33-.46.2-.76.69.48 1.13-.04 1.57-.42 1.5-1.29 2.7-2.83 3.41-4.7 1.25-3.27.02-5.68-3.35-6.52-2.66-.67-5.19-.24-7.62 1-.22.22-.43.45-.65.67-.46.07-.99-.28-1.36.26-.4.06-.8.12-1.2.18-.33.4-.66.8-1 1.2-2.31.89-3.61 2.79-4.68 4.86-1.31 2.54-1.04 4.78.6 6.17 1.79 1.52 5.5 1.79 7.51.55.68.31 1.24.16 1.67-.46.11.01.22.03.33.04-.11-.02-.21-.04-.32-.06-.55.17-1.1.34-1.64.51-.45.03-.9.07-1.35.09-2.48.11-4.81-.39-5.89-2.83-1.09-2.48 0-4.66 1.69-6.58.68-.78 1.64-1.31 2.06-2.32.69-.08 1.07-.44 1.03-1.16.41.06.87.39 1.16-.22.47-.07.94-.14 1.4-.21.2-.24.4-.48.6-.72 1.87-.12 3.71-.62 5.61-.39 3.84.47 5.61 3.55 3.97 7.06-.78 1.67-1.94 3.04-3.51 4.04-.05.27-.11.54-.16.82-.39-.01-.77-.02-1.16-.02-.06.36-.11.74-.16 1.12zm-7.05.45c4.29-.45 7.92-2.19 10.47-5.81.99-1.4 1.61-2.98.73-4.66-.87-1.67-2.54-2.16-4.23-2.08-4.55.21-8.26 2.14-10.84 5.94-.95 1.4-1.57 2.99-.52 4.65 1 1.59 2.68 1.79 4.39 1.96zm-22.66-3.28c.12.54-.11 1.44.68 1.46.89.02.62-.86.61-1.41-.02-1.46.25-2.84.87-4.17 1.49-3.17 3.92-5.5 6.69-7.52 4.23-3.1 8.97-5.22 13.83-7.1.54-.21 1.37-.32 1.18-1.08-.15-.6-.86-.4-1.35-.21-6.3 2.39-12.43 5.12-17.4 9.83-2.72 2.59-4.9 5.55-5.11 9.53-.01.22-.05.46 0 .67zm7.45-4.57c-.16.25-.33.52-.41.8-.14.48-.49 1.09.21 1.35.55.2.74-.37.94-.76 1.29-2.62 3.2-4.73 5.41-6.59 4.17-3.49 9-5.72 14.16-7.31 1.51-.47 3.04-.86 4.56-1.3.37-.11.72-.31.62-.78-.11-.48-.52-.45-1.29-.4-9.3 2.56-18.52 5.89-24.2 14.99zm-5.08 3.79c-.17.29-.02.77.22.75 3.26-.34 3.51 2.61 4.67 4.4 3.22 4.95 6.54 9.79 11.14 13.6.41.34.94 1.09 1.49.42.54-.65-.22-1.05-.67-1.41-2.07-1.66-3.84-3.61-5.51-5.67-2.62-3.24-4.78-6.78-6.91-10.33-.71-1.18-1.6-2.21-3.01-2.45-.65 0-1.13.19-1.42.69zm24.9-22.54c5.62-2.07 10.68-5.13 15.49-8.66-5.85 1.67-11.07 4.45-15.49 8.66z"/></svg>