<svg enable-background="new 0 0 430 266" viewBox="0 0 430 266" xmlns="http://www.w3.org/2000/svg"><path d="m65.91 1v.18l.11-.18zm283.16 75.61c3.4-.5 6.83-.59 10.26-.74l1.55-.07c.44-.02.88-.05 1.32-.08.16-.01.3-.01.43 0h.03l2.1-.1v-8.28l-1.81-.57h-.01c-.28-.06-.67-.19-1.2-.37-.05-.02-.11-.04-.16-.06-.03-.01-.06-.02-.08-.03-9.92-3.43-19.46-7.87-29.35-11.34-.4-.14-.78-.41-1.11-.69-13.36-11.47-28.27-20.79-42.66-30.83-8.23-5.74-16.57-11.33-24.87-16.98-1.29-.88-2.53-1.83-3.62-2.93-.43.03-.9.05-1.35.05 1.46 1.73 3.36 3.01 5.24 4.28 18.09 12.23 36.11 24.57 53.94 37.18 3.26 2.31 6.32 4.92 9.46 7.41.36.28.9.45.88 1.21-4.71-1.15-9.43-2.07-14.2-2.74-4.4-.61-8.8-1.27-13.26-1.23-2.73.03-4.03.94-4.46 3.61-.72 4.48-4.4 6.46-7.34 9.08-.39.35-.96.19-1.44.17-2.09-.09-4.17-.18-6.25-.35-.59-.05-1.77.27-1.49-.88.23-.94-.06-2.54 1.73-2.48 2.42.09 4.83.12 7.24.32 1.48.12 1.95-.32 1.75-1.83-.58-4.46-1.07-8.93-1.56-13.4-.08-.7-.25-1.24-.87-1.66-16.43-11.1-33.16-21.66-51.51-29.4-8.27-3.49-16.99-5.1-25.81-6.27-20.11-2.65-40.35-3.23-60.6-3.55-.99-.01-1.98-.09-2.96-.07-2.49.03-3.28 1.04-2.6 3.45.42 1.48.94 2.93 1.55 4.33 6.62 15.24 13.86 30.2 20.9 45.26.45.96 1.05 1.2 2.04 1.22 18.28.21 36.55.45 54.83.7 13.66.18 27.33.41 41 .57 1.48.02 1.57.4.87 1.56-1.72 2.87-3.25 5.85-4.62 8.91-.44.98-1.02 1.24-2.03 1.16-19.26-1.7-38.59-1.81-57.89-2.32-11.47-.3-22.92-.84-34.39-1.24-.92-.03-1.51-.36-2.08-1.05-2.86-3.47-5.76-6.91-8.68-10.34-.59-.69-.99-1.41-1.16-2.3-.63-3.36-1.91-6.5-3.3-9.62-2.58-5.79-6.84-9.18-13.25-9.51-4.65-.24-9.31-.77-13.97-.17-.76.1-1.61.11-2.24.47-1.67.96-2.21.06-2.85-1.3-3.56-7.61-7.31-15.11-11.64-22.31-1.13-1.88-2.35-3.7-3.75-5.4-1.08-1.32-2.42-1.96-4.12-2.08-9.1-.62-18.2-.79-27.31-.46-.4.01-.8.08-1.23.06-.35-.01-.72-.09-1.11-.3l-4.08-1.1v2.52c.03.53-.01 1.22-.07 2.11-.63 10.36-.82 20.72-.36 31.1.47 10.65 1.76 21.21 3.43 31.72 3.7 23.18 8.43 46.16 14.38 68.88 5.1 19.46 12.24 38.21 19.74 56.83 8.38 20.8 16.96 41.53 26.04 62.04.98 2.21 2.02 4.39 3.32 6.43.25.4.36.69.27.88l.65 1.33h150.63l1.11-1.69c.05-.24.25-.46.45-.68.11-.13.23-.25.31-.39.15-.25.29-.49.43-.74 2.53-4.45 3.57-9.38 4.44-14.35 1.49-8.43 1.77-16.9.7-25.41-.1-.76-.19-1.52.09-2.28 3.73-10.4 2.56-20.63-1.12-30.74-3.41-9.36-8.67-17.47-16.54-23.73-.25-.19-.58-.34-.62-.89 2.62-.72 5.23-1.36 7.78-2.17 2.47-.78 4.84-1.82 6.75-3.64.59-.57 1.19-.42 1.83-.34 7.29.91 14.58 1.83 21.88 2.76 8.72 1.11 17.47 1.69 26.25 1.85 1.41.03 2.26.4 3.01 1.67 6.4 10.82 13.71 21.04 20.97 31.29l.07.09 3.03 4.17v-2.27l-1.33-1.61c-.04.01-.08.02-.13.03-.14-.15-.31-.29-.43-.47-.4-.57-.8-1.13-1.2-1.7-8.85-12.51-17.68-25.03-24.99-38.55-.5-.92-.98-1.84-1.44-2.78-1.11-2.28-.75-4.24 1.18-5.89 3.02-2.59 6.29-4.77 10.13-6 .92-.29 1.64-.31 2.08.59.41.85.18 1.61-.68 2.09-4.36 2.43-6.21 7.61-3.75 13.18 3.57 8.05 8.2 15.51 12.79 22.99 1.64 2.68 3.26 5.38 5.04 7.97.21.3.42.6.63.9.34.48.57.96.73 1.44l1.36 2.34v-2.46l-1.47-2.25c-.04.01-.09.02-.13.03-.95-1.54-1.9-3.07-2.86-4.61v-.01c-2.2-3.54-4.39-7.07-6.53-10.63-3.05-5.07-6.06-10.18-8.4-15.63-2.42-5.63-1.62-8.66 3.18-12.44 1.56-1.23 1.65-2.79.26-4.29-.9-.96-1.73-1.99-2.62-2.95-1.09-1.19-1.05-2.46.32-3.15 2.48-1.23 2.47-3.23 2.56-5.58.26-6.93 1.74-13.5 6.86-18.67 1.21-1.22 2.56-2.25 4.01-3.13l.03-.01c.65-.4 1.31-.76 1.99-1.09.62-.31 1.02-.49 1.28-.5l1.52-.74v-15.44l-1.44-.98h-.01c-.11 0-.27-.07-.47-.23-.37-.29-.75-.58-1.13-.86l-.07-.05c-.42-.3-.84-.59-1.27-.87-3.8-2.46-8.01-4.2-11.87-6.57-.66-.4-1.82-.77-1.6-1.61.19-.77 1.38-.62 2.17-.73zm-53.95-18.46c-.75 4.05-1.37 4.64-4.43 4.21 1.47-1.39 2.81-2.66 4.43-4.21zm-15.99 1.03c-3.63 12.2-9.62 23.28-16.19 34.08-2.17 3.56-4.46 7.04-6.71 10.56-.63.97-1.37 1.87-2.44 2.38-1.17.56-2.24.48-3.09-.6-.49-.62-.65-1.18.11-1.82 2.44-2.02 4.25-4.58 5.88-7.26 7.39-12.17 14.12-24.65 18.62-38.22 1.17-3.54 2.1-7.15 2.66-10.85.06-.43-.03-1.09.61-1.19.51-.07.93.29 1.26.67.94 1.07.94 2.41 1.04 3.5-.21 3.15-.92 5.96-1.75 8.75zm8.13 17.11c-.14-.76 0-1.07.81-.8 3.65 1.19 7.22 2.57 10.44 4.72.65.43 1.2.97 1.21 1.84 0 .8-.39 1.48-.75 2.15-3.77 7.11-7.58 14.21-11.29 21.35-.69 1.33-1.14 1.36-2.2.39-2.31-2.11-4.69-4.12-7.12-6.09-.97-.79-1.09-1.33-.28-2.35 2.49-3.13 4.77-6.42 6.76-9.9 2.02-3.52 3.2-7.21 2.42-11.31zm-94.49 91.64c.27.04.59.1.63.41.04.3-.23.46-.47.59-2.75 1.46-5.51 2.91-8.25 4.38-.58.31-.88.2-1.11-.42-.28-.74.48-5.28 1-5.87.33-.37.7-.17 1.1-.19 2.34.37 4.72.73 7.1 1.1zm-6.72-2.37c2.3.03 4.58.23 6.76 1.03-2.31.09-4.56-.33-6.76-1.03zm6.89-1.24c-2.28-.25-4.55-.71-6.81-1.14-1.09-.21-1.75-.05-2.02 1.19-.43 2.03-1.05 4.03-1.52 6.06-.15.68-.33 1.51-.1 2.1.67 1.66-.24 2.3-1.46 3.03-2.73 1.64-5.3 3.52-7.79 5.51-.41.33-.85.63-1.63 1.21.82-2.93 1.63-5.42 1.99-8.01 1.37-9.95 1.97-19.88-1.01-29.68-.37-1.2-.07-1.52 1.16-1.48 7.02.25 14.03.74 21.06.61.55-.01.94.23 1.33.54 7.24 5.76 14.83 10.95 23.44 14.48.08.03.13.16.22.27-.42.62-1.14.57-1.73.73-7.3 2.01-14.48 4.37-21.39 7.51-1.17.53-1.71.42-1.72-.92-.03-1.33-.68-1.86-2.02-2.01zm-39.94 43.07c-.4 1.02-.89 2-1.34 2.99-.02.04-.09.05-.3.16-.61-2.79-1.12-5.46-1.78-8.11-2.28-9.11-6.96-17.12-11.61-25.15-7.43-12.82-15.79-25.05-23.94-37.42-4.53-6.87-8.73-13.95-11.49-21.77-.4-1.14-.67-2.31-1.05-3.46-1.24-3.75-.27-7.02 2.14-9.97 2.71-3.32 6.1-5.65 10.21-6.9 4.66-1.43 8.88-.45 12.75 2.36 2.98 2.17 5.21 5.01 7.2 8.06 4.08 6.27 7.33 12.98 10.65 19.66 5.12 10.31 10.85 20.32 15.09 31.06 3.51 8.89 6.46 17.94 7.58 27.5.11.97-.06 1.7-.75 2.37-.71.69-1.31 1.5-2.07 2.12-5.38 4.4-8.82 10.12-11.29 16.5zm9.68-12.67c17.57-5.7 35.24-11.03 53.35-14.8 4.99-1.04 10.03-1.88 15.16-1.79 1.31.02 2.64.14 3.92.38 4.19.79 6.16 3.2 6.28 7.58.03.98 0 1.97 0 2.96-.05 3.24-.16 6.46-.91 9.64-.8 3.39-2.71 5.54-6.18 6.5-15.2 4.22-30.4 8.49-45.56 12.86-12.42 3.58-24.8 7.34-37.19 11.02-.47.14-.94.29-1.42.42-.56.16-.91 0-.72-.63 1.31-4.14.55-8.56 1.66-12.69 1.92-7.18 4.62-14.04 9.32-19.95.61-.73 1.36-1.2 2.29-1.5zm3.99-16.79c-2.95-12.87-8.06-24.91-14.18-36.55-5.36-10.2-10.16-20.69-15.92-30.67-1.76-3.05-3.71-5.97-6.13-8.55-9-9.58-24.21-6.94-29.62 5.13-.96 2.14-1.06 4.31-.54 6.58 1.64 7.16 5.05 13.54 8.71 19.8 5.68 9.72 12.44 18.74 18.41 28.27 5.89 9.39 11.79 18.77 16.73 28.71 3.4 6.84 5.42 14.11 6.32 21.69.05.43.15.91.04 1.31-1.2 4.32-.7 8.85-1.63 13.2-.19.9-.51 1.79-.84 2.66-.13.35-.41.72-.87.56-.41-.13-.29-.53-.25-.84 1.04-11.36-2.82-21.33-8.56-30.83-6.06-10.02-12.89-19.49-19.84-28.9-11.82-16.02-21.64-33.28-31.34-50.62-2.76-4.94-3.65-10.29-4.86-15.6-2.38-10.42-4.6-20.88-6.88-31.33-.51-2.33-.5-2.26 1.83-2.5 2.69-.27 5.07.19 7.49 1.62 5.28 3.13 10.76 5.97 16.83 7.32 4.97 1.11 7.97-1.04 8.65-6.09.26-1.96.39-3.93.14-5.91-.05-.4-.33-.96.17-1.19.46-.22.79.29 1.12.54 6.48 4.89 12.2 10.57 17.05 17.07 9.02 12.12 18.9 23.54 28.22 35.41 6.07 7.73 11.24 15.94 14.37 25.35 2.6 7.83 2.69 15.85 2.12 23.93-.39 5.44-1.19 10.8-3.47 15.82-.32.7-.69 1.37-1.05 2.05-.1.18-.27.32-.6.71-.6-2.9-1.03-5.54-1.62-8.15zm-20.68 50.32c-.05 1.59-.54 2.2-2.2 2.18-6.59-.09-13.16-.54-19.73-.89-1.39-.07-1.64-1.01-2.02-1.99-6.96-18.29-13.87-36.61-20.91-54.87-6.55-16.98-11.44-34.43-14.98-52.27-.07-.35-.32-.7-.09-1.08.42.09.51.42.66.71 11.65 21.89 25.06 42.65 39.92 62.5 5.78 7.73 10.98 15.89 15.22 24.61 3.23 6.68 4.34 13.74 4.13 21.1zm-27.91-158.55c-2.74-2.35-5.16-4.3-7.66-6.14-.81-.59-.54-1.63-.7-2.46-.73-3.64-.7-3.64 2.94-3.57 1.04.02 2.09.01 3.13.04 2.1.05 3.29 1.52 2.74 3.51-.77 2.67-.74 5.4-.45 8.62zm-8.68.21c0 1.49-.2 2.96-.72 4.36-1.2 3.28-4.28 4.4-7.32 2.64-1.4-.81-2.46-2-3.53-3.19-4.21-4.72-7.94-9.81-11.68-14.9-4.91-6.68-10-13.23-15.44-19.48-1.27-1.46-1.66-2.99-1.64-4.8.01-.96.3-1.37 1.3-1.43 2.96-.16 5.91-.4 8.59-.58 4.49.21 8.76 0 12.74 1.77 6.36 2.83 10.98 7.47 13.55 13.92 2.79 6.94 4.13 14.2 4.15 21.69zm-39.81-30.21c10.57 11.57 18.69 24.92 29.07 36.56-.78.25-1.29-.15-1.83-.36-4.57-1.76-8.9-4.01-13.1-6.49-1.44-.85-2.81-1.19-4.49-1.02-4.45.46-4.5.4-5.4-3.94-1.57-7.51-3.28-14.98-4.3-22.59-.08-.64-.27-1.28.05-2.16zm67.28 20.97c2.14 7.02 5.63 13.43 8.94 19.93 7.04 13.8 15.55 26.72 23.62 39.91 1.03 1.68 2.02 3.39 3.04 5.08.47.78.58 1.34-.65 1.24-2.3-.18-4.59-.35-6.89-.51-.64-.04-1.1-.29-1.49-.84-8.37-11.98-18.12-22.86-27.13-34.34-5.27-6.73-10.2-13.73-16.36-19.75-1.63-1.59-1.19-4.26-1.08-6.47.12-2.42.85-4.73 1.77-6.98 2.17-5.29 6.38-7.37 11.48-7.71.84.05 1.4.05 1.94.13 2.22.32 2.39.67 2.04 2.85-.4 2.53.03 5.02.77 7.46zm63.16 69.05c.58.04 1.38-.16 1.65.44.23.5-.42.94-.75 1.37-1.24 1.6-2.55 3.16-3.76 4.78-.83 1.11-1.82 1.58-3.22 1.56-7.73-.09-15.45-.49-23.17-.83-.89-.04-1.46-.51-1.4-1.26.07-.87.95-.47 1.45-.47 5.2-.04 10.41.43 15.62.05 2.01-.14 3.87-1.68 4.36-3.61.33-1.31-.36-1.78-1.53-1.95-3.58-.53-7.19-.76-10.79-.99-4.1-.26-8.21-.46-12.31-.69-.36-.02-.79.04-1.2-.75 2.56.15 4.94.27 7.33.43 9.25.63 18.49 1.27 27.72 1.92zm-23.25-6.81c-5.89-12.21-13.34-23.57-20.09-35.31-.98-1.71-1.97-3.43-2.89-5.16-.49-.92-.93-1.88-1.25-2.86-1.33-4.06.54-6.58 4.95-6.58 1.7-.09 3.14.73 4.34 2.05 1.76 1.92 2.99 4.19 4.25 6.44 8.06 14.28 14.23 29.4 19.91 44.73.57 1.54.47 1.64-1.23 1.49-.33-.03-.67-.15-.98-.1-3.84.63-5.46-1.49-7.01-4.7zm33.97 9.61c5.21-1.52 10.45-2.95 15.85-3.66 2.59-.34 5.16-.24 7.65.55 2.81.9 4.25 4.09 3.14 6.82-.4 1-1.3 1.45-2.23 1.82-1.75.7-3.61 1-5.45 1.18-4.61.44-9.08 1.52-13.47 2.92-.96.31-1.77.24-2.65-.27-3.61-2.06-7.21-4.15-10.96-6.74 2.86-1.15 5.5-1.85 8.12-2.62zm-14.36 9.2c-.11-1.77-.11-2.92.86-4.01 1.66-1.88 3.15-3.9 4.73-5.84.36-.45.58-1.06 1.51-1.09-1.39 4.07-4.26 7.19-7.1 10.94zm30.96-1.17c2.5-.29 5.02-.54 7.44-1.29 2.72-.84 3.75-2.01 3.84-4.27.13-3.34-.98-5.39-3.6-6.36-3.07-1.14-6.26-1.09-9.43-.64-6.7.97-13.15 2.93-19.61 4.89-.61.18-1.19.54-1.87.4.55-3.77.55-3.77-3-4.69.03-.51.49-.55.8-.7 9.85-4.66 19.97-8.49 30.8-10.22 9.28-1.48 18.12.09 26.64 3.84 1.71.76 3.26 1.8 4.54 3.21.5.55.74.96-.06 1.57-.86.65-1.05 1.78-1.35 2.76-.9 3-1.78 5.99-2.57 9.01-.25.97-.65 1.3-1.68 1.32-11.87.15-23.5 1.97-34.8 5.56-2.83.9-4.62-.43-7.12-1.66 3.88-1.33 7.38-2.3 11.03-2.73zm-33.45 2.13c-3.24.02-6.48 0-9.71-.1-3.62-.11-7.24-.34-10.85-.52-1.27-.07-3.09-2.36-2.77-3.55.2-.78.9-.43 1.39-.4 3.62.15 7.24.33 10.86.51v.27c3.73 0 7.46.01 11.19 0 .77 0 1.55.01 1.3 1.09-.25.99.63 2.68-1.41 2.7zm-23.85-8.36c-1.04.01-1.79-.27-2.18-1.32-.48-1.27-2.13-2.65-1.6-3.57.6-1.03 2.51-.16 3.83-.11 6.09.25 12.16.61 18.21 1.35 1.72.21 1.87.6.86 2.05-.81 1.16-1.83 1.77-3.32 1.72-2.64-.08-5.27-.02-7.91-.02v-.11c-2.62 0-5.25-.03-7.89.01zm27.13 9.49c-.64-.5-.57-.87-.08-1.45 1.39-1.7 2.76-3.41 4.04-5.2.65-.92 1.13-1.01 2.09-.37 5.82 3.83 11.86 7.29 18.24 10.12 4.32 1.92 8.82 2.99 13.52 3.18 1.4.06 1.63.54 1.34 1.82-.9 4.03-.87 4.02-4.82 4.8-2.85.56-5.69 1.17-8.53 1.76-.11.02-.22.03-.54.07-.33-.09-.87-.2-1.38-.39-8.88-3.25-16.49-8.61-23.88-14.34zm29.72 4.02c-1.11-.26-2.17-.75-3.25-1.15-.18-.07-.34-.21-.52-.32.33-.67.96-.63 1.44-.77 10.47-3.06 21.15-4.81 32.05-5.22.49-.02.99 0 1.48.01.81.01.9.34 1.02 1.19.26 1.99.14 3.82-.75 5.61-.28.56-.45 1.08-1.2 1.15-10.11 1.01-20.22 1.87-30.27-.5zm30.78 4.27c.8-2.26 1.61-4.52 2.42-6.78.17-.47.37-.98 1.04-.7.41.18 1.01.18 1.04.94-.08.18-.18.44-.28.69-.93 2.15-1.85 4.31-2.79 6.45-.24.54-.51 1.3-1.23 1.05-.92-.31-.4-1.06-.2-1.65zm3.77-8.45c-1.45-.61-1.54-1.54-1.17-2.9 1.11-4.12 2.11-8.27 3.51-12.31.39-1.13 1.04-1.77 1.69-1.68 2.43.22 4.19.61 5.61 1.86 1.12.99 1.44 2.18.67 3.53-2.08 3.61-4.14 7.22-6.28 10.79-1.03 1.71-1.64 1.71-4.03.71zm2.16 1.88c2.16-.25 2.74-2.05 3.62-3.49 1.82-3 3.53-6.07 5.27-9.13 1.23-2.16.82-3.99-1.2-5.43-.53-.38-1.12-.85-1.73-.91-2.64-.31-4.3-2.01-6.2-3.66-3.88-3.36-8.84-4.45-13.71-5.63-10.26-2.49-20.15-.56-29.95 2.46-6.46 1.99-12.74 4.47-18.75 7.54-2.13 1.09-4.2 1.36-6.48 1.12-3.93-.41-3.83-.37-3.42-4.26.52-4.92.71-9.86-.32-14.75-.25-1.22.02-1.55 1.23-1.5 2.13.07 4.27.02 6.41.02 6.36.47 12.71.88 19.07 1.23 7.09.39 14.07 1.52 21 2.95 5.22 1.08 9.67.07 13.38-3.84.22-.23.49-.54.77-.59 2.56-.43 3.88-2.31 5.13-4.28.36-.57.78-1.05 1.43-1.3 4.97-2.01 10.01-3.61 15.5-3.05.85.09 1.58.3 2.24.87 2.82 2.44 5.64 4.88 8.52 7.26.79.65.87 1.2.43 2.09-3.87 7.8-5.33 16.2-6.23 24.75-.24 2.29-.47 4.58-.63 6.88-.05.8-.42 1.19-1.11 1.42-4.73 1.6-9.45 3.21-14.17 4.81-.31.1-.82.25-.86-.09-.05-.58.18-1.43.76-1.49zm-14.62-42.02c.03 1.19.34 2.35 1.27 3.11 1.03.83.51 1.27-.18 1.88-3.06 2.74-6.59 3.44-10.56 2.72-6.63-1.2-13.24-2.5-20-2.94-7.83-.51-15.66-.94-23.49-1.24-1.81-.07-3.84.29-5.36-.41-1.62-.75-1.46-3.1-2.2-4.71-1.24-2.69-2.48-5.38-3.97-7.94-.53-.91-.56-1.32.71-1.31 5.21.04 10.42.02 15.63.02 7.67.47 15.35.72 23 1.43 8.19.76 16.32 1.96 24.43 3.31.97.16 1.16.68.97 1.5-.33 1.51-.28 3.04-.25 4.58zm30.99 37.61c.72-8.47 1.46-16.93 4.18-25.07 1.95-5.85 5.01-11.19 7.84-16.63 1.8-3.45 3.66-6.87 5.43-10.33.55-1.07.9-1.43 1.91-.35 3.24 3.46 6.95 6.37 10.96 8.89.86.54 1.01.88.25 1.7-12.43 13.44-19.82 29.57-24.91 46.91-.12.42-.23.84-.36 1.26-.03.1-.14.16-.36.41-1.58-1.91-3.14-3.79-4.7-5.69-.27-.32-.27-.71-.24-1.1zm5.4-56.95c-2.15 4.91-5.37 9.15-8.6 13.37-.38.5-.83.68-1.42.58-4.98-.75-9.69.43-14.31 2.13-.35.13-.68.37-1.12.14-.01-.71.51-1.17.84-1.7 5.16-8.23 10.06-16.58 14.1-25.42.46-1.01.91-1.43 2.1-1.05 2.5.8 5.05 1.46 7.59 2.12.9.23 1.35.76 1.59 1.63.78 2.85.37 5.59-.77 8.2zm-19.71-26.55c-17.72-.28-35.45-.54-53.18-.79-14.05-.2-28.1-.39-42.15-.5-1.66-.01-2.49-.53-3.21-2.06-6.56-14.13-13.32-28.16-19.6-42.42-.84-1.91-1.61-3.84-2.2-5.85-.42-1.41.16-2 1.46-2.03.93-.03 1.86.16 2.78.16 11.8-.03 23.6.34 35.38 1.1 14.12.91 28.25 1.89 42.02 5.51 9.13 2.4 17.51 6.66 25.78 11.09 11.62 6.22 22.75 13.24 33.66 20.64.94.64 1.39 1.36 1.49 2.53.35 3.82.8 7.64 1.29 11.44.17 1.34-.23 1.79-1.56 1.61-.75-.11-1.53-.02-2.3-.02-1.42-.13-3.24.4-4.16-.46-1.04-.97.23-2.6.37-3.97.18-1.8.5-3.6.03-5.39-.77-2.96-3.72-4.14-6.35-2.56-1.3.78-2.22 1.95-3.07 3.17-1.7 2.43-3.12 5.04-4.54 7.64-.44.84-.99 1.17-1.94 1.16zm5-4.52c.79-1.32 1.6-2.63 2.49-3.88.57-.8 1.26-1.52 1.96-2.2.46-.43 1.09-1.08 1.7-.68.49.33.14 1.13.04 1.71-1.13 6.4-3.11 12.55-5.67 18.51-4.49 10.45-9.75 20.51-15.82 30.13-1.2 1.91-2.5 3.75-4.14 5.31-.29.28-.55.84-1.05.61-.47-.22-.18-.78-.25-1.17.23-2.04.47-4.05 1.18-5.98 5.41-14.64 11.48-28.97 19.56-42.36zm-87.71 15.07c14.31.6 28.63.96 42.96 1.23 10.87.2 21.71.92 32.55 1.65 1.28.09 1.31.52.86 1.53-3.39 7.56-6.48 15.24-9.32 23.02-.33.89-.82 1.01-1.63.87-8.21-1.44-16.46-2.59-24.77-3.37-6.94-.65-13.91-.88-20.87-1.11-6.03-.2-12.07-.25-18.11-.37-.77-.01-1.47.03-1.97-.82-4.6-7.89-10.02-15.2-15.68-22.35-.13-.16-.2-.36-.44-.83 5.69.18 11.06.32 16.42.55zm-28.02-8.8c.2-.9.28-1.83.48-3.21 1.48 1.73 2.69 3.12 3.88 4.54 9.38 11.2 18.25 22.75 25.38 35.59 5.31 9.54 6.82 19.56 5.07 30.2-.1.59.11 1.39-.92 1.45-.96.06-1.31-.46-1.61-1.28-2.97-8.08-6.12-16.09-9.52-24-3.5-8.12-7.54-15.97-11.88-23.67-.94-1.67-1.98-3.3-3.31-4.7-2.25-2.38-5.83-3-8.76-1.53-2.22 1.11-3.11 3.34-2.45 6.19.43 1.89 1.31 3.6 2.28 5.27 6.13 10.53 12.29 21.03 18.37 31.58 1.75 3.04 3.3 6.19 4.87 9.33.29.58 1.29 1.47.38 1.91-.81.4-2.06.34-2.93-.45-.16-.14-.25-.36-.36-.55-6.95-12.08-14.89-23.56-21.67-35.74-4.38-7.86-8.65-15.77-12.26-24.03-1.41-3.23-2.6-6.53-3-10.05-.14-1.3-.45-3.06.64-3.67.91-.51 1.75 1.13 2.55 1.89 2.03 1.93 3.95 3.97 5.98 5.9.75.71 1.62 1.32 2.51 1.85 2.98 1.74 5.53.59 6.28-2.82zm-12.49-23.75c2.03.62 3.84 1.71 5.11 3.42 4.04 5.46 6.44 11.53 6.6 18.39.03 1.23-.24 2.4-.96 3.42-.97 1.37-2.09 1.48-3.32.36-.7-.64-1.14-1.46-1.57-2.29-2.51-4.8-4.88-9.68-7.75-14.3-2.28-3.67-4.61-7.31-8.27-9.93 3.49-.23 6.87-.07 10.16.93zm-8.79 1.66c.7.61 1.34 1.3 1.95 2.01 3.1 3.67 10.01 15.64 11.82 20.52-.99-.39-1.52-1.04-2.09-1.61-2.03-2-4.04-4.03-6.04-6.06-2.46-2.51-5.42-3.33-8.86-2.76-4.74.79-8.41 2.99-10.45 7.52-.72 1.59-.87 1.6-1.96.2-2.91-3.75-3.33-7.99-2.42-12.49.16-.8.37-1.6.61-2.39 2.46-8.11 11.03-10.54 17.44-4.94zm-64.61-19.4h.38c0-4.22.02-8.45-.01-12.67-.01-1.21.38-1.72 1.72-1.72 9.05.04 18.1-.22 27.15.33 2.45.15 4.22 1.02 5.64 3.04 4.14 5.91 7.36 12.33 10.63 18.73 1.44 2.83 2.78 5.72 4.19 8.57.33.68.4 1.15-.18 1.88-4.53 5.68-5.52 12-3.06 18.83.65 1.79.75 1.76-1.17 1.71-1.37-.04-2.74-.16-4.11-.13-1.07.03-1.54-.33-1.76-1.42-.67-3.23-1.64-6.38-3.22-9.29-3.96-7.27-9.7-12.31-18.07-13.68-5.44-.89-10.95-.45-16.42.03-1.32.11-1.75-.17-1.73-1.52.07-4.24.02-8.46.02-12.69zm64.22 244.43c-3.06-5.29-5.38-10.92-7.75-16.52-9.62-22.84-19.25-45.67-28.22-68.78-9.49-24.47-16.09-49.73-21.34-75.38-2.91-14.23-5.51-28.52-7.49-42.92-2.22-16.14-2.75-32.35-1.84-48.61.12-2.24.27-4.49.43-6.73.04-.58-.08-1.37.82-1.31.95.06.62.89.61 1.42-.11 7.02-.15 14.05-.41 21.07-.43 11.48 1.02 22.74 3.42 33.95 5.55 25.88 11.25 51.74 17.09 77.56 3.53 15.61 9.1 30.56 14.82 45.46 8.71 22.67 17.34 45.37 26.01 68.06 1.79 4.69 4 9.15 6.99 13.19.18.26.33.54.58.95-1.8.58-2.88.05-3.72-1.41zm154.23-6.16c-.77 2.47-1.86 4.8-3.49 6.85-.53.67-1.09.98-1.95.95-1.26-.05-2.52-.01-3.79-.01-45.83 0-91.66-.01-137.5.04-1.62 0-2.63-.49-3.55-1.77-2.57-3.59-4.67-7.43-6.28-11.53-2.43-6.17-4.76-12.38-7.2-18.56-.54-1.36-.27-1.73 1.17-1.62 3.5.27 7 .46 10.51.65.77.04 1.34.41 1.92.83 5.09 3.56 10.43 6.67 16.09 9.26 6.36 2.91 13.17 3.68 20 4.33 14.55 1.4 29.13 1.97 43.74 1.6 16.08-.4 32.11-1.5 47.94-4.51 4.09-.78 8.15-1.75 12-3.4 1.9-.82 3.5-1.99 4.87-3.56 2.94-3.38 5.37-7.08 7.36-11.08.25-.51.34-1.17 1.05-1.49.64 2.17.5 4.38.56 6.55.29 9-.75 17.85-3.45 26.47zm1.65-67.83c2.28 6.05 3.82 12.29 3.61 18.79-.37 11.39-5.09 20.95-12.77 29.16-1.42 1.52-3.4 2.2-5.32 2.86-6.62 2.28-13.5 3.37-20.4 4.28-18.86 2.49-37.82 3.21-56.82 2.63-11.62-.36-23.24-.97-34.73-2.93-4.42-.76-8.49-2.54-12.47-4.54-3.48-1.75-6.83-3.74-10.06-5.92-.43-.29-.99-.45-1.18-1.04.39-.38.85-.24 1.26-.21 4.61.31 9-.51 13.42-1.86 26.52-8.1 53.18-15.72 79.91-23.14 5.78-1.6 7.69-4.07 8.4-10.1.37-3.12.36-6.25.36-9.37-.02-6.45-2.89-9.38-9.39-9.72-6.54-.34-12.9.8-19.23 2.17-16.15 3.47-31.96 8.17-47.68 13.18-.66.21-1.29.61-1.82.53 6.69-10.65 16.8-17.17 27.79-22.54 14.55-7.12 29.87-11.8 45.95-13.75 23.61-2.88 42.69 8.96 51.17 31.52zm-2.7-30.18c-2.31 1.66-4.94 2.55-7.6 3.47-4.3 1.48-8.01 1.54-12.29-1.08-8.29-5.07-17.74-5.66-27.25-4.85-2.84.24-2.88.32-2.24-2.49.8-3.51.11-2.78 3.5-2.82 1.32-.02 2.63 0 3.95 0 3.79-.21 7.57-.39 11.33-.87 1.26-.16 1.81.09 1.18 1.44-.3.64-.52 1.33-.72 2.01-.25.85.34 1.32.92 1.76.56.43 1.1.33 1.66-.04 1.11-.73 1.44-1.96 1.78-3.07.63-2.11 1.96-3.14 4.04-3.78 4.62-1.41 9.16-3.04 13.71-4.62.67-.23 1.1-.2 1.56.37 1.48 1.84 3.01 3.64 4.52 5.45.3.36.44.74.42 1.21-.11 2.13.57 4.02 1.9 5.64.79.96.54 1.61-.37 2.27zm47.7-10.13c-.98 1.43-.74 3.16.09 4.71 1.35 2.51 2.67 5.04 4.08 7.52.57 1.01.58 1.44-.76 1.4-9.1-.3-18.19-.87-27.23-2.02-6.25-.79-12.5-1.6-18.75-2.44-1.14-.15-2.46.15-3.32-.98-1.37-1.82-2.58-3.7-2.31-6.15.32-2.91 1.19-5.68 2.12-8.44 4.69-14.04 10.93-27.27 20.6-38.67 1.13-1.34 2.09-3.28 3.65-3.65 1.5-.36 2.98 1.33 4.51 2.02.69.31 1.43.57 1.94 1.22-.43.72-1.21.92-1.82 1.35-1.17.83-2.28 1.71-3.25 2.77-3.51 3.86-3.69 7.93-.48 12.04.71.9 1.48 1.77 2.32 2.55 6.24 5.75 11.49 12.37 16.57 19.13.76 1.01 1.48 2.04 2.01 3.19.69 1.5 1.13 2.84.03 4.45zm12.81-15.96c-.25.11-.47.29-.69.46-2.22 1.67-2.39 3.01-.67 5.23 1.28 1.65 1.3 1.69-.65 2.36-2.95 1.03-5.5 2.72-7.9 4.65-.86.69-1.24.62-1.56-.44-.45-1.49-1.28-2.78-2.2-4.02-5.14-6.92-10.49-13.66-16.83-19.55-1.08-1.01-2.09-2.09-2.94-3.32-2.14-3.1-2.09-6.08.16-9.13 1.53-2.07 3.59-3.5 5.82-4.74.65-.36 1.12-.18 1.66.14 10.27 5.99 19.09 13.6 25.99 23.35.63.89.99 1.82.86 2.94.31 1-.13 1.65-1.05 2.07zm1.88-10.55c-.43 1.41-.55 2.9-.87 4.77-1.06-1.34-1.87-2.35-2.67-3.38-7.75-9.85-17.53-17.15-28.61-22.8-6.16-3.14-11.72-7.08-16.61-11.99-1.02-1.02-1.21-1.79-.45-3.08 1.9-3.23 1.43-4.66-1.84-6.51-6.14-3.46-12.93-5.1-19.62-7-2.17-.61-2.17-.57-1.38-2.62.58-1.48 1.19-2.96 1.65-4.47.31-1.04.83-1.39 1.89-1.3 3.88.35 7.78.41 11.68.39 1.87-.01 2.94-.7 3.47-2.53.59-1.99 1.24-3.98 2.31-5.8.9-1.53 1.5-1.66 2.82-.44 3.06 2.81 5.72 6.03 7.48 9.74 1.18 2.49 1.64 5.3-.78 7.91-3.11 3.34-4.36 7.68-5.25 12.08-.2 1 .04 1.73.88 2.43 4.87 4.06 10.01 7.66 15.64 10.59 4.09 2.12 8.09 4.41 12.12 6.64 6.66 3.68 12.35 8.52 17.3 14.29.8.96 1.24 1.78.84 3.08zm-34.88-42.63c1.59.86 3.15 1.74 4.76 2.57.72.37.94.8.53 1.56-.44.8-.91.3-1.35.06-1.67-.92-3.34-1.86-4.99-2.82-.3-.18-.79-.32-.58-.83.16-.38.36-.81.97-.87.17.1.42.2.66.33zm0-1.77c.16-.29.38-.54 1.04-.44 1.61.72 3.48 1.49 5.3 2.38.6.29.16.88-.01 1.31-.18.45-.53.51-.94.28-1.68-.92-3.36-1.84-5.05-2.76-.31-.17-.55-.39-.34-.77zm4.26 7.4c.11.07.16.26.23.38-.16.54-.32 1.08-1 .71-2.12-1.16-4.21-2.35-6.31-3.54-.35-.2-.4-.5-.16-.83.19-.28.43-.57.8-.36 2.15 1.19 4.3 2.41 6.44 3.64zm-1.43 1.92c.44.25.93.51.61 1.12-.37.72-.85.21-1.23 0-2.05-1.14-4.08-2.31-6.11-3.47-.33-.18-.74-.38-.48-.86.11-.21.36-.34.52-.47.31.15.51.23.7.33 2 1.11 4 2.23 5.99 3.35zm-.52 2.4c.33.18.47.47.26.82-.24.4-.55.22-.85.07-2.38-1.23-4.77-2.47-7.15-3.72-.29-.15-.59-.35-.42-.76.13-.31.33-.56.68-.6.13.05.24.07.33.13 2.39 1.35 4.77 2.7 7.15 4.06zm-.83 1.95c.25.13.43.33.4.69-.12.5-.35.88-1.01.53-2.5-1.33-5.01-2.65-7.51-3.97-.37-.2-.61-.46-.37-.91.22-.42.54-.48.95-.27 2.52 1.31 5.03 2.61 7.54 3.93zm42.19 15.89c-3.67 2.66-6.18 6.17-7.6 10.47-.22.69-.43 1.74-1.41.52-7.58-9.4-17.94-14.97-28.36-20.42-3.11-1.63-6.19-3.32-9.08-5.31-.56-.39-1.25-.66-1.55-1.35-.02-.01-.04-.01-.05-.02l.04-.02c0 .01.01.03.02.04 1.78.56 3.31 1.62 4.93 2.48 1.05.55 1.63.53 2.1-.71 1.59-4.15 3.24-8.27 4.91-12.38.38-.94.32-1.5-.72-1.9-1.89-.74-3.75-1.56-5.59-2.4-.85-.39-1.42-.26-1.95.52-2.31 3.34-4.86 6.5-7.03 9.94-.29.47-.42 1.61-1.29 1.05-.83-.54-2.2-1-1.95-2.37.84-4.59 2.41-8.88 5.54-12.48.42-.48.79-.64 1.4-.29 10.91 6.24 22.82 10.47 33.68 16.83 3.55 2.08 7.09 4.2 10.14 7 2.64 2.41 4.39 5.31 4.65 8.97.04.79-.15 1.34-.83 1.83zm-10.7-27.53c2.27 1.66 4.83 2.82 7.31 4.1 2.78 1.44 5.49 2.98 7.99 4.88 1.05.8 1.54 1.67 1.5 3.03-.1 3.4-.11 6.81 0 10.21.04 1.41-.31 2.3-1.71 2.69-.47.13-.9.4-1.32.66-.72.42-1.15.47-1.29-.57-.66-4.86-3.55-8.27-7.36-11.04-7.76-5.65-16.37-9.78-25.06-13.73-5.34-2.43-10.62-4.98-15.79-7.78-1.01-.55-1.46-1.18-1.36-2.32.27-3.17-.77-5.9-2.72-8.38-1.7-2.16-3.25-4.43-5.23-6.35-1.91-1.85-2.49-1.93-4.68-.85.25-2.2 1.12-3.05 3.4-3.02 5.56.07 11.02 1.03 16.51 1.77 11.51 1.55 21.99 6.24 32.62 10.5 4.18 1.67 8.34 3.36 12.63 4.73 1.04.33 1.42.83 1.34 1.87-.12 1.63.64 3.68-.3 4.81-.99 1.18-3.1.36-4.72.5-3.66.3-7.35.29-10.98.96-.85.15-1.88.24-2.13 1.26-.24 1.03.66 1.56 1.35 2.07zm-41.82 16.68c-1.66-1.43-3.38-2.79-4.97-4.3-1.01-.95-1.58-.87-2.43.23-3.62 4.68-5.52 10.16-7.49 15.61-.27.74.07 1.23.6 1.71 1.11.98 2.18 2 3.27 3 1.36 1.24 1.49 1.21 2.22-.51 2.2-5.16 4.58-10.2 8.98-13.94.24-.2.4-.49.55-.67.01-.63-.41-.85-.73-1.13zm-1.26 1.79c-3.83 3.41-6.02 7.89-7.98 12.49-.55 1.3-.95 1.4-1.99.43-2.8-2.6-2.84-2.56-1.52-6.1 1.47-3.96 3.07-7.84 5.6-11.28.71-.96 1.21-1.21 2.15-.29 1.13 1.1 2.4 2.07 3.6 3.11.28.24.51.53.81.85-.26.31-.43.58-.67.79zm-13.08 27.28c-.31-.86-.84-1.39-2.02-1.37-1.31.15-2.04 1.21-2.5 2.49-.47 1.3-.56 2.6.56 3.64.64.59 1.41.49 2.13.09 1.5-.81 2.41-3.25 1.83-4.85zm-2.56 4.06c-.42.2-.81 0-.97-.36-.5-1.16-.22-2.26.51-3.23.36-.48.81-1.01 1.49-.75.67.25.65.94.66 1.62-.12 1.12-.51 2.16-1.69 2.72zm4.52-14.81c-1.5-.03-2.98 1.87-3.05 3.92-.05 1.52.69 2.62 1.82 2.68 1.51.09 3.12-1.95 3.16-4.01.02-1.49-.78-2.57-1.93-2.59zm-1.06 5.49c-1.01-.06-.98-.87-.98-1.58.02-1.38 1.13-2.95 2.01-2.84.89.12.82.88.93 1.44 0 1.43-1.07 3.04-1.96 2.98zm-.21-38.88c-1.7-.04-3.18 1.37-3.21 3.07-.03 1.73 1.36 3.1 3.13 3.11 1.8 0 3.11-1.32 3.09-3.11-.03-1.69-1.34-3.03-3.01-3.07zm-.03 5.2c-1.26.02-2.05-.75-2.09-2.04-.04-1.3.74-2.08 2.01-2.1 1.28-.03 1.98.76 2.14 2.05-.13 1.23-.79 2.06-2.06 2.09zm-27.97-13.38c-1.23-.11-2.48.07-2.97 1.47-2.38 6.71-4.85 13.38-6.6 20.29-.15.6-.62 1.41.18 1.77.87.4 1.15-.56 1.59-1.06.07-.08.12-.18.18-.28 3.45-5.67 6.42-11.59 8.77-17.8.31-.82.46-1.69.66-2.43-.14-1.19-.79-1.86-1.81-1.96zm.59 2.73c-.75 2.65-1.89 5.14-3.06 7.62-1.63 3.47-3.36 6.88-5.49 10.44-.23-.81-.03-1.28.13-1.74 1.82-5.46 3.64-10.91 5.47-16.37.12-.36.22-.76.46-1.05.55-.66 1.31-.81 2.08-.48.73.32.57 1.01.41 1.58zm11.15-26.07c-.47-.24-.88-.06-1.18.29-.7.84-1.43 1.66-2.02 2.58-3.03 4.71-5.37 9.78-7.75 14.84-.93 1.98-.79 2.25 1.33 2.72.37.08.76.1 1.14.15 1.66.24 2.36-.91 3-2.09 2.51-4.72 4.22-9.73 5.49-14.9.21-.84.29-1.72.39-2.59.05-.38.01-.79-.4-1zm-1.47 5.39c-1.09 4.03-2.55 7.92-4.38 11.67-.33.69-.74 1.35-1.2 1.95-.78 1-1.83.67-2.7.25-1.07-.52-.16-1.26.08-1.78 2.1-4.58 4.27-9.13 6.92-13.43.53-.86 1.05-1.74 2.02-2.57.03 1.55-.42 2.72-.74 3.91zm87.84 11.73-.08-.03c.03.01.06.02.08.03zm.07 20.05-1.27-.86c.43.27.85.56 1.27.86zm-75.38 175.12c-.14.25-.29.49-.43.74-.08.13-.19.26-.31.39z"/></svg>